G75*
%MOIN*%
%OFA0B0*%
%FSLAX25Y25*%
%IPPOS*%
%LPD*%
%AMOC8*
5,1,8,0,0,1.08239X$1,22.5*
%
%ADD10C,0.08600*%
%ADD11C,0.00000*%
%ADD12C,0.13398*%
%ADD13C,0.08200*%
%ADD14R,0.04737X0.05131*%
%ADD15C,0.11450*%
%ADD16R,0.05131X0.04737*%
%ADD17R,0.04737X0.06312*%
%ADD18R,0.22454X0.26391*%
%ADD19R,0.05721X0.12020*%
%ADD20C,0.06800*%
%ADD21C,0.07850*%
%ADD22C,0.06343*%
%ADD23C,0.06000*%
%ADD24R,0.10249X0.10249*%
%ADD25R,0.03950X0.03950*%
%ADD26R,0.05400X0.07100*%
%ADD27R,0.00600X0.07200*%
%ADD28OC8,0.06800*%
%ADD29OC8,0.06400*%
%ADD30R,0.07898X0.07099*%
%ADD31C,0.03981*%
D10*
X0096248Y0046500D02*
X0103248Y0046500D01*
X0113248Y0036500D01*
X0113248Y0024500D01*
X0129248Y0008500D01*
X0336248Y0008500D01*
X0337248Y0008500D02*
X0368248Y0008500D01*
X0376248Y0016500D01*
X0376248Y0037500D01*
X0382248Y0043500D01*
X0398248Y0043500D01*
X0359148Y0022900D02*
X0351348Y0022900D01*
X0311148Y0022900D02*
X0303348Y0022900D01*
X0303348Y0070100D02*
X0311148Y0070100D01*
X0311148Y0092900D02*
X0303348Y0092900D01*
X0351348Y0092900D02*
X0359148Y0092900D01*
X0359148Y0070100D02*
X0351348Y0070100D01*
X0351348Y0140100D02*
X0359148Y0140100D01*
X0359148Y0162900D02*
X0351348Y0162900D01*
X0311148Y0162900D02*
X0303348Y0162900D01*
X0303348Y0140100D02*
X0311148Y0140100D01*
X0311148Y0210100D02*
X0303348Y0210100D01*
X0303348Y0232900D02*
X0311148Y0232900D01*
X0351348Y0232900D02*
X0359148Y0232900D01*
X0359148Y0210100D02*
X0351348Y0210100D01*
X0351348Y0280100D02*
X0359148Y0280100D01*
X0311148Y0280100D02*
X0303348Y0280100D01*
D11*
X0426697Y0001500D02*
X0009374Y0001500D01*
X0009178Y0001502D01*
X0008981Y0001509D01*
X0008785Y0001521D01*
X0008590Y0001538D01*
X0008395Y0001559D01*
X0008200Y0001585D01*
X0008006Y0001616D01*
X0007813Y0001651D01*
X0007621Y0001691D01*
X0007429Y0001736D01*
X0007239Y0001785D01*
X0007050Y0001839D01*
X0006863Y0001898D01*
X0006677Y0001961D01*
X0006492Y0002028D01*
X0006310Y0002100D01*
X0006129Y0002176D01*
X0005950Y0002257D01*
X0005773Y0002342D01*
X0005598Y0002431D01*
X0005425Y0002524D01*
X0005254Y0002622D01*
X0005086Y0002723D01*
X0004921Y0002829D01*
X0004758Y0002938D01*
X0004598Y0003052D01*
X0004440Y0003169D01*
X0004286Y0003290D01*
X0004134Y0003415D01*
X0003985Y0003544D01*
X0003840Y0003676D01*
X0003698Y0003811D01*
X0003559Y0003950D01*
X0003424Y0004092D01*
X0003292Y0004237D01*
X0003163Y0004386D01*
X0003038Y0004538D01*
X0002917Y0004692D01*
X0002800Y0004850D01*
X0002686Y0005010D01*
X0002577Y0005173D01*
X0002471Y0005338D01*
X0002370Y0005506D01*
X0002272Y0005677D01*
X0002179Y0005850D01*
X0002090Y0006025D01*
X0002005Y0006202D01*
X0001924Y0006381D01*
X0001848Y0006562D01*
X0001776Y0006744D01*
X0001709Y0006929D01*
X0001646Y0007115D01*
X0001587Y0007302D01*
X0001533Y0007491D01*
X0001484Y0007681D01*
X0001439Y0007873D01*
X0001399Y0008065D01*
X0001364Y0008258D01*
X0001333Y0008452D01*
X0001307Y0008647D01*
X0001286Y0008842D01*
X0001269Y0009037D01*
X0001257Y0009233D01*
X0001250Y0009430D01*
X0001248Y0009626D01*
X0001248Y0284367D01*
X0001250Y0284567D01*
X0001258Y0284766D01*
X0001270Y0284965D01*
X0001287Y0285164D01*
X0001309Y0285363D01*
X0001336Y0285560D01*
X0001368Y0285757D01*
X0001404Y0285954D01*
X0001446Y0286149D01*
X0001492Y0286343D01*
X0001543Y0286536D01*
X0001598Y0286728D01*
X0001658Y0286918D01*
X0001723Y0287107D01*
X0001793Y0287294D01*
X0001867Y0287479D01*
X0001946Y0287663D01*
X0002029Y0287844D01*
X0002116Y0288024D01*
X0002208Y0288201D01*
X0002305Y0288376D01*
X0002405Y0288548D01*
X0002510Y0288718D01*
X0002619Y0288885D01*
X0002732Y0289050D01*
X0002849Y0289212D01*
X0002969Y0289371D01*
X0003094Y0289527D01*
X0003223Y0289679D01*
X0003355Y0289829D01*
X0003491Y0289975D01*
X0003630Y0290118D01*
X0003773Y0290257D01*
X0003919Y0290393D01*
X0004069Y0290525D01*
X0004221Y0290654D01*
X0004377Y0290779D01*
X0004536Y0290899D01*
X0004698Y0291016D01*
X0004863Y0291129D01*
X0005030Y0291238D01*
X0005200Y0291343D01*
X0005372Y0291443D01*
X0005547Y0291540D01*
X0005724Y0291632D01*
X0005904Y0291719D01*
X0006085Y0291802D01*
X0006269Y0291881D01*
X0006454Y0291955D01*
X0006641Y0292025D01*
X0006830Y0292090D01*
X0007020Y0292150D01*
X0007212Y0292205D01*
X0007405Y0292256D01*
X0007599Y0292302D01*
X0007794Y0292344D01*
X0007991Y0292380D01*
X0008188Y0292412D01*
X0008385Y0292439D01*
X0008584Y0292461D01*
X0008783Y0292478D01*
X0008982Y0292490D01*
X0009181Y0292498D01*
X0009381Y0292500D01*
X0426689Y0292500D01*
X0426872Y0292498D01*
X0427054Y0292491D01*
X0427237Y0292480D01*
X0427419Y0292465D01*
X0427600Y0292445D01*
X0427781Y0292421D01*
X0427962Y0292392D01*
X0428141Y0292359D01*
X0428320Y0292322D01*
X0428498Y0292280D01*
X0428675Y0292234D01*
X0428850Y0292184D01*
X0429025Y0292130D01*
X0429198Y0292071D01*
X0429369Y0292009D01*
X0429539Y0291942D01*
X0429708Y0291871D01*
X0429874Y0291796D01*
X0430039Y0291717D01*
X0430202Y0291634D01*
X0430363Y0291547D01*
X0430521Y0291457D01*
X0430677Y0291362D01*
X0430831Y0291264D01*
X0430983Y0291162D01*
X0431132Y0291056D01*
X0431279Y0290947D01*
X0431422Y0290835D01*
X0431563Y0290718D01*
X0431702Y0290599D01*
X0431837Y0290476D01*
X0431969Y0290350D01*
X0432098Y0290221D01*
X0432224Y0290089D01*
X0432347Y0289954D01*
X0432466Y0289815D01*
X0432583Y0289674D01*
X0432695Y0289531D01*
X0432804Y0289384D01*
X0432910Y0289235D01*
X0433012Y0289083D01*
X0433110Y0288929D01*
X0433205Y0288773D01*
X0433295Y0288615D01*
X0433382Y0288454D01*
X0433465Y0288291D01*
X0433544Y0288126D01*
X0433619Y0287960D01*
X0433690Y0287791D01*
X0433757Y0287621D01*
X0433819Y0287450D01*
X0433878Y0287277D01*
X0433932Y0287102D01*
X0433982Y0286927D01*
X0434028Y0286750D01*
X0434070Y0286572D01*
X0434107Y0286393D01*
X0434140Y0286214D01*
X0434169Y0286033D01*
X0434193Y0285852D01*
X0434213Y0285671D01*
X0434228Y0285489D01*
X0434239Y0285306D01*
X0434246Y0285124D01*
X0434248Y0284941D01*
X0434248Y0009051D01*
X0434246Y0008869D01*
X0434239Y0008686D01*
X0434228Y0008504D01*
X0434213Y0008322D01*
X0434193Y0008141D01*
X0434169Y0007960D01*
X0434140Y0007780D01*
X0434107Y0007600D01*
X0434070Y0007422D01*
X0434029Y0007244D01*
X0433983Y0007067D01*
X0433933Y0006892D01*
X0433878Y0006718D01*
X0433820Y0006545D01*
X0433757Y0006373D01*
X0433691Y0006204D01*
X0433620Y0006035D01*
X0433545Y0005869D01*
X0433466Y0005704D01*
X0433383Y0005542D01*
X0433296Y0005381D01*
X0433206Y0005223D01*
X0433111Y0005067D01*
X0433013Y0004913D01*
X0432911Y0004762D01*
X0432806Y0004613D01*
X0432697Y0004466D01*
X0432584Y0004323D01*
X0432468Y0004182D01*
X0432349Y0004044D01*
X0432226Y0003909D01*
X0432100Y0003777D01*
X0431971Y0003648D01*
X0431839Y0003522D01*
X0431704Y0003399D01*
X0431566Y0003280D01*
X0431425Y0003164D01*
X0431282Y0003051D01*
X0431135Y0002942D01*
X0430986Y0002837D01*
X0430835Y0002735D01*
X0430681Y0002637D01*
X0430525Y0002542D01*
X0430367Y0002452D01*
X0430206Y0002365D01*
X0430044Y0002282D01*
X0429879Y0002203D01*
X0429713Y0002128D01*
X0429544Y0002057D01*
X0429375Y0001991D01*
X0429203Y0001928D01*
X0429030Y0001870D01*
X0428856Y0001815D01*
X0428681Y0001765D01*
X0428504Y0001719D01*
X0428326Y0001678D01*
X0428148Y0001641D01*
X0427968Y0001608D01*
X0427788Y0001579D01*
X0427607Y0001555D01*
X0427426Y0001535D01*
X0427244Y0001520D01*
X0427062Y0001509D01*
X0426879Y0001502D01*
X0426697Y0001500D01*
X0168429Y0139295D02*
X0168431Y0139453D01*
X0168437Y0139611D01*
X0168447Y0139769D01*
X0168461Y0139927D01*
X0168479Y0140084D01*
X0168500Y0140241D01*
X0168526Y0140397D01*
X0168556Y0140553D01*
X0168589Y0140708D01*
X0168627Y0140861D01*
X0168668Y0141014D01*
X0168713Y0141166D01*
X0168762Y0141317D01*
X0168815Y0141466D01*
X0168871Y0141614D01*
X0168931Y0141760D01*
X0168995Y0141905D01*
X0169063Y0142048D01*
X0169134Y0142190D01*
X0169208Y0142330D01*
X0169286Y0142467D01*
X0169368Y0142603D01*
X0169452Y0142737D01*
X0169541Y0142868D01*
X0169632Y0142997D01*
X0169727Y0143124D01*
X0169824Y0143249D01*
X0169925Y0143371D01*
X0170029Y0143490D01*
X0170136Y0143607D01*
X0170246Y0143721D01*
X0170359Y0143832D01*
X0170474Y0143941D01*
X0170592Y0144046D01*
X0170713Y0144148D01*
X0170836Y0144248D01*
X0170962Y0144344D01*
X0171090Y0144437D01*
X0171220Y0144527D01*
X0171353Y0144613D01*
X0171488Y0144697D01*
X0171624Y0144776D01*
X0171763Y0144853D01*
X0171904Y0144925D01*
X0172046Y0144995D01*
X0172190Y0145060D01*
X0172336Y0145122D01*
X0172483Y0145180D01*
X0172632Y0145235D01*
X0172782Y0145286D01*
X0172933Y0145333D01*
X0173085Y0145376D01*
X0173238Y0145415D01*
X0173393Y0145451D01*
X0173548Y0145482D01*
X0173704Y0145510D01*
X0173860Y0145534D01*
X0174017Y0145554D01*
X0174175Y0145570D01*
X0174332Y0145582D01*
X0174491Y0145590D01*
X0174649Y0145594D01*
X0174807Y0145594D01*
X0174965Y0145590D01*
X0175124Y0145582D01*
X0175281Y0145570D01*
X0175439Y0145554D01*
X0175596Y0145534D01*
X0175752Y0145510D01*
X0175908Y0145482D01*
X0176063Y0145451D01*
X0176218Y0145415D01*
X0176371Y0145376D01*
X0176523Y0145333D01*
X0176674Y0145286D01*
X0176824Y0145235D01*
X0176973Y0145180D01*
X0177120Y0145122D01*
X0177266Y0145060D01*
X0177410Y0144995D01*
X0177552Y0144925D01*
X0177693Y0144853D01*
X0177832Y0144776D01*
X0177968Y0144697D01*
X0178103Y0144613D01*
X0178236Y0144527D01*
X0178366Y0144437D01*
X0178494Y0144344D01*
X0178620Y0144248D01*
X0178743Y0144148D01*
X0178864Y0144046D01*
X0178982Y0143941D01*
X0179097Y0143832D01*
X0179210Y0143721D01*
X0179320Y0143607D01*
X0179427Y0143490D01*
X0179531Y0143371D01*
X0179632Y0143249D01*
X0179729Y0143124D01*
X0179824Y0142997D01*
X0179915Y0142868D01*
X0180004Y0142737D01*
X0180088Y0142603D01*
X0180170Y0142467D01*
X0180248Y0142330D01*
X0180322Y0142190D01*
X0180393Y0142048D01*
X0180461Y0141905D01*
X0180525Y0141760D01*
X0180585Y0141614D01*
X0180641Y0141466D01*
X0180694Y0141317D01*
X0180743Y0141166D01*
X0180788Y0141014D01*
X0180829Y0140861D01*
X0180867Y0140708D01*
X0180900Y0140553D01*
X0180930Y0140397D01*
X0180956Y0140241D01*
X0180977Y0140084D01*
X0180995Y0139927D01*
X0181009Y0139769D01*
X0181019Y0139611D01*
X0181025Y0139453D01*
X0181027Y0139295D01*
X0181025Y0139137D01*
X0181019Y0138979D01*
X0181009Y0138821D01*
X0180995Y0138663D01*
X0180977Y0138506D01*
X0180956Y0138349D01*
X0180930Y0138193D01*
X0180900Y0138037D01*
X0180867Y0137882D01*
X0180829Y0137729D01*
X0180788Y0137576D01*
X0180743Y0137424D01*
X0180694Y0137273D01*
X0180641Y0137124D01*
X0180585Y0136976D01*
X0180525Y0136830D01*
X0180461Y0136685D01*
X0180393Y0136542D01*
X0180322Y0136400D01*
X0180248Y0136260D01*
X0180170Y0136123D01*
X0180088Y0135987D01*
X0180004Y0135853D01*
X0179915Y0135722D01*
X0179824Y0135593D01*
X0179729Y0135466D01*
X0179632Y0135341D01*
X0179531Y0135219D01*
X0179427Y0135100D01*
X0179320Y0134983D01*
X0179210Y0134869D01*
X0179097Y0134758D01*
X0178982Y0134649D01*
X0178864Y0134544D01*
X0178743Y0134442D01*
X0178620Y0134342D01*
X0178494Y0134246D01*
X0178366Y0134153D01*
X0178236Y0134063D01*
X0178103Y0133977D01*
X0177968Y0133893D01*
X0177832Y0133814D01*
X0177693Y0133737D01*
X0177552Y0133665D01*
X0177410Y0133595D01*
X0177266Y0133530D01*
X0177120Y0133468D01*
X0176973Y0133410D01*
X0176824Y0133355D01*
X0176674Y0133304D01*
X0176523Y0133257D01*
X0176371Y0133214D01*
X0176218Y0133175D01*
X0176063Y0133139D01*
X0175908Y0133108D01*
X0175752Y0133080D01*
X0175596Y0133056D01*
X0175439Y0133036D01*
X0175281Y0133020D01*
X0175124Y0133008D01*
X0174965Y0133000D01*
X0174807Y0132996D01*
X0174649Y0132996D01*
X0174491Y0133000D01*
X0174332Y0133008D01*
X0174175Y0133020D01*
X0174017Y0133036D01*
X0173860Y0133056D01*
X0173704Y0133080D01*
X0173548Y0133108D01*
X0173393Y0133139D01*
X0173238Y0133175D01*
X0173085Y0133214D01*
X0172933Y0133257D01*
X0172782Y0133304D01*
X0172632Y0133355D01*
X0172483Y0133410D01*
X0172336Y0133468D01*
X0172190Y0133530D01*
X0172046Y0133595D01*
X0171904Y0133665D01*
X0171763Y0133737D01*
X0171624Y0133814D01*
X0171488Y0133893D01*
X0171353Y0133977D01*
X0171220Y0134063D01*
X0171090Y0134153D01*
X0170962Y0134246D01*
X0170836Y0134342D01*
X0170713Y0134442D01*
X0170592Y0134544D01*
X0170474Y0134649D01*
X0170359Y0134758D01*
X0170246Y0134869D01*
X0170136Y0134983D01*
X0170029Y0135100D01*
X0169925Y0135219D01*
X0169824Y0135341D01*
X0169727Y0135466D01*
X0169632Y0135593D01*
X0169541Y0135722D01*
X0169452Y0135853D01*
X0169368Y0135987D01*
X0169286Y0136123D01*
X0169208Y0136260D01*
X0169134Y0136400D01*
X0169063Y0136542D01*
X0168995Y0136685D01*
X0168931Y0136830D01*
X0168871Y0136976D01*
X0168815Y0137124D01*
X0168762Y0137273D01*
X0168713Y0137424D01*
X0168668Y0137576D01*
X0168627Y0137729D01*
X0168589Y0137882D01*
X0168556Y0138037D01*
X0168526Y0138193D01*
X0168500Y0138349D01*
X0168479Y0138506D01*
X0168461Y0138663D01*
X0168447Y0138821D01*
X0168437Y0138979D01*
X0168431Y0139137D01*
X0168429Y0139295D01*
X0030634Y0277091D02*
X0030636Y0277249D01*
X0030642Y0277407D01*
X0030652Y0277565D01*
X0030666Y0277723D01*
X0030684Y0277880D01*
X0030705Y0278037D01*
X0030731Y0278193D01*
X0030761Y0278349D01*
X0030794Y0278504D01*
X0030832Y0278657D01*
X0030873Y0278810D01*
X0030918Y0278962D01*
X0030967Y0279113D01*
X0031020Y0279262D01*
X0031076Y0279410D01*
X0031136Y0279556D01*
X0031200Y0279701D01*
X0031268Y0279844D01*
X0031339Y0279986D01*
X0031413Y0280126D01*
X0031491Y0280263D01*
X0031573Y0280399D01*
X0031657Y0280533D01*
X0031746Y0280664D01*
X0031837Y0280793D01*
X0031932Y0280920D01*
X0032029Y0281045D01*
X0032130Y0281167D01*
X0032234Y0281286D01*
X0032341Y0281403D01*
X0032451Y0281517D01*
X0032564Y0281628D01*
X0032679Y0281737D01*
X0032797Y0281842D01*
X0032918Y0281944D01*
X0033041Y0282044D01*
X0033167Y0282140D01*
X0033295Y0282233D01*
X0033425Y0282323D01*
X0033558Y0282409D01*
X0033693Y0282493D01*
X0033829Y0282572D01*
X0033968Y0282649D01*
X0034109Y0282721D01*
X0034251Y0282791D01*
X0034395Y0282856D01*
X0034541Y0282918D01*
X0034688Y0282976D01*
X0034837Y0283031D01*
X0034987Y0283082D01*
X0035138Y0283129D01*
X0035290Y0283172D01*
X0035443Y0283211D01*
X0035598Y0283247D01*
X0035753Y0283278D01*
X0035909Y0283306D01*
X0036065Y0283330D01*
X0036222Y0283350D01*
X0036380Y0283366D01*
X0036537Y0283378D01*
X0036696Y0283386D01*
X0036854Y0283390D01*
X0037012Y0283390D01*
X0037170Y0283386D01*
X0037329Y0283378D01*
X0037486Y0283366D01*
X0037644Y0283350D01*
X0037801Y0283330D01*
X0037957Y0283306D01*
X0038113Y0283278D01*
X0038268Y0283247D01*
X0038423Y0283211D01*
X0038576Y0283172D01*
X0038728Y0283129D01*
X0038879Y0283082D01*
X0039029Y0283031D01*
X0039178Y0282976D01*
X0039325Y0282918D01*
X0039471Y0282856D01*
X0039615Y0282791D01*
X0039757Y0282721D01*
X0039898Y0282649D01*
X0040037Y0282572D01*
X0040173Y0282493D01*
X0040308Y0282409D01*
X0040441Y0282323D01*
X0040571Y0282233D01*
X0040699Y0282140D01*
X0040825Y0282044D01*
X0040948Y0281944D01*
X0041069Y0281842D01*
X0041187Y0281737D01*
X0041302Y0281628D01*
X0041415Y0281517D01*
X0041525Y0281403D01*
X0041632Y0281286D01*
X0041736Y0281167D01*
X0041837Y0281045D01*
X0041934Y0280920D01*
X0042029Y0280793D01*
X0042120Y0280664D01*
X0042209Y0280533D01*
X0042293Y0280399D01*
X0042375Y0280263D01*
X0042453Y0280126D01*
X0042527Y0279986D01*
X0042598Y0279844D01*
X0042666Y0279701D01*
X0042730Y0279556D01*
X0042790Y0279410D01*
X0042846Y0279262D01*
X0042899Y0279113D01*
X0042948Y0278962D01*
X0042993Y0278810D01*
X0043034Y0278657D01*
X0043072Y0278504D01*
X0043105Y0278349D01*
X0043135Y0278193D01*
X0043161Y0278037D01*
X0043182Y0277880D01*
X0043200Y0277723D01*
X0043214Y0277565D01*
X0043224Y0277407D01*
X0043230Y0277249D01*
X0043232Y0277091D01*
X0043230Y0276933D01*
X0043224Y0276775D01*
X0043214Y0276617D01*
X0043200Y0276459D01*
X0043182Y0276302D01*
X0043161Y0276145D01*
X0043135Y0275989D01*
X0043105Y0275833D01*
X0043072Y0275678D01*
X0043034Y0275525D01*
X0042993Y0275372D01*
X0042948Y0275220D01*
X0042899Y0275069D01*
X0042846Y0274920D01*
X0042790Y0274772D01*
X0042730Y0274626D01*
X0042666Y0274481D01*
X0042598Y0274338D01*
X0042527Y0274196D01*
X0042453Y0274056D01*
X0042375Y0273919D01*
X0042293Y0273783D01*
X0042209Y0273649D01*
X0042120Y0273518D01*
X0042029Y0273389D01*
X0041934Y0273262D01*
X0041837Y0273137D01*
X0041736Y0273015D01*
X0041632Y0272896D01*
X0041525Y0272779D01*
X0041415Y0272665D01*
X0041302Y0272554D01*
X0041187Y0272445D01*
X0041069Y0272340D01*
X0040948Y0272238D01*
X0040825Y0272138D01*
X0040699Y0272042D01*
X0040571Y0271949D01*
X0040441Y0271859D01*
X0040308Y0271773D01*
X0040173Y0271689D01*
X0040037Y0271610D01*
X0039898Y0271533D01*
X0039757Y0271461D01*
X0039615Y0271391D01*
X0039471Y0271326D01*
X0039325Y0271264D01*
X0039178Y0271206D01*
X0039029Y0271151D01*
X0038879Y0271100D01*
X0038728Y0271053D01*
X0038576Y0271010D01*
X0038423Y0270971D01*
X0038268Y0270935D01*
X0038113Y0270904D01*
X0037957Y0270876D01*
X0037801Y0270852D01*
X0037644Y0270832D01*
X0037486Y0270816D01*
X0037329Y0270804D01*
X0037170Y0270796D01*
X0037012Y0270792D01*
X0036854Y0270792D01*
X0036696Y0270796D01*
X0036537Y0270804D01*
X0036380Y0270816D01*
X0036222Y0270832D01*
X0036065Y0270852D01*
X0035909Y0270876D01*
X0035753Y0270904D01*
X0035598Y0270935D01*
X0035443Y0270971D01*
X0035290Y0271010D01*
X0035138Y0271053D01*
X0034987Y0271100D01*
X0034837Y0271151D01*
X0034688Y0271206D01*
X0034541Y0271264D01*
X0034395Y0271326D01*
X0034251Y0271391D01*
X0034109Y0271461D01*
X0033968Y0271533D01*
X0033829Y0271610D01*
X0033693Y0271689D01*
X0033558Y0271773D01*
X0033425Y0271859D01*
X0033295Y0271949D01*
X0033167Y0272042D01*
X0033041Y0272138D01*
X0032918Y0272238D01*
X0032797Y0272340D01*
X0032679Y0272445D01*
X0032564Y0272554D01*
X0032451Y0272665D01*
X0032341Y0272779D01*
X0032234Y0272896D01*
X0032130Y0273015D01*
X0032029Y0273137D01*
X0031932Y0273262D01*
X0031837Y0273389D01*
X0031746Y0273518D01*
X0031657Y0273649D01*
X0031573Y0273783D01*
X0031491Y0273919D01*
X0031413Y0274056D01*
X0031339Y0274196D01*
X0031268Y0274338D01*
X0031200Y0274481D01*
X0031136Y0274626D01*
X0031076Y0274772D01*
X0031020Y0274920D01*
X0030967Y0275069D01*
X0030918Y0275220D01*
X0030873Y0275372D01*
X0030832Y0275525D01*
X0030794Y0275678D01*
X0030761Y0275833D01*
X0030731Y0275989D01*
X0030705Y0276145D01*
X0030684Y0276302D01*
X0030666Y0276459D01*
X0030652Y0276617D01*
X0030642Y0276775D01*
X0030636Y0276933D01*
X0030634Y0277091D01*
X0220429Y0280091D02*
X0220431Y0280249D01*
X0220437Y0280407D01*
X0220447Y0280565D01*
X0220461Y0280723D01*
X0220479Y0280880D01*
X0220500Y0281037D01*
X0220526Y0281193D01*
X0220556Y0281349D01*
X0220589Y0281504D01*
X0220627Y0281657D01*
X0220668Y0281810D01*
X0220713Y0281962D01*
X0220762Y0282113D01*
X0220815Y0282262D01*
X0220871Y0282410D01*
X0220931Y0282556D01*
X0220995Y0282701D01*
X0221063Y0282844D01*
X0221134Y0282986D01*
X0221208Y0283126D01*
X0221286Y0283263D01*
X0221368Y0283399D01*
X0221452Y0283533D01*
X0221541Y0283664D01*
X0221632Y0283793D01*
X0221727Y0283920D01*
X0221824Y0284045D01*
X0221925Y0284167D01*
X0222029Y0284286D01*
X0222136Y0284403D01*
X0222246Y0284517D01*
X0222359Y0284628D01*
X0222474Y0284737D01*
X0222592Y0284842D01*
X0222713Y0284944D01*
X0222836Y0285044D01*
X0222962Y0285140D01*
X0223090Y0285233D01*
X0223220Y0285323D01*
X0223353Y0285409D01*
X0223488Y0285493D01*
X0223624Y0285572D01*
X0223763Y0285649D01*
X0223904Y0285721D01*
X0224046Y0285791D01*
X0224190Y0285856D01*
X0224336Y0285918D01*
X0224483Y0285976D01*
X0224632Y0286031D01*
X0224782Y0286082D01*
X0224933Y0286129D01*
X0225085Y0286172D01*
X0225238Y0286211D01*
X0225393Y0286247D01*
X0225548Y0286278D01*
X0225704Y0286306D01*
X0225860Y0286330D01*
X0226017Y0286350D01*
X0226175Y0286366D01*
X0226332Y0286378D01*
X0226491Y0286386D01*
X0226649Y0286390D01*
X0226807Y0286390D01*
X0226965Y0286386D01*
X0227124Y0286378D01*
X0227281Y0286366D01*
X0227439Y0286350D01*
X0227596Y0286330D01*
X0227752Y0286306D01*
X0227908Y0286278D01*
X0228063Y0286247D01*
X0228218Y0286211D01*
X0228371Y0286172D01*
X0228523Y0286129D01*
X0228674Y0286082D01*
X0228824Y0286031D01*
X0228973Y0285976D01*
X0229120Y0285918D01*
X0229266Y0285856D01*
X0229410Y0285791D01*
X0229552Y0285721D01*
X0229693Y0285649D01*
X0229832Y0285572D01*
X0229968Y0285493D01*
X0230103Y0285409D01*
X0230236Y0285323D01*
X0230366Y0285233D01*
X0230494Y0285140D01*
X0230620Y0285044D01*
X0230743Y0284944D01*
X0230864Y0284842D01*
X0230982Y0284737D01*
X0231097Y0284628D01*
X0231210Y0284517D01*
X0231320Y0284403D01*
X0231427Y0284286D01*
X0231531Y0284167D01*
X0231632Y0284045D01*
X0231729Y0283920D01*
X0231824Y0283793D01*
X0231915Y0283664D01*
X0232004Y0283533D01*
X0232088Y0283399D01*
X0232170Y0283263D01*
X0232248Y0283126D01*
X0232322Y0282986D01*
X0232393Y0282844D01*
X0232461Y0282701D01*
X0232525Y0282556D01*
X0232585Y0282410D01*
X0232641Y0282262D01*
X0232694Y0282113D01*
X0232743Y0281962D01*
X0232788Y0281810D01*
X0232829Y0281657D01*
X0232867Y0281504D01*
X0232900Y0281349D01*
X0232930Y0281193D01*
X0232956Y0281037D01*
X0232977Y0280880D01*
X0232995Y0280723D01*
X0233009Y0280565D01*
X0233019Y0280407D01*
X0233025Y0280249D01*
X0233027Y0280091D01*
X0233025Y0279933D01*
X0233019Y0279775D01*
X0233009Y0279617D01*
X0232995Y0279459D01*
X0232977Y0279302D01*
X0232956Y0279145D01*
X0232930Y0278989D01*
X0232900Y0278833D01*
X0232867Y0278678D01*
X0232829Y0278525D01*
X0232788Y0278372D01*
X0232743Y0278220D01*
X0232694Y0278069D01*
X0232641Y0277920D01*
X0232585Y0277772D01*
X0232525Y0277626D01*
X0232461Y0277481D01*
X0232393Y0277338D01*
X0232322Y0277196D01*
X0232248Y0277056D01*
X0232170Y0276919D01*
X0232088Y0276783D01*
X0232004Y0276649D01*
X0231915Y0276518D01*
X0231824Y0276389D01*
X0231729Y0276262D01*
X0231632Y0276137D01*
X0231531Y0276015D01*
X0231427Y0275896D01*
X0231320Y0275779D01*
X0231210Y0275665D01*
X0231097Y0275554D01*
X0230982Y0275445D01*
X0230864Y0275340D01*
X0230743Y0275238D01*
X0230620Y0275138D01*
X0230494Y0275042D01*
X0230366Y0274949D01*
X0230236Y0274859D01*
X0230103Y0274773D01*
X0229968Y0274689D01*
X0229832Y0274610D01*
X0229693Y0274533D01*
X0229552Y0274461D01*
X0229410Y0274391D01*
X0229266Y0274326D01*
X0229120Y0274264D01*
X0228973Y0274206D01*
X0228824Y0274151D01*
X0228674Y0274100D01*
X0228523Y0274053D01*
X0228371Y0274010D01*
X0228218Y0273971D01*
X0228063Y0273935D01*
X0227908Y0273904D01*
X0227752Y0273876D01*
X0227596Y0273852D01*
X0227439Y0273832D01*
X0227281Y0273816D01*
X0227124Y0273804D01*
X0226965Y0273796D01*
X0226807Y0273792D01*
X0226649Y0273792D01*
X0226491Y0273796D01*
X0226332Y0273804D01*
X0226175Y0273816D01*
X0226017Y0273832D01*
X0225860Y0273852D01*
X0225704Y0273876D01*
X0225548Y0273904D01*
X0225393Y0273935D01*
X0225238Y0273971D01*
X0225085Y0274010D01*
X0224933Y0274053D01*
X0224782Y0274100D01*
X0224632Y0274151D01*
X0224483Y0274206D01*
X0224336Y0274264D01*
X0224190Y0274326D01*
X0224046Y0274391D01*
X0223904Y0274461D01*
X0223763Y0274533D01*
X0223624Y0274610D01*
X0223488Y0274689D01*
X0223353Y0274773D01*
X0223220Y0274859D01*
X0223090Y0274949D01*
X0222962Y0275042D01*
X0222836Y0275138D01*
X0222713Y0275238D01*
X0222592Y0275340D01*
X0222474Y0275445D01*
X0222359Y0275554D01*
X0222246Y0275665D01*
X0222136Y0275779D01*
X0222029Y0275896D01*
X0221925Y0276015D01*
X0221824Y0276137D01*
X0221727Y0276262D01*
X0221632Y0276389D01*
X0221541Y0276518D01*
X0221452Y0276649D01*
X0221368Y0276783D01*
X0221286Y0276919D01*
X0221208Y0277056D01*
X0221134Y0277196D01*
X0221063Y0277338D01*
X0220995Y0277481D01*
X0220931Y0277626D01*
X0220871Y0277772D01*
X0220815Y0277920D01*
X0220762Y0278069D01*
X0220713Y0278220D01*
X0220668Y0278372D01*
X0220627Y0278525D01*
X0220589Y0278678D01*
X0220556Y0278833D01*
X0220526Y0278989D01*
X0220500Y0279145D01*
X0220479Y0279302D01*
X0220461Y0279459D01*
X0220447Y0279617D01*
X0220437Y0279775D01*
X0220431Y0279933D01*
X0220429Y0280091D01*
D12*
X0226728Y0280091D03*
X0036933Y0277091D03*
X0174728Y0139295D03*
D13*
X0198248Y0134500D03*
X0198248Y0124500D03*
X0188248Y0119500D03*
X0198248Y0114500D03*
X0188248Y0109500D03*
X0198248Y0104500D03*
X0198248Y0094500D03*
X0198248Y0084500D03*
X0188248Y0079500D03*
X0198248Y0074500D03*
X0188248Y0069500D03*
X0198248Y0064500D03*
X0198248Y0054500D03*
X0198248Y0044500D03*
X0138248Y0044500D03*
X0138248Y0054500D03*
X0138248Y0064500D03*
X0138248Y0074500D03*
X0138248Y0084500D03*
X0138248Y0094500D03*
X0138248Y0104500D03*
X0138248Y0114500D03*
X0138248Y0124500D03*
X0138248Y0134500D03*
X0138248Y0144500D03*
X0138248Y0154500D03*
X0198248Y0154500D03*
X0198248Y0144500D03*
D14*
X0150248Y0191154D03*
X0150248Y0197846D03*
X0143248Y0197846D03*
X0143248Y0191154D03*
X0206902Y0074500D03*
X0213594Y0074500D03*
X0213594Y0064500D03*
X0206902Y0064500D03*
X0206902Y0054500D03*
X0213594Y0054500D03*
X0213594Y0044500D03*
X0206902Y0044500D03*
D15*
X0293623Y0046500D02*
X0304273Y0046500D01*
X0304273Y0116500D02*
X0293623Y0116500D01*
X0293623Y0186500D02*
X0304273Y0186500D01*
X0304273Y0256500D02*
X0293623Y0256500D01*
D16*
X0259248Y0276154D03*
X0259248Y0282846D03*
X0250248Y0263846D03*
X0250248Y0257154D03*
X0242248Y0257154D03*
X0242248Y0263846D03*
X0259248Y0213846D03*
X0259248Y0207154D03*
X0250248Y0194846D03*
X0250248Y0188154D03*
X0242248Y0188154D03*
X0242248Y0194846D03*
X0259248Y0144846D03*
X0259248Y0138154D03*
X0250248Y0127846D03*
X0250248Y0121154D03*
X0242248Y0121154D03*
X0242248Y0127846D03*
X0260248Y0073846D03*
X0260248Y0067154D03*
X0250248Y0054846D03*
X0250248Y0048154D03*
X0242248Y0048154D03*
X0242248Y0054846D03*
X0115248Y0144354D03*
X0115248Y0151046D03*
X0105948Y0151046D03*
X0105948Y0144354D03*
X0087248Y0144354D03*
X0087248Y0151046D03*
X0077948Y0151046D03*
X0077948Y0144354D03*
X0066248Y0121846D03*
X0066248Y0115154D03*
X0059248Y0115154D03*
X0059248Y0121846D03*
X0092248Y0269154D03*
X0092248Y0275846D03*
X0115248Y0275846D03*
X0115248Y0269154D03*
D17*
X0242508Y0273169D03*
X0249988Y0273169D03*
X0246248Y0281831D03*
X0246248Y0212831D03*
X0242508Y0204169D03*
X0249988Y0204169D03*
X0246248Y0144831D03*
X0242508Y0136169D03*
X0249988Y0136169D03*
X0246248Y0072831D03*
X0242508Y0064169D03*
X0249988Y0064169D03*
X0105988Y0135831D03*
X0098508Y0135831D03*
X0102248Y0127169D03*
X0077988Y0135831D03*
X0070508Y0135831D03*
X0074248Y0127169D03*
D18*
X0148248Y0236500D03*
D19*
X0139035Y0211303D03*
X0157461Y0211303D03*
D20*
X0129248Y0276500D02*
X0123248Y0276500D01*
X0123248Y0286500D02*
X0129248Y0286500D01*
X0106248Y0286500D02*
X0100248Y0286500D01*
X0100248Y0276500D02*
X0106248Y0276500D01*
X0030248Y0256500D02*
X0024248Y0256500D01*
X0024248Y0246500D02*
X0030248Y0246500D01*
X0030248Y0236500D02*
X0024248Y0236500D01*
X0024248Y0226500D02*
X0030248Y0226500D01*
X0030248Y0216500D02*
X0024248Y0216500D01*
D21*
X0035353Y0199665D02*
X0042403Y0199665D01*
X0042403Y0179980D02*
X0035353Y0179980D01*
X0035432Y0160295D02*
X0042482Y0160295D01*
X0042482Y0140610D02*
X0035432Y0140610D01*
X0035432Y0120925D02*
X0042482Y0120925D01*
X0042482Y0101240D02*
X0035432Y0101240D01*
X0035432Y0081555D02*
X0042482Y0081555D01*
X0042482Y0061870D02*
X0035432Y0061870D01*
X0035353Y0042185D02*
X0042403Y0042185D01*
X0042403Y0022500D02*
X0035353Y0022500D01*
X0392211Y0023941D02*
X0399261Y0023941D01*
X0399261Y0043626D02*
X0392211Y0043626D01*
X0392290Y0063311D02*
X0399340Y0063311D01*
X0399340Y0082996D02*
X0392290Y0082996D01*
X0392290Y0102681D02*
X0399340Y0102681D01*
X0399340Y0122366D02*
X0392290Y0122366D01*
X0392290Y0142051D02*
X0399340Y0142051D01*
X0399340Y0161736D02*
X0392290Y0161736D01*
X0392290Y0181421D02*
X0399340Y0181421D01*
X0399340Y0201106D02*
X0392290Y0201106D01*
X0392290Y0220791D02*
X0399340Y0220791D01*
X0399340Y0240476D02*
X0392290Y0240476D01*
X0392290Y0260161D02*
X0399340Y0260161D01*
X0399340Y0279846D02*
X0392290Y0279846D01*
D22*
X0099720Y0096700D02*
X0094176Y0096700D01*
X0094176Y0086700D02*
X0099720Y0086700D01*
X0072720Y0086700D02*
X0067176Y0086700D01*
X0067176Y0096700D02*
X0072720Y0096700D01*
X0072720Y0046700D02*
X0067176Y0046700D01*
X0094176Y0046700D02*
X0099720Y0046700D01*
X0099720Y0026700D02*
X0094176Y0026700D01*
X0072720Y0026700D02*
X0067176Y0026700D01*
D23*
X0244048Y0025500D02*
X0249248Y0025500D01*
X0249248Y0035500D02*
X0244048Y0035500D01*
X0279248Y0035500D02*
X0284448Y0035500D01*
X0284448Y0025500D02*
X0279248Y0025500D01*
X0279248Y0095500D02*
X0284448Y0095500D01*
X0284448Y0105500D02*
X0279248Y0105500D01*
X0249248Y0105500D02*
X0244048Y0105500D01*
X0244048Y0095500D02*
X0249248Y0095500D01*
X0249248Y0165500D02*
X0244048Y0165500D01*
X0244048Y0175500D02*
X0249248Y0175500D01*
X0279248Y0175500D02*
X0284448Y0175500D01*
X0284448Y0165500D02*
X0279248Y0165500D01*
X0279248Y0235500D02*
X0284448Y0235500D01*
X0284448Y0245500D02*
X0279248Y0245500D01*
X0249248Y0245500D02*
X0244048Y0245500D01*
X0244048Y0235500D02*
X0249248Y0235500D01*
D24*
X0272248Y0209161D03*
X0272248Y0191839D03*
X0272248Y0142161D03*
X0272248Y0124839D03*
X0272248Y0071161D03*
X0272248Y0053839D03*
X0045248Y0221839D03*
X0045248Y0239161D03*
X0272248Y0263839D03*
X0272248Y0281161D03*
D25*
X0259248Y0268453D03*
X0259248Y0262547D03*
X0259248Y0199453D03*
X0259248Y0193547D03*
X0259248Y0130453D03*
X0259248Y0124547D03*
X0260248Y0058453D03*
X0260248Y0052547D03*
D26*
X0125248Y0052500D03*
X0119248Y0052500D03*
X0119248Y0062500D03*
X0125248Y0062500D03*
D27*
X0122248Y0062500D03*
X0122248Y0052500D03*
D28*
X0149248Y0276500D03*
X0159248Y0276500D03*
X0169248Y0276500D03*
X0179248Y0276500D03*
X0189248Y0276500D03*
X0199248Y0276500D03*
X0199248Y0286500D03*
X0189248Y0286500D03*
X0179248Y0286500D03*
X0169248Y0286500D03*
X0159248Y0286500D03*
X0149248Y0286500D03*
D29*
X0147248Y0031500D03*
X0137248Y0031500D03*
X0137248Y0021500D03*
X0147248Y0021500D03*
X0157248Y0021500D03*
X0167248Y0021500D03*
X0177248Y0021500D03*
X0187248Y0021500D03*
X0187248Y0031500D03*
X0177248Y0031500D03*
X0167248Y0031500D03*
X0157248Y0031500D03*
X0197248Y0031500D03*
X0207248Y0031500D03*
X0217248Y0031500D03*
X0217248Y0021500D03*
X0207248Y0021500D03*
X0197248Y0021500D03*
X0227248Y0021500D03*
X0227248Y0031500D03*
D30*
X0087248Y0190902D03*
X0087248Y0202098D03*
X0087248Y0212902D03*
X0087248Y0224098D03*
X0071248Y0224098D03*
X0071248Y0212902D03*
X0071248Y0202098D03*
X0071248Y0190902D03*
D31*
X0071248Y0183000D03*
X0077248Y0207500D03*
X0117248Y0203500D03*
X0141248Y0228500D03*
X0148248Y0228500D03*
X0154248Y0228500D03*
X0154248Y0236500D03*
X0148248Y0236500D03*
X0141248Y0236500D03*
X0141248Y0244500D03*
X0148248Y0244500D03*
X0154248Y0244500D03*
X0338248Y0244500D03*
X0337248Y0272500D03*
X0341248Y0199500D03*
X0341248Y0176500D03*
X0340248Y0128500D03*
X0340248Y0106500D03*
X0340248Y0057500D03*
X0341248Y0035500D03*
X0189248Y0058500D03*
M02*
