%
M48
M72
T01C0.01181
T02C0.03200
T03C0.03543
T04C0.03600
T05C0.04000
T06C0.04700
T07C0.05200
T08C0.07100
T09C0.12598
%
T01
X141248Y244500
X141248Y236500
X141248Y228500
X154248Y244500
X154248Y236500
X154248Y228500
X148248Y244500
X148248Y236500
X148248Y228500
X71248Y183000
X340248Y128500
X340248Y106500
X340248Y57500
X341248Y35500
X341248Y176500
X341248Y199500
X338248Y244500
X337248Y272500
X189248Y58500
X117248Y203500
X77248Y207500
T02
X249248Y245500
X249248Y235500
X279248Y235500
X279248Y245500
X249248Y175500
X249248Y165500
X279248Y165500
X279248Y175500
X249248Y105500
X249248Y95500
X279248Y95500
X279248Y105500
X249248Y35500
X249248Y25500
X279248Y25500
X279248Y35500
T03
X69948Y26700
X69948Y46700
X69948Y86700
X69948Y96700
X96948Y26700
X96948Y46700
X96948Y86700
X96948Y96700
T04
X137248Y31500
X137248Y21500
X147248Y31500
X147248Y21500
X157248Y31500
X157248Y21500
X167248Y31500
X167248Y21500
X177248Y31500
X177248Y21500
X187248Y31500
X187248Y21500
X197248Y31500
X197248Y21500
X207248Y31500
X207248Y21500
X217248Y31500
X217248Y21500
X227248Y31500
X227248Y21500
T05
X138248Y154500
X138248Y144500
X138248Y134500
X138248Y124500
X138248Y114500
X138248Y104500
X138248Y94500
X138248Y84500
X138248Y74500
X138248Y64500
X138248Y54500
X138248Y44500
X198248Y44500
X198248Y54500
X198248Y64500
X198248Y74500
X198248Y84500
X198248Y94500
X198248Y104500
X198248Y114500
X198248Y124500
X198248Y134500
X198248Y144500
X198248Y154500
X188248Y119500
X188248Y109500
X188248Y69500
X188248Y79500
X27248Y256500
X27248Y246500
X27248Y236500
X27248Y226500
X27248Y216500
X149248Y276500
X159248Y276500
X169248Y276500
X179248Y276500
X189248Y276500
X199248Y276500
X149248Y286500
X159248Y286500
X169248Y286500
X179248Y286500
X189248Y286500
X199248Y286500
X126248Y286500
X126248Y276500
X103248Y286500
X103248Y276500
T06
X395736Y23941
X395736Y43626
X38878Y179980
X38878Y199665
X38878Y22500
X38878Y42185
X38957Y120925
X38957Y140610
X38957Y160295
X38957Y61870
X38957Y81555
X38957Y101240
X395815Y63311
X395815Y82996
X395815Y102681
X395815Y122366
X395815Y142051
X395815Y161736
X395815Y181421
X395815Y201106
X395815Y220791
X395815Y240476
X395815Y260161
X395815Y279846
T07
X355248Y210100
X355248Y162900
X307248Y210100
X307248Y162900
X355248Y140100
X355248Y92900
X307248Y140100
X307248Y92900
X355248Y70100
X355248Y22900
X307248Y70100
X307248Y22900
X355248Y280100
X355248Y232900
X307248Y280100
X307248Y232900
T08
X298948Y186500
X298948Y116500
X298948Y46500
X298948Y256500
T09
X36933Y277091
X226728Y280091
X174728Y139295
M30
