G75*
%MOIN*%
%OFA0B0*%
%FSLAX25Y25*%
%IPPOS*%
%LPD*%
%AMOC8*
5,1,8,0,0,1.08239X$1,22.5*
%
%ADD10C,0.00300*%
%ADD11C,0.00000*%
%ADD12C,0.00400*%
%ADD13C,0.00600*%
%ADD14C,0.00700*%
%ADD15C,0.01000*%
%ADD16R,0.00111X0.00111*%
%ADD17R,0.05421X0.00111*%
%ADD18R,0.38500X0.00111*%
%ADD19R,0.05421X0.00111*%
%ADD20R,0.05311X0.00111*%
%ADD21R,0.05310X0.00111*%
%ADD22R,0.05310X0.00111*%
%ADD23R,0.05420X0.00111*%
%ADD24R,0.43920X0.00111*%
%ADD25R,0.43809X0.00111*%
%ADD26R,0.05199X0.00111*%
%ADD27R,0.38389X0.00111*%
%ADD28R,0.05089X0.00111*%
%ADD29R,0.38278X0.00111*%
%ADD30R,0.04978X0.00111*%
%ADD31R,0.38168X0.00111*%
%ADD32R,0.04867X0.00111*%
%ADD33R,0.38057X0.00111*%
%ADD34R,0.04757X0.00111*%
%ADD35R,0.37946X0.00111*%
%ADD36R,0.04646X0.00111*%
%ADD37R,0.37835X0.00111*%
%ADD38R,0.04535X0.00111*%
%ADD39R,0.37725X0.00111*%
%ADD40R,0.04425X0.00111*%
%ADD41R,0.37614X0.00111*%
%ADD42R,0.04315X0.00111*%
%ADD43R,0.37504X0.00111*%
%ADD44R,0.04204X0.00111*%
%ADD45R,0.37393X0.00111*%
%ADD46R,0.04093X0.00111*%
%ADD47R,0.37283X0.00111*%
%ADD48R,0.37172X0.00111*%
%ADD49R,0.03872X0.00111*%
%ADD50R,0.37061X0.00111*%
%ADD51R,0.36951X0.00111*%
%ADD52R,0.03761X0.00111*%
%ADD53R,0.36840X0.00111*%
%ADD54R,0.03650X0.00111*%
%ADD55R,0.03540X0.00111*%
%ADD56R,0.36729X0.00111*%
%ADD57R,0.03430X0.00111*%
%ADD58R,0.36619X0.00111*%
%ADD59R,0.03319X0.00111*%
%ADD60R,0.36508X0.00111*%
%ADD61R,0.03208X0.00111*%
%ADD62R,0.36397X0.00111*%
%ADD63R,0.03098X0.00111*%
%ADD64R,0.36287X0.00111*%
%ADD65R,0.02987X0.00111*%
%ADD66R,0.36176X0.00111*%
%ADD67R,0.02876X0.00111*%
%ADD68R,0.36066X0.00111*%
%ADD69R,0.02766X0.00111*%
%ADD70R,0.35955X0.00111*%
%ADD71R,0.02655X0.00111*%
%ADD72R,0.35844X0.00111*%
%ADD73R,0.02544X0.00111*%
%ADD74R,0.35734X0.00111*%
%ADD75R,0.02434X0.00111*%
%ADD76R,0.35623X0.00111*%
%ADD77R,0.35512X0.00111*%
%ADD78R,0.02323X0.00111*%
%ADD79R,0.35402X0.00111*%
%ADD80R,0.02212X0.00111*%
%ADD81R,0.35291X0.00111*%
%ADD82R,0.02102X0.00111*%
%ADD83R,0.35180X0.00111*%
%ADD84R,0.01991X0.00111*%
%ADD85R,0.01881X0.00111*%
%ADD86R,0.35070X0.00111*%
%ADD87R,0.01770X0.00111*%
%ADD88R,0.34959X0.00111*%
%ADD89R,0.01659X0.00111*%
%ADD90R,0.34848X0.00111*%
%ADD91R,0.01549X0.00111*%
%ADD92R,0.34738X0.00111*%
%ADD93R,0.01438X0.00111*%
%ADD94R,0.34628X0.00111*%
%ADD95R,0.01327X0.00111*%
%ADD96R,0.34517X0.00111*%
%ADD97R,0.01217X0.00111*%
%ADD98R,0.34406X0.00111*%
%ADD99R,0.01106X0.00111*%
%ADD100R,0.34296X0.00111*%
%ADD101R,0.00995X0.00111*%
%ADD102R,0.34185X0.00111*%
%ADD103R,0.00885X0.00111*%
%ADD104R,0.34074X0.00111*%
%ADD105R,0.00774X0.00111*%
%ADD106R,0.33963X0.00111*%
%ADD107R,0.00663X0.00111*%
%ADD108R,0.33853X0.00111*%
%ADD109R,0.33743X0.00111*%
%ADD110R,0.00553X0.00111*%
%ADD111R,0.33631X0.00111*%
%ADD112R,0.00332X0.00111*%
%ADD113R,0.33521X0.00111*%
%ADD114R,0.00221X0.00111*%
%ADD115R,0.33411X0.00111*%
%ADD116R,0.00110X0.00111*%
%ADD117R,0.33300X0.00111*%
%ADD118R,0.33189X0.00111*%
%ADD119R,0.00111X0.00111*%
%ADD120R,0.33079X0.00111*%
%ADD121R,0.00222X0.00111*%
%ADD122R,0.32968X0.00111*%
%ADD123R,0.32857X0.00111*%
%ADD124R,0.00443X0.00111*%
%ADD125R,0.32746X0.00111*%
%ADD126R,0.00554X0.00111*%
%ADD127R,0.32636X0.00111*%
%ADD128R,0.00664X0.00111*%
%ADD129R,0.32525X0.00111*%
%ADD130R,0.32415X0.00111*%
%ADD131R,0.00885X0.00111*%
%ADD132R,0.32304X0.00111*%
%ADD133R,0.32194X0.00111*%
%ADD134R,0.00996X0.00111*%
%ADD135R,0.32083X0.00111*%
%ADD136R,0.31972X0.00111*%
%ADD137R,0.31862X0.00111*%
%ADD138R,0.01328X0.00111*%
%ADD139R,0.31751X0.00111*%
%ADD140R,0.01439X0.00111*%
%ADD141R,0.31640X0.00111*%
%ADD142R,0.01660X0.00111*%
%ADD143R,0.31530X0.00111*%
%ADD144R,0.01770X0.00111*%
%ADD145R,0.31419X0.00111*%
%ADD146R,0.31308X0.00111*%
%ADD147R,0.31198X0.00111*%
%ADD148R,0.02102X0.00111*%
%ADD149R,0.31087X0.00111*%
%ADD150R,0.02213X0.00111*%
%ADD151R,0.30976X0.00111*%
%ADD152R,0.30866X0.00111*%
%ADD153R,0.30756X0.00111*%
%ADD154R,0.02545X0.00111*%
%ADD155R,0.30645X0.00111*%
%ADD156R,0.30534X0.00111*%
%ADD157R,0.30423X0.00111*%
%ADD158R,0.30313X0.00111*%
%ADD159R,0.02877X0.00111*%
%ADD160R,0.30202X0.00111*%
%ADD161R,0.02987X0.00111*%
%ADD162R,0.29981X0.00111*%
%ADD163R,0.29870X0.00111*%
%ADD164R,0.03319X0.00111*%
%ADD165R,0.29759X0.00111*%
%ADD166R,0.29649X0.00111*%
%ADD167R,0.03651X0.00111*%
%ADD168R,0.29539X0.00111*%
%ADD169R,0.03762X0.00111*%
%ADD170R,0.29428X0.00111*%
%ADD171R,0.29317X0.00111*%
%ADD172R,0.03983X0.00111*%
%ADD173R,0.29207X0.00111*%
%ADD174R,0.04094X0.00111*%
%ADD175R,0.29096X0.00111*%
%ADD176R,0.04204X0.00111*%
%ADD177R,0.26440X0.00111*%
%ADD178R,0.09293X0.00111*%
%ADD179R,0.04093X0.00111*%
%ADD180R,0.16484X0.00111*%
%ADD181R,0.21130X0.00111*%
%ADD182R,0.10509X0.00111*%
%ADD183R,0.06859X0.00111*%
%ADD184R,0.04426X0.00111*%
%ADD185R,0.20909X0.00111*%
%ADD186R,0.11506X0.00111*%
%ADD187R,0.08187X0.00111*%
%ADD188R,0.16595X0.00111*%
%ADD189R,0.04536X0.00111*%
%ADD190R,0.20688X0.00111*%
%ADD191R,0.12169X0.00111*%
%ADD192R,0.09404X0.00111*%
%ADD193R,0.16705X0.00111*%
%ADD194R,0.20577X0.00111*%
%ADD195R,0.02656X0.00111*%
%ADD196R,0.12501X0.00111*%
%ADD197R,0.09957X0.00111*%
%ADD198R,0.16816X0.00111*%
%ADD199R,0.20356X0.00111*%
%ADD200R,0.13165X0.00111*%
%ADD201R,0.10842X0.00111*%
%ADD202R,0.04536X0.00111*%
%ADD203R,0.16927X0.00111*%
%ADD204R,0.20135X0.00111*%
%ADD205R,0.13496X0.00111*%
%ADD206R,0.04868X0.00111*%
%ADD207R,0.19913X0.00111*%
%ADD208R,0.13829X0.00111*%
%ADD209R,0.12058X0.00111*%
%ADD210R,0.17148X0.00111*%
%ADD211R,0.04978X0.00111*%
%ADD212R,0.19802X0.00111*%
%ADD213R,0.14161X0.00111*%
%ADD214R,0.12612X0.00111*%
%ADD215R,0.04646X0.00111*%
%ADD216R,0.19581X0.00111*%
%ADD217R,0.14493X0.00111*%
%ADD218R,0.13054X0.00111*%
%ADD219R,0.17259X0.00111*%
%ADD220R,0.05200X0.00111*%
%ADD221R,0.19361X0.00111*%
%ADD222R,0.14713X0.00111*%
%ADD223R,0.13497X0.00111*%
%ADD224R,0.04204X0.00111*%
%ADD225R,0.17369X0.00111*%
%ADD226R,0.19139X0.00111*%
%ADD227R,0.03430X0.00111*%
%ADD228R,0.14935X0.00111*%
%ADD229R,0.13939X0.00111*%
%ADD230R,0.17480X0.00111*%
%ADD231R,0.18917X0.00111*%
%ADD232R,0.15156X0.00111*%
%ADD233R,0.14381X0.00111*%
%ADD234R,0.17590X0.00111*%
%ADD235R,0.05531X0.00111*%
%ADD236R,0.18697X0.00111*%
%ADD237R,0.15377X0.00111*%
%ADD238R,0.14714X0.00111*%
%ADD239R,0.17701X0.00111*%
%ADD240R,0.05643X0.00111*%
%ADD241R,0.18476X0.00111*%
%ADD242R,0.15599X0.00111*%
%ADD243R,0.15046X0.00111*%
%ADD244R,0.17811X0.00111*%
%ADD245R,0.05753X0.00111*%
%ADD246R,0.18254X0.00111*%
%ADD247R,0.15820X0.00111*%
%ADD248R,0.15488X0.00111*%
%ADD249R,0.05863X0.00111*%
%ADD250R,0.18032X0.00111*%
%ADD251R,0.15931X0.00111*%
%ADD252R,0.15709X0.00111*%
%ADD253R,0.17922X0.00111*%
%ADD254R,0.05974X0.00111*%
%ADD255R,0.17812X0.00111*%
%ADD256R,0.16152X0.00111*%
%ADD257R,0.16041X0.00111*%
%ADD258R,0.18033X0.00111*%
%ADD259R,0.06085X0.00111*%
%ADD260R,0.16262X0.00111*%
%ADD261R,0.16374X0.00111*%
%ADD262R,0.18144X0.00111*%
%ADD263R,0.06195X0.00111*%
%ADD264R,0.17369X0.00111*%
%ADD265R,0.16484X0.00111*%
%ADD266R,0.18254X0.00111*%
%ADD267R,0.17148X0.00111*%
%ADD268R,0.16594X0.00111*%
%ADD269R,0.16706X0.00111*%
%ADD270R,0.18365X0.00111*%
%ADD271R,0.06306X0.00111*%
%ADD272R,0.17037X0.00111*%
%ADD273R,0.17037X0.00111*%
%ADD274R,0.06417X0.00111*%
%ADD275R,0.16816X0.00111*%
%ADD276R,0.17258X0.00111*%
%ADD277R,0.18586X0.00111*%
%ADD278R,0.06528X0.00111*%
%ADD279R,0.16705X0.00111*%
%ADD280R,0.16926X0.00111*%
%ADD281R,0.18696X0.00111*%
%ADD282R,0.06638X0.00111*%
%ADD283R,0.16373X0.00111*%
%ADD284R,0.17037X0.00111*%
%ADD285R,0.17700X0.00111*%
%ADD286R,0.06749X0.00111*%
%ADD287R,0.16152X0.00111*%
%ADD288R,0.17147X0.00111*%
%ADD289R,0.18807X0.00111*%
%ADD290R,0.06859X0.00111*%
%ADD291R,0.16041X0.00111*%
%ADD292R,0.04979X0.00111*%
%ADD293R,0.17258X0.00111*%
%ADD294R,0.18918X0.00111*%
%ADD295R,0.06970X0.00111*%
%ADD296R,0.15820X0.00111*%
%ADD297R,0.17369X0.00111*%
%ADD298R,0.19028X0.00111*%
%ADD299R,0.07080X0.00111*%
%ADD300R,0.05200X0.00111*%
%ADD301R,0.07191X0.00111*%
%ADD302R,0.15378X0.00111*%
%ADD303R,0.07302X0.00111*%
%ADD304R,0.17701X0.00111*%
%ADD305R,0.18696X0.00111*%
%ADD306R,0.19250X0.00111*%
%ADD307R,0.07412X0.00111*%
%ADD308R,0.18807X0.00111*%
%ADD309R,0.19360X0.00111*%
%ADD310R,0.07523X0.00111*%
%ADD311R,0.10731X0.00111*%
%ADD312R,0.08630X0.00111*%
%ADD313R,0.08518X0.00111*%
%ADD314R,0.03983X0.00111*%
%ADD315R,0.07634X0.00111*%
%ADD316R,0.14493X0.00111*%
%ADD317R,0.08408X0.00111*%
%ADD318R,0.07191X0.00111*%
%ADD319R,0.07744X0.00111*%
%ADD320R,0.14271X0.00111*%
%ADD321R,0.07301X0.00111*%
%ADD322R,0.06417X0.00111*%
%ADD323R,0.06527X0.00111*%
%ADD324R,0.07855X0.00111*%
%ADD325R,0.14050X0.00111*%
%ADD326R,0.05974X0.00111*%
%ADD327R,0.06084X0.00111*%
%ADD328R,0.07966X0.00111*%
%ADD329R,0.13829X0.00111*%
%ADD330R,0.06306X0.00111*%
%ADD331R,0.05753X0.00111*%
%ADD332R,0.05752X0.00111*%
%ADD333R,0.13718X0.00111*%
%ADD334R,0.05863X0.00111*%
%ADD335R,0.08076X0.00111*%
%ADD336R,0.05531X0.00111*%
%ADD337R,0.13276X0.00111*%
%ADD338R,0.05089X0.00111*%
%ADD339R,0.05642X0.00111*%
%ADD340R,0.08298X0.00111*%
%ADD341R,0.13165X0.00111*%
%ADD342R,0.04868X0.00111*%
%ADD343R,0.08408X0.00111*%
%ADD344R,0.12944X0.00111*%
%ADD345R,0.08519X0.00111*%
%ADD346R,0.12722X0.00111*%
%ADD347R,0.04757X0.00111*%
%ADD348R,0.04757X0.00111*%
%ADD349R,0.08629X0.00111*%
%ADD350R,0.06748X0.00111*%
%ADD351R,0.04647X0.00111*%
%ADD352R,0.08740X0.00111*%
%ADD353R,0.12280X0.00111*%
%ADD354R,0.08851X0.00111*%
%ADD355R,0.08961X0.00111*%
%ADD356R,0.11837X0.00111*%
%ADD357R,0.09072X0.00111*%
%ADD358R,0.11617X0.00111*%
%ADD359R,0.09183X0.00111*%
%ADD360R,0.11395X0.00111*%
%ADD361R,0.04425X0.00111*%
%ADD362R,0.09293X0.00111*%
%ADD363R,0.11173X0.00111*%
%ADD364R,0.05974X0.00111*%
%ADD365R,0.10952X0.00111*%
%ADD366R,0.09515X0.00111*%
%ADD367R,0.10731X0.00111*%
%ADD368R,0.07523X0.00111*%
%ADD369R,0.09625X0.00111*%
%ADD370R,0.10510X0.00111*%
%ADD371R,0.04314X0.00111*%
%ADD372R,0.09735X0.00111*%
%ADD373R,0.10399X0.00111*%
%ADD374R,0.07744X0.00111*%
%ADD375R,0.06085X0.00111*%
%ADD376R,0.10178X0.00111*%
%ADD377R,0.09846X0.00111*%
%ADD378R,0.09957X0.00111*%
%ADD379R,0.06195X0.00111*%
%ADD380R,0.09846X0.00111*%
%ADD381R,0.04315X0.00111*%
%ADD382R,0.10067X0.00111*%
%ADD383R,0.09624X0.00111*%
%ADD384R,0.08297X0.00111*%
%ADD385R,0.10289X0.00111*%
%ADD386R,0.09072X0.00111*%
%ADD387R,0.10400X0.00111*%
%ADD388R,0.08519X0.00111*%
%ADD389R,0.08739X0.00111*%
%ADD390R,0.10620X0.00111*%
%ADD391R,0.06416X0.00111*%
%ADD392R,0.08076X0.00111*%
%ADD393R,0.07854X0.00111*%
%ADD394R,0.11063X0.00111*%
%ADD395R,0.06527X0.00111*%
%ADD396R,0.09293X0.00111*%
%ADD397R,0.03982X0.00111*%
%ADD398R,0.07744X0.00111*%
%ADD399R,0.06748X0.00111*%
%ADD400R,0.10068X0.00111*%
%ADD401R,0.06969X0.00111*%
%ADD402R,0.07633X0.00111*%
%ADD403R,0.10842X0.00111*%
%ADD404R,0.11063X0.00111*%
%ADD405R,0.11174X0.00111*%
%ADD406R,0.11284X0.00111*%
%ADD407R,0.07522X0.00111*%
%ADD408R,0.11395X0.00111*%
%ADD409R,0.11506X0.00111*%
%ADD410R,0.07302X0.00111*%
%ADD411R,0.11727X0.00111*%
%ADD412R,0.11837X0.00111*%
%ADD413R,0.11948X0.00111*%
%ADD414R,0.12059X0.00111*%
%ADD415R,0.12723X0.00111*%
%ADD416R,0.12833X0.00111*%
%ADD417R,0.12944X0.00111*%
%ADD418R,0.07633X0.00111*%
%ADD419R,0.13055X0.00111*%
%ADD420R,0.13386X0.00111*%
%ADD421R,0.11616X0.00111*%
%ADD422R,0.13497X0.00111*%
%ADD423R,0.13607X0.00111*%
%ADD424R,0.13940X0.00111*%
%ADD425R,0.10289X0.00111*%
%ADD426R,0.14272X0.00111*%
%ADD427R,0.14382X0.00111*%
%ADD428R,0.03761X0.00111*%
%ADD429R,0.14604X0.00111*%
%ADD430R,0.03872X0.00111*%
%ADD431R,0.14824X0.00111*%
%ADD432R,0.14935X0.00111*%
%ADD433R,0.00443X0.00111*%
%ADD434R,0.15046X0.00111*%
%ADD435R,0.23674X0.00111*%
%ADD436R,0.15157X0.00111*%
%ADD437R,0.15267X0.00111*%
%ADD438R,0.23454X0.00111*%
%ADD439R,0.15489X0.00111*%
%ADD440R,0.15820X0.00111*%
%ADD441R,0.16263X0.00111*%
%ADD442R,0.23343X0.00111*%
%ADD443R,0.23232X0.00111*%
%ADD444R,0.17480X0.00111*%
%ADD445R,0.18033X0.00111*%
%ADD446R,0.18254X0.00111*%
%ADD447R,0.18475X0.00111*%
%ADD448R,0.18586X0.00111*%
%ADD449R,0.19029X0.00111*%
%ADD450R,0.19250X0.00111*%
%ADD451R,0.19581X0.00111*%
%ADD452R,0.19693X0.00111*%
%ADD453R,0.19803X0.00111*%
%ADD454R,0.20024X0.00111*%
%ADD455R,0.20246X0.00111*%
%ADD456R,0.20467X0.00111*%
%ADD457R,0.20578X0.00111*%
%ADD458R,0.20798X0.00111*%
%ADD459R,0.21020X0.00111*%
%ADD460R,0.21130X0.00111*%
%ADD461R,0.21241X0.00111*%
%ADD462R,0.21352X0.00111*%
%ADD463R,0.21462X0.00111*%
%ADD464R,0.21573X0.00111*%
%ADD465R,0.21684X0.00111*%
%ADD466R,0.21794X0.00111*%
%ADD467R,0.21905X0.00111*%
%ADD468R,0.22016X0.00111*%
%ADD469R,0.22126X0.00111*%
%ADD470R,0.22237X0.00111*%
%ADD471R,0.22347X0.00111*%
%ADD472R,0.22458X0.00111*%
%ADD473R,0.22569X0.00111*%
%ADD474R,0.22679X0.00111*%
%ADD475R,0.22790X0.00111*%
%ADD476R,0.15931X0.00111*%
%ADD477R,0.06306X0.00111*%
%ADD478R,0.07413X0.00111*%
%ADD479R,0.07855X0.00111*%
%ADD480R,0.08297X0.00111*%
%ADD481R,0.08961X0.00111*%
%ADD482R,0.09182X0.00111*%
%ADD483R,0.09404X0.00111*%
%ADD484R,0.09846X0.00111*%
%ADD485R,0.05642X0.00111*%
%ADD486R,0.05532X0.00111*%
%ADD487R,0.10067X0.00111*%
%ADD488R,0.10510X0.00111*%
%ADD489R,0.06859X0.00111*%
%ADD490R,0.10953X0.00111*%
%ADD491R,0.12391X0.00111*%
%ADD492R,0.17811X0.00111*%
%ADD493R,0.18918X0.00111*%
%ADD494R,0.47681X0.00111*%
%ADD495R,0.47570X0.00111*%
%ADD496R,0.11394X0.00111*%
%ADD497R,0.18585X0.00111*%
%ADD498R,0.47460X0.00111*%
%ADD499R,0.11616X0.00111*%
%ADD500R,0.18365X0.00111*%
%ADD501R,0.14935X0.00111*%
%ADD502R,0.47349X0.00111*%
%ADD503R,0.11838X0.00111*%
%ADD504R,0.47239X0.00111*%
%ADD505R,0.12059X0.00111*%
%ADD506R,0.18143X0.00111*%
%ADD507R,0.47128X0.00111*%
%ADD508R,0.12280X0.00111*%
%ADD509R,0.17922X0.00111*%
%ADD510R,0.03872X0.00111*%
%ADD511R,0.47018X0.00111*%
%ADD512R,0.14603X0.00111*%
%ADD513R,0.46907X0.00111*%
%ADD514R,0.46796X0.00111*%
%ADD515R,0.46686X0.00111*%
%ADD516R,0.14271X0.00111*%
%ADD517R,0.46575X0.00111*%
%ADD518R,0.14160X0.00111*%
%ADD519R,0.46464X0.00111*%
%ADD520R,0.13387X0.00111*%
%ADD521R,0.14161X0.00111*%
%ADD522R,0.13608X0.00111*%
%ADD523R,0.16373X0.00111*%
%ADD524R,0.14050X0.00111*%
%ADD525R,0.46354X0.00111*%
%ADD526R,0.13828X0.00111*%
%ADD527R,0.16152X0.00111*%
%ADD528R,0.46243X0.00111*%
%ADD529R,0.14050X0.00111*%
%ADD530R,0.46132X0.00111*%
%ADD531R,0.15488X0.00111*%
%ADD532R,0.46022X0.00111*%
%ADD533R,0.14492X0.00111*%
%ADD534R,0.45911X0.00111*%
%ADD535R,0.45800X0.00111*%
%ADD536R,0.15267X0.00111*%
%ADD537R,0.14603X0.00111*%
%ADD538R,0.45690X0.00111*%
%ADD539R,0.15045X0.00111*%
%ADD540R,0.45580X0.00111*%
%ADD541R,0.14824X0.00111*%
%ADD542R,0.45469X0.00111*%
%ADD543R,0.15598X0.00111*%
%ADD544R,0.14382X0.00111*%
%ADD545R,0.12280X0.00111*%
%ADD546R,0.45358X0.00111*%
%ADD547R,0.12391X0.00111*%
%ADD548R,0.45137X0.00111*%
%ADD549R,0.13607X0.00111*%
%ADD550R,0.11948X0.00111*%
%ADD551R,0.45026X0.00111*%
%ADD552R,0.13275X0.00111*%
%ADD553R,0.44915X0.00111*%
%ADD554R,0.44805X0.00111*%
%ADD555R,0.09736X0.00111*%
%ADD556R,0.10731X0.00111*%
%ADD557R,0.08740X0.00111*%
%ADD558R,0.44694X0.00111*%
%ADD559R,0.44583X0.00111*%
%ADD560R,0.44363X0.00111*%
%ADD561R,0.17590X0.00111*%
%ADD562R,0.24339X0.00111*%
%ADD563R,0.24450X0.00111*%
%ADD564R,0.24560X0.00111*%
%ADD565R,0.24670X0.00111*%
%ADD566R,0.24781X0.00111*%
%ADD567R,0.24892X0.00111*%
%ADD568R,0.25002X0.00111*%
%ADD569R,0.25113X0.00111*%
%ADD570R,0.25224X0.00111*%
%ADD571R,0.25334X0.00111*%
%ADD572R,0.25445X0.00111*%
%ADD573R,0.25556X0.00111*%
%ADD574R,0.25667X0.00111*%
%ADD575R,0.25777X0.00111*%
%ADD576R,0.25888X0.00111*%
%ADD577R,0.25998X0.00111*%
%ADD578R,0.26109X0.00111*%
%ADD579R,0.26219X0.00111*%
%ADD580R,0.26330X0.00111*%
%ADD581R,0.26441X0.00111*%
%ADD582R,0.26551X0.00111*%
%ADD583R,0.26662X0.00111*%
%ADD584R,0.26773X0.00111*%
%ADD585R,0.26883X0.00111*%
%ADD586R,0.26994X0.00111*%
%ADD587R,0.27105X0.00111*%
%ADD588R,0.27215X0.00111*%
D10*
X0133270Y0014134D02*
X0133270Y0016069D01*
X0133754Y0016552D01*
X0135205Y0016552D01*
X0135205Y0013650D01*
X0133754Y0013650D01*
X0133270Y0014134D01*
X0136217Y0013650D02*
X0136217Y0016552D01*
X0138152Y0016552D02*
X0136217Y0013650D01*
X0138152Y0013650D02*
X0138152Y0016552D01*
X0139163Y0016069D02*
X0139647Y0016552D01*
X0140614Y0016552D01*
X0141098Y0016069D01*
X0141098Y0014134D01*
X0140614Y0013650D01*
X0139647Y0013650D01*
X0139163Y0014134D01*
X0139163Y0015101D01*
X0140131Y0015101D01*
X0145217Y0014617D02*
X0145217Y0016552D01*
X0147152Y0016552D02*
X0147152Y0014617D01*
X0146184Y0013650D01*
X0145217Y0014617D01*
X0148163Y0015101D02*
X0148163Y0014134D01*
X0148647Y0013650D01*
X0149614Y0013650D01*
X0150098Y0014134D01*
X0150098Y0015101D02*
X0149131Y0015585D01*
X0148647Y0015585D01*
X0148163Y0015101D01*
X0148163Y0016552D02*
X0150098Y0016552D01*
X0150098Y0015101D01*
X0154270Y0014134D02*
X0154270Y0016069D01*
X0154754Y0016552D01*
X0156205Y0016552D01*
X0156205Y0013650D01*
X0154754Y0013650D01*
X0154270Y0014134D01*
X0157217Y0013650D02*
X0157217Y0016552D01*
X0159152Y0016552D02*
X0157217Y0013650D01*
X0159152Y0013650D02*
X0159152Y0016552D01*
X0160163Y0016069D02*
X0160647Y0016552D01*
X0161614Y0016552D01*
X0162098Y0016069D01*
X0162098Y0014134D01*
X0161614Y0013650D01*
X0160647Y0013650D01*
X0160163Y0014134D01*
X0160163Y0015101D01*
X0161131Y0015101D01*
X0165217Y0014617D02*
X0165217Y0016552D01*
X0167152Y0016552D02*
X0167152Y0014617D01*
X0166184Y0013650D01*
X0165217Y0014617D01*
X0168163Y0015101D02*
X0168163Y0014134D01*
X0168647Y0013650D01*
X0169614Y0013650D01*
X0170098Y0014134D01*
X0170098Y0015101D02*
X0169131Y0015585D01*
X0168647Y0015585D01*
X0168163Y0015101D01*
X0168163Y0016552D02*
X0170098Y0016552D01*
X0170098Y0015101D01*
X0174270Y0014134D02*
X0174270Y0016069D01*
X0174754Y0016552D01*
X0176205Y0016552D01*
X0176205Y0013650D01*
X0174754Y0013650D01*
X0174270Y0014134D01*
X0177217Y0013650D02*
X0177217Y0016552D01*
X0179152Y0016552D02*
X0177217Y0013650D01*
X0179152Y0013650D02*
X0179152Y0016552D01*
X0180163Y0016069D02*
X0180647Y0016552D01*
X0181614Y0016552D01*
X0182098Y0016069D01*
X0182098Y0014134D01*
X0181614Y0013650D01*
X0180647Y0013650D01*
X0180163Y0014134D01*
X0180163Y0015101D01*
X0181131Y0015101D01*
X0185217Y0014617D02*
X0185217Y0016552D01*
X0187152Y0016552D02*
X0187152Y0014617D01*
X0186184Y0013650D01*
X0185217Y0014617D01*
X0188163Y0015101D02*
X0188163Y0014134D01*
X0188647Y0013650D01*
X0189614Y0013650D01*
X0190098Y0014134D01*
X0190098Y0015101D02*
X0189131Y0015585D01*
X0188647Y0015585D01*
X0188163Y0015101D01*
X0188163Y0016552D02*
X0190098Y0016552D01*
X0190098Y0015101D01*
X0194270Y0014134D02*
X0194270Y0016069D01*
X0194754Y0016552D01*
X0196205Y0016552D01*
X0196205Y0013650D01*
X0194754Y0013650D01*
X0194270Y0014134D01*
X0197217Y0013650D02*
X0197217Y0016552D01*
X0199152Y0016552D02*
X0197217Y0013650D01*
X0199152Y0013650D02*
X0199152Y0016552D01*
X0200163Y0016069D02*
X0200647Y0016552D01*
X0201614Y0016552D01*
X0202098Y0016069D01*
X0202098Y0014134D01*
X0201614Y0013650D01*
X0200647Y0013650D01*
X0200163Y0014134D01*
X0200163Y0015101D01*
X0201131Y0015101D01*
X0205217Y0014617D02*
X0205217Y0016552D01*
X0207152Y0016552D02*
X0207152Y0014617D01*
X0206184Y0013650D01*
X0205217Y0014617D01*
X0208163Y0014134D02*
X0208647Y0013650D01*
X0209614Y0013650D01*
X0210098Y0014134D01*
X0210098Y0015101D02*
X0209131Y0015585D01*
X0208647Y0015585D01*
X0208163Y0015101D01*
X0208163Y0014134D01*
X0210098Y0015101D02*
X0210098Y0016552D01*
X0208163Y0016552D01*
X0214270Y0016069D02*
X0214270Y0014134D01*
X0214754Y0013650D01*
X0216205Y0013650D01*
X0216205Y0016552D01*
X0214754Y0016552D01*
X0214270Y0016069D01*
X0217217Y0016552D02*
X0217217Y0013650D01*
X0219152Y0016552D01*
X0219152Y0013650D01*
X0220163Y0014134D02*
X0220163Y0015101D01*
X0221131Y0015101D01*
X0222098Y0014134D02*
X0222098Y0016069D01*
X0221614Y0016552D01*
X0220647Y0016552D01*
X0220163Y0016069D01*
X0220163Y0014134D02*
X0220647Y0013650D01*
X0221614Y0013650D01*
X0222098Y0014134D01*
X0225217Y0014617D02*
X0225217Y0016552D01*
X0227152Y0016552D02*
X0227152Y0014617D01*
X0226184Y0013650D01*
X0225217Y0014617D01*
X0228163Y0015101D02*
X0228163Y0014134D01*
X0228647Y0013650D01*
X0229614Y0013650D01*
X0230098Y0014134D01*
X0230098Y0015101D02*
X0229131Y0015585D01*
X0228647Y0015585D01*
X0228163Y0015101D01*
X0228163Y0016552D02*
X0230098Y0016552D01*
X0230098Y0015101D01*
X0226333Y0037650D02*
X0227301Y0038617D01*
X0226333Y0039585D01*
X0224398Y0039585D01*
X0224882Y0040597D02*
X0226817Y0042531D01*
X0224882Y0042531D01*
X0224398Y0042048D01*
X0224398Y0041080D01*
X0224882Y0040597D01*
X0226817Y0040597D01*
X0227301Y0041080D01*
X0227301Y0042048D01*
X0226817Y0042531D01*
X0225849Y0039585D02*
X0225849Y0037650D01*
X0226333Y0037650D02*
X0224398Y0037650D01*
X0218301Y0038617D02*
X0217333Y0039585D01*
X0215398Y0039585D01*
X0215398Y0040597D02*
X0215398Y0042531D01*
X0215398Y0041564D02*
X0218301Y0041564D01*
X0217333Y0040597D01*
X0216849Y0039585D02*
X0216849Y0037650D01*
X0217333Y0037650D02*
X0218301Y0038617D01*
X0217333Y0037650D02*
X0215398Y0037650D01*
X0208301Y0037617D02*
X0207333Y0038585D01*
X0205398Y0038585D01*
X0205398Y0039597D02*
X0207333Y0041531D01*
X0207817Y0041531D01*
X0208301Y0041048D01*
X0208301Y0040080D01*
X0207817Y0039597D01*
X0206849Y0038585D02*
X0206849Y0036650D01*
X0207333Y0036650D02*
X0208301Y0037617D01*
X0207333Y0036650D02*
X0205398Y0036650D01*
X0205398Y0039597D02*
X0205398Y0041531D01*
X0189301Y0041617D02*
X0188333Y0042585D01*
X0186398Y0042585D01*
X0186882Y0043597D02*
X0186398Y0044080D01*
X0186398Y0045048D01*
X0186882Y0045531D01*
X0187366Y0045531D01*
X0187849Y0045048D01*
X0187849Y0044564D01*
X0187849Y0045048D02*
X0188333Y0045531D01*
X0188817Y0045531D01*
X0189301Y0045048D01*
X0189301Y0044080D01*
X0188817Y0043597D01*
X0187849Y0042585D02*
X0187849Y0040650D01*
X0188333Y0040650D02*
X0189301Y0041617D01*
X0188333Y0040650D02*
X0186398Y0040650D01*
X0181301Y0041134D02*
X0181301Y0042101D01*
X0180817Y0042585D01*
X0179849Y0042101D02*
X0179366Y0042585D01*
X0178882Y0042585D01*
X0178398Y0042101D01*
X0178398Y0041134D01*
X0178882Y0040650D01*
X0179849Y0041134D02*
X0179849Y0042101D01*
X0179849Y0041134D02*
X0180333Y0040650D01*
X0180817Y0040650D01*
X0181301Y0041134D01*
X0181301Y0043597D02*
X0178398Y0043597D01*
X0178398Y0045048D01*
X0178882Y0045531D01*
X0180817Y0045531D01*
X0181301Y0045048D01*
X0181301Y0043597D01*
X0180333Y0046543D02*
X0178398Y0046543D01*
X0179849Y0046543D02*
X0179849Y0048478D01*
X0180333Y0048478D02*
X0178398Y0048478D01*
X0180333Y0048478D02*
X0181301Y0047511D01*
X0180333Y0046543D01*
X0174301Y0046543D02*
X0171398Y0046543D01*
X0171398Y0048478D01*
X0171882Y0045531D02*
X0171398Y0045048D01*
X0171398Y0044080D01*
X0171882Y0043597D01*
X0173817Y0043597D01*
X0174301Y0044080D01*
X0174301Y0045048D01*
X0173817Y0045531D01*
X0173817Y0042585D02*
X0174301Y0042101D01*
X0174301Y0041134D01*
X0173817Y0040650D01*
X0173333Y0040650D01*
X0172849Y0041134D01*
X0172849Y0042101D01*
X0172366Y0042585D01*
X0171882Y0042585D01*
X0171398Y0042101D01*
X0171398Y0041134D01*
X0171882Y0040650D01*
X0163301Y0040650D02*
X0163301Y0042101D01*
X0162817Y0042585D01*
X0160882Y0042585D01*
X0160398Y0042101D01*
X0160398Y0040650D01*
X0163301Y0040650D01*
X0162817Y0043597D02*
X0163301Y0044080D01*
X0163301Y0045048D01*
X0162817Y0045531D01*
X0162333Y0045531D01*
X0160398Y0043597D01*
X0160398Y0045531D01*
X0158301Y0045048D02*
X0157817Y0045531D01*
X0157333Y0045531D01*
X0156849Y0045048D01*
X0156366Y0045531D01*
X0155882Y0045531D01*
X0155398Y0045048D01*
X0155398Y0044080D01*
X0155882Y0043597D01*
X0155882Y0042585D02*
X0157817Y0042585D01*
X0158301Y0042101D01*
X0158301Y0040650D01*
X0155398Y0040650D01*
X0155398Y0042101D01*
X0155882Y0042585D01*
X0157817Y0043597D02*
X0158301Y0044080D01*
X0158301Y0045048D01*
X0156849Y0045048D02*
X0156849Y0044564D01*
X0153301Y0045048D02*
X0152817Y0045531D01*
X0152333Y0045531D01*
X0151849Y0045048D01*
X0151849Y0044080D01*
X0152333Y0043597D01*
X0152817Y0043597D01*
X0153301Y0044080D01*
X0153301Y0045048D01*
X0151849Y0045048D02*
X0151366Y0045531D01*
X0150882Y0045531D01*
X0150398Y0045048D01*
X0150398Y0044080D01*
X0150882Y0043597D01*
X0151366Y0043597D01*
X0151849Y0044080D01*
X0150882Y0042585D02*
X0152817Y0042585D01*
X0153301Y0042101D01*
X0153301Y0040650D01*
X0150398Y0040650D01*
X0150398Y0042101D01*
X0150882Y0042585D01*
X0148301Y0042101D02*
X0148301Y0040650D01*
X0145398Y0040650D01*
X0145398Y0042101D01*
X0145882Y0042585D01*
X0147817Y0042585D01*
X0148301Y0042101D01*
X0147817Y0043597D02*
X0148301Y0044080D01*
X0148301Y0045048D01*
X0147817Y0045531D01*
X0145882Y0045531D01*
X0145398Y0045048D01*
X0145398Y0044080D01*
X0145882Y0043597D01*
X0146849Y0044080D02*
X0146849Y0045531D01*
X0146849Y0044080D02*
X0147333Y0043597D01*
X0147817Y0043597D01*
X0128317Y0132150D02*
X0127833Y0132150D01*
X0127349Y0132634D01*
X0127349Y0133601D01*
X0126866Y0134085D01*
X0126382Y0134085D01*
X0125898Y0133601D01*
X0125898Y0132634D01*
X0126382Y0132150D01*
X0128317Y0132150D02*
X0128801Y0132634D01*
X0128801Y0133601D01*
X0128317Y0134085D01*
X0128801Y0136064D02*
X0128801Y0137031D01*
X0128801Y0136548D02*
X0126382Y0136548D01*
X0125898Y0136064D01*
X0125898Y0135580D01*
X0126382Y0135097D01*
X0125898Y0138043D02*
X0125898Y0139978D01*
X0125898Y0139011D02*
X0128801Y0139011D01*
X0127833Y0138043D01*
X0127349Y0140990D02*
X0127349Y0142925D01*
X0126382Y0143936D02*
X0125898Y0144420D01*
X0125898Y0145387D01*
X0126382Y0145871D01*
X0128317Y0145871D01*
X0128801Y0145387D01*
X0128801Y0144420D01*
X0128317Y0143936D01*
X0126382Y0143936D01*
X0125898Y0146883D02*
X0128801Y0146883D01*
X0125898Y0148818D01*
X0128801Y0148818D01*
X0127833Y0149829D02*
X0127833Y0151764D01*
X0126866Y0151764D02*
X0126866Y0149829D01*
X0126866Y0152776D02*
X0125898Y0153743D01*
X0126866Y0154711D01*
X0128801Y0154711D01*
X0128801Y0155722D02*
X0128801Y0156690D01*
X0128801Y0156206D02*
X0125898Y0156206D01*
X0125898Y0155722D02*
X0125898Y0156690D01*
X0125898Y0157686D02*
X0128801Y0157686D01*
X0125898Y0159621D01*
X0128801Y0159621D01*
X0125414Y0160633D02*
X0125414Y0162568D01*
X0125898Y0163580D02*
X0125898Y0165515D01*
X0125898Y0164547D02*
X0128801Y0164547D01*
X0127833Y0163580D01*
X0128317Y0166526D02*
X0128801Y0167010D01*
X0128801Y0167977D01*
X0128317Y0168461D01*
X0127833Y0168461D01*
X0125898Y0166526D01*
X0125898Y0168461D01*
X0126866Y0169473D02*
X0125898Y0170440D01*
X0126866Y0171408D01*
X0128801Y0171408D01*
X0128801Y0169473D02*
X0126866Y0169473D01*
X0118801Y0169473D02*
X0116866Y0169473D01*
X0115898Y0170440D01*
X0116866Y0171408D01*
X0118801Y0171408D01*
X0118317Y0168461D02*
X0118801Y0167977D01*
X0118801Y0167010D01*
X0118317Y0166526D01*
X0118317Y0168461D02*
X0117833Y0168461D01*
X0115898Y0166526D01*
X0115898Y0168461D01*
X0115898Y0165515D02*
X0115898Y0163580D01*
X0115898Y0164547D02*
X0118801Y0164547D01*
X0117833Y0163580D01*
X0115414Y0162568D02*
X0115414Y0160633D01*
X0115898Y0159621D02*
X0118801Y0159621D01*
X0118801Y0157686D02*
X0115898Y0157686D01*
X0115898Y0156690D02*
X0115898Y0155722D01*
X0115898Y0156206D02*
X0118801Y0156206D01*
X0118801Y0155722D02*
X0118801Y0156690D01*
X0118801Y0157686D02*
X0115898Y0159621D01*
X0116866Y0154711D02*
X0118801Y0154711D01*
X0118801Y0152776D02*
X0116866Y0152776D01*
X0115898Y0153743D01*
X0116866Y0154711D01*
X0116866Y0151764D02*
X0116866Y0149829D01*
X0117833Y0149829D02*
X0117833Y0151764D01*
X0118801Y0148818D02*
X0115898Y0148818D01*
X0118801Y0146883D01*
X0115898Y0146883D01*
X0116382Y0145871D02*
X0118317Y0145871D01*
X0118801Y0145387D01*
X0118801Y0144420D01*
X0118317Y0143936D01*
X0116382Y0143936D01*
X0115898Y0144420D01*
X0115898Y0145387D01*
X0116382Y0145871D01*
X0117349Y0142925D02*
X0117349Y0140990D01*
X0117833Y0139978D02*
X0115898Y0138043D01*
X0115898Y0139978D01*
X0117833Y0139978D02*
X0118317Y0139978D01*
X0118801Y0139494D01*
X0118801Y0138527D01*
X0118317Y0138043D01*
X0118801Y0137031D02*
X0118801Y0136064D01*
X0118801Y0136548D02*
X0116382Y0136548D01*
X0115898Y0136064D01*
X0115898Y0135580D01*
X0116382Y0135097D01*
X0116382Y0134085D02*
X0115898Y0133601D01*
X0115898Y0132634D01*
X0116382Y0132150D01*
X0117349Y0132634D02*
X0117349Y0133601D01*
X0116866Y0134085D01*
X0116382Y0134085D01*
X0117349Y0132634D02*
X0117833Y0132150D01*
X0118317Y0132150D01*
X0118801Y0132634D01*
X0118801Y0133601D01*
X0118317Y0134085D01*
X0126866Y0152776D02*
X0128801Y0152776D01*
D11*
X0009374Y0001500D02*
X0426697Y0001500D01*
X0426879Y0001502D01*
X0427062Y0001509D01*
X0427244Y0001520D01*
X0427426Y0001535D01*
X0427607Y0001555D01*
X0427788Y0001579D01*
X0427968Y0001608D01*
X0428148Y0001641D01*
X0428326Y0001678D01*
X0428504Y0001719D01*
X0428681Y0001765D01*
X0428856Y0001815D01*
X0429030Y0001870D01*
X0429203Y0001928D01*
X0429375Y0001991D01*
X0429544Y0002057D01*
X0429713Y0002128D01*
X0429879Y0002203D01*
X0430044Y0002282D01*
X0430206Y0002365D01*
X0430367Y0002452D01*
X0430525Y0002542D01*
X0430681Y0002637D01*
X0430835Y0002735D01*
X0430986Y0002837D01*
X0431135Y0002942D01*
X0431282Y0003051D01*
X0431425Y0003164D01*
X0431566Y0003280D01*
X0431704Y0003399D01*
X0431839Y0003522D01*
X0431971Y0003648D01*
X0432100Y0003777D01*
X0432226Y0003909D01*
X0432349Y0004044D01*
X0432468Y0004182D01*
X0432584Y0004323D01*
X0432697Y0004466D01*
X0432806Y0004613D01*
X0432911Y0004762D01*
X0433013Y0004913D01*
X0433111Y0005067D01*
X0433206Y0005223D01*
X0433296Y0005381D01*
X0433383Y0005542D01*
X0433466Y0005704D01*
X0433545Y0005869D01*
X0433620Y0006035D01*
X0433691Y0006204D01*
X0433757Y0006373D01*
X0433820Y0006545D01*
X0433878Y0006718D01*
X0433933Y0006892D01*
X0433983Y0007067D01*
X0434029Y0007244D01*
X0434070Y0007422D01*
X0434107Y0007600D01*
X0434140Y0007780D01*
X0434169Y0007960D01*
X0434193Y0008141D01*
X0434213Y0008322D01*
X0434228Y0008504D01*
X0434239Y0008686D01*
X0434246Y0008869D01*
X0434248Y0009051D01*
X0434248Y0284941D01*
X0434246Y0285124D01*
X0434239Y0285306D01*
X0434228Y0285489D01*
X0434213Y0285671D01*
X0434193Y0285852D01*
X0434169Y0286033D01*
X0434140Y0286214D01*
X0434107Y0286393D01*
X0434070Y0286572D01*
X0434028Y0286750D01*
X0433982Y0286927D01*
X0433932Y0287102D01*
X0433878Y0287277D01*
X0433819Y0287450D01*
X0433757Y0287621D01*
X0433690Y0287791D01*
X0433619Y0287960D01*
X0433544Y0288126D01*
X0433465Y0288291D01*
X0433382Y0288454D01*
X0433295Y0288615D01*
X0433205Y0288773D01*
X0433110Y0288929D01*
X0433012Y0289083D01*
X0432910Y0289235D01*
X0432804Y0289384D01*
X0432695Y0289531D01*
X0432583Y0289674D01*
X0432466Y0289815D01*
X0432347Y0289954D01*
X0432224Y0290089D01*
X0432098Y0290221D01*
X0431969Y0290350D01*
X0431837Y0290476D01*
X0431702Y0290599D01*
X0431563Y0290718D01*
X0431422Y0290835D01*
X0431279Y0290947D01*
X0431132Y0291056D01*
X0430983Y0291162D01*
X0430831Y0291264D01*
X0430677Y0291362D01*
X0430521Y0291457D01*
X0430363Y0291547D01*
X0430202Y0291634D01*
X0430039Y0291717D01*
X0429874Y0291796D01*
X0429708Y0291871D01*
X0429539Y0291942D01*
X0429369Y0292009D01*
X0429198Y0292071D01*
X0429025Y0292130D01*
X0428850Y0292184D01*
X0428675Y0292234D01*
X0428498Y0292280D01*
X0428320Y0292322D01*
X0428141Y0292359D01*
X0427962Y0292392D01*
X0427781Y0292421D01*
X0427600Y0292445D01*
X0427419Y0292465D01*
X0427237Y0292480D01*
X0427054Y0292491D01*
X0426872Y0292498D01*
X0426689Y0292500D01*
X0009381Y0292500D01*
X0009181Y0292498D01*
X0008982Y0292490D01*
X0008783Y0292478D01*
X0008584Y0292461D01*
X0008385Y0292439D01*
X0008188Y0292412D01*
X0007991Y0292380D01*
X0007794Y0292344D01*
X0007599Y0292302D01*
X0007405Y0292256D01*
X0007212Y0292205D01*
X0007020Y0292150D01*
X0006830Y0292090D01*
X0006641Y0292025D01*
X0006454Y0291955D01*
X0006269Y0291881D01*
X0006085Y0291802D01*
X0005904Y0291719D01*
X0005724Y0291632D01*
X0005547Y0291540D01*
X0005372Y0291443D01*
X0005200Y0291343D01*
X0005030Y0291238D01*
X0004863Y0291129D01*
X0004698Y0291016D01*
X0004536Y0290899D01*
X0004377Y0290779D01*
X0004221Y0290654D01*
X0004069Y0290525D01*
X0003919Y0290393D01*
X0003773Y0290257D01*
X0003630Y0290118D01*
X0003491Y0289975D01*
X0003355Y0289829D01*
X0003223Y0289679D01*
X0003094Y0289527D01*
X0002969Y0289371D01*
X0002849Y0289212D01*
X0002732Y0289050D01*
X0002619Y0288885D01*
X0002510Y0288718D01*
X0002405Y0288548D01*
X0002305Y0288376D01*
X0002208Y0288201D01*
X0002116Y0288024D01*
X0002029Y0287844D01*
X0001946Y0287663D01*
X0001867Y0287479D01*
X0001793Y0287294D01*
X0001723Y0287107D01*
X0001658Y0286918D01*
X0001598Y0286728D01*
X0001543Y0286536D01*
X0001492Y0286343D01*
X0001446Y0286149D01*
X0001404Y0285954D01*
X0001368Y0285757D01*
X0001336Y0285560D01*
X0001309Y0285363D01*
X0001287Y0285164D01*
X0001270Y0284965D01*
X0001258Y0284766D01*
X0001250Y0284567D01*
X0001248Y0284367D01*
X0001248Y0009626D01*
X0001250Y0009430D01*
X0001257Y0009233D01*
X0001269Y0009037D01*
X0001286Y0008842D01*
X0001307Y0008647D01*
X0001333Y0008452D01*
X0001364Y0008258D01*
X0001399Y0008065D01*
X0001439Y0007873D01*
X0001484Y0007681D01*
X0001533Y0007491D01*
X0001587Y0007302D01*
X0001646Y0007115D01*
X0001709Y0006929D01*
X0001776Y0006744D01*
X0001848Y0006562D01*
X0001924Y0006381D01*
X0002005Y0006202D01*
X0002090Y0006025D01*
X0002179Y0005850D01*
X0002272Y0005677D01*
X0002370Y0005506D01*
X0002471Y0005338D01*
X0002577Y0005173D01*
X0002686Y0005010D01*
X0002800Y0004850D01*
X0002917Y0004692D01*
X0003038Y0004538D01*
X0003163Y0004386D01*
X0003292Y0004237D01*
X0003424Y0004092D01*
X0003559Y0003950D01*
X0003698Y0003811D01*
X0003840Y0003676D01*
X0003985Y0003544D01*
X0004134Y0003415D01*
X0004286Y0003290D01*
X0004440Y0003169D01*
X0004598Y0003052D01*
X0004758Y0002938D01*
X0004921Y0002829D01*
X0005086Y0002723D01*
X0005254Y0002622D01*
X0005425Y0002524D01*
X0005598Y0002431D01*
X0005773Y0002342D01*
X0005950Y0002257D01*
X0006129Y0002176D01*
X0006310Y0002100D01*
X0006492Y0002028D01*
X0006677Y0001961D01*
X0006863Y0001898D01*
X0007050Y0001839D01*
X0007239Y0001785D01*
X0007429Y0001736D01*
X0007621Y0001691D01*
X0007813Y0001651D01*
X0008006Y0001616D01*
X0008200Y0001585D01*
X0008395Y0001559D01*
X0008590Y0001538D01*
X0008785Y0001521D01*
X0008981Y0001509D01*
X0009178Y0001502D01*
X0009374Y0001500D01*
X0168429Y0139295D02*
X0168431Y0139453D01*
X0168437Y0139611D01*
X0168447Y0139769D01*
X0168461Y0139927D01*
X0168479Y0140084D01*
X0168500Y0140241D01*
X0168526Y0140397D01*
X0168556Y0140553D01*
X0168589Y0140708D01*
X0168627Y0140861D01*
X0168668Y0141014D01*
X0168713Y0141166D01*
X0168762Y0141317D01*
X0168815Y0141466D01*
X0168871Y0141614D01*
X0168931Y0141760D01*
X0168995Y0141905D01*
X0169063Y0142048D01*
X0169134Y0142190D01*
X0169208Y0142330D01*
X0169286Y0142467D01*
X0169368Y0142603D01*
X0169452Y0142737D01*
X0169541Y0142868D01*
X0169632Y0142997D01*
X0169727Y0143124D01*
X0169824Y0143249D01*
X0169925Y0143371D01*
X0170029Y0143490D01*
X0170136Y0143607D01*
X0170246Y0143721D01*
X0170359Y0143832D01*
X0170474Y0143941D01*
X0170592Y0144046D01*
X0170713Y0144148D01*
X0170836Y0144248D01*
X0170962Y0144344D01*
X0171090Y0144437D01*
X0171220Y0144527D01*
X0171353Y0144613D01*
X0171488Y0144697D01*
X0171624Y0144776D01*
X0171763Y0144853D01*
X0171904Y0144925D01*
X0172046Y0144995D01*
X0172190Y0145060D01*
X0172336Y0145122D01*
X0172483Y0145180D01*
X0172632Y0145235D01*
X0172782Y0145286D01*
X0172933Y0145333D01*
X0173085Y0145376D01*
X0173238Y0145415D01*
X0173393Y0145451D01*
X0173548Y0145482D01*
X0173704Y0145510D01*
X0173860Y0145534D01*
X0174017Y0145554D01*
X0174175Y0145570D01*
X0174332Y0145582D01*
X0174491Y0145590D01*
X0174649Y0145594D01*
X0174807Y0145594D01*
X0174965Y0145590D01*
X0175124Y0145582D01*
X0175281Y0145570D01*
X0175439Y0145554D01*
X0175596Y0145534D01*
X0175752Y0145510D01*
X0175908Y0145482D01*
X0176063Y0145451D01*
X0176218Y0145415D01*
X0176371Y0145376D01*
X0176523Y0145333D01*
X0176674Y0145286D01*
X0176824Y0145235D01*
X0176973Y0145180D01*
X0177120Y0145122D01*
X0177266Y0145060D01*
X0177410Y0144995D01*
X0177552Y0144925D01*
X0177693Y0144853D01*
X0177832Y0144776D01*
X0177968Y0144697D01*
X0178103Y0144613D01*
X0178236Y0144527D01*
X0178366Y0144437D01*
X0178494Y0144344D01*
X0178620Y0144248D01*
X0178743Y0144148D01*
X0178864Y0144046D01*
X0178982Y0143941D01*
X0179097Y0143832D01*
X0179210Y0143721D01*
X0179320Y0143607D01*
X0179427Y0143490D01*
X0179531Y0143371D01*
X0179632Y0143249D01*
X0179729Y0143124D01*
X0179824Y0142997D01*
X0179915Y0142868D01*
X0180004Y0142737D01*
X0180088Y0142603D01*
X0180170Y0142467D01*
X0180248Y0142330D01*
X0180322Y0142190D01*
X0180393Y0142048D01*
X0180461Y0141905D01*
X0180525Y0141760D01*
X0180585Y0141614D01*
X0180641Y0141466D01*
X0180694Y0141317D01*
X0180743Y0141166D01*
X0180788Y0141014D01*
X0180829Y0140861D01*
X0180867Y0140708D01*
X0180900Y0140553D01*
X0180930Y0140397D01*
X0180956Y0140241D01*
X0180977Y0140084D01*
X0180995Y0139927D01*
X0181009Y0139769D01*
X0181019Y0139611D01*
X0181025Y0139453D01*
X0181027Y0139295D01*
X0181025Y0139137D01*
X0181019Y0138979D01*
X0181009Y0138821D01*
X0180995Y0138663D01*
X0180977Y0138506D01*
X0180956Y0138349D01*
X0180930Y0138193D01*
X0180900Y0138037D01*
X0180867Y0137882D01*
X0180829Y0137729D01*
X0180788Y0137576D01*
X0180743Y0137424D01*
X0180694Y0137273D01*
X0180641Y0137124D01*
X0180585Y0136976D01*
X0180525Y0136830D01*
X0180461Y0136685D01*
X0180393Y0136542D01*
X0180322Y0136400D01*
X0180248Y0136260D01*
X0180170Y0136123D01*
X0180088Y0135987D01*
X0180004Y0135853D01*
X0179915Y0135722D01*
X0179824Y0135593D01*
X0179729Y0135466D01*
X0179632Y0135341D01*
X0179531Y0135219D01*
X0179427Y0135100D01*
X0179320Y0134983D01*
X0179210Y0134869D01*
X0179097Y0134758D01*
X0178982Y0134649D01*
X0178864Y0134544D01*
X0178743Y0134442D01*
X0178620Y0134342D01*
X0178494Y0134246D01*
X0178366Y0134153D01*
X0178236Y0134063D01*
X0178103Y0133977D01*
X0177968Y0133893D01*
X0177832Y0133814D01*
X0177693Y0133737D01*
X0177552Y0133665D01*
X0177410Y0133595D01*
X0177266Y0133530D01*
X0177120Y0133468D01*
X0176973Y0133410D01*
X0176824Y0133355D01*
X0176674Y0133304D01*
X0176523Y0133257D01*
X0176371Y0133214D01*
X0176218Y0133175D01*
X0176063Y0133139D01*
X0175908Y0133108D01*
X0175752Y0133080D01*
X0175596Y0133056D01*
X0175439Y0133036D01*
X0175281Y0133020D01*
X0175124Y0133008D01*
X0174965Y0133000D01*
X0174807Y0132996D01*
X0174649Y0132996D01*
X0174491Y0133000D01*
X0174332Y0133008D01*
X0174175Y0133020D01*
X0174017Y0133036D01*
X0173860Y0133056D01*
X0173704Y0133080D01*
X0173548Y0133108D01*
X0173393Y0133139D01*
X0173238Y0133175D01*
X0173085Y0133214D01*
X0172933Y0133257D01*
X0172782Y0133304D01*
X0172632Y0133355D01*
X0172483Y0133410D01*
X0172336Y0133468D01*
X0172190Y0133530D01*
X0172046Y0133595D01*
X0171904Y0133665D01*
X0171763Y0133737D01*
X0171624Y0133814D01*
X0171488Y0133893D01*
X0171353Y0133977D01*
X0171220Y0134063D01*
X0171090Y0134153D01*
X0170962Y0134246D01*
X0170836Y0134342D01*
X0170713Y0134442D01*
X0170592Y0134544D01*
X0170474Y0134649D01*
X0170359Y0134758D01*
X0170246Y0134869D01*
X0170136Y0134983D01*
X0170029Y0135100D01*
X0169925Y0135219D01*
X0169824Y0135341D01*
X0169727Y0135466D01*
X0169632Y0135593D01*
X0169541Y0135722D01*
X0169452Y0135853D01*
X0169368Y0135987D01*
X0169286Y0136123D01*
X0169208Y0136260D01*
X0169134Y0136400D01*
X0169063Y0136542D01*
X0168995Y0136685D01*
X0168931Y0136830D01*
X0168871Y0136976D01*
X0168815Y0137124D01*
X0168762Y0137273D01*
X0168713Y0137424D01*
X0168668Y0137576D01*
X0168627Y0137729D01*
X0168589Y0137882D01*
X0168556Y0138037D01*
X0168526Y0138193D01*
X0168500Y0138349D01*
X0168479Y0138506D01*
X0168461Y0138663D01*
X0168447Y0138821D01*
X0168437Y0138979D01*
X0168431Y0139137D01*
X0168429Y0139295D01*
X0030634Y0277091D02*
X0030636Y0277249D01*
X0030642Y0277407D01*
X0030652Y0277565D01*
X0030666Y0277723D01*
X0030684Y0277880D01*
X0030705Y0278037D01*
X0030731Y0278193D01*
X0030761Y0278349D01*
X0030794Y0278504D01*
X0030832Y0278657D01*
X0030873Y0278810D01*
X0030918Y0278962D01*
X0030967Y0279113D01*
X0031020Y0279262D01*
X0031076Y0279410D01*
X0031136Y0279556D01*
X0031200Y0279701D01*
X0031268Y0279844D01*
X0031339Y0279986D01*
X0031413Y0280126D01*
X0031491Y0280263D01*
X0031573Y0280399D01*
X0031657Y0280533D01*
X0031746Y0280664D01*
X0031837Y0280793D01*
X0031932Y0280920D01*
X0032029Y0281045D01*
X0032130Y0281167D01*
X0032234Y0281286D01*
X0032341Y0281403D01*
X0032451Y0281517D01*
X0032564Y0281628D01*
X0032679Y0281737D01*
X0032797Y0281842D01*
X0032918Y0281944D01*
X0033041Y0282044D01*
X0033167Y0282140D01*
X0033295Y0282233D01*
X0033425Y0282323D01*
X0033558Y0282409D01*
X0033693Y0282493D01*
X0033829Y0282572D01*
X0033968Y0282649D01*
X0034109Y0282721D01*
X0034251Y0282791D01*
X0034395Y0282856D01*
X0034541Y0282918D01*
X0034688Y0282976D01*
X0034837Y0283031D01*
X0034987Y0283082D01*
X0035138Y0283129D01*
X0035290Y0283172D01*
X0035443Y0283211D01*
X0035598Y0283247D01*
X0035753Y0283278D01*
X0035909Y0283306D01*
X0036065Y0283330D01*
X0036222Y0283350D01*
X0036380Y0283366D01*
X0036537Y0283378D01*
X0036696Y0283386D01*
X0036854Y0283390D01*
X0037012Y0283390D01*
X0037170Y0283386D01*
X0037329Y0283378D01*
X0037486Y0283366D01*
X0037644Y0283350D01*
X0037801Y0283330D01*
X0037957Y0283306D01*
X0038113Y0283278D01*
X0038268Y0283247D01*
X0038423Y0283211D01*
X0038576Y0283172D01*
X0038728Y0283129D01*
X0038879Y0283082D01*
X0039029Y0283031D01*
X0039178Y0282976D01*
X0039325Y0282918D01*
X0039471Y0282856D01*
X0039615Y0282791D01*
X0039757Y0282721D01*
X0039898Y0282649D01*
X0040037Y0282572D01*
X0040173Y0282493D01*
X0040308Y0282409D01*
X0040441Y0282323D01*
X0040571Y0282233D01*
X0040699Y0282140D01*
X0040825Y0282044D01*
X0040948Y0281944D01*
X0041069Y0281842D01*
X0041187Y0281737D01*
X0041302Y0281628D01*
X0041415Y0281517D01*
X0041525Y0281403D01*
X0041632Y0281286D01*
X0041736Y0281167D01*
X0041837Y0281045D01*
X0041934Y0280920D01*
X0042029Y0280793D01*
X0042120Y0280664D01*
X0042209Y0280533D01*
X0042293Y0280399D01*
X0042375Y0280263D01*
X0042453Y0280126D01*
X0042527Y0279986D01*
X0042598Y0279844D01*
X0042666Y0279701D01*
X0042730Y0279556D01*
X0042790Y0279410D01*
X0042846Y0279262D01*
X0042899Y0279113D01*
X0042948Y0278962D01*
X0042993Y0278810D01*
X0043034Y0278657D01*
X0043072Y0278504D01*
X0043105Y0278349D01*
X0043135Y0278193D01*
X0043161Y0278037D01*
X0043182Y0277880D01*
X0043200Y0277723D01*
X0043214Y0277565D01*
X0043224Y0277407D01*
X0043230Y0277249D01*
X0043232Y0277091D01*
X0043230Y0276933D01*
X0043224Y0276775D01*
X0043214Y0276617D01*
X0043200Y0276459D01*
X0043182Y0276302D01*
X0043161Y0276145D01*
X0043135Y0275989D01*
X0043105Y0275833D01*
X0043072Y0275678D01*
X0043034Y0275525D01*
X0042993Y0275372D01*
X0042948Y0275220D01*
X0042899Y0275069D01*
X0042846Y0274920D01*
X0042790Y0274772D01*
X0042730Y0274626D01*
X0042666Y0274481D01*
X0042598Y0274338D01*
X0042527Y0274196D01*
X0042453Y0274056D01*
X0042375Y0273919D01*
X0042293Y0273783D01*
X0042209Y0273649D01*
X0042120Y0273518D01*
X0042029Y0273389D01*
X0041934Y0273262D01*
X0041837Y0273137D01*
X0041736Y0273015D01*
X0041632Y0272896D01*
X0041525Y0272779D01*
X0041415Y0272665D01*
X0041302Y0272554D01*
X0041187Y0272445D01*
X0041069Y0272340D01*
X0040948Y0272238D01*
X0040825Y0272138D01*
X0040699Y0272042D01*
X0040571Y0271949D01*
X0040441Y0271859D01*
X0040308Y0271773D01*
X0040173Y0271689D01*
X0040037Y0271610D01*
X0039898Y0271533D01*
X0039757Y0271461D01*
X0039615Y0271391D01*
X0039471Y0271326D01*
X0039325Y0271264D01*
X0039178Y0271206D01*
X0039029Y0271151D01*
X0038879Y0271100D01*
X0038728Y0271053D01*
X0038576Y0271010D01*
X0038423Y0270971D01*
X0038268Y0270935D01*
X0038113Y0270904D01*
X0037957Y0270876D01*
X0037801Y0270852D01*
X0037644Y0270832D01*
X0037486Y0270816D01*
X0037329Y0270804D01*
X0037170Y0270796D01*
X0037012Y0270792D01*
X0036854Y0270792D01*
X0036696Y0270796D01*
X0036537Y0270804D01*
X0036380Y0270816D01*
X0036222Y0270832D01*
X0036065Y0270852D01*
X0035909Y0270876D01*
X0035753Y0270904D01*
X0035598Y0270935D01*
X0035443Y0270971D01*
X0035290Y0271010D01*
X0035138Y0271053D01*
X0034987Y0271100D01*
X0034837Y0271151D01*
X0034688Y0271206D01*
X0034541Y0271264D01*
X0034395Y0271326D01*
X0034251Y0271391D01*
X0034109Y0271461D01*
X0033968Y0271533D01*
X0033829Y0271610D01*
X0033693Y0271689D01*
X0033558Y0271773D01*
X0033425Y0271859D01*
X0033295Y0271949D01*
X0033167Y0272042D01*
X0033041Y0272138D01*
X0032918Y0272238D01*
X0032797Y0272340D01*
X0032679Y0272445D01*
X0032564Y0272554D01*
X0032451Y0272665D01*
X0032341Y0272779D01*
X0032234Y0272896D01*
X0032130Y0273015D01*
X0032029Y0273137D01*
X0031932Y0273262D01*
X0031837Y0273389D01*
X0031746Y0273518D01*
X0031657Y0273649D01*
X0031573Y0273783D01*
X0031491Y0273919D01*
X0031413Y0274056D01*
X0031339Y0274196D01*
X0031268Y0274338D01*
X0031200Y0274481D01*
X0031136Y0274626D01*
X0031076Y0274772D01*
X0031020Y0274920D01*
X0030967Y0275069D01*
X0030918Y0275220D01*
X0030873Y0275372D01*
X0030832Y0275525D01*
X0030794Y0275678D01*
X0030761Y0275833D01*
X0030731Y0275989D01*
X0030705Y0276145D01*
X0030684Y0276302D01*
X0030666Y0276459D01*
X0030652Y0276617D01*
X0030642Y0276775D01*
X0030636Y0276933D01*
X0030634Y0277091D01*
X0220429Y0280091D02*
X0220431Y0280249D01*
X0220437Y0280407D01*
X0220447Y0280565D01*
X0220461Y0280723D01*
X0220479Y0280880D01*
X0220500Y0281037D01*
X0220526Y0281193D01*
X0220556Y0281349D01*
X0220589Y0281504D01*
X0220627Y0281657D01*
X0220668Y0281810D01*
X0220713Y0281962D01*
X0220762Y0282113D01*
X0220815Y0282262D01*
X0220871Y0282410D01*
X0220931Y0282556D01*
X0220995Y0282701D01*
X0221063Y0282844D01*
X0221134Y0282986D01*
X0221208Y0283126D01*
X0221286Y0283263D01*
X0221368Y0283399D01*
X0221452Y0283533D01*
X0221541Y0283664D01*
X0221632Y0283793D01*
X0221727Y0283920D01*
X0221824Y0284045D01*
X0221925Y0284167D01*
X0222029Y0284286D01*
X0222136Y0284403D01*
X0222246Y0284517D01*
X0222359Y0284628D01*
X0222474Y0284737D01*
X0222592Y0284842D01*
X0222713Y0284944D01*
X0222836Y0285044D01*
X0222962Y0285140D01*
X0223090Y0285233D01*
X0223220Y0285323D01*
X0223353Y0285409D01*
X0223488Y0285493D01*
X0223624Y0285572D01*
X0223763Y0285649D01*
X0223904Y0285721D01*
X0224046Y0285791D01*
X0224190Y0285856D01*
X0224336Y0285918D01*
X0224483Y0285976D01*
X0224632Y0286031D01*
X0224782Y0286082D01*
X0224933Y0286129D01*
X0225085Y0286172D01*
X0225238Y0286211D01*
X0225393Y0286247D01*
X0225548Y0286278D01*
X0225704Y0286306D01*
X0225860Y0286330D01*
X0226017Y0286350D01*
X0226175Y0286366D01*
X0226332Y0286378D01*
X0226491Y0286386D01*
X0226649Y0286390D01*
X0226807Y0286390D01*
X0226965Y0286386D01*
X0227124Y0286378D01*
X0227281Y0286366D01*
X0227439Y0286350D01*
X0227596Y0286330D01*
X0227752Y0286306D01*
X0227908Y0286278D01*
X0228063Y0286247D01*
X0228218Y0286211D01*
X0228371Y0286172D01*
X0228523Y0286129D01*
X0228674Y0286082D01*
X0228824Y0286031D01*
X0228973Y0285976D01*
X0229120Y0285918D01*
X0229266Y0285856D01*
X0229410Y0285791D01*
X0229552Y0285721D01*
X0229693Y0285649D01*
X0229832Y0285572D01*
X0229968Y0285493D01*
X0230103Y0285409D01*
X0230236Y0285323D01*
X0230366Y0285233D01*
X0230494Y0285140D01*
X0230620Y0285044D01*
X0230743Y0284944D01*
X0230864Y0284842D01*
X0230982Y0284737D01*
X0231097Y0284628D01*
X0231210Y0284517D01*
X0231320Y0284403D01*
X0231427Y0284286D01*
X0231531Y0284167D01*
X0231632Y0284045D01*
X0231729Y0283920D01*
X0231824Y0283793D01*
X0231915Y0283664D01*
X0232004Y0283533D01*
X0232088Y0283399D01*
X0232170Y0283263D01*
X0232248Y0283126D01*
X0232322Y0282986D01*
X0232393Y0282844D01*
X0232461Y0282701D01*
X0232525Y0282556D01*
X0232585Y0282410D01*
X0232641Y0282262D01*
X0232694Y0282113D01*
X0232743Y0281962D01*
X0232788Y0281810D01*
X0232829Y0281657D01*
X0232867Y0281504D01*
X0232900Y0281349D01*
X0232930Y0281193D01*
X0232956Y0281037D01*
X0232977Y0280880D01*
X0232995Y0280723D01*
X0233009Y0280565D01*
X0233019Y0280407D01*
X0233025Y0280249D01*
X0233027Y0280091D01*
X0233025Y0279933D01*
X0233019Y0279775D01*
X0233009Y0279617D01*
X0232995Y0279459D01*
X0232977Y0279302D01*
X0232956Y0279145D01*
X0232930Y0278989D01*
X0232900Y0278833D01*
X0232867Y0278678D01*
X0232829Y0278525D01*
X0232788Y0278372D01*
X0232743Y0278220D01*
X0232694Y0278069D01*
X0232641Y0277920D01*
X0232585Y0277772D01*
X0232525Y0277626D01*
X0232461Y0277481D01*
X0232393Y0277338D01*
X0232322Y0277196D01*
X0232248Y0277056D01*
X0232170Y0276919D01*
X0232088Y0276783D01*
X0232004Y0276649D01*
X0231915Y0276518D01*
X0231824Y0276389D01*
X0231729Y0276262D01*
X0231632Y0276137D01*
X0231531Y0276015D01*
X0231427Y0275896D01*
X0231320Y0275779D01*
X0231210Y0275665D01*
X0231097Y0275554D01*
X0230982Y0275445D01*
X0230864Y0275340D01*
X0230743Y0275238D01*
X0230620Y0275138D01*
X0230494Y0275042D01*
X0230366Y0274949D01*
X0230236Y0274859D01*
X0230103Y0274773D01*
X0229968Y0274689D01*
X0229832Y0274610D01*
X0229693Y0274533D01*
X0229552Y0274461D01*
X0229410Y0274391D01*
X0229266Y0274326D01*
X0229120Y0274264D01*
X0228973Y0274206D01*
X0228824Y0274151D01*
X0228674Y0274100D01*
X0228523Y0274053D01*
X0228371Y0274010D01*
X0228218Y0273971D01*
X0228063Y0273935D01*
X0227908Y0273904D01*
X0227752Y0273876D01*
X0227596Y0273852D01*
X0227439Y0273832D01*
X0227281Y0273816D01*
X0227124Y0273804D01*
X0226965Y0273796D01*
X0226807Y0273792D01*
X0226649Y0273792D01*
X0226491Y0273796D01*
X0226332Y0273804D01*
X0226175Y0273816D01*
X0226017Y0273832D01*
X0225860Y0273852D01*
X0225704Y0273876D01*
X0225548Y0273904D01*
X0225393Y0273935D01*
X0225238Y0273971D01*
X0225085Y0274010D01*
X0224933Y0274053D01*
X0224782Y0274100D01*
X0224632Y0274151D01*
X0224483Y0274206D01*
X0224336Y0274264D01*
X0224190Y0274326D01*
X0224046Y0274391D01*
X0223904Y0274461D01*
X0223763Y0274533D01*
X0223624Y0274610D01*
X0223488Y0274689D01*
X0223353Y0274773D01*
X0223220Y0274859D01*
X0223090Y0274949D01*
X0222962Y0275042D01*
X0222836Y0275138D01*
X0222713Y0275238D01*
X0222592Y0275340D01*
X0222474Y0275445D01*
X0222359Y0275554D01*
X0222246Y0275665D01*
X0222136Y0275779D01*
X0222029Y0275896D01*
X0221925Y0276015D01*
X0221824Y0276137D01*
X0221727Y0276262D01*
X0221632Y0276389D01*
X0221541Y0276518D01*
X0221452Y0276649D01*
X0221368Y0276783D01*
X0221286Y0276919D01*
X0221208Y0277056D01*
X0221134Y0277196D01*
X0221063Y0277338D01*
X0220995Y0277481D01*
X0220931Y0277626D01*
X0220871Y0277772D01*
X0220815Y0277920D01*
X0220762Y0278069D01*
X0220713Y0278220D01*
X0220668Y0278372D01*
X0220627Y0278525D01*
X0220589Y0278678D01*
X0220556Y0278833D01*
X0220526Y0278989D01*
X0220500Y0279145D01*
X0220479Y0279302D01*
X0220461Y0279459D01*
X0220447Y0279617D01*
X0220437Y0279775D01*
X0220431Y0279933D01*
X0220429Y0280091D01*
D12*
X0162288Y0169356D02*
X0161521Y0169356D01*
X0161521Y0166286D01*
X0162288Y0166286D02*
X0163056Y0167054D01*
X0163056Y0168588D01*
X0162288Y0169356D01*
X0159986Y0168588D02*
X0159986Y0167054D01*
X0160754Y0166286D01*
X0162288Y0166286D01*
X0159986Y0164752D02*
X0159986Y0163217D01*
X0159986Y0163985D02*
X0164590Y0163985D01*
X0164590Y0163217D01*
X0162288Y0161683D02*
X0160754Y0161683D01*
X0159986Y0160915D01*
X0159986Y0158613D01*
X0164590Y0158613D01*
X0163056Y0158613D02*
X0163056Y0160915D01*
X0162288Y0161683D01*
X0162288Y0157079D02*
X0159986Y0157079D01*
X0159986Y0155544D02*
X0162288Y0155544D01*
X0163056Y0156311D01*
X0162288Y0157079D01*
X0162288Y0155544D02*
X0163056Y0154777D01*
X0163056Y0154009D01*
X0159986Y0154009D01*
X0159986Y0152475D02*
X0159986Y0150173D01*
X0160754Y0149405D01*
X0161521Y0150173D01*
X0161521Y0152475D01*
X0162288Y0152475D02*
X0159986Y0152475D01*
X0162288Y0152475D02*
X0163056Y0151707D01*
X0163056Y0150173D01*
X0163056Y0147871D02*
X0163056Y0145569D01*
X0162288Y0144802D01*
X0161521Y0145569D01*
X0161521Y0147103D01*
X0160754Y0147871D01*
X0159986Y0147103D01*
X0159986Y0144802D01*
X0159986Y0143267D02*
X0162288Y0143267D01*
X0163056Y0142500D01*
X0163056Y0140198D01*
X0159986Y0140198D01*
X0159986Y0138663D02*
X0159986Y0135594D01*
X0164590Y0135594D01*
X0164590Y0138663D01*
X0162288Y0137128D02*
X0162288Y0135594D01*
X0164590Y0134059D02*
X0159986Y0130990D01*
X0160754Y0129455D02*
X0162288Y0129455D01*
X0163056Y0128688D01*
X0163056Y0127153D01*
X0162288Y0126386D01*
X0160754Y0126386D01*
X0159986Y0127153D01*
X0159986Y0128688D01*
X0160754Y0129455D01*
X0157858Y0133292D02*
X0157090Y0133292D01*
X0155556Y0133292D02*
X0152486Y0133292D01*
X0152486Y0134059D02*
X0152486Y0132524D01*
X0152486Y0130990D02*
X0155556Y0127920D01*
X0154788Y0126386D02*
X0154021Y0126386D01*
X0154021Y0123317D01*
X0154788Y0123317D02*
X0155556Y0124084D01*
X0155556Y0125618D01*
X0154788Y0126386D01*
X0152486Y0125618D02*
X0152486Y0124084D01*
X0153254Y0123317D01*
X0154788Y0123317D01*
X0157090Y0121782D02*
X0152486Y0121782D01*
X0152486Y0118713D02*
X0157090Y0118713D01*
X0155556Y0120247D01*
X0157090Y0121782D01*
X0159986Y0121782D02*
X0163056Y0121782D01*
X0163056Y0124084D01*
X0162288Y0124851D01*
X0159986Y0124851D01*
X0165358Y0124084D02*
X0165358Y0122549D01*
X0164590Y0121782D01*
X0165358Y0124084D02*
X0166125Y0124851D01*
X0162288Y0120247D02*
X0161521Y0120247D01*
X0161521Y0117178D01*
X0162288Y0117178D02*
X0163056Y0117945D01*
X0163056Y0119480D01*
X0162288Y0120247D01*
X0159986Y0119480D02*
X0159986Y0117945D01*
X0160754Y0117178D01*
X0162288Y0117178D01*
X0163056Y0115643D02*
X0163056Y0113341D01*
X0162288Y0112574D01*
X0161521Y0113341D01*
X0161521Y0114876D01*
X0160754Y0115643D01*
X0159986Y0114876D01*
X0159986Y0112574D01*
X0159986Y0111039D02*
X0159986Y0109505D01*
X0159986Y0110272D02*
X0163056Y0110272D01*
X0163056Y0109505D01*
X0164590Y0110272D02*
X0165358Y0110272D01*
X0163823Y0107970D02*
X0160754Y0107970D01*
X0159986Y0107203D01*
X0159986Y0104901D01*
X0164590Y0104901D01*
X0164590Y0107203D01*
X0163823Y0107970D01*
X0155556Y0107203D02*
X0154788Y0107970D01*
X0154021Y0107970D01*
X0154021Y0104901D01*
X0154788Y0104901D02*
X0155556Y0105668D01*
X0155556Y0107203D01*
X0155556Y0109505D02*
X0155556Y0111807D01*
X0154788Y0112574D01*
X0152486Y0112574D01*
X0152486Y0109505D02*
X0155556Y0109505D01*
X0152486Y0107203D02*
X0152486Y0105668D01*
X0153254Y0104901D01*
X0154788Y0104901D01*
X0152486Y0127920D02*
X0155556Y0130990D01*
X0155556Y0132524D02*
X0155556Y0133292D01*
X0154788Y0135594D02*
X0153254Y0135594D01*
X0152486Y0136361D01*
X0152486Y0138663D01*
X0153254Y0140198D02*
X0152486Y0140965D01*
X0152486Y0142500D01*
X0153254Y0143267D01*
X0154788Y0143267D01*
X0155556Y0142500D01*
X0155556Y0140965D01*
X0154788Y0140198D01*
X0153254Y0140198D01*
X0155556Y0138663D02*
X0155556Y0136361D01*
X0154788Y0135594D01*
D13*
X0131248Y0130000D02*
X0131248Y0119000D01*
X0131246Y0118940D01*
X0131241Y0118879D01*
X0131232Y0118820D01*
X0131219Y0118761D01*
X0131203Y0118702D01*
X0131183Y0118645D01*
X0131160Y0118590D01*
X0131133Y0118535D01*
X0131104Y0118483D01*
X0131071Y0118432D01*
X0131035Y0118383D01*
X0130997Y0118337D01*
X0130955Y0118293D01*
X0130911Y0118251D01*
X0130865Y0118213D01*
X0130816Y0118177D01*
X0130765Y0118144D01*
X0130713Y0118115D01*
X0130658Y0118088D01*
X0130603Y0118065D01*
X0130546Y0118045D01*
X0130487Y0118029D01*
X0130428Y0118016D01*
X0130369Y0118007D01*
X0130308Y0118002D01*
X0130248Y0118000D01*
X0124248Y0118000D01*
X0124188Y0118002D01*
X0124127Y0118007D01*
X0124068Y0118016D01*
X0124009Y0118029D01*
X0123950Y0118045D01*
X0123893Y0118065D01*
X0123838Y0118088D01*
X0123783Y0118115D01*
X0123731Y0118144D01*
X0123680Y0118177D01*
X0123631Y0118213D01*
X0123585Y0118251D01*
X0123541Y0118293D01*
X0123499Y0118337D01*
X0123461Y0118383D01*
X0123425Y0118432D01*
X0123392Y0118483D01*
X0123363Y0118535D01*
X0123336Y0118590D01*
X0123313Y0118645D01*
X0123293Y0118702D01*
X0123277Y0118761D01*
X0123264Y0118820D01*
X0123255Y0118879D01*
X0123250Y0118940D01*
X0123248Y0119000D01*
X0123248Y0130000D01*
X0122248Y0130000D02*
X0122248Y0119000D01*
X0122246Y0118940D01*
X0122241Y0118879D01*
X0122232Y0118820D01*
X0122219Y0118761D01*
X0122203Y0118702D01*
X0122183Y0118645D01*
X0122160Y0118590D01*
X0122133Y0118535D01*
X0122104Y0118483D01*
X0122071Y0118432D01*
X0122035Y0118383D01*
X0121997Y0118337D01*
X0121955Y0118293D01*
X0121911Y0118251D01*
X0121865Y0118213D01*
X0121816Y0118177D01*
X0121765Y0118144D01*
X0121713Y0118115D01*
X0121658Y0118088D01*
X0121603Y0118065D01*
X0121546Y0118045D01*
X0121487Y0118029D01*
X0121428Y0118016D01*
X0121369Y0118007D01*
X0121308Y0118002D01*
X0121248Y0118000D01*
X0115248Y0118000D01*
X0115188Y0118002D01*
X0115127Y0118007D01*
X0115068Y0118016D01*
X0115009Y0118029D01*
X0114950Y0118045D01*
X0114893Y0118065D01*
X0114838Y0118088D01*
X0114783Y0118115D01*
X0114731Y0118144D01*
X0114680Y0118177D01*
X0114631Y0118213D01*
X0114585Y0118251D01*
X0114541Y0118293D01*
X0114499Y0118337D01*
X0114461Y0118383D01*
X0114425Y0118432D01*
X0114392Y0118483D01*
X0114363Y0118535D01*
X0114336Y0118590D01*
X0114313Y0118645D01*
X0114293Y0118702D01*
X0114277Y0118761D01*
X0114264Y0118820D01*
X0114255Y0118879D01*
X0114250Y0118940D01*
X0114248Y0119000D01*
X0114248Y0130000D01*
X0114250Y0130060D01*
X0114255Y0130121D01*
X0114264Y0130180D01*
X0114277Y0130239D01*
X0114293Y0130298D01*
X0114313Y0130355D01*
X0114336Y0130410D01*
X0114363Y0130465D01*
X0114392Y0130517D01*
X0114425Y0130568D01*
X0114461Y0130617D01*
X0114499Y0130663D01*
X0114541Y0130707D01*
X0114585Y0130749D01*
X0114631Y0130787D01*
X0114680Y0130823D01*
X0114731Y0130856D01*
X0114783Y0130885D01*
X0114838Y0130912D01*
X0114893Y0130935D01*
X0114950Y0130955D01*
X0115009Y0130971D01*
X0115068Y0130984D01*
X0115127Y0130993D01*
X0115188Y0130998D01*
X0115248Y0131000D01*
X0121248Y0131000D01*
X0121308Y0130998D01*
X0121369Y0130993D01*
X0121428Y0130984D01*
X0121487Y0130971D01*
X0121546Y0130955D01*
X0121603Y0130935D01*
X0121658Y0130912D01*
X0121713Y0130885D01*
X0121765Y0130856D01*
X0121816Y0130823D01*
X0121865Y0130787D01*
X0121911Y0130749D01*
X0121955Y0130707D01*
X0121997Y0130663D01*
X0122035Y0130617D01*
X0122071Y0130568D01*
X0122104Y0130517D01*
X0122133Y0130465D01*
X0122160Y0130410D01*
X0122183Y0130355D01*
X0122203Y0130298D01*
X0122219Y0130239D01*
X0122232Y0130180D01*
X0122241Y0130121D01*
X0122246Y0130060D01*
X0122248Y0130000D01*
X0123248Y0130000D02*
X0123250Y0130060D01*
X0123255Y0130121D01*
X0123264Y0130180D01*
X0123277Y0130239D01*
X0123293Y0130298D01*
X0123313Y0130355D01*
X0123336Y0130410D01*
X0123363Y0130465D01*
X0123392Y0130517D01*
X0123425Y0130568D01*
X0123461Y0130617D01*
X0123499Y0130663D01*
X0123541Y0130707D01*
X0123585Y0130749D01*
X0123631Y0130787D01*
X0123680Y0130823D01*
X0123731Y0130856D01*
X0123783Y0130885D01*
X0123838Y0130912D01*
X0123893Y0130935D01*
X0123950Y0130955D01*
X0124009Y0130971D01*
X0124068Y0130984D01*
X0124127Y0130993D01*
X0124188Y0130998D01*
X0124248Y0131000D01*
X0130248Y0131000D01*
X0130308Y0130998D01*
X0130369Y0130993D01*
X0130428Y0130984D01*
X0130487Y0130971D01*
X0130546Y0130955D01*
X0130603Y0130935D01*
X0130658Y0130912D01*
X0130713Y0130885D01*
X0130765Y0130856D01*
X0130816Y0130823D01*
X0130865Y0130787D01*
X0130911Y0130749D01*
X0130955Y0130707D01*
X0130997Y0130663D01*
X0131035Y0130617D01*
X0131071Y0130568D01*
X0131104Y0130517D01*
X0131133Y0130465D01*
X0131160Y0130410D01*
X0131183Y0130355D01*
X0131203Y0130298D01*
X0131219Y0130239D01*
X0131232Y0130180D01*
X0131241Y0130121D01*
X0131246Y0130060D01*
X0131248Y0130000D01*
X0019858Y0127693D02*
X0013453Y0127693D01*
X0013453Y0124490D01*
X0014520Y0123422D01*
X0016655Y0123422D01*
X0017723Y0124490D01*
X0017723Y0127693D01*
X0016655Y0129868D02*
X0017723Y0130935D01*
X0017723Y0133071D01*
X0016655Y0134138D01*
X0015588Y0134138D01*
X0015588Y0129868D01*
X0016655Y0129868D02*
X0014520Y0129868D01*
X0013453Y0130935D01*
X0013453Y0133071D01*
X0013453Y0142759D02*
X0013453Y0145962D01*
X0014520Y0147029D01*
X0016655Y0147029D01*
X0017723Y0145962D01*
X0017723Y0142759D01*
X0011318Y0142759D01*
X0014520Y0149204D02*
X0013453Y0150272D01*
X0013453Y0152407D01*
X0014520Y0153475D01*
X0016655Y0153475D01*
X0017723Y0152407D01*
X0017723Y0150272D01*
X0016655Y0149204D01*
X0014520Y0149204D01*
X0017723Y0155650D02*
X0017723Y0157785D01*
X0018791Y0156717D02*
X0014520Y0156717D01*
X0013453Y0157785D01*
X0014520Y0159947D02*
X0016655Y0159947D01*
X0017723Y0161014D01*
X0017723Y0163150D01*
X0016655Y0164217D01*
X0015588Y0164217D01*
X0015588Y0159947D01*
X0014520Y0159947D02*
X0013453Y0161014D01*
X0013453Y0163150D01*
X0013453Y0166392D02*
X0017723Y0166392D01*
X0017723Y0169595D01*
X0016655Y0170663D01*
X0013453Y0170663D01*
X0014520Y0172838D02*
X0013453Y0173905D01*
X0013453Y0177108D01*
X0013453Y0179283D02*
X0013453Y0181419D01*
X0013453Y0180351D02*
X0017723Y0180351D01*
X0017723Y0179283D01*
X0017723Y0177108D02*
X0017723Y0173905D01*
X0016655Y0172838D01*
X0014520Y0172838D01*
X0019858Y0180351D02*
X0020926Y0180351D01*
X0017723Y0184648D02*
X0017723Y0186783D01*
X0016655Y0187851D01*
X0013453Y0187851D01*
X0013453Y0184648D01*
X0014520Y0183580D01*
X0015588Y0184648D01*
X0015588Y0187851D01*
X0013453Y0114802D02*
X0013453Y0110531D01*
X0017723Y0114802D01*
X0017723Y0110531D01*
X0016655Y0108356D02*
X0017723Y0107289D01*
X0017723Y0105153D01*
X0015588Y0105153D02*
X0015588Y0108356D01*
X0016655Y0108356D02*
X0013453Y0108356D01*
X0013453Y0105153D01*
X0014520Y0104086D01*
X0015588Y0105153D01*
X0016655Y0101924D02*
X0016655Y0099789D01*
X0018791Y0100856D02*
X0013453Y0100856D01*
X0018791Y0100856D02*
X0019858Y0101924D01*
X0017723Y0097620D02*
X0017723Y0096553D01*
X0015588Y0094418D01*
X0013453Y0094418D02*
X0017723Y0094418D01*
X0016655Y0092242D02*
X0015588Y0092242D01*
X0015588Y0087972D01*
X0016655Y0087972D02*
X0017723Y0089040D01*
X0017723Y0091175D01*
X0016655Y0092242D01*
X0013453Y0091175D02*
X0013453Y0089040D01*
X0014520Y0087972D01*
X0016655Y0087972D01*
X0017723Y0085810D02*
X0017723Y0083675D01*
X0018791Y0084743D02*
X0014520Y0084743D01*
X0013453Y0085810D01*
X0013453Y0081500D02*
X0016655Y0081500D01*
X0017723Y0080432D01*
X0017723Y0077230D01*
X0013453Y0077230D01*
X0013453Y0075068D02*
X0013453Y0072933D01*
X0013453Y0074000D02*
X0017723Y0074000D01*
X0017723Y0072933D01*
X0019858Y0074000D02*
X0020926Y0074000D01*
X0016655Y0064312D02*
X0013453Y0064312D01*
X0013453Y0061109D01*
X0014520Y0060042D01*
X0015588Y0061109D01*
X0015588Y0064312D01*
X0016655Y0064312D02*
X0017723Y0063244D01*
X0017723Y0061109D01*
X0017723Y0057880D02*
X0017723Y0055745D01*
X0018791Y0056812D02*
X0014520Y0056812D01*
X0013453Y0057880D01*
X0015588Y0053569D02*
X0015588Y0049299D01*
X0016655Y0049299D02*
X0017723Y0050367D01*
X0017723Y0052502D01*
X0016655Y0053569D01*
X0015588Y0053569D01*
X0013453Y0052502D02*
X0013453Y0050367D01*
X0014520Y0049299D01*
X0016655Y0049299D01*
X0017723Y0047137D02*
X0012385Y0047137D01*
X0011318Y0046070D01*
X0011318Y0045002D01*
X0013453Y0039631D02*
X0017723Y0039631D01*
X0017723Y0041766D02*
X0017723Y0042834D01*
X0017723Y0041766D02*
X0015588Y0039631D01*
X0015588Y0037456D02*
X0015588Y0034253D01*
X0014520Y0033185D01*
X0013453Y0034253D01*
X0013453Y0037456D01*
X0016655Y0037456D01*
X0017723Y0036388D01*
X0017723Y0034253D01*
X0019858Y0031010D02*
X0019858Y0026740D01*
X0019858Y0028875D02*
X0013453Y0028875D01*
X0019858Y0047137D02*
X0020926Y0047137D01*
X0176777Y0254265D02*
X0181048Y0254265D01*
X0176777Y0258535D01*
X0176777Y0259602D01*
X0177845Y0260670D01*
X0179980Y0260670D01*
X0181048Y0259602D01*
X0183223Y0259602D02*
X0187493Y0255332D01*
X0186425Y0254265D01*
X0184290Y0254265D01*
X0183223Y0255332D01*
X0183223Y0259602D01*
X0184290Y0260670D01*
X0186425Y0260670D01*
X0187493Y0259602D01*
X0187493Y0255332D01*
X0189668Y0255332D02*
X0190736Y0254265D01*
X0192871Y0254265D01*
X0193939Y0255332D01*
X0189668Y0259602D01*
X0189668Y0255332D01*
X0193939Y0255332D02*
X0193939Y0259602D01*
X0192871Y0260670D01*
X0190736Y0260670D01*
X0189668Y0259602D01*
X0196114Y0259602D02*
X0196114Y0255332D01*
X0197181Y0254265D01*
X0199316Y0254265D01*
X0200384Y0255332D01*
X0196114Y0259602D01*
X0197181Y0260670D01*
X0199316Y0260670D01*
X0200384Y0259602D01*
X0200384Y0255332D01*
X0202559Y0254265D02*
X0202559Y0258535D01*
X0204694Y0260670D01*
X0206830Y0258535D01*
X0206830Y0254265D01*
X0206830Y0257467D02*
X0202559Y0257467D01*
X0209005Y0257467D02*
X0209005Y0259602D01*
X0210072Y0260670D01*
X0213275Y0260670D01*
X0213275Y0254265D01*
X0213275Y0256400D02*
X0210072Y0256400D01*
X0209005Y0257467D01*
X0215450Y0256400D02*
X0215450Y0255332D01*
X0216518Y0254265D01*
X0218653Y0254265D01*
X0219721Y0255332D01*
X0218653Y0257467D02*
X0216518Y0257467D01*
X0215450Y0256400D01*
X0215450Y0259602D02*
X0216518Y0260670D01*
X0218653Y0260670D01*
X0219721Y0259602D01*
X0219721Y0258535D01*
X0218653Y0257467D01*
X0221896Y0257467D02*
X0222963Y0256400D01*
X0226166Y0256400D01*
X0224031Y0256400D02*
X0221896Y0254265D01*
X0221896Y0257467D02*
X0221896Y0259602D01*
X0222963Y0260670D01*
X0226166Y0260670D01*
X0226166Y0254265D01*
D14*
X0413305Y0208890D02*
X0417259Y0208890D01*
X0418576Y0207572D01*
X0417259Y0206254D01*
X0413305Y0206254D01*
X0413305Y0203618D02*
X0418576Y0203618D01*
X0418576Y0204936D01*
X0417259Y0206254D01*
X0417259Y0200971D02*
X0418576Y0199653D01*
X0418576Y0197017D01*
X0417259Y0195700D01*
X0414623Y0195700D01*
X0413305Y0197017D01*
X0413305Y0199653D01*
X0414623Y0200971D01*
X0417259Y0200971D01*
X0418576Y0193052D02*
X0418576Y0189099D01*
X0417259Y0187781D01*
X0414623Y0187781D01*
X0413305Y0189099D01*
X0413305Y0193052D01*
X0413305Y0185139D02*
X0413305Y0183822D01*
X0414623Y0183822D01*
X0414623Y0185139D01*
X0413305Y0185139D01*
X0413305Y0181174D02*
X0418576Y0175903D01*
X0417259Y0173255D02*
X0415941Y0173255D01*
X0415941Y0167984D01*
X0417259Y0167984D02*
X0418576Y0169302D01*
X0418576Y0171937D01*
X0417259Y0173255D01*
X0413305Y0171937D02*
X0413305Y0169302D01*
X0414623Y0167984D01*
X0417259Y0167984D01*
X0418576Y0165340D02*
X0418576Y0162705D01*
X0419894Y0164023D02*
X0414623Y0164023D01*
X0413305Y0165340D01*
X0413305Y0160057D02*
X0417259Y0160057D01*
X0418576Y0158739D01*
X0418576Y0154786D01*
X0413305Y0154786D01*
X0413305Y0152138D02*
X0413305Y0148185D01*
X0414623Y0146867D01*
X0415941Y0148185D01*
X0415941Y0152138D01*
X0417259Y0152138D02*
X0413305Y0152138D01*
X0417259Y0152138D02*
X0418576Y0150821D01*
X0418576Y0148185D01*
X0418576Y0144220D02*
X0413305Y0144220D01*
X0413305Y0140266D01*
X0414623Y0138949D01*
X0418576Y0138949D01*
X0418576Y0136301D02*
X0418576Y0132348D01*
X0417259Y0131030D01*
X0414623Y0131030D01*
X0413305Y0132348D01*
X0413305Y0136301D01*
X0413305Y0128388D02*
X0413305Y0127070D01*
X0414623Y0127070D01*
X0414623Y0128388D01*
X0413305Y0128388D01*
X0414623Y0124423D02*
X0418576Y0124423D01*
X0414623Y0124423D02*
X0413305Y0123105D01*
X0414623Y0121787D01*
X0413305Y0120469D01*
X0414623Y0119152D01*
X0418576Y0119152D01*
X0418576Y0116504D02*
X0414623Y0116504D01*
X0413305Y0115186D01*
X0414623Y0113868D01*
X0413305Y0112551D01*
X0414623Y0111233D01*
X0418576Y0111233D01*
X0418576Y0108585D02*
X0414623Y0108585D01*
X0413305Y0107268D01*
X0414623Y0105950D01*
X0413305Y0104632D01*
X0414623Y0103314D01*
X0418576Y0103314D01*
X0413305Y0175903D02*
X0418576Y0181174D01*
D15*
X0197248Y0037500D02*
X0197248Y0036500D01*
X0197248Y0037500D02*
X0196248Y0038500D01*
X0189248Y0038500D01*
X0188248Y0039500D01*
X0186248Y0037500D02*
X0185248Y0038500D01*
X0182248Y0038500D01*
X0181248Y0039500D01*
X0177248Y0036500D02*
X0177248Y0035500D01*
X0177248Y0036500D02*
X0176248Y0037500D01*
X0175248Y0037500D01*
X0174248Y0038500D01*
X0174248Y0039500D01*
X0167248Y0036500D02*
X0167248Y0035500D01*
X0167248Y0036500D02*
X0166248Y0037500D01*
X0163248Y0037500D01*
X0162248Y0038500D01*
X0162248Y0039500D01*
X0157248Y0039500D02*
X0157248Y0035500D01*
X0152248Y0038500D02*
X0152248Y0039500D01*
X0152248Y0038500D02*
X0151248Y0037500D01*
X0148248Y0037500D01*
X0147248Y0036500D01*
X0147248Y0035500D01*
X0145248Y0037500D02*
X0146248Y0038500D01*
X0146248Y0039500D01*
X0145248Y0037500D02*
X0138248Y0037500D01*
X0137248Y0036500D01*
X0186248Y0036500D02*
X0186248Y0037500D01*
D16*
X0104938Y0194443D03*
X0109253Y0225640D03*
X0193442Y0212033D03*
D17*
X0219661Y0216237D03*
X0246323Y0216458D03*
X0158594Y0239580D03*
X0100844Y0196213D03*
X0099517Y0197651D03*
X0099075Y0198093D03*
X0098853Y0198315D03*
X0097858Y0199421D03*
X0097747Y0199531D03*
X0097526Y0199753D03*
X0096972Y0200306D03*
X0096087Y0201302D03*
X0095977Y0201412D03*
X0095755Y0201633D03*
X0102393Y0194553D03*
X0090114Y0213360D03*
X0057035Y0215352D03*
X0090114Y0239137D03*
D18*
X0073574Y0247102D03*
X0073574Y0247213D03*
X0073574Y0247324D03*
X0073574Y0247434D03*
X0073574Y0247545D03*
X0073574Y0247656D03*
X0073574Y0247766D03*
X0073574Y0247877D03*
X0073574Y0247987D03*
X0073574Y0248098D03*
X0073574Y0248209D03*
X0073574Y0248319D03*
X0073574Y0248430D03*
X0073574Y0248541D03*
X0073574Y0248651D03*
X0073574Y0248762D03*
X0073574Y0248872D03*
X0073574Y0248983D03*
X0073574Y0249094D03*
X0073574Y0249204D03*
X0073574Y0249315D03*
X0073574Y0249426D03*
X0073574Y0249536D03*
X0073574Y0249647D03*
X0073574Y0249757D03*
X0073574Y0249868D03*
X0073574Y0249979D03*
X0073574Y0201744D03*
X0073574Y0201633D03*
X0073574Y0201523D03*
X0073574Y0201412D03*
X0073574Y0201302D03*
X0073574Y0201191D03*
X0073574Y0201080D03*
X0073574Y0200970D03*
X0073574Y0200859D03*
X0073574Y0200748D03*
X0073574Y0200638D03*
X0073574Y0200527D03*
X0073574Y0200417D03*
X0073574Y0200306D03*
X0073574Y0200195D03*
X0073574Y0200085D03*
X0073574Y0199974D03*
X0073574Y0199863D03*
X0073574Y0199753D03*
X0073574Y0199642D03*
X0073574Y0199531D03*
X0073574Y0199421D03*
X0073574Y0199310D03*
X0073574Y0199200D03*
X0073574Y0199089D03*
X0073574Y0198978D03*
X0073574Y0198868D03*
X0073574Y0198757D03*
X0073574Y0198646D03*
X0073574Y0198536D03*
X0073574Y0198425D03*
X0073574Y0198315D03*
X0073574Y0198204D03*
X0073574Y0198093D03*
X0073574Y0197983D03*
X0073574Y0197872D03*
X0073574Y0197761D03*
X0073574Y0197651D03*
X0073574Y0197540D03*
X0073574Y0197430D03*
X0073574Y0197319D03*
X0073574Y0197208D03*
X0073574Y0197098D03*
X0073574Y0196987D03*
X0073574Y0196876D03*
X0073574Y0196766D03*
X0073574Y0196655D03*
X0073574Y0196544D03*
X0073574Y0196434D03*
X0073574Y0196323D03*
X0073574Y0196213D03*
X0073574Y0196102D03*
X0073574Y0195991D03*
X0073574Y0195881D03*
X0073574Y0195770D03*
X0073574Y0195659D03*
X0073574Y0195549D03*
X0073574Y0195438D03*
X0073574Y0195328D03*
X0073574Y0195217D03*
X0073574Y0195106D03*
X0073574Y0194996D03*
X0073574Y0194885D03*
X0073574Y0194774D03*
X0073574Y0194664D03*
X0073574Y0194553D03*
D19*
X0095645Y0201744D03*
X0099185Y0197983D03*
X0102283Y0194664D03*
X0072634Y0220551D03*
X0205500Y0216237D03*
D20*
X0192059Y0239580D03*
X0246489Y0239358D03*
X0246489Y0216569D03*
X0102227Y0194774D03*
X0101895Y0195106D03*
X0101564Y0195438D03*
X0101453Y0195549D03*
X0101121Y0195881D03*
X0100789Y0196323D03*
X0100679Y0196434D03*
X0100347Y0196766D03*
X0100015Y0197098D03*
X0099904Y0197208D03*
X0099572Y0197540D03*
X0099240Y0197872D03*
X0098798Y0198425D03*
X0098466Y0198757D03*
X0098355Y0198868D03*
X0098023Y0199200D03*
X0097581Y0199642D03*
X0097249Y0200085D03*
X0096806Y0200527D03*
X0096475Y0200859D03*
X0090169Y0213250D03*
X0056980Y0215241D03*
X0090169Y0239248D03*
D21*
X0096253Y0201080D03*
X0096585Y0200748D03*
X0096696Y0200638D03*
X0097360Y0199974D03*
X0098134Y0199089D03*
X0098245Y0198978D03*
X0098577Y0198646D03*
X0099351Y0197761D03*
X0099794Y0197319D03*
X0100125Y0196987D03*
X0100568Y0196544D03*
X0101010Y0195991D03*
X0101342Y0195659D03*
X0101674Y0195328D03*
X0101785Y0195217D03*
X0102117Y0194885D03*
D22*
X0102006Y0194996D03*
X0101231Y0195770D03*
X0100457Y0196655D03*
X0100236Y0196876D03*
X0099683Y0197430D03*
X0098687Y0198536D03*
X0097913Y0199310D03*
X0097139Y0200195D03*
X0096917Y0200417D03*
X0096364Y0200970D03*
X0096143Y0201191D03*
X0148913Y0215352D03*
X0148913Y0215462D03*
X0148913Y0215573D03*
X0148913Y0215683D03*
X0158427Y0239469D03*
X0177677Y0239580D03*
D23*
X0148969Y0215794D03*
X0100955Y0196102D03*
X0098964Y0198204D03*
X0097415Y0199863D03*
X0095866Y0201523D03*
X0077502Y0237146D03*
D24*
X0076285Y0201855D03*
D25*
X0076229Y0201965D03*
D26*
X0095424Y0202076D03*
X0077502Y0237035D03*
X0148858Y0215241D03*
X0148858Y0215130D03*
X0148858Y0215020D03*
X0148858Y0214909D03*
X0158261Y0239358D03*
D27*
X0073519Y0202076D03*
D28*
X0090280Y0213028D03*
X0095369Y0202187D03*
X0056869Y0215020D03*
X0090280Y0239469D03*
X0090280Y0239580D03*
X0148803Y0214798D03*
X0148803Y0214688D03*
X0148803Y0214577D03*
X0177567Y0239469D03*
X0205224Y0216458D03*
X0212525Y0212143D03*
X0246710Y0239137D03*
D29*
X0073463Y0202187D03*
D30*
X0095313Y0202297D03*
X0072634Y0220772D03*
X0074957Y0223317D03*
X0148747Y0214467D03*
X0148747Y0214356D03*
X0148747Y0214245D03*
X0148747Y0214135D03*
X0158151Y0239248D03*
D31*
X0073408Y0202297D03*
D32*
X0095258Y0202408D03*
X0073353Y0221547D03*
X0073353Y0221657D03*
X0073464Y0221768D03*
X0073795Y0222100D03*
X0074127Y0222432D03*
X0074238Y0222543D03*
X0074570Y0222874D03*
X0073021Y0221215D03*
X0072689Y0220883D03*
X0148692Y0214024D03*
X0148692Y0213913D03*
X0148692Y0213803D03*
D33*
X0073353Y0202408D03*
D34*
X0090445Y0212696D03*
X0095203Y0202519D03*
X0056703Y0214688D03*
X0076064Y0235265D03*
X0077059Y0236371D03*
X0090445Y0239801D03*
X0090445Y0239911D03*
X0148637Y0213692D03*
X0148637Y0213581D03*
X0148637Y0213471D03*
X0157819Y0238916D03*
X0246876Y0238916D03*
D35*
X0073297Y0202519D03*
D36*
X0090501Y0212475D03*
X0090501Y0212586D03*
X0095147Y0202629D03*
X0056648Y0214577D03*
X0074902Y0234048D03*
X0075012Y0234159D03*
X0075123Y0234269D03*
X0075234Y0234380D03*
X0075455Y0234601D03*
X0075566Y0234712D03*
X0075676Y0234822D03*
X0075787Y0234933D03*
X0075897Y0235044D03*
X0076229Y0235376D03*
X0076451Y0235707D03*
X0076561Y0235818D03*
X0076672Y0235929D03*
X0076783Y0236039D03*
X0076893Y0236150D03*
X0077004Y0236261D03*
X0077225Y0236482D03*
X0077335Y0236593D03*
X0077446Y0236703D03*
X0090501Y0240022D03*
X0157321Y0238252D03*
X0157432Y0238473D03*
X0157542Y0238584D03*
X0157653Y0238694D03*
X0247153Y0238584D03*
D37*
X0073242Y0202629D03*
D38*
X0095092Y0202740D03*
X0157376Y0238363D03*
X0192778Y0238805D03*
X0192889Y0238694D03*
X0192999Y0238473D03*
X0204615Y0217232D03*
X0247097Y0217232D03*
D39*
X0073187Y0202740D03*
D40*
X0095036Y0202850D03*
X0148471Y0212365D03*
X0148471Y0212475D03*
X0148471Y0212586D03*
X0156879Y0237588D03*
X0156879Y0237699D03*
X0176792Y0238473D03*
X0192944Y0238584D03*
X0204449Y0217564D03*
X0204449Y0217454D03*
X0204560Y0217343D03*
X0220933Y0217785D03*
D41*
X0073131Y0202850D03*
D42*
X0090667Y0212143D03*
X0094981Y0202961D03*
X0056482Y0214245D03*
X0090667Y0240354D03*
X0148416Y0212254D03*
X0148416Y0212143D03*
X0155496Y0234933D03*
X0156049Y0236150D03*
X0156159Y0236261D03*
X0156159Y0236371D03*
X0156270Y0236482D03*
X0156270Y0236593D03*
X0156381Y0236703D03*
X0156381Y0236814D03*
X0156492Y0236924D03*
X0156492Y0237035D03*
X0176184Y0236924D03*
X0176294Y0237367D03*
X0176405Y0237699D03*
X0176515Y0237920D03*
X0176515Y0238031D03*
X0193110Y0238252D03*
X0193442Y0237478D03*
X0193553Y0237035D03*
X0204173Y0218117D03*
X0204284Y0217896D03*
X0204284Y0217785D03*
X0221210Y0218560D03*
X0247429Y0217896D03*
X0247429Y0217785D03*
X0247429Y0238031D03*
D43*
X0073076Y0202961D03*
D44*
X0094926Y0203072D03*
X0152675Y0226193D03*
X0152896Y0226968D03*
X0153117Y0227742D03*
X0153449Y0228848D03*
X0153670Y0229623D03*
X0153892Y0230397D03*
X0154223Y0231504D03*
X0154445Y0232278D03*
X0154666Y0232720D03*
X0154666Y0232831D03*
X0154887Y0233384D03*
X0154887Y0233495D03*
X0154998Y0233606D03*
X0154998Y0233716D03*
X0155219Y0234269D03*
X0155440Y0234712D03*
X0155440Y0234822D03*
X0155662Y0235154D03*
X0155662Y0235265D03*
X0155662Y0235376D03*
X0155994Y0235929D03*
X0155994Y0236039D03*
X0175575Y0233274D03*
X0175575Y0233163D03*
X0175907Y0235707D03*
X0175907Y0235818D03*
X0176128Y0236703D03*
X0176128Y0236814D03*
X0176349Y0237478D03*
X0176349Y0237588D03*
X0175354Y0229733D03*
X0175354Y0229623D03*
X0175354Y0229512D03*
X0175132Y0225640D03*
X0174801Y0219334D03*
X0174579Y0215352D03*
X0203675Y0219887D03*
X0203675Y0219998D03*
X0221155Y0218449D03*
X0221155Y0218339D03*
X0221376Y0219002D03*
X0221376Y0219113D03*
X0221376Y0219224D03*
X0221818Y0221657D03*
X0221818Y0221768D03*
X0223035Y0242456D03*
X0223035Y0242567D03*
X0223035Y0242677D03*
X0223035Y0242788D03*
X0223035Y0242898D03*
D45*
X0073021Y0203072D03*
D46*
X0094870Y0203182D03*
X0094870Y0203293D03*
X0194106Y0233495D03*
X0194106Y0233606D03*
X0194106Y0233716D03*
X0194106Y0233827D03*
X0194106Y0233937D03*
X0194106Y0234048D03*
X0194106Y0234159D03*
X0194106Y0234269D03*
X0202403Y0238031D03*
X0202403Y0238141D03*
X0202403Y0238252D03*
X0202403Y0238363D03*
X0202403Y0238473D03*
X0202403Y0238584D03*
X0202403Y0238694D03*
X0202403Y0238805D03*
X0202403Y0238916D03*
X0202403Y0239026D03*
X0202403Y0239137D03*
X0202403Y0239248D03*
X0202403Y0239358D03*
X0202403Y0239469D03*
X0202403Y0239580D03*
X0202403Y0239690D03*
X0203288Y0223428D03*
X0203288Y0223317D03*
X0203288Y0223206D03*
X0203288Y0223096D03*
X0203288Y0222985D03*
X0203288Y0222874D03*
X0203288Y0222764D03*
X0203288Y0222653D03*
X0203288Y0222543D03*
X0221984Y0222985D03*
X0221984Y0223096D03*
X0221984Y0223206D03*
X0221984Y0223317D03*
X0221984Y0223428D03*
X0221984Y0223538D03*
X0221984Y0223649D03*
X0221984Y0223759D03*
X0222427Y0230729D03*
X0222427Y0230840D03*
X0222427Y0230950D03*
X0222427Y0231061D03*
X0222427Y0231172D03*
X0222427Y0231282D03*
X0222427Y0231393D03*
X0222427Y0231504D03*
X0222427Y0231614D03*
X0222427Y0231725D03*
X0222427Y0231835D03*
X0222427Y0231946D03*
X0222427Y0232057D03*
X0222427Y0232167D03*
X0222427Y0232278D03*
X0222427Y0232389D03*
X0222427Y0232499D03*
X0222869Y0238473D03*
X0222869Y0238584D03*
X0222869Y0238694D03*
X0222869Y0238805D03*
X0222869Y0238916D03*
X0222869Y0239026D03*
X0222869Y0239137D03*
X0222869Y0239248D03*
X0222869Y0239358D03*
X0222869Y0239469D03*
X0222869Y0239580D03*
X0222869Y0239690D03*
X0222869Y0239801D03*
X0222869Y0239911D03*
X0222869Y0240022D03*
X0222869Y0240133D03*
X0222869Y0240243D03*
X0222869Y0240354D03*
X0222869Y0240465D03*
D47*
X0072966Y0203182D03*
D48*
X0072910Y0203293D03*
D49*
X0056260Y0213692D03*
X0056260Y0213803D03*
X0090888Y0211701D03*
X0094760Y0203514D03*
X0094760Y0203404D03*
X0090888Y0240796D03*
D50*
X0072855Y0203404D03*
D51*
X0072800Y0203514D03*
D52*
X0094705Y0203625D03*
D53*
X0072744Y0203625D03*
X0072744Y0203735D03*
D54*
X0094649Y0203735D03*
D55*
X0094594Y0203846D03*
X0091054Y0211369D03*
X0056094Y0213360D03*
X0091054Y0241128D03*
X0184757Y0243783D03*
D56*
X0072689Y0203846D03*
D57*
X0091109Y0211258D03*
X0094539Y0203957D03*
X0091109Y0241239D03*
D58*
X0072634Y0203957D03*
D59*
X0094483Y0204067D03*
D60*
X0072579Y0204067D03*
D61*
X0055929Y0213028D03*
X0091220Y0211037D03*
X0094428Y0204178D03*
X0091220Y0234712D03*
X0091220Y0241460D03*
X0091220Y0241571D03*
D62*
X0072523Y0204178D03*
D63*
X0055873Y0212918D03*
X0091275Y0210926D03*
X0091275Y0219445D03*
X0091275Y0219556D03*
X0091275Y0219666D03*
X0091275Y0219777D03*
X0091275Y0219887D03*
X0091275Y0219998D03*
X0091275Y0220109D03*
X0091275Y0220219D03*
X0091275Y0220330D03*
X0091275Y0220441D03*
X0091275Y0220551D03*
X0091275Y0220662D03*
X0091275Y0220772D03*
X0091275Y0220883D03*
X0091275Y0220994D03*
X0091275Y0221104D03*
X0091275Y0221215D03*
X0091275Y0221326D03*
X0091275Y0221436D03*
X0091275Y0221547D03*
X0091275Y0221657D03*
X0091275Y0221768D03*
X0091275Y0221879D03*
X0091275Y0221989D03*
X0091275Y0222100D03*
X0091275Y0222211D03*
X0091275Y0222321D03*
X0091275Y0222432D03*
X0091275Y0222543D03*
X0091275Y0222653D03*
X0091275Y0222764D03*
X0091275Y0222874D03*
X0091275Y0222985D03*
X0091275Y0223096D03*
X0091275Y0223206D03*
X0091275Y0223317D03*
X0091275Y0223428D03*
X0091275Y0223538D03*
X0091275Y0223649D03*
X0091275Y0223759D03*
X0091275Y0223870D03*
X0091275Y0223981D03*
X0091275Y0224091D03*
X0091275Y0224202D03*
X0091275Y0224313D03*
X0091275Y0224423D03*
X0091275Y0224534D03*
X0091275Y0224644D03*
X0091275Y0224755D03*
X0091275Y0224866D03*
X0091275Y0224976D03*
X0091275Y0225087D03*
X0091275Y0225198D03*
X0091275Y0225308D03*
X0091275Y0225419D03*
X0091275Y0225530D03*
X0091275Y0225640D03*
X0091275Y0225751D03*
X0091275Y0225861D03*
X0091275Y0225972D03*
X0091275Y0226083D03*
X0091275Y0226193D03*
X0091275Y0226304D03*
X0091275Y0226415D03*
X0091275Y0226525D03*
X0091275Y0226636D03*
X0091275Y0226746D03*
X0091275Y0226857D03*
X0091275Y0226968D03*
X0091275Y0227078D03*
X0091275Y0227189D03*
X0091275Y0227300D03*
X0091275Y0227410D03*
X0091275Y0227521D03*
X0091275Y0227631D03*
X0091275Y0227742D03*
X0091275Y0227853D03*
X0091275Y0227963D03*
X0091275Y0228074D03*
X0091275Y0228185D03*
X0091275Y0228295D03*
X0091275Y0228406D03*
X0091275Y0228517D03*
X0091275Y0228627D03*
X0091275Y0228738D03*
X0091275Y0228848D03*
X0091275Y0228959D03*
X0091275Y0229070D03*
X0091275Y0229180D03*
X0091275Y0229291D03*
X0091275Y0229402D03*
X0091275Y0229512D03*
X0091275Y0229623D03*
X0091275Y0229733D03*
X0091275Y0229844D03*
X0091275Y0229955D03*
X0091275Y0230065D03*
X0091275Y0230176D03*
X0091275Y0230287D03*
X0091275Y0230397D03*
X0091275Y0230508D03*
X0091275Y0230619D03*
X0091275Y0230729D03*
X0091275Y0230840D03*
X0091275Y0230950D03*
X0091275Y0231061D03*
X0091275Y0231172D03*
X0091275Y0231282D03*
X0091275Y0231393D03*
X0091275Y0231504D03*
X0091275Y0231614D03*
X0091275Y0231725D03*
X0091275Y0231835D03*
X0091275Y0231946D03*
X0091275Y0232057D03*
X0091275Y0232167D03*
X0091275Y0232278D03*
X0091275Y0232389D03*
X0091275Y0232499D03*
X0091275Y0232610D03*
X0091275Y0232720D03*
X0091275Y0232831D03*
X0091275Y0232942D03*
X0091275Y0233052D03*
X0091275Y0233163D03*
X0091275Y0233274D03*
X0091275Y0233384D03*
X0091275Y0233495D03*
X0091275Y0233606D03*
X0091275Y0233716D03*
X0091275Y0233827D03*
X0091275Y0233937D03*
X0091275Y0234048D03*
X0091275Y0234159D03*
X0091275Y0234269D03*
X0091275Y0234380D03*
X0091275Y0234491D03*
X0091275Y0234601D03*
X0091275Y0234822D03*
X0091275Y0234933D03*
X0091275Y0235044D03*
X0091275Y0241681D03*
X0094373Y0204289D03*
D64*
X0072468Y0204289D03*
D65*
X0094317Y0204399D03*
D66*
X0072413Y0204399D03*
D67*
X0094262Y0204510D03*
D68*
X0072357Y0204510D03*
D69*
X0055707Y0212586D03*
X0091441Y0210594D03*
X0091441Y0210484D03*
X0094207Y0204620D03*
X0091441Y0242013D03*
D70*
X0072302Y0204620D03*
D71*
X0091496Y0210373D03*
X0094152Y0204731D03*
X0091496Y0242124D03*
D72*
X0072247Y0204731D03*
D73*
X0094096Y0204842D03*
D74*
X0072191Y0204842D03*
D75*
X0055541Y0212033D03*
X0055541Y0212254D03*
X0091607Y0210152D03*
X0094041Y0205063D03*
X0094041Y0204952D03*
X0091607Y0242345D03*
D76*
X0072136Y0204952D03*
D77*
X0072081Y0205063D03*
D78*
X0055486Y0212143D03*
X0091662Y0210041D03*
X0093986Y0205174D03*
X0091662Y0242456D03*
D79*
X0072025Y0205174D03*
D80*
X0093930Y0205284D03*
D81*
X0071970Y0205284D03*
D82*
X0093875Y0205395D03*
D83*
X0071915Y0205395D03*
X0071915Y0205506D03*
D84*
X0091828Y0209709D03*
X0093820Y0205506D03*
X0091828Y0242788D03*
D85*
X0091884Y0242898D03*
X0091884Y0209599D03*
X0093764Y0205616D03*
D86*
X0071859Y0205616D03*
D87*
X0093709Y0205727D03*
D88*
X0071804Y0205727D03*
D89*
X0093654Y0205837D03*
D90*
X0071749Y0205837D03*
D91*
X0092050Y0209267D03*
X0093598Y0205948D03*
X0092050Y0243230D03*
X0092050Y0243341D03*
D92*
X0071693Y0205948D03*
D93*
X0093543Y0206059D03*
D94*
X0071638Y0206059D03*
D95*
X0093488Y0206169D03*
D96*
X0071583Y0206169D03*
D97*
X0092216Y0208935D03*
X0093432Y0206280D03*
X0092216Y0243562D03*
D98*
X0071527Y0206280D03*
D99*
X0092271Y0208824D03*
X0093377Y0206391D03*
X0092271Y0243673D03*
X0092271Y0243783D03*
D100*
X0071472Y0206391D03*
D101*
X0093322Y0206501D03*
D102*
X0071417Y0206501D03*
D103*
X0093267Y0206612D03*
D104*
X0071361Y0206612D03*
D105*
X0092437Y0208382D03*
X0093211Y0206722D03*
D106*
X0071306Y0206722D03*
D107*
X0093156Y0206833D03*
X0093156Y0206944D03*
D108*
X0071251Y0206833D03*
D109*
X0071196Y0206944D03*
D110*
X0093100Y0207054D03*
D111*
X0071140Y0207054D03*
D112*
X0092658Y0207939D03*
X0092990Y0207276D03*
X0092990Y0207165D03*
D113*
X0071085Y0207165D03*
X0071085Y0207276D03*
D114*
X0092934Y0207386D03*
X0147032Y0212033D03*
D115*
X0071030Y0207386D03*
D116*
X0092879Y0207497D03*
X0126843Y0212033D03*
X0230945Y0212033D03*
X0230945Y0215683D03*
X0240238Y0212143D03*
D117*
X0070974Y0207497D03*
D118*
X0070919Y0207607D03*
D119*
X0092769Y0207718D03*
D120*
X0070864Y0207718D03*
D121*
X0092713Y0207829D03*
D122*
X0070808Y0207829D03*
D123*
X0070753Y0207939D03*
D124*
X0092603Y0208050D03*
D125*
X0070698Y0208050D03*
D126*
X0092547Y0208161D03*
D127*
X0070643Y0208161D03*
D128*
X0092492Y0208271D03*
D129*
X0070587Y0208271D03*
D130*
X0070532Y0208382D03*
D131*
X0092381Y0208493D03*
X0092381Y0208603D03*
D132*
X0070477Y0208493D03*
D133*
X0070421Y0208603D03*
D134*
X0092326Y0208714D03*
D135*
X0070366Y0208714D03*
D136*
X0070310Y0208824D03*
D137*
X0070255Y0208935D03*
D138*
X0092160Y0209046D03*
D139*
X0070200Y0209046D03*
D140*
X0092105Y0209156D03*
X0092105Y0243452D03*
D141*
X0070144Y0209267D03*
X0070144Y0209156D03*
D142*
X0091994Y0209378D03*
X0091994Y0243120D03*
D143*
X0070089Y0209378D03*
D144*
X0091939Y0209488D03*
X0091939Y0243009D03*
D145*
X0070034Y0209488D03*
D146*
X0069979Y0209599D03*
D147*
X0069923Y0209709D03*
D148*
X0091773Y0209820D03*
X0091773Y0242677D03*
D149*
X0069868Y0209820D03*
D150*
X0091718Y0209931D03*
X0091718Y0242567D03*
D151*
X0069813Y0209931D03*
D152*
X0069757Y0210041D03*
D153*
X0069702Y0210152D03*
D154*
X0055597Y0212365D03*
X0091552Y0210263D03*
X0091552Y0242235D03*
D155*
X0069647Y0210263D03*
D156*
X0069591Y0210373D03*
D157*
X0069536Y0210484D03*
D158*
X0069481Y0210594D03*
D159*
X0055763Y0212696D03*
X0091386Y0210705D03*
X0091386Y0241903D03*
D160*
X0069425Y0210816D03*
X0069425Y0210705D03*
D161*
X0055818Y0212807D03*
X0091330Y0210816D03*
X0091330Y0241792D03*
D162*
X0069315Y0210926D03*
D163*
X0069260Y0211037D03*
X0069260Y0211148D03*
D164*
X0055984Y0213139D03*
X0091164Y0211148D03*
X0091164Y0241350D03*
D165*
X0069204Y0211258D03*
D166*
X0069149Y0211369D03*
D167*
X0056150Y0213471D03*
X0090998Y0211480D03*
X0090998Y0241018D03*
D168*
X0069094Y0211480D03*
D169*
X0056205Y0213581D03*
X0090943Y0211590D03*
X0090943Y0240907D03*
D170*
X0069038Y0211590D03*
D171*
X0068983Y0211701D03*
D172*
X0056316Y0213913D03*
X0090833Y0211811D03*
X0090833Y0240686D03*
X0148360Y0243673D03*
X0175022Y0223538D03*
X0175022Y0223428D03*
X0194272Y0231946D03*
X0202680Y0233495D03*
X0202680Y0233827D03*
X0203122Y0225751D03*
X0203122Y0225640D03*
D173*
X0068928Y0211811D03*
D174*
X0056371Y0214024D03*
X0090777Y0211922D03*
X0111797Y0216126D03*
X0111797Y0216237D03*
X0111797Y0216347D03*
X0111797Y0216458D03*
X0111797Y0216569D03*
X0111797Y0216679D03*
X0111797Y0216790D03*
X0111797Y0216900D03*
X0111797Y0217011D03*
X0111797Y0217122D03*
X0111797Y0217232D03*
X0111797Y0217343D03*
X0111797Y0217454D03*
X0111797Y0217564D03*
X0111797Y0217675D03*
X0111797Y0217785D03*
X0111797Y0217896D03*
X0111797Y0218007D03*
X0111797Y0218117D03*
X0111797Y0218228D03*
X0111797Y0218339D03*
X0111797Y0218449D03*
X0111797Y0218560D03*
X0111797Y0218670D03*
X0111797Y0218781D03*
X0111797Y0218892D03*
X0111797Y0219002D03*
X0111797Y0219113D03*
X0111797Y0219224D03*
X0111797Y0219334D03*
X0111797Y0219445D03*
X0111797Y0219556D03*
X0111797Y0219666D03*
X0111797Y0219777D03*
X0111797Y0219887D03*
X0111797Y0219998D03*
X0111797Y0220109D03*
X0111797Y0220219D03*
X0111797Y0220330D03*
X0111797Y0220441D03*
X0111797Y0220551D03*
X0111797Y0220662D03*
X0111797Y0220772D03*
X0111797Y0220883D03*
X0111797Y0220994D03*
X0111797Y0221104D03*
X0111797Y0221215D03*
X0111797Y0221326D03*
X0111797Y0221436D03*
X0111797Y0221547D03*
X0111797Y0221657D03*
X0111797Y0221768D03*
X0111797Y0221879D03*
X0111797Y0221989D03*
X0111797Y0222100D03*
X0111797Y0222211D03*
X0111797Y0222321D03*
X0111797Y0222432D03*
X0111797Y0222543D03*
X0111797Y0222653D03*
X0111797Y0222764D03*
X0111797Y0222874D03*
X0111797Y0222985D03*
X0111797Y0223096D03*
X0111797Y0223206D03*
X0111797Y0223317D03*
X0111797Y0223428D03*
X0111797Y0223538D03*
X0111797Y0223649D03*
X0111797Y0223759D03*
X0111797Y0223870D03*
X0111797Y0223981D03*
X0111797Y0224091D03*
X0111797Y0224202D03*
X0111797Y0224313D03*
X0111797Y0224423D03*
X0111797Y0224534D03*
X0111797Y0224644D03*
X0111797Y0224755D03*
X0111797Y0224866D03*
X0111797Y0225087D03*
X0111797Y0225198D03*
X0111797Y0225308D03*
X0111797Y0225419D03*
X0111797Y0225640D03*
X0111797Y0229512D03*
X0111797Y0229623D03*
X0111797Y0229733D03*
X0111797Y0229844D03*
X0111797Y0230287D03*
X0111797Y0230397D03*
X0111797Y0230508D03*
X0111797Y0230619D03*
X0111797Y0230729D03*
X0111797Y0230840D03*
X0111797Y0230950D03*
X0111797Y0231061D03*
X0111797Y0231172D03*
X0111797Y0231282D03*
X0111797Y0231393D03*
X0111797Y0231504D03*
X0111797Y0231614D03*
X0111797Y0231725D03*
X0111797Y0231835D03*
X0111797Y0231946D03*
X0111797Y0232057D03*
X0111797Y0232167D03*
X0111797Y0232278D03*
X0111797Y0232389D03*
X0111797Y0232499D03*
X0111797Y0232610D03*
X0111797Y0232720D03*
X0111797Y0232831D03*
X0111797Y0232942D03*
X0111797Y0233052D03*
X0111797Y0233163D03*
X0111797Y0233274D03*
X0111797Y0233384D03*
X0111797Y0233495D03*
X0111797Y0233606D03*
X0111797Y0233716D03*
X0111797Y0233827D03*
X0111797Y0233937D03*
X0111797Y0234048D03*
X0111797Y0234159D03*
X0111797Y0234269D03*
X0111797Y0234380D03*
X0111797Y0234491D03*
X0111797Y0234601D03*
X0111797Y0234712D03*
X0111797Y0234822D03*
X0111797Y0234933D03*
X0111797Y0235044D03*
X0111797Y0235154D03*
X0111797Y0235265D03*
X0111797Y0235376D03*
X0111797Y0235486D03*
X0111797Y0235597D03*
X0111797Y0235707D03*
X0111797Y0235818D03*
X0111797Y0235929D03*
X0111797Y0236039D03*
X0111797Y0236150D03*
X0111797Y0236261D03*
X0111797Y0236371D03*
X0111797Y0236482D03*
X0111797Y0236593D03*
X0111797Y0236703D03*
X0111797Y0236814D03*
X0111797Y0236924D03*
X0111797Y0237035D03*
X0111797Y0237146D03*
X0111797Y0237256D03*
X0111797Y0237588D03*
X0111797Y0237699D03*
X0111797Y0237809D03*
X0111797Y0237920D03*
X0090777Y0240575D03*
X0153283Y0228295D03*
X0153283Y0228185D03*
X0174967Y0223317D03*
X0174967Y0223206D03*
X0174967Y0223096D03*
X0174967Y0222985D03*
X0174967Y0222874D03*
X0174967Y0222764D03*
X0174967Y0222653D03*
X0174967Y0222543D03*
X0174967Y0222432D03*
X0174967Y0222321D03*
X0195322Y0213581D03*
X0195322Y0213471D03*
X0195322Y0213360D03*
X0195322Y0213250D03*
X0195322Y0213139D03*
X0195322Y0213028D03*
X0195322Y0212918D03*
X0195322Y0212807D03*
X0195322Y0212696D03*
X0195322Y0212586D03*
X0195322Y0212475D03*
X0195322Y0212365D03*
X0195322Y0212254D03*
X0202845Y0229844D03*
X0202845Y0229955D03*
X0202845Y0230065D03*
X0202845Y0230176D03*
X0202845Y0230287D03*
X0202845Y0230397D03*
X0202845Y0230508D03*
X0202845Y0230619D03*
X0202845Y0230729D03*
X0202845Y0230840D03*
X0202845Y0230950D03*
X0202845Y0231061D03*
X0202845Y0231172D03*
X0202845Y0231282D03*
X0202845Y0231393D03*
X0202845Y0231504D03*
X0193663Y0236593D03*
X0222648Y0236371D03*
X0222648Y0236261D03*
X0222648Y0236150D03*
X0222648Y0236039D03*
X0222648Y0235929D03*
X0222648Y0235818D03*
X0222648Y0235707D03*
X0222648Y0235597D03*
X0222648Y0235486D03*
X0222648Y0235376D03*
X0222648Y0235265D03*
X0222648Y0235154D03*
X0222648Y0235044D03*
X0222648Y0234933D03*
X0222648Y0234822D03*
X0222648Y0234712D03*
X0222206Y0227963D03*
X0222206Y0227853D03*
X0222206Y0227742D03*
X0222206Y0227631D03*
X0222206Y0227521D03*
X0222206Y0227410D03*
X0222206Y0227300D03*
X0222206Y0227189D03*
X0222206Y0227078D03*
X0222206Y0226968D03*
X0222206Y0226857D03*
X0222206Y0226746D03*
X0222206Y0226636D03*
X0248093Y0221657D03*
X0248093Y0221547D03*
X0248093Y0221436D03*
X0248093Y0221326D03*
X0248093Y0221215D03*
X0248093Y0221104D03*
X0248093Y0220994D03*
X0248093Y0220883D03*
X0248093Y0220772D03*
X0248093Y0220662D03*
X0248093Y0220551D03*
X0248093Y0220441D03*
X0247872Y0219445D03*
X0247872Y0219334D03*
X0248093Y0234380D03*
X0248093Y0234491D03*
X0248093Y0234601D03*
X0248093Y0234712D03*
X0248093Y0234822D03*
X0248093Y0234933D03*
X0248093Y0235044D03*
X0248093Y0235154D03*
X0248093Y0235265D03*
X0247872Y0236482D03*
X0247872Y0236593D03*
D175*
X0068872Y0211922D03*
D176*
X0090722Y0212033D03*
X0090722Y0240465D03*
X0152453Y0225419D03*
X0155772Y0235486D03*
X0155772Y0235597D03*
X0175796Y0235265D03*
X0175796Y0235154D03*
X0193387Y0237588D03*
X0193497Y0237367D03*
X0193497Y0237256D03*
X0193497Y0237146D03*
X0193608Y0236924D03*
X0193608Y0236814D03*
X0193608Y0236703D03*
X0193718Y0236482D03*
X0193718Y0236371D03*
X0193718Y0236261D03*
X0193829Y0235818D03*
X0193939Y0235376D03*
X0193939Y0235265D03*
X0193939Y0235154D03*
X0194050Y0234491D03*
X0194050Y0234380D03*
X0194161Y0233384D03*
X0194161Y0233274D03*
X0194382Y0229955D03*
X0194382Y0229844D03*
X0194382Y0229733D03*
X0194382Y0229623D03*
X0194382Y0229512D03*
X0194603Y0225640D03*
X0194824Y0221768D03*
X0195046Y0217785D03*
X0195046Y0217675D03*
X0195267Y0213692D03*
X0195378Y0212143D03*
X0204118Y0218228D03*
X0204007Y0218449D03*
X0204007Y0218560D03*
X0204007Y0218670D03*
X0203896Y0218892D03*
X0203896Y0219002D03*
X0203896Y0219113D03*
X0203785Y0219334D03*
X0203785Y0219445D03*
X0203565Y0220441D03*
X0203565Y0220551D03*
X0203454Y0221215D03*
X0203454Y0221326D03*
X0203454Y0221436D03*
X0203232Y0223538D03*
X0203232Y0223649D03*
X0203232Y0223759D03*
X0203011Y0227631D03*
X0203011Y0227742D03*
X0203011Y0227853D03*
X0202900Y0229623D03*
X0202900Y0229733D03*
X0202790Y0231614D03*
X0202790Y0231725D03*
X0202790Y0231835D03*
X0202790Y0231946D03*
X0202790Y0232057D03*
X0202790Y0232167D03*
X0202790Y0232278D03*
X0202569Y0235597D03*
X0202569Y0235707D03*
X0202569Y0235818D03*
X0202569Y0235929D03*
X0202569Y0236039D03*
X0202458Y0237809D03*
X0202458Y0237920D03*
X0202347Y0239801D03*
X0202347Y0239911D03*
X0202126Y0243673D03*
X0222925Y0240796D03*
X0222925Y0240686D03*
X0222925Y0240575D03*
X0222703Y0237035D03*
X0222703Y0236924D03*
X0222703Y0236814D03*
X0222703Y0236703D03*
X0222703Y0236593D03*
X0222703Y0236482D03*
X0222371Y0230619D03*
X0222261Y0228627D03*
X0222261Y0228517D03*
X0222261Y0228406D03*
X0222261Y0228295D03*
X0222261Y0228185D03*
X0222261Y0228074D03*
X0222040Y0224534D03*
X0222040Y0224423D03*
X0222040Y0224313D03*
X0222040Y0224202D03*
X0222040Y0224091D03*
X0222040Y0223981D03*
X0222040Y0223870D03*
X0221929Y0222874D03*
X0221929Y0222764D03*
X0221929Y0222653D03*
X0221708Y0220994D03*
X0221708Y0220883D03*
X0221486Y0219666D03*
X0221486Y0219556D03*
X0221486Y0219445D03*
X0247595Y0218339D03*
X0247706Y0218449D03*
X0247706Y0218560D03*
X0247706Y0218670D03*
X0247927Y0219556D03*
X0247927Y0219666D03*
X0248148Y0221768D03*
X0248148Y0221879D03*
X0248148Y0233827D03*
X0248148Y0233937D03*
X0248148Y0234048D03*
X0248148Y0234159D03*
X0248148Y0234269D03*
X0247927Y0236261D03*
X0247927Y0236371D03*
X0247706Y0237146D03*
X0247706Y0237256D03*
X0247706Y0237367D03*
X0247706Y0237478D03*
X0247595Y0237588D03*
D177*
X0070089Y0212033D03*
D178*
X0235426Y0212143D03*
D179*
X0247982Y0219777D03*
X0247982Y0219887D03*
X0247982Y0219998D03*
X0248203Y0221989D03*
X0248203Y0222100D03*
X0248203Y0222211D03*
X0248203Y0222321D03*
X0248203Y0222432D03*
X0248203Y0222543D03*
X0248203Y0222653D03*
X0248203Y0222764D03*
X0248203Y0222874D03*
X0248203Y0222985D03*
X0248203Y0223096D03*
X0248203Y0223206D03*
X0248203Y0223317D03*
X0248203Y0223428D03*
X0248203Y0223538D03*
X0248203Y0223649D03*
X0248203Y0223759D03*
X0248203Y0223870D03*
X0248203Y0223981D03*
X0248203Y0224091D03*
X0248203Y0224202D03*
X0248203Y0224313D03*
X0248203Y0224423D03*
X0248203Y0224534D03*
X0248203Y0224644D03*
X0248203Y0224755D03*
X0248203Y0224866D03*
X0248203Y0224976D03*
X0248203Y0225087D03*
X0248203Y0225198D03*
X0248203Y0225308D03*
X0248203Y0225419D03*
X0248203Y0225530D03*
X0248203Y0225640D03*
X0248203Y0225751D03*
X0248203Y0225861D03*
X0248203Y0225972D03*
X0248203Y0226083D03*
X0248203Y0226193D03*
X0248203Y0226304D03*
X0248203Y0226415D03*
X0248203Y0226525D03*
X0248203Y0226636D03*
X0248203Y0226746D03*
X0248203Y0226857D03*
X0248203Y0226968D03*
X0248203Y0227078D03*
X0248203Y0227189D03*
X0248203Y0227300D03*
X0248203Y0227410D03*
X0248203Y0227521D03*
X0248203Y0227631D03*
X0248203Y0227742D03*
X0248203Y0227853D03*
X0248203Y0227963D03*
X0248203Y0228074D03*
X0248203Y0228185D03*
X0248203Y0228295D03*
X0248203Y0228406D03*
X0248203Y0228517D03*
X0248203Y0228627D03*
X0248203Y0228738D03*
X0248203Y0228848D03*
X0248203Y0228959D03*
X0248203Y0229070D03*
X0248203Y0229180D03*
X0248203Y0229291D03*
X0248203Y0229402D03*
X0248203Y0229512D03*
X0248203Y0229623D03*
X0248203Y0229733D03*
X0248203Y0229844D03*
X0248203Y0229955D03*
X0248203Y0230065D03*
X0248203Y0230176D03*
X0248203Y0230287D03*
X0248203Y0230397D03*
X0248203Y0230508D03*
X0248203Y0230619D03*
X0248203Y0230729D03*
X0248203Y0230840D03*
X0248203Y0230950D03*
X0248203Y0231061D03*
X0248203Y0231172D03*
X0248203Y0231282D03*
X0248203Y0231393D03*
X0248203Y0231504D03*
X0248203Y0231614D03*
X0248203Y0231725D03*
X0248203Y0231835D03*
X0248203Y0231946D03*
X0248203Y0232057D03*
X0248203Y0232167D03*
X0248203Y0232278D03*
X0248203Y0232389D03*
X0248203Y0232499D03*
X0248203Y0232610D03*
X0248203Y0232720D03*
X0248203Y0232831D03*
X0248203Y0232942D03*
X0248203Y0233052D03*
X0248203Y0233163D03*
X0248203Y0233274D03*
X0248203Y0233384D03*
X0248203Y0233495D03*
X0248203Y0233606D03*
X0248203Y0233716D03*
X0247982Y0235818D03*
X0247982Y0235929D03*
X0247982Y0236039D03*
X0247982Y0236150D03*
X0222758Y0237146D03*
X0222758Y0237256D03*
X0222758Y0237367D03*
X0222758Y0237478D03*
X0222758Y0237588D03*
X0222758Y0237699D03*
X0222758Y0237809D03*
X0222758Y0237920D03*
X0222758Y0238031D03*
X0222758Y0238141D03*
X0222758Y0238252D03*
X0222758Y0238363D03*
X0222980Y0240907D03*
X0222980Y0241018D03*
X0222980Y0241128D03*
X0222980Y0241239D03*
X0222980Y0241350D03*
X0222980Y0241460D03*
X0222980Y0241571D03*
X0222980Y0241681D03*
X0222980Y0241792D03*
X0222980Y0241903D03*
X0222980Y0242013D03*
X0222980Y0242124D03*
X0222980Y0242235D03*
X0222980Y0242345D03*
X0223090Y0243009D03*
X0223090Y0243120D03*
X0223090Y0243230D03*
X0223090Y0243341D03*
X0223090Y0243452D03*
X0223090Y0243562D03*
X0223090Y0243673D03*
X0223090Y0243783D03*
X0222538Y0234601D03*
X0222538Y0234491D03*
X0222538Y0234380D03*
X0222538Y0234269D03*
X0222538Y0234159D03*
X0222538Y0234048D03*
X0222538Y0233937D03*
X0222538Y0233827D03*
X0222538Y0233716D03*
X0222538Y0233606D03*
X0222538Y0233495D03*
X0222538Y0233384D03*
X0222538Y0233274D03*
X0222538Y0233163D03*
X0222538Y0233052D03*
X0222538Y0232942D03*
X0222538Y0232831D03*
X0222538Y0232720D03*
X0222538Y0232610D03*
X0222316Y0230508D03*
X0222316Y0230397D03*
X0222316Y0230287D03*
X0222316Y0230176D03*
X0222316Y0230065D03*
X0222316Y0229955D03*
X0222316Y0229844D03*
X0222316Y0229733D03*
X0222316Y0229623D03*
X0222316Y0229512D03*
X0222316Y0229402D03*
X0222316Y0229291D03*
X0222316Y0229180D03*
X0222316Y0229070D03*
X0222316Y0228959D03*
X0222316Y0228848D03*
X0222316Y0228738D03*
X0222095Y0226415D03*
X0222095Y0226304D03*
X0222095Y0226193D03*
X0222095Y0226083D03*
X0222095Y0225972D03*
X0222095Y0225861D03*
X0222095Y0225751D03*
X0222095Y0225640D03*
X0222095Y0225530D03*
X0222095Y0225419D03*
X0222095Y0225308D03*
X0222095Y0225198D03*
X0222095Y0225087D03*
X0222095Y0224976D03*
X0222095Y0224866D03*
X0222095Y0224755D03*
X0222095Y0224644D03*
X0221873Y0222543D03*
X0221873Y0222432D03*
X0221873Y0222321D03*
X0221873Y0222211D03*
X0221873Y0222100D03*
X0221873Y0221989D03*
X0221873Y0221879D03*
X0221763Y0221547D03*
X0221763Y0221436D03*
X0221763Y0221326D03*
X0221763Y0221215D03*
X0221763Y0221104D03*
X0221653Y0220772D03*
X0221653Y0220662D03*
X0221653Y0220551D03*
X0221653Y0220441D03*
X0221653Y0220330D03*
X0221542Y0219887D03*
X0221542Y0219777D03*
X0221431Y0219334D03*
X0203951Y0218781D03*
X0203841Y0219224D03*
X0203730Y0219556D03*
X0203730Y0219666D03*
X0203730Y0219777D03*
X0203620Y0220109D03*
X0203620Y0220219D03*
X0203620Y0220330D03*
X0203509Y0220662D03*
X0203509Y0220772D03*
X0203509Y0220883D03*
X0203509Y0220994D03*
X0203509Y0221104D03*
X0203399Y0221547D03*
X0203399Y0221657D03*
X0203399Y0221768D03*
X0203399Y0221879D03*
X0203399Y0221989D03*
X0203399Y0222100D03*
X0203399Y0222211D03*
X0203177Y0223870D03*
X0203177Y0223981D03*
X0203177Y0224091D03*
X0203177Y0224202D03*
X0203177Y0224313D03*
X0203177Y0224423D03*
X0203177Y0224534D03*
X0203177Y0224644D03*
X0203177Y0224755D03*
X0203177Y0224866D03*
X0203177Y0224976D03*
X0203177Y0225087D03*
X0203177Y0225198D03*
X0203177Y0225308D03*
X0203177Y0225419D03*
X0203177Y0225530D03*
X0203066Y0225861D03*
X0203066Y0225972D03*
X0203066Y0226083D03*
X0203066Y0226193D03*
X0203066Y0226304D03*
X0203066Y0226415D03*
X0203066Y0226525D03*
X0203066Y0226636D03*
X0203066Y0226746D03*
X0203066Y0226857D03*
X0203066Y0226968D03*
X0203066Y0227078D03*
X0203066Y0227189D03*
X0203066Y0227300D03*
X0203066Y0227410D03*
X0203066Y0227521D03*
X0202956Y0227963D03*
X0202956Y0228074D03*
X0202956Y0228185D03*
X0202956Y0228295D03*
X0202956Y0228406D03*
X0202956Y0228517D03*
X0202956Y0228627D03*
X0202956Y0228738D03*
X0202956Y0228848D03*
X0202956Y0228959D03*
X0202956Y0229070D03*
X0202956Y0229180D03*
X0202956Y0229291D03*
X0202956Y0229402D03*
X0202956Y0229512D03*
X0202735Y0232389D03*
X0202735Y0232499D03*
X0202735Y0232610D03*
X0202735Y0232720D03*
X0202735Y0232831D03*
X0202735Y0232942D03*
X0202735Y0233052D03*
X0202735Y0233163D03*
X0202735Y0233274D03*
X0202735Y0233384D03*
X0202624Y0233606D03*
X0202624Y0233716D03*
X0202624Y0233937D03*
X0202624Y0234048D03*
X0202624Y0234159D03*
X0202624Y0234269D03*
X0202624Y0234380D03*
X0202624Y0234491D03*
X0202624Y0234601D03*
X0202624Y0234712D03*
X0202624Y0234822D03*
X0202624Y0234933D03*
X0202624Y0235044D03*
X0202624Y0235154D03*
X0202624Y0235265D03*
X0202624Y0235376D03*
X0202624Y0235486D03*
X0202514Y0236150D03*
X0202514Y0236261D03*
X0202514Y0236371D03*
X0202514Y0236482D03*
X0202514Y0236593D03*
X0202514Y0236703D03*
X0202514Y0236814D03*
X0202514Y0236924D03*
X0202514Y0237035D03*
X0202514Y0237146D03*
X0202514Y0237256D03*
X0202514Y0237367D03*
X0202514Y0237478D03*
X0202514Y0237588D03*
X0202514Y0237699D03*
X0202292Y0240022D03*
X0202292Y0240133D03*
X0202292Y0240243D03*
X0202292Y0240354D03*
X0202292Y0240465D03*
X0202292Y0240575D03*
X0202292Y0240686D03*
X0202292Y0240796D03*
X0202292Y0240907D03*
X0202292Y0241018D03*
X0202292Y0241128D03*
X0202292Y0241239D03*
X0202292Y0241350D03*
X0202292Y0241460D03*
X0202292Y0241571D03*
X0202292Y0241681D03*
X0202181Y0241792D03*
X0202181Y0241903D03*
X0202181Y0242013D03*
X0202181Y0242124D03*
X0202181Y0242235D03*
X0202181Y0242345D03*
X0202181Y0242456D03*
X0202181Y0242567D03*
X0202181Y0242677D03*
X0202181Y0242788D03*
X0202181Y0242898D03*
X0202181Y0243009D03*
X0202181Y0243120D03*
X0202181Y0243230D03*
X0202181Y0243341D03*
X0202181Y0243452D03*
X0202181Y0243562D03*
X0202181Y0243783D03*
X0193773Y0236150D03*
X0193773Y0236039D03*
X0193773Y0235929D03*
X0193884Y0235707D03*
X0193884Y0235597D03*
X0193884Y0235486D03*
X0193995Y0235044D03*
X0193995Y0234933D03*
X0193995Y0234822D03*
X0193995Y0234712D03*
X0193995Y0234601D03*
X0194216Y0233163D03*
X0194216Y0233052D03*
X0194216Y0232942D03*
X0194216Y0232831D03*
X0194216Y0232720D03*
X0194216Y0232610D03*
X0194216Y0232499D03*
X0194216Y0232389D03*
X0194216Y0232278D03*
X0194216Y0232167D03*
X0194216Y0232057D03*
X0194327Y0231835D03*
X0194327Y0231725D03*
X0194327Y0231614D03*
X0194327Y0231504D03*
X0194327Y0231393D03*
X0194327Y0231282D03*
X0194327Y0231172D03*
X0194327Y0231061D03*
X0194327Y0230950D03*
X0194327Y0230840D03*
X0194327Y0230729D03*
X0194327Y0230619D03*
X0194327Y0230508D03*
X0194327Y0230397D03*
X0194327Y0230287D03*
X0194327Y0230176D03*
X0194327Y0230065D03*
X0194438Y0229402D03*
X0194438Y0229291D03*
X0194438Y0229180D03*
X0194658Y0225530D03*
X0194658Y0225419D03*
X0194658Y0225308D03*
X0194658Y0225198D03*
X0194658Y0225087D03*
X0194658Y0224976D03*
X0194658Y0224866D03*
X0194658Y0224755D03*
X0194658Y0224644D03*
X0194658Y0224534D03*
X0194658Y0224423D03*
X0194658Y0224313D03*
X0194658Y0224202D03*
X0194658Y0224091D03*
X0194658Y0223981D03*
X0194658Y0223870D03*
X0194658Y0223759D03*
X0194769Y0223649D03*
X0194769Y0223538D03*
X0194769Y0223428D03*
X0194769Y0223317D03*
X0194769Y0223206D03*
X0194769Y0223096D03*
X0194769Y0222985D03*
X0194769Y0222874D03*
X0194769Y0222764D03*
X0194769Y0222653D03*
X0194769Y0222543D03*
X0194769Y0222432D03*
X0194769Y0222321D03*
X0194769Y0222211D03*
X0194769Y0222100D03*
X0194769Y0221989D03*
X0194769Y0221879D03*
X0194880Y0221657D03*
X0194880Y0221547D03*
X0194880Y0221436D03*
X0194880Y0221326D03*
X0194880Y0221215D03*
X0194880Y0221104D03*
X0194880Y0220994D03*
X0194880Y0220883D03*
X0194880Y0220772D03*
X0194880Y0220662D03*
X0194880Y0220551D03*
X0194880Y0220441D03*
X0194880Y0220330D03*
X0194880Y0220219D03*
X0194880Y0220109D03*
X0194880Y0219998D03*
X0194880Y0219887D03*
X0194991Y0219666D03*
X0194991Y0219445D03*
X0194991Y0219334D03*
X0194991Y0219224D03*
X0194991Y0219113D03*
X0194991Y0219002D03*
X0194991Y0218892D03*
X0194991Y0218781D03*
X0194991Y0218670D03*
X0194991Y0218560D03*
X0194991Y0218449D03*
X0194991Y0218339D03*
X0194991Y0218228D03*
X0194991Y0218117D03*
X0194991Y0218007D03*
X0194991Y0217896D03*
X0195101Y0217564D03*
X0195101Y0217454D03*
X0195101Y0217343D03*
X0195101Y0217232D03*
X0195101Y0217122D03*
X0195101Y0217011D03*
X0195101Y0216900D03*
X0195101Y0216790D03*
X0195101Y0216679D03*
X0195101Y0216569D03*
X0195101Y0216458D03*
X0195101Y0216347D03*
X0195101Y0216237D03*
X0195101Y0216126D03*
X0195101Y0216015D03*
X0195101Y0215905D03*
X0195101Y0215794D03*
X0195101Y0215683D03*
X0195212Y0215573D03*
X0195212Y0215462D03*
X0195212Y0215352D03*
X0195212Y0215241D03*
X0195212Y0215130D03*
X0195212Y0215020D03*
X0195212Y0214909D03*
X0195212Y0214798D03*
X0195212Y0214688D03*
X0195212Y0214577D03*
X0195212Y0214467D03*
X0195212Y0214356D03*
X0195212Y0214245D03*
X0195212Y0214135D03*
X0195212Y0214024D03*
X0195212Y0213913D03*
X0195212Y0213803D03*
X0174634Y0215462D03*
X0174634Y0215573D03*
X0174634Y0215683D03*
X0174634Y0215794D03*
X0174634Y0215905D03*
X0174634Y0216015D03*
X0174634Y0216126D03*
X0174634Y0216237D03*
X0174634Y0216347D03*
X0174634Y0216458D03*
X0174634Y0216569D03*
X0174634Y0216679D03*
X0174634Y0216790D03*
X0174634Y0216900D03*
X0174634Y0217011D03*
X0174634Y0217122D03*
X0174634Y0217232D03*
X0174634Y0217343D03*
X0174745Y0217564D03*
X0174745Y0217675D03*
X0174745Y0217785D03*
X0174745Y0217896D03*
X0174745Y0218007D03*
X0174745Y0218117D03*
X0174745Y0218228D03*
X0174745Y0218339D03*
X0174745Y0218449D03*
X0174745Y0218560D03*
X0174745Y0218670D03*
X0174745Y0218781D03*
X0174745Y0218892D03*
X0174745Y0219002D03*
X0174745Y0219113D03*
X0174745Y0219224D03*
X0174856Y0219445D03*
X0174856Y0219556D03*
X0174856Y0219666D03*
X0174856Y0219777D03*
X0174856Y0219887D03*
X0174856Y0219998D03*
X0174856Y0220109D03*
X0174856Y0220219D03*
X0174856Y0220330D03*
X0174856Y0220441D03*
X0174856Y0220551D03*
X0174856Y0220662D03*
X0174856Y0220772D03*
X0174856Y0220883D03*
X0174856Y0220994D03*
X0174856Y0221104D03*
X0174856Y0221215D03*
X0174856Y0221326D03*
X0174856Y0221436D03*
X0174856Y0221547D03*
X0175077Y0223649D03*
X0175077Y0223759D03*
X0175077Y0223870D03*
X0175077Y0223981D03*
X0175077Y0224091D03*
X0175077Y0224202D03*
X0175077Y0224313D03*
X0175077Y0224423D03*
X0175077Y0224534D03*
X0175077Y0224644D03*
X0175077Y0224755D03*
X0175077Y0224866D03*
X0175077Y0224976D03*
X0175077Y0225087D03*
X0175077Y0225198D03*
X0175077Y0225308D03*
X0175077Y0225419D03*
X0175077Y0225530D03*
X0175299Y0229180D03*
X0175299Y0229291D03*
X0175299Y0229402D03*
X0175409Y0229844D03*
X0175409Y0229955D03*
X0175409Y0230065D03*
X0175409Y0230176D03*
X0175409Y0230287D03*
X0175409Y0230397D03*
X0175409Y0230508D03*
X0175409Y0230619D03*
X0175409Y0230729D03*
X0175409Y0230840D03*
X0175409Y0230950D03*
X0175409Y0231061D03*
X0175409Y0231172D03*
X0175409Y0231282D03*
X0175520Y0231504D03*
X0175520Y0231614D03*
X0175520Y0231725D03*
X0175520Y0231835D03*
X0175520Y0231946D03*
X0175520Y0232057D03*
X0175520Y0232167D03*
X0175520Y0232278D03*
X0175520Y0232389D03*
X0175520Y0232499D03*
X0175520Y0232610D03*
X0175520Y0232720D03*
X0175520Y0232831D03*
X0175520Y0232942D03*
X0175520Y0233052D03*
X0175630Y0233384D03*
X0175630Y0233495D03*
X0175630Y0233606D03*
X0175630Y0233716D03*
X0175630Y0233827D03*
X0175630Y0233937D03*
X0175630Y0234048D03*
X0175630Y0234159D03*
X0175630Y0234269D03*
X0175741Y0234491D03*
X0175741Y0234601D03*
X0175741Y0234712D03*
X0175741Y0234822D03*
X0175741Y0234933D03*
X0175741Y0235044D03*
X0175852Y0235376D03*
X0175852Y0235486D03*
X0175852Y0235597D03*
X0175962Y0235929D03*
X0175962Y0236039D03*
X0175962Y0236150D03*
X0176073Y0236482D03*
X0176073Y0236593D03*
X0155274Y0234380D03*
X0155164Y0234159D03*
X0155164Y0234048D03*
X0155053Y0233827D03*
X0154832Y0233274D03*
X0154721Y0233052D03*
X0154721Y0232942D03*
X0154611Y0232610D03*
X0154500Y0232389D03*
X0154390Y0232167D03*
X0154390Y0232057D03*
X0154390Y0231946D03*
X0154279Y0231725D03*
X0154279Y0231614D03*
X0154168Y0231393D03*
X0154168Y0231282D03*
X0154168Y0231172D03*
X0154058Y0231061D03*
X0154058Y0230950D03*
X0154058Y0230840D03*
X0153947Y0230619D03*
X0153947Y0230508D03*
X0153836Y0230287D03*
X0153836Y0230176D03*
X0153836Y0230065D03*
X0153725Y0229844D03*
X0153725Y0229733D03*
X0153615Y0229512D03*
X0153615Y0229402D03*
X0153504Y0229070D03*
X0153504Y0228959D03*
X0153394Y0228738D03*
X0153394Y0228627D03*
X0153172Y0227853D03*
X0153062Y0227631D03*
X0153062Y0227521D03*
X0153062Y0227410D03*
X0152951Y0227189D03*
X0152951Y0227078D03*
X0152841Y0226857D03*
X0152841Y0226746D03*
X0152841Y0226636D03*
X0152730Y0226415D03*
X0152730Y0226304D03*
X0152619Y0226083D03*
X0152619Y0225972D03*
X0152619Y0225861D03*
X0152508Y0225751D03*
X0152508Y0225640D03*
X0152508Y0225530D03*
X0152398Y0225308D03*
X0152398Y0225198D03*
X0152398Y0225087D03*
X0152288Y0224976D03*
X0128723Y0224976D03*
X0128723Y0224866D03*
X0128723Y0224755D03*
X0128723Y0224644D03*
X0128723Y0224534D03*
X0128723Y0224423D03*
X0128723Y0224313D03*
X0128723Y0224202D03*
X0128723Y0224091D03*
X0128723Y0223981D03*
X0128723Y0223870D03*
X0128723Y0223759D03*
X0128723Y0223649D03*
X0128723Y0223538D03*
X0128723Y0223428D03*
X0128723Y0223317D03*
X0128723Y0223206D03*
X0128723Y0223096D03*
X0128723Y0222985D03*
X0128723Y0222874D03*
X0128723Y0222764D03*
X0128723Y0222653D03*
X0128723Y0222543D03*
X0128723Y0222432D03*
X0128723Y0222321D03*
X0128723Y0222211D03*
X0128723Y0222100D03*
X0128723Y0221989D03*
X0128723Y0221879D03*
X0128723Y0221768D03*
X0128723Y0221657D03*
X0128723Y0221547D03*
X0128723Y0221436D03*
X0128723Y0221326D03*
X0128723Y0221215D03*
X0128723Y0221104D03*
X0128723Y0220994D03*
X0128723Y0220883D03*
X0128723Y0220772D03*
X0128723Y0220662D03*
X0128723Y0220551D03*
X0128723Y0220441D03*
X0128723Y0220330D03*
X0128723Y0220219D03*
X0128723Y0220109D03*
X0128723Y0219998D03*
X0128723Y0219887D03*
X0128723Y0219777D03*
X0128723Y0219666D03*
X0128723Y0219556D03*
X0128723Y0219445D03*
X0128723Y0219334D03*
X0128723Y0219224D03*
X0128723Y0219113D03*
X0128723Y0219002D03*
X0128723Y0218892D03*
X0128723Y0218781D03*
X0128723Y0218670D03*
X0128723Y0218560D03*
X0128723Y0218449D03*
X0128723Y0218339D03*
X0128723Y0218228D03*
X0128723Y0218117D03*
X0128723Y0218007D03*
X0128723Y0217896D03*
X0128723Y0217785D03*
X0128723Y0217675D03*
X0128723Y0217564D03*
X0128723Y0217454D03*
X0128723Y0217343D03*
X0128723Y0217232D03*
X0128723Y0217122D03*
X0128723Y0217011D03*
X0128723Y0216900D03*
X0128723Y0216790D03*
X0128723Y0216679D03*
X0128723Y0216569D03*
X0128723Y0216458D03*
X0128723Y0216347D03*
X0128723Y0216237D03*
X0128723Y0216126D03*
X0128723Y0216015D03*
X0128723Y0215905D03*
X0128723Y0215794D03*
X0128723Y0215683D03*
X0128723Y0215573D03*
X0128723Y0215462D03*
X0128723Y0215352D03*
X0128723Y0215241D03*
X0128723Y0215130D03*
X0128723Y0215020D03*
X0128723Y0214909D03*
X0128723Y0214798D03*
X0128723Y0214688D03*
X0128723Y0214577D03*
X0128723Y0214467D03*
X0128723Y0214356D03*
X0128723Y0214245D03*
X0128723Y0214135D03*
X0128723Y0214024D03*
X0128723Y0213913D03*
X0128723Y0213803D03*
X0128723Y0213692D03*
X0128723Y0213581D03*
X0128723Y0213471D03*
X0128723Y0213360D03*
X0128723Y0213250D03*
X0128723Y0213139D03*
X0128723Y0213028D03*
X0128723Y0212918D03*
X0128723Y0212807D03*
X0128723Y0212696D03*
X0128723Y0212586D03*
X0128723Y0212475D03*
X0128723Y0212365D03*
X0128723Y0212254D03*
X0128723Y0212143D03*
X0128723Y0225087D03*
X0128723Y0225198D03*
X0128723Y0225308D03*
X0128723Y0225419D03*
X0128723Y0225530D03*
X0128723Y0225640D03*
X0128723Y0225751D03*
X0128723Y0225861D03*
X0128723Y0225972D03*
X0128723Y0226083D03*
X0128723Y0226193D03*
X0128723Y0226304D03*
X0128723Y0226415D03*
X0128723Y0226525D03*
X0128723Y0226636D03*
X0128723Y0226746D03*
X0128723Y0226857D03*
X0128723Y0226968D03*
X0128723Y0227078D03*
X0128723Y0227189D03*
X0128723Y0227300D03*
X0128723Y0227410D03*
X0128723Y0227521D03*
X0128723Y0227631D03*
X0128723Y0227742D03*
X0128723Y0227853D03*
X0128723Y0227963D03*
X0128723Y0228074D03*
X0128723Y0228185D03*
X0128723Y0228295D03*
X0128723Y0228406D03*
X0128723Y0228517D03*
X0128723Y0228627D03*
X0128723Y0228738D03*
X0128723Y0228848D03*
X0128723Y0228959D03*
X0128723Y0229070D03*
X0128723Y0229180D03*
X0128723Y0229291D03*
X0128723Y0229402D03*
X0128723Y0229512D03*
X0128723Y0229623D03*
X0128723Y0229733D03*
X0128723Y0229844D03*
X0128723Y0229955D03*
X0128723Y0230065D03*
X0128723Y0230176D03*
X0128723Y0230287D03*
X0128723Y0230397D03*
X0128723Y0230508D03*
X0128723Y0230619D03*
X0128723Y0230729D03*
X0128723Y0230840D03*
X0128723Y0230950D03*
X0128723Y0231061D03*
X0128723Y0231172D03*
X0128723Y0231282D03*
X0128723Y0231393D03*
X0128723Y0231504D03*
X0128723Y0231614D03*
X0128723Y0231725D03*
X0128723Y0231835D03*
X0128723Y0231946D03*
X0128723Y0232057D03*
X0128723Y0232167D03*
X0128723Y0232278D03*
X0128723Y0232389D03*
X0128723Y0232499D03*
X0128723Y0232610D03*
X0128723Y0232720D03*
X0128723Y0232831D03*
X0128723Y0232942D03*
X0128723Y0233052D03*
X0128723Y0233163D03*
X0128723Y0233274D03*
X0128723Y0233384D03*
X0128723Y0233495D03*
X0128723Y0233606D03*
X0128723Y0233716D03*
X0128723Y0233827D03*
X0128723Y0233937D03*
X0128723Y0234048D03*
X0128723Y0234159D03*
X0128723Y0234269D03*
X0128723Y0234380D03*
X0128723Y0234491D03*
X0128723Y0234601D03*
X0128723Y0234712D03*
X0128723Y0234822D03*
X0128723Y0234933D03*
X0128723Y0235044D03*
X0128723Y0235154D03*
X0128723Y0235265D03*
X0128723Y0235376D03*
X0128723Y0235486D03*
X0128723Y0235597D03*
X0128723Y0235707D03*
X0128723Y0235818D03*
X0128723Y0235929D03*
X0128723Y0236039D03*
X0128723Y0236150D03*
X0128723Y0236261D03*
X0128723Y0236371D03*
X0128723Y0236482D03*
X0128723Y0236593D03*
X0128723Y0236703D03*
X0128723Y0236814D03*
X0128723Y0236924D03*
X0128723Y0237035D03*
X0128723Y0237146D03*
X0128723Y0237256D03*
X0128723Y0237367D03*
X0128723Y0237478D03*
X0128723Y0237588D03*
X0128723Y0237699D03*
X0128723Y0237809D03*
X0128723Y0237920D03*
X0128723Y0238031D03*
X0128723Y0238141D03*
X0128723Y0238252D03*
X0128723Y0238363D03*
X0128723Y0238473D03*
X0128723Y0238584D03*
X0128723Y0238694D03*
X0128723Y0238805D03*
X0128723Y0238916D03*
X0128723Y0239026D03*
X0128723Y0239137D03*
X0128723Y0239248D03*
X0128723Y0239358D03*
X0128723Y0239801D03*
X0128723Y0239911D03*
X0128723Y0240022D03*
X0174524Y0215241D03*
X0174524Y0215130D03*
X0174524Y0215020D03*
X0174524Y0214909D03*
X0174524Y0214798D03*
X0174524Y0214688D03*
X0174524Y0214577D03*
X0174524Y0214467D03*
X0174524Y0214356D03*
X0174524Y0214245D03*
X0174524Y0214135D03*
X0174524Y0214024D03*
X0174524Y0213913D03*
X0174524Y0213803D03*
X0174524Y0213692D03*
X0174524Y0213581D03*
X0174524Y0213471D03*
X0174413Y0213139D03*
X0174413Y0213028D03*
X0174413Y0212918D03*
X0174413Y0212807D03*
X0174413Y0212696D03*
X0174413Y0212586D03*
X0174413Y0212475D03*
X0174413Y0212365D03*
X0174413Y0212254D03*
X0174413Y0212143D03*
D180*
X0105602Y0212143D03*
X0105602Y0212254D03*
X0077502Y0243009D03*
X0077502Y0243120D03*
D181*
X0072634Y0212143D03*
D182*
X0236034Y0212254D03*
D183*
X0212636Y0212254D03*
X0149688Y0220551D03*
X0149688Y0220662D03*
X0149688Y0220772D03*
D184*
X0156768Y0237478D03*
X0156989Y0237809D03*
X0193165Y0238141D03*
X0220823Y0217675D03*
X0220823Y0217564D03*
X0220712Y0217343D03*
X0090611Y0212254D03*
X0056537Y0214356D03*
X0090611Y0240243D03*
D185*
X0064779Y0231835D03*
X0072634Y0212254D03*
D186*
X0212636Y0212807D03*
X0236532Y0212365D03*
D187*
X0212636Y0212365D03*
X0088731Y0216347D03*
X0088731Y0236261D03*
X0058418Y0244558D03*
X0058418Y0218339D03*
D188*
X0062622Y0227300D03*
X0062622Y0235597D03*
X0105546Y0212365D03*
X0212636Y0214245D03*
D189*
X0220657Y0217232D03*
X0220767Y0217454D03*
X0157266Y0238141D03*
X0090556Y0240133D03*
X0056593Y0214467D03*
X0090556Y0212365D03*
D190*
X0072634Y0212365D03*
X0064668Y0231614D03*
D191*
X0060409Y0240354D03*
X0060409Y0222543D03*
X0236864Y0212475D03*
D192*
X0212692Y0212475D03*
X0088122Y0217564D03*
X0072634Y0218449D03*
X0059026Y0219666D03*
X0059026Y0243230D03*
D193*
X0105491Y0212475D03*
X0239132Y0214467D03*
X0239132Y0241460D03*
D194*
X0072579Y0212475D03*
D195*
X0055652Y0212475D03*
D196*
X0060575Y0222874D03*
X0060575Y0222985D03*
X0072634Y0216790D03*
X0060575Y0240022D03*
X0077502Y0240907D03*
X0165784Y0242677D03*
X0237030Y0212586D03*
D197*
X0212636Y0212586D03*
D198*
X0105436Y0212586D03*
D199*
X0072579Y0212586D03*
X0064502Y0231282D03*
D200*
X0077502Y0241239D03*
X0077502Y0241350D03*
X0237362Y0212696D03*
D201*
X0212636Y0212696D03*
X0087403Y0219113D03*
D202*
X0148526Y0212918D03*
X0148526Y0212807D03*
X0148526Y0212696D03*
X0157044Y0237920D03*
X0157155Y0238031D03*
X0176847Y0238584D03*
X0176847Y0238694D03*
X0176958Y0238805D03*
X0220546Y0217122D03*
X0247208Y0217343D03*
X0247208Y0238473D03*
D203*
X0105380Y0212807D03*
X0105380Y0212696D03*
X0062788Y0227631D03*
X0062788Y0235265D03*
D204*
X0064392Y0231061D03*
X0072579Y0212696D03*
D205*
X0072579Y0216237D03*
X0237528Y0212807D03*
D206*
X0090390Y0212807D03*
X0075123Y0223538D03*
X0074791Y0223096D03*
X0074681Y0222985D03*
X0074459Y0222764D03*
X0074349Y0222653D03*
X0074017Y0222321D03*
X0073906Y0222211D03*
X0073574Y0221879D03*
X0073132Y0221326D03*
X0072800Y0220994D03*
X0056758Y0214798D03*
D207*
X0072578Y0212807D03*
X0064281Y0230840D03*
D208*
X0237694Y0212918D03*
D209*
X0212581Y0212918D03*
X0072634Y0217011D03*
D210*
X0062898Y0227853D03*
X0062898Y0235044D03*
X0105270Y0213028D03*
X0105270Y0212918D03*
D211*
X0090335Y0212918D03*
X0075068Y0223428D03*
X0074846Y0223206D03*
X0090335Y0239690D03*
X0192336Y0239358D03*
X0246765Y0216790D03*
D212*
X0072634Y0212918D03*
D213*
X0061405Y0238252D03*
X0237860Y0213028D03*
D214*
X0212636Y0213028D03*
X0165729Y0242567D03*
X0060630Y0239911D03*
X0060630Y0223096D03*
D215*
X0076340Y0235486D03*
X0076340Y0235597D03*
X0148581Y0213360D03*
X0148581Y0213250D03*
X0148581Y0213139D03*
X0148581Y0213028D03*
X0177124Y0239026D03*
X0192723Y0238916D03*
X0204671Y0217122D03*
X0220380Y0216900D03*
X0220491Y0217011D03*
X0246931Y0217011D03*
X0247042Y0217122D03*
X0247042Y0238694D03*
D216*
X0072634Y0213028D03*
D217*
X0061571Y0225087D03*
X0061571Y0237809D03*
X0238026Y0213139D03*
D218*
X0212636Y0213139D03*
D219*
X0105214Y0213139D03*
D220*
X0090224Y0213139D03*
X0072634Y0220662D03*
X0090224Y0239358D03*
X0205390Y0216347D03*
D221*
X0072634Y0213139D03*
X0064005Y0230176D03*
X0064005Y0230287D03*
D222*
X0077502Y0242124D03*
X0238136Y0242677D03*
X0238136Y0213250D03*
D223*
X0212636Y0213250D03*
X0165176Y0242013D03*
D224*
X0155883Y0235818D03*
X0155551Y0235044D03*
X0155330Y0234601D03*
X0155330Y0234491D03*
X0155108Y0233937D03*
X0154777Y0233163D03*
X0154555Y0232499D03*
X0154334Y0231835D03*
X0154002Y0230729D03*
X0153781Y0229955D03*
X0153560Y0229291D03*
X0153560Y0229180D03*
X0153338Y0228517D03*
X0153338Y0228406D03*
X0153228Y0228074D03*
X0153228Y0227963D03*
X0153006Y0227300D03*
X0152785Y0226525D03*
X0174911Y0222211D03*
X0174911Y0222100D03*
X0174911Y0221989D03*
X0174911Y0221879D03*
X0174911Y0221768D03*
X0174911Y0221657D03*
X0174690Y0217454D03*
X0174469Y0213360D03*
X0174469Y0213250D03*
X0194935Y0219556D03*
X0175464Y0231393D03*
X0175686Y0234380D03*
X0176018Y0236261D03*
X0176018Y0236371D03*
X0176239Y0237035D03*
X0176239Y0237146D03*
X0176239Y0237256D03*
X0176460Y0237809D03*
X0221597Y0220219D03*
X0221597Y0220109D03*
X0221597Y0219998D03*
X0221265Y0218892D03*
X0221265Y0218781D03*
X0221265Y0218670D03*
X0247816Y0218781D03*
X0247816Y0218892D03*
X0247816Y0219002D03*
X0247816Y0219113D03*
X0247816Y0219224D03*
X0248038Y0220109D03*
X0248038Y0220219D03*
X0248038Y0220330D03*
X0248038Y0235376D03*
X0248038Y0235486D03*
X0248038Y0235597D03*
X0248038Y0235707D03*
X0247816Y0236703D03*
X0247816Y0236814D03*
X0247816Y0236924D03*
X0247816Y0237035D03*
X0056427Y0214135D03*
D225*
X0063009Y0228074D03*
X0063009Y0234822D03*
X0077502Y0243562D03*
X0105159Y0213250D03*
D226*
X0104274Y0215241D03*
X0104274Y0215352D03*
X0072634Y0213250D03*
X0063894Y0229955D03*
D227*
X0056039Y0213250D03*
D228*
X0072634Y0215462D03*
X0164125Y0240465D03*
X0238247Y0213360D03*
D229*
X0212636Y0213360D03*
D230*
X0212636Y0214688D03*
X0239519Y0215241D03*
X0239519Y0240575D03*
X0239519Y0240686D03*
X0184868Y0241128D03*
X0105104Y0213360D03*
D231*
X0072634Y0213360D03*
D232*
X0072634Y0215352D03*
X0164014Y0240243D03*
X0238357Y0213471D03*
D233*
X0212636Y0213471D03*
X0164623Y0241239D03*
D234*
X0105049Y0213471D03*
X0072634Y0214024D03*
X0063119Y0228295D03*
X0063119Y0228406D03*
X0063119Y0234491D03*
X0063119Y0234601D03*
X0239575Y0240465D03*
X0239575Y0215352D03*
D235*
X0246268Y0239469D03*
X0149024Y0216347D03*
X0149024Y0216237D03*
X0149024Y0216126D03*
X0149024Y0216015D03*
X0149024Y0215905D03*
X0090058Y0213471D03*
X0057090Y0215462D03*
X0090058Y0239026D03*
D236*
X0072634Y0213471D03*
D237*
X0077502Y0242456D03*
X0238468Y0213581D03*
D238*
X0212581Y0213581D03*
X0164346Y0240796D03*
X0072634Y0215573D03*
X0061681Y0225308D03*
X0061681Y0237588D03*
D239*
X0104993Y0213581D03*
D240*
X0090003Y0213581D03*
X0077502Y0237256D03*
X0077502Y0237367D03*
X0090003Y0238916D03*
X0057146Y0215573D03*
D241*
X0072634Y0213581D03*
X0104606Y0214467D03*
D242*
X0072634Y0215130D03*
X0062124Y0226193D03*
X0062124Y0236703D03*
X0238579Y0213692D03*
D243*
X0212636Y0213692D03*
X0164069Y0240354D03*
D244*
X0212581Y0214909D03*
X0104938Y0213803D03*
X0104938Y0213692D03*
D245*
X0089947Y0213692D03*
X0057201Y0215683D03*
X0057201Y0215794D03*
X0089947Y0238805D03*
D246*
X0072634Y0213692D03*
D247*
X0238690Y0213803D03*
D248*
X0212636Y0213803D03*
D249*
X0191672Y0239801D03*
X0178064Y0239801D03*
X0149190Y0217454D03*
X0149190Y0217343D03*
X0149190Y0217232D03*
X0089892Y0213803D03*
X0078829Y0226857D03*
X0080157Y0228295D03*
X0080378Y0228517D03*
X0080489Y0228627D03*
X0080599Y0228738D03*
X0080710Y0228848D03*
X0089892Y0238694D03*
X0057256Y0246992D03*
D250*
X0072634Y0213803D03*
D251*
X0184868Y0241903D03*
X0238745Y0242013D03*
X0238745Y0213913D03*
D252*
X0212636Y0213913D03*
X0238634Y0242124D03*
X0062179Y0236593D03*
X0062179Y0226415D03*
X0062179Y0226304D03*
D253*
X0063285Y0228738D03*
X0063285Y0234159D03*
X0104883Y0213913D03*
D254*
X0089837Y0213913D03*
X0079216Y0227300D03*
X0079659Y0227742D03*
X0079991Y0228074D03*
X0080765Y0228959D03*
X0081208Y0229402D03*
X0081650Y0229844D03*
X0081982Y0230176D03*
X0082756Y0231061D03*
X0083199Y0231504D03*
X0083531Y0231835D03*
X0083973Y0232278D03*
X0085522Y0233937D03*
X0085854Y0234269D03*
X0089837Y0238584D03*
X0158981Y0239801D03*
D255*
X0072634Y0213913D03*
X0063230Y0228627D03*
X0063230Y0234269D03*
X0063230Y0234380D03*
D256*
X0077446Y0242898D03*
X0238855Y0214024D03*
D257*
X0212581Y0214024D03*
X0238800Y0241903D03*
X0077502Y0242788D03*
D258*
X0104827Y0214024D03*
X0212581Y0215020D03*
D259*
X0089781Y0214024D03*
X0072634Y0220219D03*
X0082037Y0230287D03*
X0082701Y0230950D03*
X0084361Y0232720D03*
X0084693Y0233052D03*
X0084803Y0233163D03*
X0085135Y0233495D03*
X0085909Y0234380D03*
X0086241Y0234712D03*
X0086352Y0234822D03*
X0089781Y0238473D03*
X0057367Y0246770D03*
X0057367Y0216126D03*
D260*
X0238911Y0214135D03*
X0238911Y0241792D03*
D261*
X0212636Y0214135D03*
X0184868Y0241681D03*
D262*
X0212636Y0215130D03*
X0104772Y0214135D03*
X0063396Y0228959D03*
D263*
X0057422Y0216237D03*
X0089726Y0214245D03*
X0089726Y0214135D03*
X0089726Y0238363D03*
X0057422Y0246660D03*
X0178341Y0239911D03*
D264*
X0072634Y0214135D03*
D265*
X0062566Y0227189D03*
X0062566Y0235707D03*
X0239021Y0214245D03*
D266*
X0104717Y0214245D03*
D267*
X0072634Y0214245D03*
D268*
X0184868Y0241571D03*
X0239077Y0241571D03*
X0239077Y0214356D03*
D269*
X0212581Y0214356D03*
X0077502Y0243230D03*
X0062677Y0235486D03*
X0062677Y0227410D03*
D270*
X0063507Y0229180D03*
X0104661Y0214356D03*
X0212636Y0215241D03*
D271*
X0149411Y0218781D03*
X0149411Y0218892D03*
X0149411Y0219002D03*
X0089671Y0214356D03*
X0078829Y0226636D03*
X0089671Y0238252D03*
X0057477Y0246549D03*
X0057477Y0216347D03*
D272*
X0072579Y0214356D03*
X0062843Y0227742D03*
X0062843Y0235154D03*
D273*
X0212636Y0214467D03*
D274*
X0089616Y0214467D03*
X0057533Y0216458D03*
X0089616Y0238031D03*
X0089616Y0238141D03*
X0057533Y0246439D03*
D275*
X0062732Y0235376D03*
X0062732Y0227521D03*
X0072578Y0214467D03*
X0184868Y0241460D03*
X0239187Y0241350D03*
X0239187Y0214577D03*
D276*
X0212636Y0214577D03*
X0184868Y0241239D03*
X0062954Y0234933D03*
X0062954Y0227963D03*
D277*
X0104551Y0228738D03*
X0104551Y0228848D03*
X0104551Y0228959D03*
X0104551Y0226636D03*
X0104551Y0226525D03*
X0104551Y0226415D03*
X0104551Y0226304D03*
X0104551Y0226193D03*
X0104551Y0226083D03*
X0104551Y0225972D03*
X0104551Y0225861D03*
X0104551Y0214577D03*
X0212636Y0215352D03*
D278*
X0089560Y0214577D03*
X0057588Y0216569D03*
X0077502Y0237809D03*
X0089560Y0237920D03*
X0057588Y0246328D03*
D279*
X0072634Y0214577D03*
D280*
X0077502Y0243341D03*
X0239243Y0241239D03*
X0239243Y0214688D03*
D281*
X0104495Y0214688D03*
X0104495Y0214798D03*
X0104495Y0225751D03*
X0104495Y0226746D03*
X0104495Y0226857D03*
X0104495Y0226968D03*
X0104495Y0227078D03*
X0104495Y0227189D03*
X0104495Y0227300D03*
X0104495Y0227410D03*
X0104495Y0227521D03*
X0104495Y0227631D03*
X0104495Y0227742D03*
X0104495Y0227853D03*
X0104495Y0227963D03*
X0104495Y0228074D03*
X0104495Y0228185D03*
X0104495Y0228295D03*
X0104495Y0228406D03*
X0104495Y0228517D03*
X0104495Y0228627D03*
X0104495Y0229070D03*
X0063673Y0229512D03*
D282*
X0072578Y0219887D03*
X0057643Y0216679D03*
X0089505Y0214688D03*
X0057643Y0246217D03*
X0149577Y0220109D03*
X0149577Y0219998D03*
X0149577Y0219887D03*
X0245493Y0216015D03*
D283*
X0072579Y0214688D03*
X0062511Y0227078D03*
X0062511Y0235818D03*
D284*
X0184868Y0241350D03*
X0239298Y0241128D03*
X0239298Y0214798D03*
D285*
X0212636Y0214798D03*
D286*
X0089450Y0214798D03*
X0078829Y0226415D03*
X0072634Y0219777D03*
X0089450Y0237699D03*
X0089450Y0237809D03*
D287*
X0062401Y0236150D03*
X0062401Y0236039D03*
X0062401Y0226857D03*
X0072579Y0214798D03*
D288*
X0077502Y0243452D03*
X0239353Y0241018D03*
X0239353Y0214909D03*
D289*
X0104440Y0214909D03*
D290*
X0089394Y0214909D03*
X0057754Y0216900D03*
X0089394Y0237588D03*
X0057754Y0245996D03*
D291*
X0062345Y0236261D03*
X0062345Y0226746D03*
X0062345Y0226636D03*
X0072634Y0214909D03*
D292*
X0073187Y0221436D03*
X0056814Y0214909D03*
X0077502Y0236924D03*
X0177400Y0239358D03*
X0192446Y0239248D03*
X0220104Y0216569D03*
D293*
X0239408Y0215020D03*
X0239408Y0240907D03*
D294*
X0104385Y0215020D03*
X0063783Y0229733D03*
D295*
X0057809Y0217011D03*
X0078829Y0226304D03*
X0089339Y0237478D03*
X0089339Y0215020D03*
X0057809Y0245885D03*
D296*
X0072634Y0215020D03*
D297*
X0239464Y0215130D03*
X0239464Y0240796D03*
D298*
X0104330Y0215130D03*
D299*
X0089284Y0215130D03*
X0072579Y0219666D03*
X0057865Y0217122D03*
X0089284Y0237367D03*
X0057865Y0245775D03*
X0149798Y0221657D03*
X0149798Y0221547D03*
X0149798Y0221436D03*
X0149798Y0221326D03*
X0149798Y0221215D03*
X0245272Y0239911D03*
D300*
X0219882Y0216347D03*
X0192225Y0239469D03*
X0056924Y0215130D03*
D301*
X0057920Y0217232D03*
X0077502Y0238141D03*
X0089228Y0237256D03*
X0089228Y0215241D03*
X0057920Y0245664D03*
X0149964Y0222321D03*
X0218555Y0215794D03*
D302*
X0072634Y0215241D03*
X0062013Y0225972D03*
X0062013Y0236924D03*
D303*
X0057975Y0245554D03*
X0089173Y0237146D03*
X0089173Y0215352D03*
X0057975Y0217343D03*
D304*
X0063175Y0228517D03*
X0184868Y0241018D03*
X0239630Y0240354D03*
X0239630Y0215573D03*
X0239630Y0215462D03*
D305*
X0212581Y0215462D03*
D306*
X0104219Y0215462D03*
D307*
X0089118Y0215462D03*
X0082480Y0222543D03*
X0081816Y0223206D03*
X0081706Y0223317D03*
X0078829Y0226083D03*
X0072634Y0219445D03*
X0058031Y0217564D03*
X0058031Y0217454D03*
X0089118Y0237035D03*
X0058031Y0245443D03*
X0150075Y0223096D03*
X0150075Y0222985D03*
X0150075Y0222874D03*
D308*
X0184868Y0240354D03*
X0212636Y0215573D03*
X0063728Y0229623D03*
D309*
X0104164Y0215573D03*
D310*
X0089062Y0215573D03*
X0083199Y0221879D03*
X0082756Y0222321D03*
X0082425Y0222653D03*
X0081982Y0223096D03*
X0089062Y0236924D03*
X0150130Y0223428D03*
X0150130Y0223317D03*
X0150130Y0223206D03*
X0160087Y0240133D03*
D311*
X0077502Y0240022D03*
X0243225Y0215683D03*
D312*
X0217836Y0215683D03*
D313*
X0207381Y0215683D03*
X0077502Y0238805D03*
D314*
X0111852Y0237478D03*
X0111852Y0237367D03*
X0111852Y0230176D03*
X0111852Y0230065D03*
X0111852Y0229955D03*
X0111852Y0229402D03*
X0111852Y0229291D03*
X0111852Y0225530D03*
X0111852Y0224976D03*
X0111852Y0216015D03*
X0111852Y0215905D03*
X0111852Y0215794D03*
X0111852Y0215683D03*
X0222150Y0226525D03*
D315*
X0179170Y0240133D03*
X0089007Y0236814D03*
X0078829Y0225972D03*
X0083476Y0221547D03*
X0083586Y0221436D03*
X0083918Y0221104D03*
X0084029Y0220994D03*
X0089007Y0215683D03*
X0072634Y0219334D03*
X0058141Y0217785D03*
X0058141Y0245111D03*
X0058141Y0245222D03*
D316*
X0072634Y0215683D03*
D317*
X0244497Y0215794D03*
D318*
X0206607Y0215794D03*
X0149854Y0221768D03*
X0149854Y0221879D03*
X0078829Y0226193D03*
X0072634Y0219556D03*
D319*
X0078774Y0225861D03*
X0084416Y0220662D03*
X0084637Y0220441D03*
X0084858Y0220219D03*
X0084969Y0220109D03*
X0085080Y0219998D03*
X0085190Y0219887D03*
X0085412Y0219666D03*
X0088952Y0215794D03*
X0088952Y0236703D03*
X0168384Y0243783D03*
D320*
X0072634Y0215794D03*
D321*
X0081540Y0223538D03*
X0081650Y0223428D03*
X0245051Y0215905D03*
D322*
X0219052Y0215905D03*
D323*
X0206164Y0215905D03*
X0245548Y0239801D03*
X0078829Y0226525D03*
D324*
X0085467Y0219556D03*
X0085577Y0219445D03*
X0088897Y0215905D03*
X0088897Y0236593D03*
X0058252Y0244890D03*
X0058252Y0218007D03*
X0150296Y0224313D03*
X0150296Y0224423D03*
X0150296Y0224534D03*
D325*
X0072634Y0215905D03*
X0061349Y0224534D03*
X0061349Y0224644D03*
X0061349Y0238363D03*
X0237805Y0242898D03*
D326*
X0205888Y0216015D03*
X0085633Y0234048D03*
X0085411Y0233827D03*
X0084416Y0232831D03*
X0083863Y0232167D03*
X0083642Y0231946D03*
X0083420Y0231725D03*
X0083088Y0231393D03*
X0082314Y0230619D03*
X0082314Y0230508D03*
X0081871Y0230065D03*
X0081539Y0229733D03*
X0081319Y0229512D03*
X0081097Y0229291D03*
X0080876Y0229070D03*
X0080322Y0228406D03*
X0080102Y0228185D03*
X0079770Y0227853D03*
X0079548Y0227631D03*
X0079327Y0227410D03*
X0078995Y0227078D03*
X0057311Y0216015D03*
X0057311Y0215905D03*
X0057311Y0246881D03*
D327*
X0077502Y0237588D03*
X0083697Y0232057D03*
X0083365Y0231614D03*
X0082922Y0231172D03*
X0084582Y0232942D03*
X0084914Y0233274D03*
X0085246Y0233606D03*
X0086020Y0234491D03*
X0086131Y0234601D03*
X0086463Y0234933D03*
X0078719Y0226746D03*
X0219329Y0216015D03*
X0245880Y0239690D03*
D328*
X0150351Y0224866D03*
X0150351Y0224755D03*
X0150351Y0224644D03*
X0088841Y0216126D03*
X0088841Y0216015D03*
X0088841Y0236482D03*
X0058307Y0244779D03*
X0058307Y0218117D03*
D329*
X0061239Y0224313D03*
X0072634Y0216015D03*
X0061239Y0238584D03*
X0165010Y0241792D03*
D330*
X0159257Y0239911D03*
X0072634Y0220109D03*
X0245659Y0216126D03*
D331*
X0219495Y0216126D03*
X0149135Y0216790D03*
X0149135Y0216900D03*
X0149135Y0217011D03*
X0149135Y0217122D03*
D332*
X0205777Y0216126D03*
X0246046Y0239580D03*
X0078884Y0226968D03*
X0072579Y0220330D03*
D333*
X0072578Y0216126D03*
X0061183Y0224202D03*
X0061183Y0238694D03*
X0165065Y0241903D03*
X0184868Y0242567D03*
D334*
X0245991Y0216237D03*
D335*
X0088786Y0216237D03*
X0088786Y0236371D03*
X0077502Y0238584D03*
X0058363Y0244669D03*
X0058363Y0218228D03*
D336*
X0246157Y0216347D03*
D337*
X0165397Y0242235D03*
X0072579Y0216347D03*
X0060962Y0223759D03*
X0060962Y0239137D03*
D338*
X0220048Y0216458D03*
X0246599Y0216679D03*
X0246599Y0239248D03*
D339*
X0149079Y0216679D03*
X0149079Y0216569D03*
X0149079Y0216458D03*
X0072634Y0220441D03*
D340*
X0072634Y0219002D03*
X0078829Y0225640D03*
X0088675Y0236039D03*
X0088675Y0236150D03*
X0088675Y0216458D03*
D341*
X0072634Y0216458D03*
X0060907Y0223649D03*
X0060907Y0239248D03*
X0165452Y0242345D03*
D342*
X0157985Y0239137D03*
X0157985Y0239026D03*
X0177345Y0239248D03*
X0205002Y0216679D03*
X0205113Y0216569D03*
X0220269Y0216679D03*
X0246820Y0216900D03*
X0246820Y0239026D03*
X0073685Y0221989D03*
X0072911Y0221104D03*
D343*
X0058529Y0218560D03*
X0088620Y0216569D03*
X0058529Y0244337D03*
D344*
X0072634Y0216569D03*
X0165563Y0242456D03*
X0184923Y0242788D03*
D345*
X0235039Y0243783D03*
X0088565Y0235929D03*
X0088565Y0235818D03*
X0078829Y0225530D03*
X0088565Y0216679D03*
D346*
X0072634Y0216679D03*
D347*
X0157708Y0238805D03*
X0177179Y0239137D03*
X0220325Y0216790D03*
X0246987Y0238805D03*
D348*
X0204947Y0216790D03*
X0192557Y0239137D03*
X0077502Y0236814D03*
X0075953Y0235154D03*
D349*
X0088509Y0235707D03*
X0088509Y0216790D03*
X0058639Y0218781D03*
X0058639Y0218892D03*
X0058639Y0244115D03*
D350*
X0057699Y0246107D03*
X0057699Y0216790D03*
D351*
X0075344Y0234491D03*
X0177013Y0238916D03*
X0192612Y0239026D03*
X0204781Y0217011D03*
X0204781Y0216900D03*
D352*
X0088454Y0216900D03*
X0088454Y0235597D03*
X0077502Y0238916D03*
X0058694Y0244005D03*
D353*
X0060465Y0240243D03*
X0060465Y0222764D03*
X0060465Y0222653D03*
X0072634Y0216900D03*
X0078940Y0223649D03*
D354*
X0088399Y0217011D03*
X0088399Y0235486D03*
X0058750Y0243894D03*
X0058750Y0219002D03*
X0167831Y0243673D03*
D355*
X0244110Y0240133D03*
X0088344Y0235376D03*
X0088344Y0217122D03*
X0072634Y0218670D03*
X0058805Y0219113D03*
X0058805Y0243783D03*
D356*
X0072634Y0217122D03*
D357*
X0058860Y0219224D03*
X0058860Y0219334D03*
X0088288Y0217232D03*
X0088288Y0235265D03*
X0058860Y0243562D03*
X0058860Y0243673D03*
D358*
X0060133Y0240907D03*
X0060133Y0221989D03*
X0072634Y0217232D03*
D359*
X0078940Y0225198D03*
X0088233Y0217343D03*
X0088233Y0235154D03*
X0058916Y0219445D03*
D360*
X0072634Y0217343D03*
D361*
X0156657Y0237146D03*
X0156657Y0237256D03*
X0156657Y0237367D03*
X0176681Y0238252D03*
X0176681Y0238363D03*
X0193054Y0238363D03*
X0204228Y0218007D03*
X0204339Y0217675D03*
X0247263Y0217564D03*
X0247263Y0217454D03*
X0247374Y0217675D03*
X0247374Y0238141D03*
X0247374Y0238252D03*
X0247263Y0238363D03*
D362*
X0088178Y0217454D03*
D363*
X0078940Y0224202D03*
X0072634Y0217454D03*
D364*
X0079106Y0227189D03*
X0079438Y0227521D03*
X0079880Y0227963D03*
X0080986Y0229180D03*
X0081429Y0229623D03*
X0081761Y0229955D03*
X0082203Y0230397D03*
X0082535Y0230840D03*
X0082978Y0231282D03*
X0084084Y0232389D03*
X0084195Y0232499D03*
X0085301Y0233716D03*
X0085744Y0234159D03*
X0077446Y0237478D03*
X0149245Y0217896D03*
X0149245Y0217785D03*
X0149245Y0217675D03*
X0149245Y0217564D03*
D365*
X0087348Y0219224D03*
X0078940Y0224313D03*
X0072634Y0217564D03*
X0059801Y0221326D03*
X0059801Y0241571D03*
D366*
X0059082Y0243120D03*
X0059082Y0219777D03*
X0088067Y0217675D03*
D367*
X0087458Y0219002D03*
X0078940Y0224423D03*
X0072634Y0217675D03*
X0059690Y0220994D03*
X0059690Y0221104D03*
X0059690Y0241792D03*
X0059690Y0241903D03*
D368*
X0058086Y0245332D03*
X0082093Y0222985D03*
X0082314Y0222764D03*
X0082646Y0222432D03*
X0082867Y0222211D03*
X0083088Y0221989D03*
X0083420Y0221657D03*
X0058086Y0217675D03*
D369*
X0059137Y0219887D03*
X0077502Y0239469D03*
X0059137Y0243009D03*
X0088011Y0217785D03*
D370*
X0087569Y0218781D03*
X0078940Y0224534D03*
X0072634Y0217785D03*
X0059579Y0220772D03*
X0059579Y0242124D03*
D371*
X0176626Y0238141D03*
X0220989Y0218117D03*
X0220989Y0218007D03*
X0220989Y0217896D03*
X0221099Y0218228D03*
X0247540Y0218228D03*
X0247540Y0218117D03*
X0247540Y0218007D03*
X0247540Y0237699D03*
X0247540Y0237809D03*
X0247540Y0237920D03*
D372*
X0167389Y0243562D03*
X0087956Y0218007D03*
X0087956Y0217896D03*
X0078885Y0224866D03*
X0059192Y0219998D03*
X0059192Y0242898D03*
D373*
X0072579Y0217896D03*
X0184868Y0243230D03*
D374*
X0150241Y0224202D03*
X0150241Y0224091D03*
X0150241Y0223981D03*
X0150241Y0223870D03*
X0084748Y0220330D03*
X0084305Y0220772D03*
X0058197Y0217896D03*
X0058197Y0245000D03*
D375*
X0082480Y0230729D03*
X0084250Y0232610D03*
X0085025Y0233384D03*
X0086573Y0235044D03*
X0149301Y0218117D03*
X0149301Y0218007D03*
X0184923Y0243673D03*
X0191450Y0239911D03*
D376*
X0087735Y0218449D03*
X0072579Y0218007D03*
X0059413Y0220441D03*
X0059413Y0242456D03*
D377*
X0059247Y0242788D03*
X0059247Y0220109D03*
X0087901Y0218117D03*
D378*
X0087845Y0218228D03*
X0072579Y0218117D03*
X0059303Y0220219D03*
X0059303Y0242677D03*
D379*
X0149356Y0218670D03*
X0149356Y0218560D03*
X0149356Y0218449D03*
X0149356Y0218339D03*
X0149356Y0218228D03*
D380*
X0072634Y0218228D03*
D381*
X0155828Y0235707D03*
X0193220Y0237920D03*
X0193220Y0238031D03*
X0193331Y0237809D03*
X0193331Y0237699D03*
X0204062Y0218339D03*
D382*
X0235813Y0243673D03*
X0087790Y0218339D03*
D383*
X0078829Y0224976D03*
X0072634Y0218339D03*
D384*
X0058473Y0218449D03*
X0058473Y0244447D03*
D385*
X0059469Y0242345D03*
X0077502Y0239801D03*
X0059469Y0220551D03*
X0087680Y0218560D03*
D386*
X0078884Y0225308D03*
X0072579Y0218560D03*
D387*
X0059524Y0220662D03*
X0059524Y0242235D03*
X0087624Y0218670D03*
D388*
X0072634Y0218892D03*
X0058584Y0218670D03*
X0058584Y0244226D03*
D389*
X0078829Y0225419D03*
X0072634Y0218781D03*
D390*
X0059635Y0220883D03*
X0059635Y0242013D03*
X0087514Y0218892D03*
D391*
X0072579Y0219998D03*
X0149466Y0219334D03*
X0149466Y0219224D03*
X0149466Y0219113D03*
D392*
X0078829Y0225751D03*
X0072634Y0219113D03*
D393*
X0072634Y0219224D03*
D394*
X0087292Y0219334D03*
D395*
X0149522Y0219445D03*
X0149522Y0219556D03*
X0149522Y0219666D03*
X0149522Y0219777D03*
D396*
X0058971Y0219556D03*
X0058971Y0243341D03*
X0058971Y0243452D03*
D397*
X0128779Y0240133D03*
X0128779Y0239690D03*
X0128779Y0239580D03*
X0128779Y0239469D03*
X0194935Y0219777D03*
X0203343Y0222321D03*
X0203343Y0222432D03*
D398*
X0085301Y0219777D03*
X0084527Y0220551D03*
D399*
X0077502Y0237920D03*
X0149632Y0220441D03*
X0149632Y0220330D03*
X0149632Y0220219D03*
X0159589Y0240022D03*
X0191119Y0240022D03*
D400*
X0059358Y0242567D03*
X0059358Y0220330D03*
D401*
X0077502Y0238031D03*
X0149743Y0221104D03*
X0149743Y0220994D03*
X0149743Y0220883D03*
D402*
X0190565Y0240133D03*
X0084139Y0220883D03*
X0083807Y0221215D03*
X0083697Y0221326D03*
X0077502Y0238363D03*
D403*
X0059745Y0241681D03*
X0059745Y0221215D03*
D404*
X0059856Y0221436D03*
X0059856Y0241460D03*
X0166614Y0243230D03*
X0184868Y0243120D03*
X0236311Y0243562D03*
D405*
X0077502Y0240243D03*
X0059911Y0241350D03*
X0059911Y0221547D03*
D406*
X0059967Y0221657D03*
X0059967Y0241239D03*
D407*
X0082203Y0222874D03*
X0082978Y0222100D03*
X0083310Y0221768D03*
X0184868Y0243562D03*
D408*
X0078940Y0224091D03*
X0060022Y0221768D03*
X0060022Y0241128D03*
D409*
X0060077Y0241018D03*
X0060077Y0221879D03*
D410*
X0149909Y0221989D03*
X0149909Y0222100D03*
X0149909Y0222211D03*
X0150019Y0222432D03*
X0150019Y0222543D03*
X0150019Y0222653D03*
X0150019Y0222764D03*
D411*
X0166282Y0243009D03*
X0101011Y0225640D03*
X0060188Y0222100D03*
X0060188Y0240796D03*
X0236643Y0243452D03*
D412*
X0078940Y0223870D03*
X0060243Y0222211D03*
X0060243Y0240686D03*
D413*
X0060299Y0240575D03*
X0060299Y0222321D03*
D414*
X0060354Y0222432D03*
X0078940Y0223759D03*
X0060354Y0240465D03*
X0166116Y0242898D03*
D415*
X0077502Y0241128D03*
X0077502Y0241018D03*
X0060686Y0239801D03*
X0060686Y0223206D03*
D416*
X0060741Y0223317D03*
X0060741Y0239580D03*
X0060741Y0239690D03*
X0237196Y0243230D03*
D417*
X0060796Y0239469D03*
X0060796Y0223428D03*
D418*
X0150185Y0223538D03*
X0150185Y0223649D03*
X0150185Y0223759D03*
X0244884Y0240022D03*
D419*
X0060852Y0239358D03*
X0060852Y0223538D03*
D420*
X0061018Y0223870D03*
X0061018Y0239026D03*
X0184813Y0242677D03*
D421*
X0078940Y0223981D03*
D422*
X0061073Y0223981D03*
X0061073Y0238916D03*
D423*
X0061128Y0238805D03*
X0061128Y0224091D03*
D424*
X0061294Y0224423D03*
X0061294Y0238473D03*
D425*
X0078940Y0224644D03*
X0167112Y0243452D03*
D426*
X0077502Y0241903D03*
X0061460Y0238141D03*
X0061460Y0224755D03*
D427*
X0061516Y0224866D03*
X0061516Y0224976D03*
X0061516Y0237920D03*
X0061516Y0238031D03*
D428*
X0148360Y0238031D03*
X0148360Y0238141D03*
X0148360Y0238252D03*
X0148360Y0238363D03*
X0148360Y0238473D03*
X0148360Y0238584D03*
X0148360Y0238694D03*
X0148360Y0238805D03*
X0148360Y0238916D03*
X0148360Y0239026D03*
X0148360Y0239137D03*
X0148360Y0239248D03*
X0148360Y0239358D03*
X0148360Y0239469D03*
X0148360Y0239580D03*
X0148360Y0239690D03*
X0148360Y0239801D03*
X0148360Y0239911D03*
X0148360Y0240022D03*
X0148360Y0240133D03*
X0148360Y0240243D03*
X0148360Y0240354D03*
X0148360Y0240465D03*
X0148360Y0240575D03*
X0148360Y0240686D03*
X0148360Y0240796D03*
X0148360Y0237920D03*
X0148360Y0237809D03*
X0148360Y0237699D03*
X0148360Y0237588D03*
X0148360Y0237478D03*
X0148360Y0237367D03*
X0148360Y0237256D03*
X0148360Y0237146D03*
X0148360Y0237035D03*
X0148360Y0236924D03*
X0148360Y0236814D03*
X0148360Y0236703D03*
X0148360Y0236593D03*
X0148360Y0236482D03*
X0148360Y0243783D03*
X0148249Y0225198D03*
X0148249Y0225087D03*
X0148249Y0224976D03*
D429*
X0164401Y0240907D03*
X0061626Y0237699D03*
X0061626Y0225198D03*
D430*
X0148305Y0225308D03*
X0148305Y0225419D03*
X0148305Y0225530D03*
X0148305Y0225640D03*
X0148305Y0225751D03*
X0148305Y0225861D03*
X0148305Y0225972D03*
X0148305Y0226083D03*
X0148305Y0226193D03*
X0148305Y0226304D03*
X0148305Y0226415D03*
X0148305Y0226525D03*
X0148305Y0226636D03*
X0148305Y0226746D03*
X0148305Y0226857D03*
X0148305Y0226968D03*
X0148305Y0227078D03*
X0148305Y0227189D03*
X0148305Y0227300D03*
X0148305Y0227410D03*
X0148305Y0227521D03*
X0148305Y0227631D03*
X0148305Y0227742D03*
X0148305Y0227853D03*
X0148305Y0227963D03*
X0148305Y0228074D03*
X0148305Y0228185D03*
X0148305Y0228295D03*
X0148305Y0228406D03*
X0148305Y0228517D03*
X0148305Y0228627D03*
X0148305Y0228738D03*
X0148305Y0228848D03*
X0148305Y0228959D03*
X0148305Y0229070D03*
X0148305Y0229180D03*
X0148305Y0229291D03*
X0148305Y0229402D03*
X0148305Y0229512D03*
X0148305Y0229623D03*
X0148305Y0229733D03*
X0148305Y0229844D03*
X0148305Y0229955D03*
X0148305Y0230065D03*
X0148305Y0230176D03*
X0148305Y0230287D03*
X0148305Y0230397D03*
X0148305Y0230508D03*
X0148305Y0230619D03*
X0148305Y0230729D03*
X0148305Y0230840D03*
X0148305Y0230950D03*
X0148305Y0231061D03*
X0148305Y0231172D03*
X0148305Y0231282D03*
X0148305Y0231393D03*
X0148305Y0231504D03*
X0148305Y0231614D03*
X0148305Y0231725D03*
X0148305Y0231835D03*
X0148305Y0231946D03*
X0148305Y0232057D03*
X0148305Y0232167D03*
X0148305Y0232278D03*
X0148305Y0232389D03*
X0148305Y0232499D03*
X0148305Y0232610D03*
X0148305Y0232720D03*
X0148305Y0232831D03*
X0148305Y0232942D03*
X0148305Y0233052D03*
X0148305Y0233163D03*
X0148305Y0233274D03*
X0148305Y0233384D03*
X0148305Y0233495D03*
X0148305Y0233606D03*
X0148305Y0233716D03*
X0148305Y0233827D03*
X0148305Y0233937D03*
X0148305Y0234048D03*
X0148305Y0234159D03*
X0148305Y0234269D03*
X0148305Y0234380D03*
X0148305Y0234491D03*
X0148305Y0234601D03*
X0148305Y0234712D03*
X0148305Y0234822D03*
X0148305Y0234933D03*
X0148305Y0235044D03*
X0148305Y0235154D03*
X0148305Y0235265D03*
X0148305Y0235376D03*
X0148305Y0235486D03*
X0148305Y0235597D03*
X0148305Y0235707D03*
X0148305Y0235818D03*
X0148305Y0235929D03*
X0148305Y0236039D03*
X0148305Y0236150D03*
X0148305Y0236261D03*
X0148305Y0236371D03*
D431*
X0164291Y0240686D03*
X0106431Y0229180D03*
X0061737Y0225419D03*
X0061737Y0237478D03*
D432*
X0061792Y0237367D03*
X0061792Y0225530D03*
X0184813Y0242235D03*
D433*
X0177677Y0225640D03*
D434*
X0061847Y0225640D03*
X0061847Y0237256D03*
D435*
X0184868Y0225972D03*
X0184868Y0225861D03*
X0184868Y0225751D03*
D436*
X0077502Y0242345D03*
X0061903Y0237146D03*
X0061903Y0225751D03*
D437*
X0061958Y0225861D03*
X0061958Y0237035D03*
X0184868Y0242124D03*
D438*
X0184868Y0227521D03*
X0184868Y0227410D03*
X0184868Y0227300D03*
X0184868Y0227189D03*
X0184868Y0227078D03*
X0184868Y0226968D03*
X0184868Y0226857D03*
X0184868Y0226746D03*
X0184868Y0226636D03*
X0184868Y0226525D03*
X0184868Y0226415D03*
X0184868Y0226304D03*
X0184868Y0226193D03*
X0184868Y0226083D03*
D439*
X0062069Y0226083D03*
X0062069Y0236814D03*
D440*
X0062235Y0236482D03*
X0062235Y0226525D03*
X0077502Y0242677D03*
D441*
X0062456Y0235929D03*
X0062456Y0226968D03*
D442*
X0184923Y0227631D03*
X0184923Y0227742D03*
X0184923Y0227853D03*
D443*
X0184868Y0227963D03*
X0184868Y0228074D03*
X0184868Y0228185D03*
X0184868Y0228295D03*
X0184868Y0228406D03*
X0184868Y0228517D03*
X0184868Y0228627D03*
X0184868Y0228738D03*
X0184868Y0228848D03*
X0184868Y0228959D03*
X0184868Y0229070D03*
D444*
X0063064Y0228185D03*
X0063064Y0234712D03*
D445*
X0063341Y0234048D03*
X0063341Y0228848D03*
D446*
X0063452Y0229070D03*
D447*
X0063562Y0229291D03*
D448*
X0063618Y0229402D03*
D449*
X0063839Y0229844D03*
D450*
X0063949Y0230065D03*
D451*
X0064115Y0230397D03*
X0064115Y0230508D03*
D452*
X0064171Y0230619D03*
D453*
X0064226Y0230729D03*
D454*
X0064336Y0230950D03*
D455*
X0064447Y0231172D03*
D456*
X0064558Y0231393D03*
D457*
X0064613Y0231504D03*
D458*
X0064724Y0231725D03*
D459*
X0064834Y0231946D03*
X0064834Y0232057D03*
D460*
X0064890Y0232167D03*
D461*
X0064945Y0232278D03*
D462*
X0065000Y0232389D03*
D463*
X0065056Y0232499D03*
D464*
X0065111Y0232610D03*
D465*
X0065166Y0232720D03*
D466*
X0065222Y0232831D03*
D467*
X0065277Y0232942D03*
D468*
X0065332Y0233052D03*
D469*
X0065388Y0233163D03*
D470*
X0065443Y0233274D03*
D471*
X0065498Y0233384D03*
D472*
X0065554Y0233495D03*
D473*
X0065609Y0233606D03*
D474*
X0065664Y0233716D03*
X0065664Y0233827D03*
D475*
X0065719Y0233937D03*
D476*
X0062290Y0236371D03*
D477*
X0077502Y0237699D03*
D478*
X0077502Y0238252D03*
D479*
X0077502Y0238473D03*
D480*
X0077502Y0238694D03*
D481*
X0077502Y0239026D03*
D482*
X0077502Y0239137D03*
D483*
X0077502Y0239248D03*
X0077502Y0239358D03*
D484*
X0077502Y0239580D03*
D485*
X0158814Y0239690D03*
X0191893Y0239690D03*
D486*
X0177898Y0239690D03*
D487*
X0077502Y0239690D03*
D488*
X0077502Y0239911D03*
D489*
X0178673Y0240022D03*
D490*
X0077502Y0240133D03*
D491*
X0060520Y0240133D03*
D492*
X0077502Y0243783D03*
X0239685Y0240243D03*
D493*
X0184923Y0240243D03*
D494*
X0118213Y0240243D03*
D495*
X0118269Y0240354D03*
D496*
X0077502Y0240354D03*
X0166448Y0243120D03*
D497*
X0184868Y0240465D03*
D498*
X0118324Y0240465D03*
D499*
X0077502Y0240465D03*
D500*
X0184868Y0240575D03*
X0184868Y0240686D03*
D501*
X0164235Y0240575D03*
X0077502Y0242235D03*
D502*
X0118379Y0240575D03*
D503*
X0077502Y0240575D03*
D504*
X0118435Y0240686D03*
D505*
X0077502Y0240686D03*
D506*
X0184868Y0240796D03*
D507*
X0118490Y0240796D03*
D508*
X0077502Y0240796D03*
D509*
X0184868Y0240907D03*
D510*
X0148415Y0240907D03*
X0148415Y0241018D03*
X0148415Y0241128D03*
X0148415Y0241239D03*
X0148415Y0241350D03*
X0148415Y0241460D03*
X0148415Y0241571D03*
X0148415Y0241681D03*
X0148415Y0241792D03*
X0148415Y0241903D03*
X0148415Y0242013D03*
X0148415Y0242124D03*
X0148415Y0242235D03*
X0148415Y0242345D03*
X0148415Y0242456D03*
X0148415Y0242567D03*
X0148415Y0242677D03*
X0148415Y0242788D03*
X0148415Y0242898D03*
X0148415Y0243009D03*
X0148415Y0243120D03*
X0148415Y0243230D03*
X0148415Y0243341D03*
X0148415Y0243452D03*
X0148415Y0243562D03*
D511*
X0118545Y0240907D03*
D512*
X0164512Y0241018D03*
X0164512Y0241128D03*
D513*
X0118601Y0241018D03*
D514*
X0118656Y0241128D03*
D515*
X0118711Y0241239D03*
D516*
X0164678Y0241350D03*
D517*
X0118767Y0241350D03*
D518*
X0164733Y0241460D03*
X0184868Y0242456D03*
D519*
X0118822Y0241571D03*
X0118822Y0241460D03*
D520*
X0077502Y0241460D03*
X0165231Y0242124D03*
D521*
X0164844Y0241571D03*
D522*
X0077502Y0241571D03*
D523*
X0238966Y0241681D03*
D524*
X0164899Y0241681D03*
D525*
X0118877Y0241681D03*
D526*
X0077502Y0241681D03*
D527*
X0184868Y0241792D03*
D528*
X0118932Y0241792D03*
D529*
X0077502Y0241792D03*
D530*
X0118988Y0241903D03*
D531*
X0184868Y0242013D03*
X0238523Y0242235D03*
D532*
X0119043Y0242013D03*
D533*
X0077502Y0242013D03*
D534*
X0119098Y0242124D03*
D535*
X0119154Y0242235D03*
D536*
X0238413Y0242345D03*
D537*
X0184868Y0242345D03*
D538*
X0119209Y0242345D03*
D539*
X0238302Y0242456D03*
D540*
X0119264Y0242456D03*
D541*
X0238192Y0242567D03*
D542*
X0119319Y0242567D03*
X0119319Y0242677D03*
D543*
X0077502Y0242567D03*
D544*
X0237970Y0242788D03*
D545*
X0166005Y0242788D03*
D546*
X0119375Y0242788D03*
D547*
X0184868Y0242898D03*
X0236975Y0243341D03*
D548*
X0119485Y0242898D03*
D549*
X0237583Y0243009D03*
D550*
X0184868Y0243009D03*
D551*
X0119541Y0243009D03*
D552*
X0237417Y0243120D03*
D553*
X0119596Y0243120D03*
D554*
X0119651Y0243230D03*
X0119651Y0243341D03*
D555*
X0184868Y0243341D03*
D556*
X0166891Y0243341D03*
D557*
X0184923Y0243452D03*
D558*
X0119707Y0243452D03*
D559*
X0119762Y0243562D03*
D560*
X0119873Y0243673D03*
X0119873Y0243783D03*
D561*
X0077502Y0243673D03*
D562*
X0080655Y0243894D03*
D563*
X0080599Y0244005D03*
D564*
X0080544Y0244115D03*
D565*
X0080489Y0244226D03*
D566*
X0080433Y0244337D03*
D567*
X0080378Y0244447D03*
D568*
X0080323Y0244558D03*
D569*
X0080267Y0244669D03*
D570*
X0080212Y0244779D03*
D571*
X0080157Y0244890D03*
X0080157Y0245000D03*
D572*
X0080102Y0245111D03*
D573*
X0080046Y0245222D03*
D574*
X0079991Y0245332D03*
D575*
X0079936Y0245443D03*
D576*
X0079880Y0245554D03*
D577*
X0079825Y0245664D03*
D578*
X0079770Y0245775D03*
D579*
X0079714Y0245885D03*
D580*
X0079659Y0245996D03*
D581*
X0079604Y0246107D03*
D582*
X0079548Y0246217D03*
D583*
X0079493Y0246328D03*
D584*
X0079438Y0246439D03*
D585*
X0079382Y0246549D03*
D586*
X0079327Y0246660D03*
X0079327Y0246770D03*
D587*
X0079272Y0246881D03*
D588*
X0079216Y0246992D03*
M02*
