G75*
%MOIN*%
%OFA0B0*%
%FSLAX25Y25*%
%IPPOS*%
%LPD*%
%AMOC8*
5,1,8,0,0,1.08239X$1,22.5*
%
%ADD10C,0.00000*%
%ADD11C,0.07400*%
%ADD12C,0.07800*%
%ADD13C,0.10650*%
%ADD14C,0.06000*%
%ADD15C,0.07050*%
%ADD16C,0.05543*%
%ADD17C,0.05200*%
%ADD18R,0.06300X0.04600*%
%ADD19OC8,0.06000*%
%ADD20OC8,0.05600*%
%ADD21C,0.03181*%
%ADD22C,0.01000*%
%ADD23C,0.08600*%
%ADD24C,0.02400*%
D10*
X0009374Y0001500D02*
X0426697Y0001500D01*
X0426879Y0001502D01*
X0427062Y0001509D01*
X0427244Y0001520D01*
X0427426Y0001535D01*
X0427607Y0001555D01*
X0427788Y0001579D01*
X0427968Y0001608D01*
X0428148Y0001641D01*
X0428326Y0001678D01*
X0428504Y0001719D01*
X0428681Y0001765D01*
X0428856Y0001815D01*
X0429030Y0001870D01*
X0429203Y0001928D01*
X0429375Y0001991D01*
X0429544Y0002057D01*
X0429713Y0002128D01*
X0429879Y0002203D01*
X0430044Y0002282D01*
X0430206Y0002365D01*
X0430367Y0002452D01*
X0430525Y0002542D01*
X0430681Y0002637D01*
X0430835Y0002735D01*
X0430986Y0002837D01*
X0431135Y0002942D01*
X0431282Y0003051D01*
X0431425Y0003164D01*
X0431566Y0003280D01*
X0431704Y0003399D01*
X0431839Y0003522D01*
X0431971Y0003648D01*
X0432100Y0003777D01*
X0432226Y0003909D01*
X0432349Y0004044D01*
X0432468Y0004182D01*
X0432584Y0004323D01*
X0432697Y0004466D01*
X0432806Y0004613D01*
X0432911Y0004762D01*
X0433013Y0004913D01*
X0433111Y0005067D01*
X0433206Y0005223D01*
X0433296Y0005381D01*
X0433383Y0005542D01*
X0433466Y0005704D01*
X0433545Y0005869D01*
X0433620Y0006035D01*
X0433691Y0006204D01*
X0433757Y0006373D01*
X0433820Y0006545D01*
X0433878Y0006718D01*
X0433933Y0006892D01*
X0433983Y0007067D01*
X0434029Y0007244D01*
X0434070Y0007422D01*
X0434107Y0007600D01*
X0434140Y0007780D01*
X0434169Y0007960D01*
X0434193Y0008141D01*
X0434213Y0008322D01*
X0434228Y0008504D01*
X0434239Y0008686D01*
X0434246Y0008869D01*
X0434248Y0009051D01*
X0434248Y0284941D01*
X0434246Y0285124D01*
X0434239Y0285306D01*
X0434228Y0285489D01*
X0434213Y0285671D01*
X0434193Y0285852D01*
X0434169Y0286033D01*
X0434140Y0286214D01*
X0434107Y0286393D01*
X0434070Y0286572D01*
X0434028Y0286750D01*
X0433982Y0286927D01*
X0433932Y0287102D01*
X0433878Y0287277D01*
X0433819Y0287450D01*
X0433757Y0287621D01*
X0433690Y0287791D01*
X0433619Y0287960D01*
X0433544Y0288126D01*
X0433465Y0288291D01*
X0433382Y0288454D01*
X0433295Y0288615D01*
X0433205Y0288773D01*
X0433110Y0288929D01*
X0433012Y0289083D01*
X0432910Y0289235D01*
X0432804Y0289384D01*
X0432695Y0289531D01*
X0432583Y0289674D01*
X0432466Y0289815D01*
X0432347Y0289954D01*
X0432224Y0290089D01*
X0432098Y0290221D01*
X0431969Y0290350D01*
X0431837Y0290476D01*
X0431702Y0290599D01*
X0431563Y0290718D01*
X0431422Y0290835D01*
X0431279Y0290947D01*
X0431132Y0291056D01*
X0430983Y0291162D01*
X0430831Y0291264D01*
X0430677Y0291362D01*
X0430521Y0291457D01*
X0430363Y0291547D01*
X0430202Y0291634D01*
X0430039Y0291717D01*
X0429874Y0291796D01*
X0429708Y0291871D01*
X0429539Y0291942D01*
X0429369Y0292009D01*
X0429198Y0292071D01*
X0429025Y0292130D01*
X0428850Y0292184D01*
X0428675Y0292234D01*
X0428498Y0292280D01*
X0428320Y0292322D01*
X0428141Y0292359D01*
X0427962Y0292392D01*
X0427781Y0292421D01*
X0427600Y0292445D01*
X0427419Y0292465D01*
X0427237Y0292480D01*
X0427054Y0292491D01*
X0426872Y0292498D01*
X0426689Y0292500D01*
X0009381Y0292500D01*
X0009181Y0292498D01*
X0008982Y0292490D01*
X0008783Y0292478D01*
X0008584Y0292461D01*
X0008385Y0292439D01*
X0008188Y0292412D01*
X0007991Y0292380D01*
X0007794Y0292344D01*
X0007599Y0292302D01*
X0007405Y0292256D01*
X0007212Y0292205D01*
X0007020Y0292150D01*
X0006830Y0292090D01*
X0006641Y0292025D01*
X0006454Y0291955D01*
X0006269Y0291881D01*
X0006085Y0291802D01*
X0005904Y0291719D01*
X0005724Y0291632D01*
X0005547Y0291540D01*
X0005372Y0291443D01*
X0005200Y0291343D01*
X0005030Y0291238D01*
X0004863Y0291129D01*
X0004698Y0291016D01*
X0004536Y0290899D01*
X0004377Y0290779D01*
X0004221Y0290654D01*
X0004069Y0290525D01*
X0003919Y0290393D01*
X0003773Y0290257D01*
X0003630Y0290118D01*
X0003491Y0289975D01*
X0003355Y0289829D01*
X0003223Y0289679D01*
X0003094Y0289527D01*
X0002969Y0289371D01*
X0002849Y0289212D01*
X0002732Y0289050D01*
X0002619Y0288885D01*
X0002510Y0288718D01*
X0002405Y0288548D01*
X0002305Y0288376D01*
X0002208Y0288201D01*
X0002116Y0288024D01*
X0002029Y0287844D01*
X0001946Y0287663D01*
X0001867Y0287479D01*
X0001793Y0287294D01*
X0001723Y0287107D01*
X0001658Y0286918D01*
X0001598Y0286728D01*
X0001543Y0286536D01*
X0001492Y0286343D01*
X0001446Y0286149D01*
X0001404Y0285954D01*
X0001368Y0285757D01*
X0001336Y0285560D01*
X0001309Y0285363D01*
X0001287Y0285164D01*
X0001270Y0284965D01*
X0001258Y0284766D01*
X0001250Y0284567D01*
X0001248Y0284367D01*
X0001248Y0009626D01*
X0001250Y0009430D01*
X0001257Y0009233D01*
X0001269Y0009037D01*
X0001286Y0008842D01*
X0001307Y0008647D01*
X0001333Y0008452D01*
X0001364Y0008258D01*
X0001399Y0008065D01*
X0001439Y0007873D01*
X0001484Y0007681D01*
X0001533Y0007491D01*
X0001587Y0007302D01*
X0001646Y0007115D01*
X0001709Y0006929D01*
X0001776Y0006744D01*
X0001848Y0006562D01*
X0001924Y0006381D01*
X0002005Y0006202D01*
X0002090Y0006025D01*
X0002179Y0005850D01*
X0002272Y0005677D01*
X0002370Y0005506D01*
X0002471Y0005338D01*
X0002577Y0005173D01*
X0002686Y0005010D01*
X0002800Y0004850D01*
X0002917Y0004692D01*
X0003038Y0004538D01*
X0003163Y0004386D01*
X0003292Y0004237D01*
X0003424Y0004092D01*
X0003559Y0003950D01*
X0003698Y0003811D01*
X0003840Y0003676D01*
X0003985Y0003544D01*
X0004134Y0003415D01*
X0004286Y0003290D01*
X0004440Y0003169D01*
X0004598Y0003052D01*
X0004758Y0002938D01*
X0004921Y0002829D01*
X0005086Y0002723D01*
X0005254Y0002622D01*
X0005425Y0002524D01*
X0005598Y0002431D01*
X0005773Y0002342D01*
X0005950Y0002257D01*
X0006129Y0002176D01*
X0006310Y0002100D01*
X0006492Y0002028D01*
X0006677Y0001961D01*
X0006863Y0001898D01*
X0007050Y0001839D01*
X0007239Y0001785D01*
X0007429Y0001736D01*
X0007621Y0001691D01*
X0007813Y0001651D01*
X0008006Y0001616D01*
X0008200Y0001585D01*
X0008395Y0001559D01*
X0008590Y0001538D01*
X0008785Y0001521D01*
X0008981Y0001509D01*
X0009178Y0001502D01*
X0009374Y0001500D01*
X0168429Y0139295D02*
X0168431Y0139453D01*
X0168437Y0139611D01*
X0168447Y0139769D01*
X0168461Y0139927D01*
X0168479Y0140084D01*
X0168500Y0140241D01*
X0168526Y0140397D01*
X0168556Y0140553D01*
X0168589Y0140708D01*
X0168627Y0140861D01*
X0168668Y0141014D01*
X0168713Y0141166D01*
X0168762Y0141317D01*
X0168815Y0141466D01*
X0168871Y0141614D01*
X0168931Y0141760D01*
X0168995Y0141905D01*
X0169063Y0142048D01*
X0169134Y0142190D01*
X0169208Y0142330D01*
X0169286Y0142467D01*
X0169368Y0142603D01*
X0169452Y0142737D01*
X0169541Y0142868D01*
X0169632Y0142997D01*
X0169727Y0143124D01*
X0169824Y0143249D01*
X0169925Y0143371D01*
X0170029Y0143490D01*
X0170136Y0143607D01*
X0170246Y0143721D01*
X0170359Y0143832D01*
X0170474Y0143941D01*
X0170592Y0144046D01*
X0170713Y0144148D01*
X0170836Y0144248D01*
X0170962Y0144344D01*
X0171090Y0144437D01*
X0171220Y0144527D01*
X0171353Y0144613D01*
X0171488Y0144697D01*
X0171624Y0144776D01*
X0171763Y0144853D01*
X0171904Y0144925D01*
X0172046Y0144995D01*
X0172190Y0145060D01*
X0172336Y0145122D01*
X0172483Y0145180D01*
X0172632Y0145235D01*
X0172782Y0145286D01*
X0172933Y0145333D01*
X0173085Y0145376D01*
X0173238Y0145415D01*
X0173393Y0145451D01*
X0173548Y0145482D01*
X0173704Y0145510D01*
X0173860Y0145534D01*
X0174017Y0145554D01*
X0174175Y0145570D01*
X0174332Y0145582D01*
X0174491Y0145590D01*
X0174649Y0145594D01*
X0174807Y0145594D01*
X0174965Y0145590D01*
X0175124Y0145582D01*
X0175281Y0145570D01*
X0175439Y0145554D01*
X0175596Y0145534D01*
X0175752Y0145510D01*
X0175908Y0145482D01*
X0176063Y0145451D01*
X0176218Y0145415D01*
X0176371Y0145376D01*
X0176523Y0145333D01*
X0176674Y0145286D01*
X0176824Y0145235D01*
X0176973Y0145180D01*
X0177120Y0145122D01*
X0177266Y0145060D01*
X0177410Y0144995D01*
X0177552Y0144925D01*
X0177693Y0144853D01*
X0177832Y0144776D01*
X0177968Y0144697D01*
X0178103Y0144613D01*
X0178236Y0144527D01*
X0178366Y0144437D01*
X0178494Y0144344D01*
X0178620Y0144248D01*
X0178743Y0144148D01*
X0178864Y0144046D01*
X0178982Y0143941D01*
X0179097Y0143832D01*
X0179210Y0143721D01*
X0179320Y0143607D01*
X0179427Y0143490D01*
X0179531Y0143371D01*
X0179632Y0143249D01*
X0179729Y0143124D01*
X0179824Y0142997D01*
X0179915Y0142868D01*
X0180004Y0142737D01*
X0180088Y0142603D01*
X0180170Y0142467D01*
X0180248Y0142330D01*
X0180322Y0142190D01*
X0180393Y0142048D01*
X0180461Y0141905D01*
X0180525Y0141760D01*
X0180585Y0141614D01*
X0180641Y0141466D01*
X0180694Y0141317D01*
X0180743Y0141166D01*
X0180788Y0141014D01*
X0180829Y0140861D01*
X0180867Y0140708D01*
X0180900Y0140553D01*
X0180930Y0140397D01*
X0180956Y0140241D01*
X0180977Y0140084D01*
X0180995Y0139927D01*
X0181009Y0139769D01*
X0181019Y0139611D01*
X0181025Y0139453D01*
X0181027Y0139295D01*
X0181025Y0139137D01*
X0181019Y0138979D01*
X0181009Y0138821D01*
X0180995Y0138663D01*
X0180977Y0138506D01*
X0180956Y0138349D01*
X0180930Y0138193D01*
X0180900Y0138037D01*
X0180867Y0137882D01*
X0180829Y0137729D01*
X0180788Y0137576D01*
X0180743Y0137424D01*
X0180694Y0137273D01*
X0180641Y0137124D01*
X0180585Y0136976D01*
X0180525Y0136830D01*
X0180461Y0136685D01*
X0180393Y0136542D01*
X0180322Y0136400D01*
X0180248Y0136260D01*
X0180170Y0136123D01*
X0180088Y0135987D01*
X0180004Y0135853D01*
X0179915Y0135722D01*
X0179824Y0135593D01*
X0179729Y0135466D01*
X0179632Y0135341D01*
X0179531Y0135219D01*
X0179427Y0135100D01*
X0179320Y0134983D01*
X0179210Y0134869D01*
X0179097Y0134758D01*
X0178982Y0134649D01*
X0178864Y0134544D01*
X0178743Y0134442D01*
X0178620Y0134342D01*
X0178494Y0134246D01*
X0178366Y0134153D01*
X0178236Y0134063D01*
X0178103Y0133977D01*
X0177968Y0133893D01*
X0177832Y0133814D01*
X0177693Y0133737D01*
X0177552Y0133665D01*
X0177410Y0133595D01*
X0177266Y0133530D01*
X0177120Y0133468D01*
X0176973Y0133410D01*
X0176824Y0133355D01*
X0176674Y0133304D01*
X0176523Y0133257D01*
X0176371Y0133214D01*
X0176218Y0133175D01*
X0176063Y0133139D01*
X0175908Y0133108D01*
X0175752Y0133080D01*
X0175596Y0133056D01*
X0175439Y0133036D01*
X0175281Y0133020D01*
X0175124Y0133008D01*
X0174965Y0133000D01*
X0174807Y0132996D01*
X0174649Y0132996D01*
X0174491Y0133000D01*
X0174332Y0133008D01*
X0174175Y0133020D01*
X0174017Y0133036D01*
X0173860Y0133056D01*
X0173704Y0133080D01*
X0173548Y0133108D01*
X0173393Y0133139D01*
X0173238Y0133175D01*
X0173085Y0133214D01*
X0172933Y0133257D01*
X0172782Y0133304D01*
X0172632Y0133355D01*
X0172483Y0133410D01*
X0172336Y0133468D01*
X0172190Y0133530D01*
X0172046Y0133595D01*
X0171904Y0133665D01*
X0171763Y0133737D01*
X0171624Y0133814D01*
X0171488Y0133893D01*
X0171353Y0133977D01*
X0171220Y0134063D01*
X0171090Y0134153D01*
X0170962Y0134246D01*
X0170836Y0134342D01*
X0170713Y0134442D01*
X0170592Y0134544D01*
X0170474Y0134649D01*
X0170359Y0134758D01*
X0170246Y0134869D01*
X0170136Y0134983D01*
X0170029Y0135100D01*
X0169925Y0135219D01*
X0169824Y0135341D01*
X0169727Y0135466D01*
X0169632Y0135593D01*
X0169541Y0135722D01*
X0169452Y0135853D01*
X0169368Y0135987D01*
X0169286Y0136123D01*
X0169208Y0136260D01*
X0169134Y0136400D01*
X0169063Y0136542D01*
X0168995Y0136685D01*
X0168931Y0136830D01*
X0168871Y0136976D01*
X0168815Y0137124D01*
X0168762Y0137273D01*
X0168713Y0137424D01*
X0168668Y0137576D01*
X0168627Y0137729D01*
X0168589Y0137882D01*
X0168556Y0138037D01*
X0168526Y0138193D01*
X0168500Y0138349D01*
X0168479Y0138506D01*
X0168461Y0138663D01*
X0168447Y0138821D01*
X0168437Y0138979D01*
X0168431Y0139137D01*
X0168429Y0139295D01*
X0030634Y0277091D02*
X0030636Y0277249D01*
X0030642Y0277407D01*
X0030652Y0277565D01*
X0030666Y0277723D01*
X0030684Y0277880D01*
X0030705Y0278037D01*
X0030731Y0278193D01*
X0030761Y0278349D01*
X0030794Y0278504D01*
X0030832Y0278657D01*
X0030873Y0278810D01*
X0030918Y0278962D01*
X0030967Y0279113D01*
X0031020Y0279262D01*
X0031076Y0279410D01*
X0031136Y0279556D01*
X0031200Y0279701D01*
X0031268Y0279844D01*
X0031339Y0279986D01*
X0031413Y0280126D01*
X0031491Y0280263D01*
X0031573Y0280399D01*
X0031657Y0280533D01*
X0031746Y0280664D01*
X0031837Y0280793D01*
X0031932Y0280920D01*
X0032029Y0281045D01*
X0032130Y0281167D01*
X0032234Y0281286D01*
X0032341Y0281403D01*
X0032451Y0281517D01*
X0032564Y0281628D01*
X0032679Y0281737D01*
X0032797Y0281842D01*
X0032918Y0281944D01*
X0033041Y0282044D01*
X0033167Y0282140D01*
X0033295Y0282233D01*
X0033425Y0282323D01*
X0033558Y0282409D01*
X0033693Y0282493D01*
X0033829Y0282572D01*
X0033968Y0282649D01*
X0034109Y0282721D01*
X0034251Y0282791D01*
X0034395Y0282856D01*
X0034541Y0282918D01*
X0034688Y0282976D01*
X0034837Y0283031D01*
X0034987Y0283082D01*
X0035138Y0283129D01*
X0035290Y0283172D01*
X0035443Y0283211D01*
X0035598Y0283247D01*
X0035753Y0283278D01*
X0035909Y0283306D01*
X0036065Y0283330D01*
X0036222Y0283350D01*
X0036380Y0283366D01*
X0036537Y0283378D01*
X0036696Y0283386D01*
X0036854Y0283390D01*
X0037012Y0283390D01*
X0037170Y0283386D01*
X0037329Y0283378D01*
X0037486Y0283366D01*
X0037644Y0283350D01*
X0037801Y0283330D01*
X0037957Y0283306D01*
X0038113Y0283278D01*
X0038268Y0283247D01*
X0038423Y0283211D01*
X0038576Y0283172D01*
X0038728Y0283129D01*
X0038879Y0283082D01*
X0039029Y0283031D01*
X0039178Y0282976D01*
X0039325Y0282918D01*
X0039471Y0282856D01*
X0039615Y0282791D01*
X0039757Y0282721D01*
X0039898Y0282649D01*
X0040037Y0282572D01*
X0040173Y0282493D01*
X0040308Y0282409D01*
X0040441Y0282323D01*
X0040571Y0282233D01*
X0040699Y0282140D01*
X0040825Y0282044D01*
X0040948Y0281944D01*
X0041069Y0281842D01*
X0041187Y0281737D01*
X0041302Y0281628D01*
X0041415Y0281517D01*
X0041525Y0281403D01*
X0041632Y0281286D01*
X0041736Y0281167D01*
X0041837Y0281045D01*
X0041934Y0280920D01*
X0042029Y0280793D01*
X0042120Y0280664D01*
X0042209Y0280533D01*
X0042293Y0280399D01*
X0042375Y0280263D01*
X0042453Y0280126D01*
X0042527Y0279986D01*
X0042598Y0279844D01*
X0042666Y0279701D01*
X0042730Y0279556D01*
X0042790Y0279410D01*
X0042846Y0279262D01*
X0042899Y0279113D01*
X0042948Y0278962D01*
X0042993Y0278810D01*
X0043034Y0278657D01*
X0043072Y0278504D01*
X0043105Y0278349D01*
X0043135Y0278193D01*
X0043161Y0278037D01*
X0043182Y0277880D01*
X0043200Y0277723D01*
X0043214Y0277565D01*
X0043224Y0277407D01*
X0043230Y0277249D01*
X0043232Y0277091D01*
X0043230Y0276933D01*
X0043224Y0276775D01*
X0043214Y0276617D01*
X0043200Y0276459D01*
X0043182Y0276302D01*
X0043161Y0276145D01*
X0043135Y0275989D01*
X0043105Y0275833D01*
X0043072Y0275678D01*
X0043034Y0275525D01*
X0042993Y0275372D01*
X0042948Y0275220D01*
X0042899Y0275069D01*
X0042846Y0274920D01*
X0042790Y0274772D01*
X0042730Y0274626D01*
X0042666Y0274481D01*
X0042598Y0274338D01*
X0042527Y0274196D01*
X0042453Y0274056D01*
X0042375Y0273919D01*
X0042293Y0273783D01*
X0042209Y0273649D01*
X0042120Y0273518D01*
X0042029Y0273389D01*
X0041934Y0273262D01*
X0041837Y0273137D01*
X0041736Y0273015D01*
X0041632Y0272896D01*
X0041525Y0272779D01*
X0041415Y0272665D01*
X0041302Y0272554D01*
X0041187Y0272445D01*
X0041069Y0272340D01*
X0040948Y0272238D01*
X0040825Y0272138D01*
X0040699Y0272042D01*
X0040571Y0271949D01*
X0040441Y0271859D01*
X0040308Y0271773D01*
X0040173Y0271689D01*
X0040037Y0271610D01*
X0039898Y0271533D01*
X0039757Y0271461D01*
X0039615Y0271391D01*
X0039471Y0271326D01*
X0039325Y0271264D01*
X0039178Y0271206D01*
X0039029Y0271151D01*
X0038879Y0271100D01*
X0038728Y0271053D01*
X0038576Y0271010D01*
X0038423Y0270971D01*
X0038268Y0270935D01*
X0038113Y0270904D01*
X0037957Y0270876D01*
X0037801Y0270852D01*
X0037644Y0270832D01*
X0037486Y0270816D01*
X0037329Y0270804D01*
X0037170Y0270796D01*
X0037012Y0270792D01*
X0036854Y0270792D01*
X0036696Y0270796D01*
X0036537Y0270804D01*
X0036380Y0270816D01*
X0036222Y0270832D01*
X0036065Y0270852D01*
X0035909Y0270876D01*
X0035753Y0270904D01*
X0035598Y0270935D01*
X0035443Y0270971D01*
X0035290Y0271010D01*
X0035138Y0271053D01*
X0034987Y0271100D01*
X0034837Y0271151D01*
X0034688Y0271206D01*
X0034541Y0271264D01*
X0034395Y0271326D01*
X0034251Y0271391D01*
X0034109Y0271461D01*
X0033968Y0271533D01*
X0033829Y0271610D01*
X0033693Y0271689D01*
X0033558Y0271773D01*
X0033425Y0271859D01*
X0033295Y0271949D01*
X0033167Y0272042D01*
X0033041Y0272138D01*
X0032918Y0272238D01*
X0032797Y0272340D01*
X0032679Y0272445D01*
X0032564Y0272554D01*
X0032451Y0272665D01*
X0032341Y0272779D01*
X0032234Y0272896D01*
X0032130Y0273015D01*
X0032029Y0273137D01*
X0031932Y0273262D01*
X0031837Y0273389D01*
X0031746Y0273518D01*
X0031657Y0273649D01*
X0031573Y0273783D01*
X0031491Y0273919D01*
X0031413Y0274056D01*
X0031339Y0274196D01*
X0031268Y0274338D01*
X0031200Y0274481D01*
X0031136Y0274626D01*
X0031076Y0274772D01*
X0031020Y0274920D01*
X0030967Y0275069D01*
X0030918Y0275220D01*
X0030873Y0275372D01*
X0030832Y0275525D01*
X0030794Y0275678D01*
X0030761Y0275833D01*
X0030731Y0275989D01*
X0030705Y0276145D01*
X0030684Y0276302D01*
X0030666Y0276459D01*
X0030652Y0276617D01*
X0030642Y0276775D01*
X0030636Y0276933D01*
X0030634Y0277091D01*
X0220429Y0280091D02*
X0220431Y0280249D01*
X0220437Y0280407D01*
X0220447Y0280565D01*
X0220461Y0280723D01*
X0220479Y0280880D01*
X0220500Y0281037D01*
X0220526Y0281193D01*
X0220556Y0281349D01*
X0220589Y0281504D01*
X0220627Y0281657D01*
X0220668Y0281810D01*
X0220713Y0281962D01*
X0220762Y0282113D01*
X0220815Y0282262D01*
X0220871Y0282410D01*
X0220931Y0282556D01*
X0220995Y0282701D01*
X0221063Y0282844D01*
X0221134Y0282986D01*
X0221208Y0283126D01*
X0221286Y0283263D01*
X0221368Y0283399D01*
X0221452Y0283533D01*
X0221541Y0283664D01*
X0221632Y0283793D01*
X0221727Y0283920D01*
X0221824Y0284045D01*
X0221925Y0284167D01*
X0222029Y0284286D01*
X0222136Y0284403D01*
X0222246Y0284517D01*
X0222359Y0284628D01*
X0222474Y0284737D01*
X0222592Y0284842D01*
X0222713Y0284944D01*
X0222836Y0285044D01*
X0222962Y0285140D01*
X0223090Y0285233D01*
X0223220Y0285323D01*
X0223353Y0285409D01*
X0223488Y0285493D01*
X0223624Y0285572D01*
X0223763Y0285649D01*
X0223904Y0285721D01*
X0224046Y0285791D01*
X0224190Y0285856D01*
X0224336Y0285918D01*
X0224483Y0285976D01*
X0224632Y0286031D01*
X0224782Y0286082D01*
X0224933Y0286129D01*
X0225085Y0286172D01*
X0225238Y0286211D01*
X0225393Y0286247D01*
X0225548Y0286278D01*
X0225704Y0286306D01*
X0225860Y0286330D01*
X0226017Y0286350D01*
X0226175Y0286366D01*
X0226332Y0286378D01*
X0226491Y0286386D01*
X0226649Y0286390D01*
X0226807Y0286390D01*
X0226965Y0286386D01*
X0227124Y0286378D01*
X0227281Y0286366D01*
X0227439Y0286350D01*
X0227596Y0286330D01*
X0227752Y0286306D01*
X0227908Y0286278D01*
X0228063Y0286247D01*
X0228218Y0286211D01*
X0228371Y0286172D01*
X0228523Y0286129D01*
X0228674Y0286082D01*
X0228824Y0286031D01*
X0228973Y0285976D01*
X0229120Y0285918D01*
X0229266Y0285856D01*
X0229410Y0285791D01*
X0229552Y0285721D01*
X0229693Y0285649D01*
X0229832Y0285572D01*
X0229968Y0285493D01*
X0230103Y0285409D01*
X0230236Y0285323D01*
X0230366Y0285233D01*
X0230494Y0285140D01*
X0230620Y0285044D01*
X0230743Y0284944D01*
X0230864Y0284842D01*
X0230982Y0284737D01*
X0231097Y0284628D01*
X0231210Y0284517D01*
X0231320Y0284403D01*
X0231427Y0284286D01*
X0231531Y0284167D01*
X0231632Y0284045D01*
X0231729Y0283920D01*
X0231824Y0283793D01*
X0231915Y0283664D01*
X0232004Y0283533D01*
X0232088Y0283399D01*
X0232170Y0283263D01*
X0232248Y0283126D01*
X0232322Y0282986D01*
X0232393Y0282844D01*
X0232461Y0282701D01*
X0232525Y0282556D01*
X0232585Y0282410D01*
X0232641Y0282262D01*
X0232694Y0282113D01*
X0232743Y0281962D01*
X0232788Y0281810D01*
X0232829Y0281657D01*
X0232867Y0281504D01*
X0232900Y0281349D01*
X0232930Y0281193D01*
X0232956Y0281037D01*
X0232977Y0280880D01*
X0232995Y0280723D01*
X0233009Y0280565D01*
X0233019Y0280407D01*
X0233025Y0280249D01*
X0233027Y0280091D01*
X0233025Y0279933D01*
X0233019Y0279775D01*
X0233009Y0279617D01*
X0232995Y0279459D01*
X0232977Y0279302D01*
X0232956Y0279145D01*
X0232930Y0278989D01*
X0232900Y0278833D01*
X0232867Y0278678D01*
X0232829Y0278525D01*
X0232788Y0278372D01*
X0232743Y0278220D01*
X0232694Y0278069D01*
X0232641Y0277920D01*
X0232585Y0277772D01*
X0232525Y0277626D01*
X0232461Y0277481D01*
X0232393Y0277338D01*
X0232322Y0277196D01*
X0232248Y0277056D01*
X0232170Y0276919D01*
X0232088Y0276783D01*
X0232004Y0276649D01*
X0231915Y0276518D01*
X0231824Y0276389D01*
X0231729Y0276262D01*
X0231632Y0276137D01*
X0231531Y0276015D01*
X0231427Y0275896D01*
X0231320Y0275779D01*
X0231210Y0275665D01*
X0231097Y0275554D01*
X0230982Y0275445D01*
X0230864Y0275340D01*
X0230743Y0275238D01*
X0230620Y0275138D01*
X0230494Y0275042D01*
X0230366Y0274949D01*
X0230236Y0274859D01*
X0230103Y0274773D01*
X0229968Y0274689D01*
X0229832Y0274610D01*
X0229693Y0274533D01*
X0229552Y0274461D01*
X0229410Y0274391D01*
X0229266Y0274326D01*
X0229120Y0274264D01*
X0228973Y0274206D01*
X0228824Y0274151D01*
X0228674Y0274100D01*
X0228523Y0274053D01*
X0228371Y0274010D01*
X0228218Y0273971D01*
X0228063Y0273935D01*
X0227908Y0273904D01*
X0227752Y0273876D01*
X0227596Y0273852D01*
X0227439Y0273832D01*
X0227281Y0273816D01*
X0227124Y0273804D01*
X0226965Y0273796D01*
X0226807Y0273792D01*
X0226649Y0273792D01*
X0226491Y0273796D01*
X0226332Y0273804D01*
X0226175Y0273816D01*
X0226017Y0273832D01*
X0225860Y0273852D01*
X0225704Y0273876D01*
X0225548Y0273904D01*
X0225393Y0273935D01*
X0225238Y0273971D01*
X0225085Y0274010D01*
X0224933Y0274053D01*
X0224782Y0274100D01*
X0224632Y0274151D01*
X0224483Y0274206D01*
X0224336Y0274264D01*
X0224190Y0274326D01*
X0224046Y0274391D01*
X0223904Y0274461D01*
X0223763Y0274533D01*
X0223624Y0274610D01*
X0223488Y0274689D01*
X0223353Y0274773D01*
X0223220Y0274859D01*
X0223090Y0274949D01*
X0222962Y0275042D01*
X0222836Y0275138D01*
X0222713Y0275238D01*
X0222592Y0275340D01*
X0222474Y0275445D01*
X0222359Y0275554D01*
X0222246Y0275665D01*
X0222136Y0275779D01*
X0222029Y0275896D01*
X0221925Y0276015D01*
X0221824Y0276137D01*
X0221727Y0276262D01*
X0221632Y0276389D01*
X0221541Y0276518D01*
X0221452Y0276649D01*
X0221368Y0276783D01*
X0221286Y0276919D01*
X0221208Y0277056D01*
X0221134Y0277196D01*
X0221063Y0277338D01*
X0220995Y0277481D01*
X0220931Y0277626D01*
X0220871Y0277772D01*
X0220815Y0277920D01*
X0220762Y0278069D01*
X0220713Y0278220D01*
X0220668Y0278372D01*
X0220627Y0278525D01*
X0220589Y0278678D01*
X0220556Y0278833D01*
X0220526Y0278989D01*
X0220500Y0279145D01*
X0220479Y0279302D01*
X0220461Y0279459D01*
X0220447Y0279617D01*
X0220437Y0279775D01*
X0220431Y0279933D01*
X0220429Y0280091D01*
D11*
X0198248Y0154500D03*
X0198248Y0144500D03*
X0198248Y0134500D03*
X0198248Y0124500D03*
X0188248Y0119500D03*
X0198248Y0114500D03*
X0188248Y0109500D03*
X0198248Y0104500D03*
X0198248Y0094500D03*
X0198248Y0084500D03*
X0188248Y0079500D03*
X0198248Y0074500D03*
X0188248Y0069500D03*
X0198248Y0064500D03*
X0198248Y0054500D03*
X0198248Y0044500D03*
X0138248Y0044500D03*
X0138248Y0054500D03*
X0138248Y0064500D03*
X0138248Y0074500D03*
X0138248Y0084500D03*
X0138248Y0094500D03*
X0138248Y0104500D03*
X0138248Y0114500D03*
X0138248Y0124500D03*
X0138248Y0134500D03*
X0138248Y0144500D03*
X0138248Y0154500D03*
D12*
X0303348Y0162900D02*
X0311148Y0162900D01*
X0311148Y0140100D02*
X0303348Y0140100D01*
X0351348Y0140100D02*
X0359148Y0140100D01*
X0359148Y0162900D02*
X0351348Y0162900D01*
X0351348Y0210100D02*
X0359148Y0210100D01*
X0359148Y0232900D02*
X0351348Y0232900D01*
X0311148Y0232900D02*
X0303348Y0232900D01*
X0303348Y0210100D02*
X0311148Y0210100D01*
X0311148Y0280100D02*
X0303348Y0280100D01*
X0351348Y0280100D02*
X0359148Y0280100D01*
X0359148Y0092900D02*
X0351348Y0092900D01*
X0351348Y0070100D02*
X0359148Y0070100D01*
X0311148Y0070100D02*
X0303348Y0070100D01*
X0303348Y0092900D02*
X0311148Y0092900D01*
X0311148Y0022900D02*
X0303348Y0022900D01*
X0351348Y0022900D02*
X0359148Y0022900D01*
D13*
X0304273Y0046500D02*
X0293623Y0046500D01*
X0293623Y0116500D02*
X0304273Y0116500D01*
X0304273Y0186500D02*
X0293623Y0186500D01*
X0293623Y0256500D02*
X0304273Y0256500D01*
D14*
X0129248Y0276500D02*
X0123248Y0276500D01*
X0123248Y0286500D02*
X0129248Y0286500D01*
X0106248Y0286500D02*
X0100248Y0286500D01*
X0100248Y0276500D02*
X0106248Y0276500D01*
X0030248Y0256500D02*
X0024248Y0256500D01*
X0024248Y0246500D02*
X0030248Y0246500D01*
X0030248Y0236500D02*
X0024248Y0236500D01*
X0024248Y0226500D02*
X0030248Y0226500D01*
X0030248Y0216500D02*
X0024248Y0216500D01*
D15*
X0035353Y0199665D02*
X0042403Y0199665D01*
X0042403Y0179980D02*
X0035353Y0179980D01*
X0035432Y0160295D02*
X0042482Y0160295D01*
X0042482Y0140610D02*
X0035432Y0140610D01*
X0035432Y0120925D02*
X0042482Y0120925D01*
X0042482Y0101240D02*
X0035432Y0101240D01*
X0035432Y0081555D02*
X0042482Y0081555D01*
X0042482Y0061870D02*
X0035432Y0061870D01*
X0035353Y0042185D02*
X0042403Y0042185D01*
X0042403Y0022500D02*
X0035353Y0022500D01*
X0392211Y0023941D02*
X0399261Y0023941D01*
X0399261Y0043626D02*
X0392211Y0043626D01*
X0392290Y0063311D02*
X0399340Y0063311D01*
X0399340Y0082996D02*
X0392290Y0082996D01*
X0392290Y0102681D02*
X0399340Y0102681D01*
X0399340Y0122366D02*
X0392290Y0122366D01*
X0392290Y0142051D02*
X0399340Y0142051D01*
X0399340Y0161736D02*
X0392290Y0161736D01*
X0392290Y0181421D02*
X0399340Y0181421D01*
X0399340Y0201106D02*
X0392290Y0201106D01*
X0392290Y0220791D02*
X0399340Y0220791D01*
X0399340Y0240476D02*
X0392290Y0240476D01*
X0392290Y0260161D02*
X0399340Y0260161D01*
X0399340Y0279846D02*
X0392290Y0279846D01*
D16*
X0099720Y0096700D02*
X0094176Y0096700D01*
X0094176Y0086700D02*
X0099720Y0086700D01*
X0072720Y0086700D02*
X0067176Y0086700D01*
X0067176Y0096700D02*
X0072720Y0096700D01*
X0072720Y0046700D02*
X0067176Y0046700D01*
X0094176Y0046700D02*
X0099720Y0046700D01*
X0099720Y0026700D02*
X0094176Y0026700D01*
X0072720Y0026700D02*
X0067176Y0026700D01*
D17*
X0244048Y0025500D02*
X0249248Y0025500D01*
X0249248Y0035500D02*
X0244048Y0035500D01*
X0279248Y0035500D02*
X0284448Y0035500D01*
X0284448Y0025500D02*
X0279248Y0025500D01*
X0279248Y0095500D02*
X0284448Y0095500D01*
X0284448Y0105500D02*
X0279248Y0105500D01*
X0249248Y0105500D02*
X0244048Y0105500D01*
X0244048Y0095500D02*
X0249248Y0095500D01*
X0249248Y0165500D02*
X0244048Y0165500D01*
X0244048Y0175500D02*
X0249248Y0175500D01*
X0279248Y0175500D02*
X0284448Y0175500D01*
X0284448Y0165500D02*
X0279248Y0165500D01*
X0279248Y0235500D02*
X0284448Y0235500D01*
X0284448Y0245500D02*
X0279248Y0245500D01*
X0249248Y0245500D02*
X0244048Y0245500D01*
X0244048Y0235500D02*
X0249248Y0235500D01*
D18*
X0127248Y0127500D03*
X0127248Y0121500D03*
X0118248Y0121500D03*
X0118248Y0127500D03*
D19*
X0149248Y0276500D03*
X0159248Y0276500D03*
X0169248Y0276500D03*
X0179248Y0276500D03*
X0189248Y0276500D03*
X0199248Y0276500D03*
X0199248Y0286500D03*
X0189248Y0286500D03*
X0179248Y0286500D03*
X0169248Y0286500D03*
X0159248Y0286500D03*
X0149248Y0286500D03*
D20*
X0147248Y0031500D03*
X0137248Y0031500D03*
X0137248Y0021500D03*
X0147248Y0021500D03*
X0157248Y0021500D03*
X0167248Y0021500D03*
X0177248Y0021500D03*
X0187248Y0021500D03*
X0187248Y0031500D03*
X0177248Y0031500D03*
X0167248Y0031500D03*
X0157248Y0031500D03*
X0197248Y0031500D03*
X0207248Y0031500D03*
X0217248Y0031500D03*
X0217248Y0021500D03*
X0207248Y0021500D03*
X0197248Y0021500D03*
X0227248Y0021500D03*
X0227248Y0031500D03*
D21*
X0189248Y0058500D03*
X0340248Y0057500D03*
X0341248Y0035500D03*
X0340248Y0106500D03*
X0340248Y0128500D03*
X0341248Y0176500D03*
X0341248Y0199500D03*
X0338248Y0244500D03*
X0337248Y0272500D03*
X0154248Y0244500D03*
X0148248Y0244500D03*
X0141248Y0244500D03*
X0141248Y0236500D03*
X0148248Y0236500D03*
X0154248Y0236500D03*
X0154248Y0228500D03*
X0148248Y0228500D03*
X0141248Y0228500D03*
X0117248Y0203500D03*
X0077248Y0207500D03*
X0071248Y0183000D03*
D22*
X0003470Y0006618D02*
X0004689Y0004941D01*
X0006366Y0003722D01*
X0008337Y0003082D01*
X0009374Y0003000D01*
X0120370Y0003000D01*
X0118963Y0003583D01*
X0101846Y0020700D01*
X0095994Y0020700D01*
X0093863Y0021583D01*
X0092798Y0022647D01*
X0091757Y0023079D01*
X0090555Y0024280D01*
X0089905Y0025850D01*
X0089905Y0027550D01*
X0090555Y0029120D01*
X0091757Y0030321D01*
X0092798Y0030753D01*
X0093663Y0031617D01*
X0095794Y0032500D01*
X0098102Y0032500D01*
X0098585Y0032300D01*
X0105402Y0032300D01*
X0107533Y0031417D01*
X0124650Y0014300D01*
X0385846Y0014300D01*
X0390448Y0018902D01*
X0390448Y0019232D01*
X0389365Y0019681D01*
X0387951Y0021095D01*
X0387186Y0022941D01*
X0387186Y0024940D01*
X0387951Y0026787D01*
X0389365Y0028201D01*
X0391212Y0028966D01*
X0392712Y0028966D01*
X0394583Y0029741D01*
X0396890Y0029741D01*
X0398761Y0028966D01*
X0400261Y0028966D01*
X0402108Y0028201D01*
X0403521Y0026787D01*
X0404286Y0024940D01*
X0404286Y0022941D01*
X0403521Y0021095D01*
X0402108Y0019681D01*
X0402048Y0019656D01*
X0402048Y0015346D01*
X0401165Y0013215D01*
X0399533Y0011583D01*
X0399533Y0011583D01*
X0393165Y0005215D01*
X0393165Y0005215D01*
X0391533Y0003583D01*
X0390126Y0003000D01*
X0426697Y0003000D01*
X0427643Y0003074D01*
X0429444Y0003660D01*
X0430976Y0004772D01*
X0432088Y0006304D01*
X0432674Y0008105D01*
X0432748Y0009051D01*
X0432748Y0284941D01*
X0432673Y0285889D01*
X0432088Y0287692D01*
X0430973Y0289225D01*
X0429440Y0290340D01*
X0427637Y0290925D01*
X0426689Y0291000D01*
X0009381Y0291000D01*
X0008087Y0290873D01*
X0005696Y0289882D01*
X0003866Y0288052D01*
X0002875Y0285661D01*
X0002748Y0284367D01*
X0002748Y0009626D01*
X0002830Y0008589D01*
X0003470Y0006618D01*
X0003561Y0006493D02*
X0116053Y0006493D01*
X0115055Y0007491D02*
X0003186Y0007491D01*
X0002862Y0008490D02*
X0114056Y0008490D01*
X0113057Y0009488D02*
X0002759Y0009488D01*
X0002748Y0010487D02*
X0112059Y0010487D01*
X0111060Y0011485D02*
X0002748Y0011485D01*
X0002748Y0012484D02*
X0110062Y0012484D01*
X0109063Y0013482D02*
X0002748Y0013482D01*
X0002748Y0014481D02*
X0108065Y0014481D01*
X0107066Y0015479D02*
X0002748Y0015479D01*
X0002748Y0016478D02*
X0106068Y0016478D01*
X0105069Y0017476D02*
X0068776Y0017476D01*
X0069033Y0017583D02*
X0074098Y0022647D01*
X0075139Y0023079D01*
X0076341Y0024280D01*
X0076991Y0025850D01*
X0076991Y0027550D01*
X0076341Y0029120D01*
X0075139Y0030321D01*
X0074098Y0030753D01*
X0073233Y0031617D01*
X0071102Y0032500D01*
X0068794Y0032500D01*
X0066663Y0031617D01*
X0065798Y0030753D01*
X0064757Y0030321D01*
X0063555Y0029120D01*
X0063216Y0028300D01*
X0037724Y0028300D01*
X0035853Y0027525D01*
X0034353Y0027525D01*
X0032507Y0026760D01*
X0031093Y0025346D01*
X0030328Y0023500D01*
X0030328Y0021500D01*
X0031093Y0019654D01*
X0032507Y0018240D01*
X0034353Y0017475D01*
X0035853Y0017475D01*
X0037724Y0016700D01*
X0066902Y0016700D01*
X0069033Y0017583D01*
X0069925Y0018475D02*
X0104071Y0018475D01*
X0103072Y0019473D02*
X0070924Y0019473D01*
X0071922Y0020472D02*
X0102074Y0020472D01*
X0094135Y0021470D02*
X0072921Y0021470D01*
X0073919Y0022469D02*
X0092977Y0022469D01*
X0091368Y0023467D02*
X0075528Y0023467D01*
X0076418Y0024466D02*
X0090478Y0024466D01*
X0090065Y0025464D02*
X0076831Y0025464D01*
X0076991Y0026463D02*
X0089905Y0026463D01*
X0089905Y0027461D02*
X0076991Y0027461D01*
X0076614Y0028460D02*
X0090282Y0028460D01*
X0090894Y0029458D02*
X0076002Y0029458D01*
X0074812Y0030457D02*
X0092084Y0030457D01*
X0093501Y0031455D02*
X0073395Y0031455D01*
X0071213Y0032454D02*
X0095683Y0032454D01*
X0098213Y0032454D02*
X0132948Y0032454D01*
X0132948Y0033281D02*
X0132948Y0029719D01*
X0135467Y0027200D01*
X0139029Y0027200D01*
X0141548Y0029719D01*
X0141548Y0033281D01*
X0139029Y0035800D01*
X0135467Y0035800D01*
X0132948Y0033281D01*
X0133119Y0033452D02*
X0002748Y0033452D01*
X0002748Y0032454D02*
X0068683Y0032454D01*
X0066501Y0031455D02*
X0002748Y0031455D01*
X0002748Y0030457D02*
X0065084Y0030457D01*
X0063894Y0029458D02*
X0002748Y0029458D01*
X0002748Y0028460D02*
X0063282Y0028460D01*
X0066587Y0036385D02*
X0068719Y0037268D01*
X0074098Y0042647D01*
X0075139Y0043079D01*
X0076341Y0044280D01*
X0076991Y0045850D01*
X0076991Y0047550D01*
X0076341Y0049120D01*
X0075139Y0050321D01*
X0074098Y0050753D01*
X0073233Y0051617D01*
X0071102Y0052500D01*
X0068794Y0052500D01*
X0066663Y0051617D01*
X0065798Y0050753D01*
X0064757Y0050321D01*
X0063555Y0049120D01*
X0063124Y0048078D01*
X0063031Y0047985D01*
X0037724Y0047985D01*
X0035853Y0047210D01*
X0034353Y0047210D01*
X0032507Y0046445D01*
X0031093Y0045031D01*
X0030328Y0043185D01*
X0030328Y0041185D01*
X0031093Y0039339D01*
X0032507Y0037925D01*
X0034353Y0037160D01*
X0035853Y0037160D01*
X0037724Y0036385D01*
X0066587Y0036385D01*
X0066739Y0036448D02*
X0240003Y0036448D01*
X0239948Y0036316D02*
X0239948Y0034684D01*
X0240572Y0033178D01*
X0241726Y0032024D01*
X0243232Y0031400D01*
X0250064Y0031400D01*
X0251570Y0032024D01*
X0252724Y0033178D01*
X0253348Y0034684D01*
X0253348Y0036316D01*
X0252724Y0037822D01*
X0251570Y0038976D01*
X0250064Y0039600D01*
X0243232Y0039600D01*
X0241726Y0038976D01*
X0240572Y0037822D01*
X0239948Y0036316D01*
X0239948Y0035449D02*
X0229380Y0035449D01*
X0229029Y0035800D02*
X0225467Y0035800D01*
X0222948Y0033281D01*
X0222948Y0029719D01*
X0225467Y0027200D01*
X0229029Y0027200D01*
X0231548Y0029719D01*
X0231548Y0033281D01*
X0229029Y0035800D01*
X0230378Y0034451D02*
X0240045Y0034451D01*
X0240458Y0033452D02*
X0231377Y0033452D01*
X0231548Y0032454D02*
X0241296Y0032454D01*
X0243099Y0031455D02*
X0231548Y0031455D01*
X0231548Y0030457D02*
X0365702Y0030457D01*
X0364704Y0029458D02*
X0285606Y0029458D01*
X0285264Y0029600D02*
X0286770Y0028976D01*
X0287924Y0027822D01*
X0288548Y0026316D01*
X0288548Y0024684D01*
X0287924Y0023178D01*
X0286770Y0022024D01*
X0285264Y0021400D01*
X0278432Y0021400D01*
X0276926Y0022024D01*
X0275772Y0023178D01*
X0275148Y0024684D01*
X0275148Y0026316D01*
X0275772Y0027822D01*
X0276926Y0028976D01*
X0278432Y0029600D01*
X0285264Y0029600D01*
X0285264Y0031400D02*
X0286770Y0032024D01*
X0287924Y0033178D01*
X0288548Y0034684D01*
X0288548Y0036316D01*
X0287924Y0037822D01*
X0286770Y0038976D01*
X0285264Y0039600D01*
X0278432Y0039600D01*
X0276926Y0038976D01*
X0275772Y0037822D01*
X0275148Y0036316D01*
X0275148Y0034684D01*
X0275772Y0033178D01*
X0276926Y0032024D01*
X0278432Y0031400D01*
X0285264Y0031400D01*
X0285397Y0031455D02*
X0366701Y0031455D01*
X0367699Y0032454D02*
X0287200Y0032454D01*
X0288038Y0033452D02*
X0368698Y0033452D01*
X0369448Y0034202D02*
X0363946Y0028700D01*
X0354094Y0028700D01*
X0353129Y0028300D01*
X0350274Y0028300D01*
X0348289Y0027478D01*
X0346770Y0025959D01*
X0345948Y0023974D01*
X0345948Y0021826D01*
X0346770Y0019841D01*
X0348289Y0018322D01*
X0350274Y0017500D01*
X0353129Y0017500D01*
X0354094Y0017100D01*
X0367502Y0017100D01*
X0369633Y0017983D01*
X0371265Y0019615D01*
X0380165Y0028515D01*
X0381048Y0030646D01*
X0381048Y0046098D01*
X0392461Y0057511D01*
X0396969Y0057511D01*
X0398840Y0058286D01*
X0400339Y0058286D01*
X0402186Y0059051D01*
X0403600Y0060465D01*
X0404365Y0062311D01*
X0404365Y0064311D01*
X0403600Y0066157D01*
X0402186Y0067571D01*
X0400339Y0068336D01*
X0398840Y0068336D01*
X0396969Y0069111D01*
X0388905Y0069111D01*
X0386774Y0068228D01*
X0371963Y0053417D01*
X0370331Y0051785D01*
X0369448Y0049654D01*
X0369448Y0034202D01*
X0369448Y0034451D02*
X0288451Y0034451D01*
X0288548Y0035449D02*
X0369448Y0035449D01*
X0369448Y0036448D02*
X0288493Y0036448D01*
X0288080Y0037446D02*
X0369448Y0037446D01*
X0369448Y0038445D02*
X0287301Y0038445D01*
X0285642Y0039443D02*
X0369448Y0039443D01*
X0369448Y0040442D02*
X0307482Y0040442D01*
X0308105Y0040700D02*
X0356402Y0040700D01*
X0358533Y0041583D01*
X0360165Y0043215D01*
X0394147Y0077196D01*
X0396969Y0077196D01*
X0398840Y0077971D01*
X0400339Y0077971D01*
X0402186Y0078736D01*
X0403600Y0080150D01*
X0404365Y0081997D01*
X0404365Y0083996D01*
X0403600Y0085842D01*
X0402186Y0087256D01*
X0400339Y0088021D01*
X0398840Y0088021D01*
X0396969Y0088796D01*
X0390590Y0088796D01*
X0388459Y0087913D01*
X0352846Y0052300D01*
X0308105Y0052300D01*
X0305631Y0053325D01*
X0292265Y0053325D01*
X0289757Y0052286D01*
X0287837Y0050366D01*
X0286798Y0047858D01*
X0286798Y0045142D01*
X0287837Y0042634D01*
X0289757Y0040714D01*
X0292265Y0039675D01*
X0305631Y0039675D01*
X0308105Y0040700D01*
X0307806Y0052424D02*
X0352970Y0052424D01*
X0353968Y0053423D02*
X0203430Y0053423D01*
X0203448Y0053466D02*
X0203448Y0055534D01*
X0202656Y0057446D01*
X0201194Y0058908D01*
X0199765Y0059500D01*
X0201194Y0060092D01*
X0202656Y0061554D01*
X0203448Y0063466D01*
X0203448Y0065534D01*
X0202656Y0067446D01*
X0201194Y0068908D01*
X0199765Y0069500D01*
X0201194Y0070092D01*
X0202656Y0071554D01*
X0203448Y0073466D01*
X0203448Y0075534D01*
X0202656Y0077446D01*
X0201194Y0078908D01*
X0199765Y0079500D01*
X0201194Y0080092D01*
X0202656Y0081554D01*
X0203448Y0083466D01*
X0203448Y0085534D01*
X0202656Y0087446D01*
X0201194Y0088908D01*
X0199765Y0089500D01*
X0201194Y0090092D01*
X0202656Y0091554D01*
X0203448Y0093466D01*
X0203448Y0095534D01*
X0202656Y0097446D01*
X0201194Y0098908D01*
X0199765Y0099500D01*
X0201194Y0100092D01*
X0202656Y0101554D01*
X0203448Y0103466D01*
X0203448Y0105534D01*
X0202656Y0107446D01*
X0201194Y0108908D01*
X0199765Y0109500D01*
X0201194Y0110092D01*
X0202656Y0111554D01*
X0203448Y0113466D01*
X0203448Y0115534D01*
X0202656Y0117446D01*
X0201194Y0118908D01*
X0199765Y0119500D01*
X0201194Y0120092D01*
X0202656Y0121554D01*
X0202758Y0121800D01*
X0252130Y0121800D01*
X0269959Y0103971D01*
X0270719Y0103211D01*
X0271711Y0102800D01*
X0276150Y0102800D01*
X0276926Y0102024D01*
X0278432Y0101400D01*
X0285264Y0101400D01*
X0286770Y0102024D01*
X0287924Y0103178D01*
X0288548Y0104684D01*
X0288548Y0106316D01*
X0287924Y0107822D01*
X0286770Y0108976D01*
X0285264Y0109600D01*
X0278432Y0109600D01*
X0276926Y0108976D01*
X0276150Y0108200D01*
X0273366Y0108200D01*
X0254777Y0126789D01*
X0253785Y0127200D01*
X0202758Y0127200D01*
X0202656Y0127446D01*
X0201194Y0128908D01*
X0199765Y0129500D01*
X0201194Y0130092D01*
X0202656Y0131554D01*
X0203448Y0133466D01*
X0203448Y0135534D01*
X0202656Y0137446D01*
X0201194Y0138908D01*
X0199731Y0139514D01*
X0200244Y0139681D01*
X0200973Y0140053D01*
X0201636Y0140534D01*
X0202214Y0141112D01*
X0202695Y0141775D01*
X0203067Y0142504D01*
X0203320Y0143282D01*
X0203434Y0144000D01*
X0198748Y0144000D01*
X0198748Y0145000D01*
X0203434Y0145000D01*
X0203320Y0145718D01*
X0203067Y0146496D01*
X0202695Y0147225D01*
X0202214Y0147888D01*
X0201636Y0148466D01*
X0200973Y0148947D01*
X0200244Y0149319D01*
X0199731Y0149486D01*
X0201194Y0150092D01*
X0202656Y0151554D01*
X0203448Y0153466D01*
X0203448Y0155534D01*
X0202656Y0157446D01*
X0201194Y0158908D01*
X0199282Y0159700D01*
X0197214Y0159700D01*
X0195302Y0158908D01*
X0193840Y0157446D01*
X0193048Y0155534D01*
X0193048Y0153466D01*
X0193840Y0151554D01*
X0195302Y0150092D01*
X0196765Y0149486D01*
X0196252Y0149319D01*
X0195523Y0148947D01*
X0194860Y0148466D01*
X0194282Y0147888D01*
X0193801Y0147225D01*
X0193429Y0146496D01*
X0193176Y0145718D01*
X0193062Y0145000D01*
X0197748Y0145000D01*
X0197748Y0144000D01*
X0193062Y0144000D01*
X0193176Y0143282D01*
X0193429Y0142504D01*
X0193801Y0141775D01*
X0194282Y0141112D01*
X0194860Y0140534D01*
X0195523Y0140053D01*
X0196252Y0139681D01*
X0196765Y0139514D01*
X0195302Y0138908D01*
X0193840Y0137446D01*
X0193048Y0135534D01*
X0193048Y0133466D01*
X0193840Y0131554D01*
X0195302Y0130092D01*
X0196731Y0129500D01*
X0195302Y0128908D01*
X0193840Y0127446D01*
X0193048Y0125534D01*
X0193048Y0123466D01*
X0193840Y0121554D01*
X0195302Y0120092D01*
X0196731Y0119500D01*
X0195302Y0118908D01*
X0193840Y0117446D01*
X0193048Y0115534D01*
X0193048Y0113466D01*
X0193840Y0111554D01*
X0195302Y0110092D01*
X0196731Y0109500D01*
X0195302Y0108908D01*
X0193840Y0107446D01*
X0193048Y0105534D01*
X0193048Y0103466D01*
X0193840Y0101554D01*
X0195302Y0100092D01*
X0196731Y0099500D01*
X0195302Y0098908D01*
X0193840Y0097446D01*
X0193048Y0095534D01*
X0193048Y0093466D01*
X0193840Y0091554D01*
X0195302Y0090092D01*
X0196731Y0089500D01*
X0195302Y0088908D01*
X0193840Y0087446D01*
X0193048Y0085534D01*
X0193048Y0083466D01*
X0193840Y0081554D01*
X0195302Y0080092D01*
X0196731Y0079500D01*
X0195302Y0078908D01*
X0193840Y0077446D01*
X0193048Y0075534D01*
X0193048Y0073466D01*
X0193840Y0071554D01*
X0195302Y0070092D01*
X0196731Y0069500D01*
X0195302Y0068908D01*
X0193840Y0067446D01*
X0193048Y0065534D01*
X0193048Y0063466D01*
X0193840Y0061554D01*
X0195302Y0060092D01*
X0196731Y0059500D01*
X0195302Y0058908D01*
X0193840Y0057446D01*
X0193048Y0055534D01*
X0193048Y0053466D01*
X0193840Y0051554D01*
X0195302Y0050092D01*
X0196731Y0049500D01*
X0195302Y0048908D01*
X0193840Y0047446D01*
X0193048Y0045534D01*
X0193048Y0043466D01*
X0193840Y0041554D01*
X0195302Y0040092D01*
X0197214Y0039300D01*
X0199282Y0039300D01*
X0201194Y0040092D01*
X0202656Y0041554D01*
X0203448Y0043466D01*
X0203448Y0045534D01*
X0202656Y0047446D01*
X0201194Y0048908D01*
X0199765Y0049500D01*
X0201194Y0050092D01*
X0202656Y0051554D01*
X0203448Y0053466D01*
X0203448Y0054421D02*
X0354967Y0054421D01*
X0355965Y0055420D02*
X0203448Y0055420D01*
X0203082Y0056418D02*
X0356964Y0056418D01*
X0357962Y0057417D02*
X0202668Y0057417D01*
X0201687Y0058415D02*
X0358961Y0058415D01*
X0359959Y0059414D02*
X0199974Y0059414D01*
X0201514Y0060412D02*
X0360958Y0060412D01*
X0361956Y0061411D02*
X0202513Y0061411D01*
X0203010Y0062409D02*
X0362955Y0062409D01*
X0363953Y0063408D02*
X0203424Y0063408D01*
X0203448Y0064406D02*
X0353838Y0064406D01*
X0354094Y0064300D02*
X0362002Y0064300D01*
X0364133Y0065183D01*
X0365765Y0066815D01*
X0395832Y0096881D01*
X0396969Y0096881D01*
X0398840Y0097656D01*
X0400339Y0097656D01*
X0402186Y0098421D01*
X0403600Y0099835D01*
X0404365Y0101682D01*
X0404365Y0103681D01*
X0403600Y0105528D01*
X0402186Y0106941D01*
X0400339Y0107706D01*
X0398840Y0107706D01*
X0396969Y0108481D01*
X0392275Y0108481D01*
X0390144Y0107598D01*
X0389517Y0106972D01*
X0389444Y0106941D01*
X0388030Y0105528D01*
X0387999Y0105454D01*
X0358446Y0075900D01*
X0354094Y0075900D01*
X0353129Y0075500D01*
X0350274Y0075500D01*
X0348289Y0074678D01*
X0346770Y0073159D01*
X0345948Y0071174D01*
X0345948Y0069026D01*
X0346770Y0067041D01*
X0348289Y0065522D01*
X0350274Y0064700D01*
X0353129Y0064700D01*
X0354094Y0064300D01*
X0348573Y0065405D02*
X0313924Y0065405D01*
X0314207Y0065522D02*
X0315726Y0067041D01*
X0316548Y0069026D01*
X0316548Y0071174D01*
X0315726Y0073159D01*
X0314207Y0074678D01*
X0312222Y0075500D01*
X0302274Y0075500D01*
X0300289Y0074678D01*
X0298770Y0073159D01*
X0297948Y0071174D01*
X0297948Y0069026D01*
X0298770Y0067041D01*
X0300289Y0065522D01*
X0302274Y0064700D01*
X0312222Y0064700D01*
X0314207Y0065522D01*
X0315088Y0066403D02*
X0347408Y0066403D01*
X0346621Y0067402D02*
X0315875Y0067402D01*
X0316289Y0068400D02*
X0346207Y0068400D01*
X0345948Y0069399D02*
X0316548Y0069399D01*
X0316548Y0070397D02*
X0345948Y0070397D01*
X0346040Y0071396D02*
X0316456Y0071396D01*
X0316043Y0072394D02*
X0346453Y0072394D01*
X0347004Y0073393D02*
X0315492Y0073393D01*
X0314493Y0074391D02*
X0348003Y0074391D01*
X0350008Y0075390D02*
X0312488Y0075390D01*
X0302008Y0075390D02*
X0203448Y0075390D01*
X0203448Y0074391D02*
X0300003Y0074391D01*
X0299004Y0073393D02*
X0203418Y0073393D01*
X0203004Y0072394D02*
X0298453Y0072394D01*
X0298040Y0071396D02*
X0202498Y0071396D01*
X0201499Y0070397D02*
X0297948Y0070397D01*
X0297948Y0069399D02*
X0200010Y0069399D01*
X0201702Y0068400D02*
X0298207Y0068400D01*
X0298621Y0067402D02*
X0202675Y0067402D01*
X0203088Y0066403D02*
X0299408Y0066403D01*
X0300573Y0065405D02*
X0203448Y0065405D01*
X0196487Y0069399D02*
X0193448Y0069399D01*
X0193448Y0068466D02*
X0193448Y0070534D01*
X0192656Y0072446D01*
X0191194Y0073908D01*
X0189765Y0074500D01*
X0191194Y0075092D01*
X0192656Y0076554D01*
X0193448Y0078466D01*
X0193448Y0080534D01*
X0192656Y0082446D01*
X0191194Y0083908D01*
X0189282Y0084700D01*
X0187214Y0084700D01*
X0185302Y0083908D01*
X0183840Y0082446D01*
X0183048Y0080534D01*
X0183048Y0078466D01*
X0183840Y0076554D01*
X0185302Y0075092D01*
X0186731Y0074500D01*
X0185302Y0073908D01*
X0183840Y0072446D01*
X0183048Y0070534D01*
X0183048Y0068466D01*
X0183840Y0066554D01*
X0185302Y0065092D01*
X0187214Y0064300D01*
X0189282Y0064300D01*
X0191194Y0065092D01*
X0192656Y0066554D01*
X0193448Y0068466D01*
X0193421Y0068400D02*
X0194794Y0068400D01*
X0193822Y0067402D02*
X0193007Y0067402D01*
X0193408Y0066403D02*
X0192505Y0066403D01*
X0193048Y0065405D02*
X0191507Y0065405D01*
X0193048Y0064406D02*
X0189539Y0064406D01*
X0186957Y0064406D02*
X0143448Y0064406D01*
X0143448Y0063466D02*
X0143448Y0065534D01*
X0142656Y0067446D01*
X0141194Y0068908D01*
X0139765Y0069500D01*
X0141194Y0070092D01*
X0142656Y0071554D01*
X0143448Y0073466D01*
X0143448Y0075534D01*
X0142656Y0077446D01*
X0141194Y0078908D01*
X0139765Y0079500D01*
X0141194Y0080092D01*
X0142656Y0081554D01*
X0143448Y0083466D01*
X0143448Y0085534D01*
X0142656Y0087446D01*
X0141194Y0088908D01*
X0139765Y0089500D01*
X0141194Y0090092D01*
X0142656Y0091554D01*
X0143448Y0093466D01*
X0143448Y0095534D01*
X0142656Y0097446D01*
X0141194Y0098908D01*
X0139765Y0099500D01*
X0141194Y0100092D01*
X0142656Y0101554D01*
X0143448Y0103466D01*
X0143448Y0105534D01*
X0143056Y0106480D01*
X0146248Y0109672D01*
X0146248Y0115672D01*
X0148248Y0117672D01*
X0148248Y0160328D01*
X0147076Y0161500D01*
X0144076Y0164500D01*
X0137076Y0164500D01*
X0133248Y0168328D01*
X0133248Y0210328D01*
X0132076Y0211500D01*
X0128248Y0215328D01*
X0128248Y0272000D01*
X0130143Y0272000D01*
X0131797Y0272685D01*
X0133063Y0273951D01*
X0133748Y0275605D01*
X0133748Y0277395D01*
X0133063Y0279049D01*
X0131797Y0280315D01*
X0130143Y0281000D01*
X0122353Y0281000D01*
X0120699Y0280315D01*
X0119433Y0279049D01*
X0118748Y0277395D01*
X0118748Y0275605D01*
X0119433Y0273951D01*
X0120699Y0272685D01*
X0122353Y0272000D01*
X0124248Y0272000D01*
X0124248Y0258328D01*
X0121076Y0261500D01*
X0105076Y0261500D01*
X0104594Y0261982D01*
X0104594Y0272000D01*
X0107143Y0272000D01*
X0108797Y0272685D01*
X0110063Y0273951D01*
X0110748Y0275605D01*
X0110748Y0277395D01*
X0110063Y0279049D01*
X0108797Y0280315D01*
X0107143Y0281000D01*
X0099353Y0281000D01*
X0097699Y0280315D01*
X0096433Y0279049D01*
X0095748Y0277395D01*
X0095748Y0275605D01*
X0096433Y0273951D01*
X0097699Y0272685D01*
X0099353Y0272000D01*
X0100594Y0272000D01*
X0100594Y0260325D01*
X0101420Y0259500D01*
X0054420Y0259500D01*
X0040420Y0245500D01*
X0034705Y0245500D01*
X0034748Y0245605D01*
X0034748Y0247395D01*
X0034063Y0249049D01*
X0032797Y0250315D01*
X0031143Y0251000D01*
X0023353Y0251000D01*
X0021699Y0250315D01*
X0020433Y0249049D01*
X0019748Y0247395D01*
X0019748Y0245605D01*
X0020433Y0243951D01*
X0021699Y0242685D01*
X0023353Y0242000D01*
X0028920Y0242000D01*
X0029420Y0241500D01*
X0028920Y0241000D01*
X0023353Y0241000D01*
X0021699Y0240315D01*
X0020433Y0239049D01*
X0019748Y0237395D01*
X0019748Y0235605D01*
X0020433Y0233951D01*
X0021699Y0232685D01*
X0023353Y0232000D01*
X0031143Y0232000D01*
X0032797Y0232685D01*
X0034063Y0233951D01*
X0034748Y0235605D01*
X0034748Y0237395D01*
X0034063Y0239049D01*
X0033612Y0239500D01*
X0043076Y0239500D01*
X0057076Y0253500D01*
X0117420Y0253500D01*
X0118248Y0252672D01*
X0118248Y0210672D01*
X0119420Y0209500D01*
X0123248Y0205672D01*
X0123248Y0204328D01*
X0122076Y0205500D01*
X0119619Y0205500D01*
X0118999Y0206120D01*
X0117863Y0206591D01*
X0116633Y0206591D01*
X0115497Y0206120D01*
X0114628Y0205251D01*
X0114247Y0204330D01*
X0114076Y0204500D01*
X0083076Y0204500D01*
X0080339Y0207238D01*
X0080339Y0208115D01*
X0079868Y0209251D01*
X0078999Y0210120D01*
X0077863Y0210591D01*
X0076633Y0210591D01*
X0075497Y0210120D01*
X0074628Y0209251D01*
X0074157Y0208115D01*
X0074157Y0206885D01*
X0074628Y0205749D01*
X0075497Y0204880D01*
X0076633Y0204409D01*
X0077510Y0204409D01*
X0081420Y0200500D01*
X0112420Y0200500D01*
X0114248Y0198672D01*
X0115420Y0197500D01*
X0118420Y0197500D01*
X0119248Y0196672D01*
X0119248Y0149672D01*
X0123248Y0145672D01*
X0123248Y0134328D01*
X0120220Y0131300D01*
X0114477Y0131300D01*
X0113598Y0130421D01*
X0113598Y0124579D01*
X0113677Y0124500D01*
X0113598Y0124421D01*
X0113598Y0118579D01*
X0114477Y0117700D01*
X0119220Y0117700D01*
X0119248Y0117672D01*
X0119248Y0111672D01*
X0120420Y0110500D01*
X0124420Y0106500D01*
X0132420Y0106500D01*
X0133147Y0105773D01*
X0133048Y0105534D01*
X0133048Y0103466D01*
X0133840Y0101554D01*
X0135302Y0100092D01*
X0136731Y0099500D01*
X0135302Y0098908D01*
X0133840Y0097446D01*
X0133048Y0095534D01*
X0133048Y0093466D01*
X0133440Y0092520D01*
X0130248Y0089328D01*
X0130248Y0082328D01*
X0128420Y0080500D01*
X0058076Y0080500D01*
X0053248Y0085328D01*
X0053248Y0119328D01*
X0051248Y0121328D01*
X0050076Y0122500D01*
X0047268Y0122500D01*
X0046742Y0123772D01*
X0045328Y0125185D01*
X0043481Y0125950D01*
X0034432Y0125950D01*
X0032585Y0125185D01*
X0031172Y0123772D01*
X0030407Y0121925D01*
X0030407Y0119926D01*
X0031172Y0118079D01*
X0032585Y0116665D01*
X0034432Y0115900D01*
X0043481Y0115900D01*
X0045328Y0116665D01*
X0046742Y0118079D01*
X0046916Y0118500D01*
X0048420Y0118500D01*
X0049248Y0117672D01*
X0049248Y0101328D01*
X0048248Y0102328D01*
X0047076Y0103500D01*
X0046985Y0103500D01*
X0046742Y0104087D01*
X0045328Y0105500D01*
X0043481Y0106265D01*
X0034432Y0106265D01*
X0032585Y0105500D01*
X0031172Y0104087D01*
X0030407Y0102240D01*
X0030407Y0100241D01*
X0031172Y0098394D01*
X0032585Y0096980D01*
X0034432Y0096215D01*
X0043481Y0096215D01*
X0045328Y0096980D01*
X0046634Y0098286D01*
X0047248Y0097672D01*
X0047248Y0083500D01*
X0047115Y0083500D01*
X0046742Y0084402D01*
X0045328Y0085815D01*
X0043481Y0086580D01*
X0034432Y0086580D01*
X0032585Y0085815D01*
X0031172Y0084402D01*
X0030407Y0082555D01*
X0030407Y0080556D01*
X0031172Y0078709D01*
X0032585Y0077295D01*
X0034432Y0076530D01*
X0043481Y0076530D01*
X0045328Y0077295D01*
X0046742Y0078709D01*
X0047069Y0079500D01*
X0047420Y0079500D01*
X0053920Y0073000D01*
X0046189Y0065269D01*
X0045328Y0066130D01*
X0043481Y0066895D01*
X0034432Y0066895D01*
X0032585Y0066130D01*
X0031172Y0064717D01*
X0030407Y0062870D01*
X0030407Y0060871D01*
X0031172Y0059024D01*
X0032585Y0057610D01*
X0034432Y0056845D01*
X0043481Y0056845D01*
X0045328Y0057610D01*
X0046742Y0059024D01*
X0047507Y0060871D01*
X0047507Y0060930D01*
X0057076Y0070500D01*
X0129420Y0070500D01*
X0133440Y0066480D01*
X0133048Y0065534D01*
X0133048Y0063466D01*
X0133840Y0061554D01*
X0135302Y0060092D01*
X0136731Y0059500D01*
X0135302Y0058908D01*
X0133840Y0057446D01*
X0133048Y0055534D01*
X0133048Y0053466D01*
X0133840Y0051554D01*
X0135302Y0050092D01*
X0136731Y0049500D01*
X0135302Y0048908D01*
X0133840Y0047446D01*
X0133048Y0045534D01*
X0133048Y0043466D01*
X0133840Y0041554D01*
X0135302Y0040092D01*
X0137214Y0039300D01*
X0139282Y0039300D01*
X0141194Y0040092D01*
X0142656Y0041554D01*
X0143448Y0043466D01*
X0143448Y0045534D01*
X0142656Y0047446D01*
X0141194Y0048908D01*
X0139765Y0049500D01*
X0141194Y0050092D01*
X0142656Y0051554D01*
X0143448Y0053466D01*
X0143448Y0055534D01*
X0142656Y0057446D01*
X0141194Y0058908D01*
X0139765Y0059500D01*
X0141194Y0060092D01*
X0142656Y0061554D01*
X0143448Y0063466D01*
X0143424Y0063408D02*
X0193072Y0063408D01*
X0193486Y0062409D02*
X0143010Y0062409D01*
X0142513Y0061411D02*
X0193983Y0061411D01*
X0194982Y0060412D02*
X0141514Y0060412D01*
X0139974Y0059414D02*
X0196522Y0059414D01*
X0194809Y0058415D02*
X0141687Y0058415D01*
X0142668Y0057417D02*
X0193828Y0057417D01*
X0193414Y0056418D02*
X0143082Y0056418D01*
X0143448Y0055420D02*
X0193048Y0055420D01*
X0193048Y0054421D02*
X0143448Y0054421D01*
X0143430Y0053423D02*
X0193066Y0053423D01*
X0193479Y0052424D02*
X0143017Y0052424D01*
X0142528Y0051426D02*
X0193969Y0051426D01*
X0194967Y0050427D02*
X0141529Y0050427D01*
X0139938Y0049429D02*
X0196558Y0049429D01*
X0194824Y0048430D02*
X0141672Y0048430D01*
X0142662Y0047432D02*
X0193834Y0047432D01*
X0193420Y0046433D02*
X0143076Y0046433D01*
X0143448Y0045434D02*
X0193048Y0045434D01*
X0193048Y0044436D02*
X0143448Y0044436D01*
X0143436Y0043437D02*
X0193060Y0043437D01*
X0193473Y0042439D02*
X0143023Y0042439D01*
X0142542Y0041440D02*
X0193954Y0041440D01*
X0194952Y0040442D02*
X0141544Y0040442D01*
X0139629Y0039443D02*
X0196867Y0039443D01*
X0199629Y0039443D02*
X0242855Y0039443D01*
X0241195Y0038445D02*
X0069895Y0038445D01*
X0068897Y0037446D02*
X0240416Y0037446D01*
X0250442Y0039443D02*
X0278055Y0039443D01*
X0276395Y0038445D02*
X0252101Y0038445D01*
X0252880Y0037446D02*
X0275616Y0037446D01*
X0275203Y0036448D02*
X0253293Y0036448D01*
X0253348Y0035449D02*
X0275148Y0035449D01*
X0275245Y0034451D02*
X0253251Y0034451D01*
X0252838Y0033452D02*
X0275658Y0033452D01*
X0276496Y0032454D02*
X0252000Y0032454D01*
X0250197Y0031455D02*
X0278299Y0031455D01*
X0278090Y0029458D02*
X0250333Y0029458D01*
X0250208Y0029499D02*
X0249571Y0029600D01*
X0249548Y0029600D01*
X0249548Y0025800D01*
X0248948Y0025800D01*
X0248948Y0025200D01*
X0239948Y0025200D01*
X0239948Y0025177D01*
X0240049Y0024540D01*
X0240248Y0023926D01*
X0240541Y0023351D01*
X0240921Y0022829D01*
X0241377Y0022373D01*
X0241899Y0021993D01*
X0242474Y0021700D01*
X0243088Y0021501D01*
X0243725Y0021400D01*
X0248948Y0021400D01*
X0248948Y0025200D01*
X0249548Y0025200D01*
X0249548Y0021400D01*
X0249571Y0021400D01*
X0250208Y0021501D01*
X0250822Y0021700D01*
X0251397Y0021993D01*
X0251919Y0022373D01*
X0252375Y0022829D01*
X0252755Y0023351D01*
X0253048Y0023926D01*
X0253247Y0024540D01*
X0253348Y0025177D01*
X0253348Y0025200D01*
X0249548Y0025200D01*
X0249548Y0025800D01*
X0253348Y0025800D01*
X0253348Y0025823D01*
X0253247Y0026460D01*
X0253048Y0027074D01*
X0252755Y0027649D01*
X0252375Y0028171D01*
X0251919Y0028627D01*
X0251397Y0029007D01*
X0250822Y0029300D01*
X0250208Y0029499D01*
X0249548Y0029458D02*
X0248948Y0029458D01*
X0248948Y0029600D02*
X0243725Y0029600D01*
X0243088Y0029499D01*
X0242474Y0029300D01*
X0241899Y0029007D01*
X0241377Y0028627D01*
X0240921Y0028171D01*
X0240541Y0027649D01*
X0240248Y0027074D01*
X0240049Y0026460D01*
X0239948Y0025823D01*
X0239948Y0025800D01*
X0248948Y0025800D01*
X0248948Y0029600D01*
X0248948Y0028460D02*
X0249548Y0028460D01*
X0249548Y0027461D02*
X0248948Y0027461D01*
X0248948Y0026463D02*
X0249548Y0026463D01*
X0249548Y0025464D02*
X0275148Y0025464D01*
X0275209Y0026463D02*
X0253246Y0026463D01*
X0252850Y0027461D02*
X0275623Y0027461D01*
X0276410Y0028460D02*
X0252086Y0028460D01*
X0253223Y0024466D02*
X0275239Y0024466D01*
X0275652Y0023467D02*
X0252814Y0023467D01*
X0252015Y0022469D02*
X0276481Y0022469D01*
X0278263Y0021470D02*
X0250014Y0021470D01*
X0249548Y0021470D02*
X0248948Y0021470D01*
X0248948Y0022469D02*
X0249548Y0022469D01*
X0249548Y0023467D02*
X0248948Y0023467D01*
X0248948Y0024466D02*
X0249548Y0024466D01*
X0248948Y0025464D02*
X0229365Y0025464D01*
X0229029Y0025800D02*
X0225467Y0025800D01*
X0222948Y0023281D01*
X0222948Y0019719D01*
X0225467Y0017200D01*
X0229029Y0017200D01*
X0231548Y0019719D01*
X0231548Y0023281D01*
X0229029Y0025800D01*
X0229290Y0027461D02*
X0240446Y0027461D01*
X0240050Y0026463D02*
X0112488Y0026463D01*
X0113486Y0025464D02*
X0135131Y0025464D01*
X0135467Y0025800D02*
X0132948Y0023281D01*
X0132948Y0021900D01*
X0136848Y0021900D01*
X0136848Y0021100D01*
X0132948Y0021100D01*
X0132948Y0019719D01*
X0135467Y0017200D01*
X0136848Y0017200D01*
X0136848Y0021100D01*
X0137648Y0021100D01*
X0137648Y0017200D01*
X0139029Y0017200D01*
X0141548Y0019719D01*
X0141548Y0021100D01*
X0137648Y0021100D01*
X0137648Y0021900D01*
X0136848Y0021900D01*
X0136848Y0025800D01*
X0135467Y0025800D01*
X0136848Y0025464D02*
X0137648Y0025464D01*
X0137648Y0025800D02*
X0139029Y0025800D01*
X0141548Y0023281D01*
X0141548Y0021900D01*
X0137648Y0021900D01*
X0137648Y0025800D01*
X0137648Y0024466D02*
X0136848Y0024466D01*
X0136848Y0023467D02*
X0137648Y0023467D01*
X0137648Y0022469D02*
X0136848Y0022469D01*
X0136848Y0021470D02*
X0117480Y0021470D01*
X0116482Y0022469D02*
X0132948Y0022469D01*
X0133134Y0023467D02*
X0115483Y0023467D01*
X0114485Y0024466D02*
X0134133Y0024466D01*
X0135206Y0027461D02*
X0111489Y0027461D01*
X0110491Y0028460D02*
X0134207Y0028460D01*
X0133209Y0029458D02*
X0109492Y0029458D01*
X0108494Y0030457D02*
X0132948Y0030457D01*
X0132948Y0031455D02*
X0107441Y0031455D01*
X0102139Y0043079D02*
X0103341Y0044280D01*
X0103991Y0045850D01*
X0103991Y0047550D01*
X0103341Y0049120D01*
X0102139Y0050321D01*
X0100569Y0050972D01*
X0093327Y0050972D01*
X0091757Y0050321D01*
X0090555Y0049120D01*
X0089905Y0047550D01*
X0089905Y0045850D01*
X0090555Y0044280D01*
X0091757Y0043079D01*
X0093327Y0042428D01*
X0100569Y0042428D01*
X0102139Y0043079D01*
X0102498Y0043437D02*
X0133060Y0043437D01*
X0133048Y0044436D02*
X0103405Y0044436D01*
X0103819Y0045434D02*
X0133048Y0045434D01*
X0133420Y0046433D02*
X0103991Y0046433D01*
X0103991Y0047432D02*
X0133834Y0047432D01*
X0134824Y0048430D02*
X0103627Y0048430D01*
X0103032Y0049429D02*
X0136558Y0049429D01*
X0134967Y0050427D02*
X0101884Y0050427D01*
X0100595Y0042439D02*
X0133473Y0042439D01*
X0133954Y0041440D02*
X0072891Y0041440D01*
X0071892Y0040442D02*
X0134952Y0040442D01*
X0136867Y0039443D02*
X0070894Y0039443D01*
X0073889Y0042439D02*
X0093301Y0042439D01*
X0091398Y0043437D02*
X0075498Y0043437D01*
X0076405Y0044436D02*
X0090491Y0044436D01*
X0090077Y0045434D02*
X0076819Y0045434D01*
X0076991Y0046433D02*
X0089905Y0046433D01*
X0089905Y0047432D02*
X0076991Y0047432D01*
X0076627Y0048430D02*
X0090269Y0048430D01*
X0090864Y0049429D02*
X0076032Y0049429D01*
X0074884Y0050427D02*
X0092012Y0050427D01*
X0073425Y0051426D02*
X0133969Y0051426D01*
X0133479Y0052424D02*
X0071285Y0052424D01*
X0068611Y0052424D02*
X0002748Y0052424D01*
X0002748Y0051426D02*
X0066471Y0051426D01*
X0065012Y0050427D02*
X0002748Y0050427D01*
X0002748Y0049429D02*
X0063864Y0049429D01*
X0063269Y0048430D02*
X0002748Y0048430D01*
X0002748Y0047432D02*
X0036388Y0047432D01*
X0032495Y0046433D02*
X0002748Y0046433D01*
X0002748Y0045434D02*
X0031496Y0045434D01*
X0030846Y0044436D02*
X0002748Y0044436D01*
X0002748Y0043437D02*
X0030433Y0043437D01*
X0030328Y0042439D02*
X0002748Y0042439D01*
X0002748Y0041440D02*
X0030328Y0041440D01*
X0030636Y0040442D02*
X0002748Y0040442D01*
X0002748Y0039443D02*
X0031050Y0039443D01*
X0031987Y0038445D02*
X0002748Y0038445D01*
X0002748Y0037446D02*
X0033662Y0037446D01*
X0037572Y0036448D02*
X0002748Y0036448D01*
X0002748Y0035449D02*
X0135116Y0035449D01*
X0134118Y0034451D02*
X0002748Y0034451D01*
X0002748Y0027461D02*
X0034200Y0027461D01*
X0032209Y0026463D02*
X0002748Y0026463D01*
X0002748Y0025464D02*
X0031211Y0025464D01*
X0030728Y0024466D02*
X0002748Y0024466D01*
X0002748Y0023467D02*
X0030328Y0023467D01*
X0030328Y0022469D02*
X0002748Y0022469D01*
X0002748Y0021470D02*
X0030340Y0021470D01*
X0030754Y0020472D02*
X0002748Y0020472D01*
X0002748Y0019473D02*
X0031273Y0019473D01*
X0032272Y0018475D02*
X0002748Y0018475D01*
X0002748Y0017476D02*
X0034351Y0017476D01*
X0007059Y0003497D02*
X0119170Y0003497D01*
X0118050Y0004496D02*
X0005301Y0004496D01*
X0004287Y0005494D02*
X0117052Y0005494D01*
X0124470Y0014481D02*
X0386026Y0014481D01*
X0387025Y0015479D02*
X0123471Y0015479D01*
X0122473Y0016478D02*
X0388023Y0016478D01*
X0389022Y0017476D02*
X0368410Y0017476D01*
X0370125Y0018475D02*
X0390020Y0018475D01*
X0389866Y0019473D02*
X0371124Y0019473D01*
X0372122Y0020472D02*
X0388574Y0020472D01*
X0387796Y0021470D02*
X0373121Y0021470D01*
X0374119Y0022469D02*
X0387382Y0022469D01*
X0387186Y0023467D02*
X0375118Y0023467D01*
X0376116Y0024466D02*
X0387186Y0024466D01*
X0387403Y0025464D02*
X0377115Y0025464D01*
X0378113Y0026463D02*
X0387817Y0026463D01*
X0388625Y0027461D02*
X0379112Y0027461D01*
X0380110Y0028460D02*
X0389990Y0028460D01*
X0393900Y0029458D02*
X0380556Y0029458D01*
X0380970Y0030457D02*
X0432748Y0030457D01*
X0432748Y0031455D02*
X0381048Y0031455D01*
X0381048Y0032454D02*
X0432748Y0032454D01*
X0432748Y0033452D02*
X0381048Y0033452D01*
X0381048Y0034451D02*
X0432748Y0034451D01*
X0432748Y0035449D02*
X0381048Y0035449D01*
X0381048Y0036448D02*
X0432748Y0036448D01*
X0432748Y0037446D02*
X0381048Y0037446D01*
X0381048Y0038445D02*
X0432748Y0038445D01*
X0432748Y0039443D02*
X0402185Y0039443D01*
X0402108Y0039366D02*
X0403521Y0040780D01*
X0404286Y0042626D01*
X0404286Y0044626D01*
X0403521Y0046472D01*
X0402108Y0047886D01*
X0400261Y0048651D01*
X0391212Y0048651D01*
X0389365Y0047886D01*
X0387951Y0046472D01*
X0387186Y0044626D01*
X0387186Y0042626D01*
X0387951Y0040780D01*
X0389365Y0039366D01*
X0391212Y0038601D01*
X0400261Y0038601D01*
X0402108Y0039366D01*
X0403184Y0040442D02*
X0432748Y0040442D01*
X0432748Y0041440D02*
X0403795Y0041440D01*
X0404209Y0042439D02*
X0432748Y0042439D01*
X0432748Y0043437D02*
X0404286Y0043437D01*
X0404286Y0044436D02*
X0432748Y0044436D01*
X0432748Y0045434D02*
X0403951Y0045434D01*
X0403538Y0046433D02*
X0432748Y0046433D01*
X0432748Y0047432D02*
X0402562Y0047432D01*
X0400794Y0048430D02*
X0432748Y0048430D01*
X0432748Y0049429D02*
X0384379Y0049429D01*
X0385378Y0050427D02*
X0432748Y0050427D01*
X0432748Y0051426D02*
X0386376Y0051426D01*
X0387375Y0052424D02*
X0432748Y0052424D01*
X0432748Y0053423D02*
X0388373Y0053423D01*
X0389372Y0054421D02*
X0432748Y0054421D01*
X0432748Y0055420D02*
X0390370Y0055420D01*
X0391369Y0056418D02*
X0432748Y0056418D01*
X0432748Y0057417D02*
X0392367Y0057417D01*
X0400651Y0058415D02*
X0432748Y0058415D01*
X0432748Y0059414D02*
X0402549Y0059414D01*
X0403548Y0060412D02*
X0432748Y0060412D01*
X0432748Y0061411D02*
X0403992Y0061411D01*
X0404365Y0062409D02*
X0432748Y0062409D01*
X0432748Y0063408D02*
X0404365Y0063408D01*
X0404325Y0064406D02*
X0432748Y0064406D01*
X0432748Y0065405D02*
X0403912Y0065405D01*
X0403354Y0066403D02*
X0432748Y0066403D01*
X0432748Y0067402D02*
X0402356Y0067402D01*
X0398685Y0068400D02*
X0432748Y0068400D01*
X0432748Y0069399D02*
X0386349Y0069399D01*
X0387189Y0068400D02*
X0385351Y0068400D01*
X0385947Y0067402D02*
X0384352Y0067402D01*
X0384949Y0066403D02*
X0383354Y0066403D01*
X0383950Y0065405D02*
X0382355Y0065405D01*
X0382952Y0064406D02*
X0381357Y0064406D01*
X0381953Y0063408D02*
X0380358Y0063408D01*
X0380955Y0062409D02*
X0379360Y0062409D01*
X0379956Y0061411D02*
X0378361Y0061411D01*
X0378958Y0060412D02*
X0377363Y0060412D01*
X0377959Y0059414D02*
X0376364Y0059414D01*
X0376961Y0058415D02*
X0375366Y0058415D01*
X0375962Y0057417D02*
X0374367Y0057417D01*
X0374964Y0056418D02*
X0373369Y0056418D01*
X0373965Y0055420D02*
X0372370Y0055420D01*
X0372967Y0054421D02*
X0371372Y0054421D01*
X0371968Y0053423D02*
X0370373Y0053423D01*
X0370970Y0052424D02*
X0369375Y0052424D01*
X0370182Y0051426D02*
X0368376Y0051426D01*
X0367378Y0050427D02*
X0369768Y0050427D01*
X0369448Y0049429D02*
X0366379Y0049429D01*
X0365380Y0048430D02*
X0369448Y0048430D01*
X0369448Y0047432D02*
X0364382Y0047432D01*
X0363383Y0046433D02*
X0369448Y0046433D01*
X0369448Y0045434D02*
X0362385Y0045434D01*
X0361386Y0044436D02*
X0369448Y0044436D01*
X0369448Y0043437D02*
X0360388Y0043437D01*
X0359389Y0042439D02*
X0369448Y0042439D01*
X0369448Y0041440D02*
X0358189Y0041440D01*
X0353514Y0028460D02*
X0287286Y0028460D01*
X0288073Y0027461D02*
X0300273Y0027461D01*
X0300289Y0027478D02*
X0298770Y0025959D01*
X0297948Y0023974D01*
X0297948Y0021826D01*
X0298770Y0019841D01*
X0300289Y0018322D01*
X0302274Y0017500D01*
X0312222Y0017500D01*
X0314207Y0018322D01*
X0315726Y0019841D01*
X0316548Y0021826D01*
X0316548Y0023974D01*
X0315726Y0025959D01*
X0314207Y0027478D01*
X0312222Y0028300D01*
X0302274Y0028300D01*
X0300289Y0027478D01*
X0299274Y0026463D02*
X0288487Y0026463D01*
X0288548Y0025464D02*
X0298565Y0025464D01*
X0298152Y0024466D02*
X0288457Y0024466D01*
X0288044Y0023467D02*
X0297948Y0023467D01*
X0297948Y0022469D02*
X0287215Y0022469D01*
X0285433Y0021470D02*
X0298095Y0021470D01*
X0298509Y0020472D02*
X0231548Y0020472D01*
X0231548Y0021470D02*
X0243282Y0021470D01*
X0241281Y0022469D02*
X0231548Y0022469D01*
X0231362Y0023467D02*
X0240482Y0023467D01*
X0240073Y0024466D02*
X0230363Y0024466D01*
X0230289Y0028460D02*
X0241210Y0028460D01*
X0242963Y0029458D02*
X0231287Y0029458D01*
X0225206Y0027461D02*
X0219290Y0027461D01*
X0219029Y0027200D02*
X0221548Y0029719D01*
X0221548Y0033281D01*
X0219029Y0035800D01*
X0215467Y0035800D01*
X0212948Y0033281D01*
X0212948Y0029719D01*
X0215467Y0027200D01*
X0219029Y0027200D01*
X0219029Y0025800D02*
X0217648Y0025800D01*
X0217648Y0021900D01*
X0216848Y0021900D01*
X0216848Y0021100D01*
X0212948Y0021100D01*
X0212948Y0019719D01*
X0215467Y0017200D01*
X0216848Y0017200D01*
X0216848Y0021100D01*
X0217648Y0021100D01*
X0217648Y0017200D01*
X0219029Y0017200D01*
X0221548Y0019719D01*
X0221548Y0021100D01*
X0217648Y0021100D01*
X0217648Y0021900D01*
X0221548Y0021900D01*
X0221548Y0023281D01*
X0219029Y0025800D01*
X0219365Y0025464D02*
X0225131Y0025464D01*
X0224133Y0024466D02*
X0220363Y0024466D01*
X0221362Y0023467D02*
X0223134Y0023467D01*
X0222948Y0022469D02*
X0221548Y0022469D01*
X0222948Y0021470D02*
X0217648Y0021470D01*
X0216848Y0021470D02*
X0211548Y0021470D01*
X0211548Y0020472D02*
X0212948Y0020472D01*
X0213194Y0019473D02*
X0211302Y0019473D01*
X0211548Y0019719D02*
X0209029Y0017200D01*
X0205467Y0017200D01*
X0202948Y0019719D01*
X0202948Y0023281D01*
X0205467Y0025800D01*
X0209029Y0025800D01*
X0211548Y0023281D01*
X0211548Y0019719D01*
X0210304Y0018475D02*
X0214192Y0018475D01*
X0215191Y0017476D02*
X0209305Y0017476D01*
X0205191Y0017476D02*
X0199305Y0017476D01*
X0199029Y0017200D02*
X0201548Y0019719D01*
X0201548Y0021100D01*
X0197648Y0021100D01*
X0197648Y0017200D01*
X0199029Y0017200D01*
X0197648Y0017476D02*
X0196848Y0017476D01*
X0196848Y0017200D02*
X0196848Y0021100D01*
X0192948Y0021100D01*
X0192948Y0019719D01*
X0195467Y0017200D01*
X0196848Y0017200D01*
X0196848Y0018475D02*
X0197648Y0018475D01*
X0197648Y0019473D02*
X0196848Y0019473D01*
X0196848Y0020472D02*
X0197648Y0020472D01*
X0197648Y0021100D02*
X0196848Y0021100D01*
X0196848Y0021900D01*
X0192948Y0021900D01*
X0192948Y0023281D01*
X0195467Y0025800D01*
X0196848Y0025800D01*
X0196848Y0021900D01*
X0197648Y0021900D01*
X0197648Y0025800D01*
X0199029Y0025800D01*
X0201548Y0023281D01*
X0201548Y0021900D01*
X0197648Y0021900D01*
X0197648Y0021100D01*
X0197648Y0021470D02*
X0202948Y0021470D01*
X0202948Y0020472D02*
X0201548Y0020472D01*
X0201302Y0019473D02*
X0203194Y0019473D01*
X0204192Y0018475D02*
X0200304Y0018475D01*
X0201548Y0022469D02*
X0202948Y0022469D01*
X0203134Y0023467D02*
X0201362Y0023467D01*
X0200363Y0024466D02*
X0204133Y0024466D01*
X0205131Y0025464D02*
X0199365Y0025464D01*
X0197648Y0025464D02*
X0196848Y0025464D01*
X0196848Y0024466D02*
X0197648Y0024466D01*
X0197648Y0023467D02*
X0196848Y0023467D01*
X0196848Y0022469D02*
X0197648Y0022469D01*
X0196848Y0021470D02*
X0191548Y0021470D01*
X0191548Y0020472D02*
X0192948Y0020472D01*
X0193194Y0019473D02*
X0191302Y0019473D01*
X0191548Y0019719D02*
X0189029Y0017200D01*
X0185467Y0017200D01*
X0182948Y0019719D01*
X0182948Y0023281D01*
X0185467Y0025800D01*
X0189029Y0025800D01*
X0191548Y0023281D01*
X0191548Y0019719D01*
X0190304Y0018475D02*
X0194192Y0018475D01*
X0195191Y0017476D02*
X0189305Y0017476D01*
X0185191Y0017476D02*
X0179305Y0017476D01*
X0179029Y0017200D02*
X0181548Y0019719D01*
X0181548Y0021100D01*
X0177648Y0021100D01*
X0177648Y0017200D01*
X0179029Y0017200D01*
X0177648Y0017476D02*
X0176848Y0017476D01*
X0176848Y0017200D02*
X0176848Y0021100D01*
X0172948Y0021100D01*
X0172948Y0019719D01*
X0175467Y0017200D01*
X0176848Y0017200D01*
X0176848Y0018475D02*
X0177648Y0018475D01*
X0177648Y0019473D02*
X0176848Y0019473D01*
X0176848Y0020472D02*
X0177648Y0020472D01*
X0177648Y0021100D02*
X0176848Y0021100D01*
X0176848Y0021900D01*
X0172948Y0021900D01*
X0172948Y0023281D01*
X0175467Y0025800D01*
X0176848Y0025800D01*
X0176848Y0021900D01*
X0177648Y0021900D01*
X0177648Y0025800D01*
X0179029Y0025800D01*
X0181548Y0023281D01*
X0181548Y0021900D01*
X0177648Y0021900D01*
X0177648Y0021100D01*
X0177648Y0021470D02*
X0182948Y0021470D01*
X0182948Y0020472D02*
X0181548Y0020472D01*
X0181302Y0019473D02*
X0183194Y0019473D01*
X0184192Y0018475D02*
X0180304Y0018475D01*
X0181548Y0022469D02*
X0182948Y0022469D01*
X0183134Y0023467D02*
X0181362Y0023467D01*
X0180363Y0024466D02*
X0184133Y0024466D01*
X0185131Y0025464D02*
X0179365Y0025464D01*
X0177648Y0025464D02*
X0176848Y0025464D01*
X0176848Y0024466D02*
X0177648Y0024466D01*
X0177648Y0023467D02*
X0176848Y0023467D01*
X0176848Y0022469D02*
X0177648Y0022469D01*
X0176848Y0021470D02*
X0171548Y0021470D01*
X0171548Y0020472D02*
X0172948Y0020472D01*
X0173194Y0019473D02*
X0171302Y0019473D01*
X0171548Y0019719D02*
X0169029Y0017200D01*
X0165467Y0017200D01*
X0162948Y0019719D01*
X0162948Y0023281D01*
X0165467Y0025800D01*
X0169029Y0025800D01*
X0171548Y0023281D01*
X0171548Y0019719D01*
X0170304Y0018475D02*
X0174192Y0018475D01*
X0175191Y0017476D02*
X0169305Y0017476D01*
X0165191Y0017476D02*
X0159305Y0017476D01*
X0159029Y0017200D02*
X0161548Y0019719D01*
X0161548Y0021100D01*
X0157648Y0021100D01*
X0157648Y0017200D01*
X0159029Y0017200D01*
X0157648Y0017476D02*
X0156848Y0017476D01*
X0156848Y0017200D02*
X0156848Y0021100D01*
X0152948Y0021100D01*
X0152948Y0019719D01*
X0155467Y0017200D01*
X0156848Y0017200D01*
X0156848Y0018475D02*
X0157648Y0018475D01*
X0157648Y0019473D02*
X0156848Y0019473D01*
X0156848Y0020472D02*
X0157648Y0020472D01*
X0157648Y0021100D02*
X0156848Y0021100D01*
X0156848Y0021900D01*
X0152948Y0021900D01*
X0152948Y0023281D01*
X0155467Y0025800D01*
X0156848Y0025800D01*
X0156848Y0021900D01*
X0157648Y0021900D01*
X0157648Y0025800D01*
X0159029Y0025800D01*
X0161548Y0023281D01*
X0161548Y0021900D01*
X0157648Y0021900D01*
X0157648Y0021100D01*
X0157648Y0021470D02*
X0162948Y0021470D01*
X0162948Y0020472D02*
X0161548Y0020472D01*
X0161302Y0019473D02*
X0163194Y0019473D01*
X0164192Y0018475D02*
X0160304Y0018475D01*
X0161548Y0022469D02*
X0162948Y0022469D01*
X0163134Y0023467D02*
X0161362Y0023467D01*
X0160363Y0024466D02*
X0164133Y0024466D01*
X0165131Y0025464D02*
X0159365Y0025464D01*
X0157648Y0025464D02*
X0156848Y0025464D01*
X0156848Y0024466D02*
X0157648Y0024466D01*
X0157648Y0023467D02*
X0156848Y0023467D01*
X0156848Y0022469D02*
X0157648Y0022469D01*
X0156848Y0021470D02*
X0151548Y0021470D01*
X0151548Y0020472D02*
X0152948Y0020472D01*
X0153194Y0019473D02*
X0151302Y0019473D01*
X0151548Y0019719D02*
X0149029Y0017200D01*
X0145467Y0017200D01*
X0142948Y0019719D01*
X0142948Y0023281D01*
X0145467Y0025800D01*
X0149029Y0025800D01*
X0151548Y0023281D01*
X0151548Y0019719D01*
X0150304Y0018475D02*
X0154192Y0018475D01*
X0155191Y0017476D02*
X0149305Y0017476D01*
X0145191Y0017476D02*
X0139305Y0017476D01*
X0140304Y0018475D02*
X0144192Y0018475D01*
X0143194Y0019473D02*
X0141302Y0019473D01*
X0141548Y0020472D02*
X0142948Y0020472D01*
X0142948Y0021470D02*
X0137648Y0021470D01*
X0137648Y0020472D02*
X0136848Y0020472D01*
X0136848Y0019473D02*
X0137648Y0019473D01*
X0137648Y0018475D02*
X0136848Y0018475D01*
X0136848Y0017476D02*
X0137648Y0017476D01*
X0135191Y0017476D02*
X0121474Y0017476D01*
X0120476Y0018475D02*
X0134192Y0018475D01*
X0133194Y0019473D02*
X0119477Y0019473D01*
X0118479Y0020472D02*
X0132948Y0020472D01*
X0139365Y0025464D02*
X0145131Y0025464D01*
X0144133Y0024466D02*
X0140363Y0024466D01*
X0141362Y0023467D02*
X0143134Y0023467D01*
X0142948Y0022469D02*
X0141548Y0022469D01*
X0139290Y0027461D02*
X0145206Y0027461D01*
X0145467Y0027200D02*
X0149029Y0027200D01*
X0151548Y0029719D01*
X0151548Y0033281D01*
X0149029Y0035800D01*
X0145467Y0035800D01*
X0142948Y0033281D01*
X0142948Y0029719D01*
X0145467Y0027200D01*
X0144207Y0028460D02*
X0140289Y0028460D01*
X0141287Y0029458D02*
X0143209Y0029458D01*
X0142948Y0030457D02*
X0141548Y0030457D01*
X0141548Y0031455D02*
X0142948Y0031455D01*
X0142948Y0032454D02*
X0141548Y0032454D01*
X0141377Y0033452D02*
X0143119Y0033452D01*
X0144118Y0034451D02*
X0140378Y0034451D01*
X0139380Y0035449D02*
X0145116Y0035449D01*
X0149380Y0035449D02*
X0155116Y0035449D01*
X0155467Y0035800D02*
X0152948Y0033281D01*
X0152948Y0029719D01*
X0155467Y0027200D01*
X0159029Y0027200D01*
X0161548Y0029719D01*
X0161548Y0033281D01*
X0159029Y0035800D01*
X0155467Y0035800D01*
X0154118Y0034451D02*
X0150378Y0034451D01*
X0151377Y0033452D02*
X0153119Y0033452D01*
X0152948Y0032454D02*
X0151548Y0032454D01*
X0151548Y0031455D02*
X0152948Y0031455D01*
X0152948Y0030457D02*
X0151548Y0030457D01*
X0151287Y0029458D02*
X0153209Y0029458D01*
X0154207Y0028460D02*
X0150289Y0028460D01*
X0149290Y0027461D02*
X0155206Y0027461D01*
X0155131Y0025464D02*
X0149365Y0025464D01*
X0150363Y0024466D02*
X0154133Y0024466D01*
X0153134Y0023467D02*
X0151362Y0023467D01*
X0151548Y0022469D02*
X0152948Y0022469D01*
X0159290Y0027461D02*
X0165206Y0027461D01*
X0165467Y0027200D02*
X0169029Y0027200D01*
X0171548Y0029719D01*
X0171548Y0033281D01*
X0169029Y0035800D01*
X0165467Y0035800D01*
X0162948Y0033281D01*
X0162948Y0029719D01*
X0165467Y0027200D01*
X0164207Y0028460D02*
X0160289Y0028460D01*
X0161287Y0029458D02*
X0163209Y0029458D01*
X0162948Y0030457D02*
X0161548Y0030457D01*
X0161548Y0031455D02*
X0162948Y0031455D01*
X0162948Y0032454D02*
X0161548Y0032454D01*
X0161377Y0033452D02*
X0163119Y0033452D01*
X0164118Y0034451D02*
X0160378Y0034451D01*
X0159380Y0035449D02*
X0165116Y0035449D01*
X0169380Y0035449D02*
X0175116Y0035449D01*
X0175467Y0035800D02*
X0172948Y0033281D01*
X0172948Y0029719D01*
X0175467Y0027200D01*
X0179029Y0027200D01*
X0181548Y0029719D01*
X0181548Y0033281D01*
X0179029Y0035800D01*
X0175467Y0035800D01*
X0174118Y0034451D02*
X0170378Y0034451D01*
X0171377Y0033452D02*
X0173119Y0033452D01*
X0172948Y0032454D02*
X0171548Y0032454D01*
X0171548Y0031455D02*
X0172948Y0031455D01*
X0172948Y0030457D02*
X0171548Y0030457D01*
X0171287Y0029458D02*
X0173209Y0029458D01*
X0174207Y0028460D02*
X0170289Y0028460D01*
X0169290Y0027461D02*
X0175206Y0027461D01*
X0175131Y0025464D02*
X0169365Y0025464D01*
X0170363Y0024466D02*
X0174133Y0024466D01*
X0173134Y0023467D02*
X0171362Y0023467D01*
X0171548Y0022469D02*
X0172948Y0022469D01*
X0179290Y0027461D02*
X0185206Y0027461D01*
X0185467Y0027200D02*
X0189029Y0027200D01*
X0191548Y0029719D01*
X0191548Y0033281D01*
X0189029Y0035800D01*
X0185467Y0035800D01*
X0182948Y0033281D01*
X0182948Y0029719D01*
X0185467Y0027200D01*
X0184207Y0028460D02*
X0180289Y0028460D01*
X0181287Y0029458D02*
X0183209Y0029458D01*
X0182948Y0030457D02*
X0181548Y0030457D01*
X0181548Y0031455D02*
X0182948Y0031455D01*
X0182948Y0032454D02*
X0181548Y0032454D01*
X0181377Y0033452D02*
X0183119Y0033452D01*
X0184118Y0034451D02*
X0180378Y0034451D01*
X0179380Y0035449D02*
X0185116Y0035449D01*
X0189380Y0035449D02*
X0195116Y0035449D01*
X0195467Y0035800D02*
X0192948Y0033281D01*
X0192948Y0029719D01*
X0195467Y0027200D01*
X0199029Y0027200D01*
X0201548Y0029719D01*
X0201548Y0033281D01*
X0199029Y0035800D01*
X0195467Y0035800D01*
X0194118Y0034451D02*
X0190378Y0034451D01*
X0191377Y0033452D02*
X0193119Y0033452D01*
X0192948Y0032454D02*
X0191548Y0032454D01*
X0191548Y0031455D02*
X0192948Y0031455D01*
X0192948Y0030457D02*
X0191548Y0030457D01*
X0191287Y0029458D02*
X0193209Y0029458D01*
X0194207Y0028460D02*
X0190289Y0028460D01*
X0189290Y0027461D02*
X0195206Y0027461D01*
X0195131Y0025464D02*
X0189365Y0025464D01*
X0190363Y0024466D02*
X0194133Y0024466D01*
X0193134Y0023467D02*
X0191362Y0023467D01*
X0191548Y0022469D02*
X0192948Y0022469D01*
X0199290Y0027461D02*
X0205206Y0027461D01*
X0205467Y0027200D02*
X0209029Y0027200D01*
X0211548Y0029719D01*
X0211548Y0033281D01*
X0209029Y0035800D01*
X0205467Y0035800D01*
X0202948Y0033281D01*
X0202948Y0029719D01*
X0205467Y0027200D01*
X0204207Y0028460D02*
X0200289Y0028460D01*
X0201287Y0029458D02*
X0203209Y0029458D01*
X0202948Y0030457D02*
X0201548Y0030457D01*
X0201548Y0031455D02*
X0202948Y0031455D01*
X0202948Y0032454D02*
X0201548Y0032454D01*
X0201377Y0033452D02*
X0203119Y0033452D01*
X0204118Y0034451D02*
X0200378Y0034451D01*
X0199380Y0035449D02*
X0205116Y0035449D01*
X0209380Y0035449D02*
X0215116Y0035449D01*
X0214118Y0034451D02*
X0210378Y0034451D01*
X0211377Y0033452D02*
X0213119Y0033452D01*
X0212948Y0032454D02*
X0211548Y0032454D01*
X0211548Y0031455D02*
X0212948Y0031455D01*
X0212948Y0030457D02*
X0211548Y0030457D01*
X0211287Y0029458D02*
X0213209Y0029458D01*
X0214207Y0028460D02*
X0210289Y0028460D01*
X0209290Y0027461D02*
X0215206Y0027461D01*
X0215467Y0025800D02*
X0212948Y0023281D01*
X0212948Y0021900D01*
X0216848Y0021900D01*
X0216848Y0025800D01*
X0215467Y0025800D01*
X0215131Y0025464D02*
X0209365Y0025464D01*
X0210363Y0024466D02*
X0214133Y0024466D01*
X0213134Y0023467D02*
X0211362Y0023467D01*
X0211548Y0022469D02*
X0212948Y0022469D01*
X0216848Y0022469D02*
X0217648Y0022469D01*
X0217648Y0023467D02*
X0216848Y0023467D01*
X0216848Y0024466D02*
X0217648Y0024466D01*
X0217648Y0025464D02*
X0216848Y0025464D01*
X0220289Y0028460D02*
X0224207Y0028460D01*
X0223209Y0029458D02*
X0221287Y0029458D01*
X0221548Y0030457D02*
X0222948Y0030457D01*
X0222948Y0031455D02*
X0221548Y0031455D01*
X0221548Y0032454D02*
X0222948Y0032454D01*
X0223119Y0033452D02*
X0221377Y0033452D01*
X0220378Y0034451D02*
X0224118Y0034451D01*
X0225116Y0035449D02*
X0219380Y0035449D01*
X0203023Y0042439D02*
X0288032Y0042439D01*
X0287504Y0043437D02*
X0203436Y0043437D01*
X0203448Y0044436D02*
X0287091Y0044436D01*
X0286798Y0045434D02*
X0203448Y0045434D01*
X0203076Y0046433D02*
X0286798Y0046433D01*
X0286798Y0047432D02*
X0202662Y0047432D01*
X0201672Y0048430D02*
X0287035Y0048430D01*
X0287449Y0049429D02*
X0199938Y0049429D01*
X0201529Y0050427D02*
X0287898Y0050427D01*
X0288897Y0051426D02*
X0202528Y0051426D01*
X0203017Y0052424D02*
X0290090Y0052424D01*
X0289031Y0041440D02*
X0202542Y0041440D01*
X0201544Y0040442D02*
X0290414Y0040442D01*
X0314223Y0027461D02*
X0348273Y0027461D01*
X0347274Y0026463D02*
X0315222Y0026463D01*
X0315931Y0025464D02*
X0346565Y0025464D01*
X0346152Y0024466D02*
X0316344Y0024466D01*
X0316548Y0023467D02*
X0345948Y0023467D01*
X0345948Y0022469D02*
X0316548Y0022469D01*
X0316401Y0021470D02*
X0346095Y0021470D01*
X0346509Y0020472D02*
X0315987Y0020472D01*
X0315358Y0019473D02*
X0347138Y0019473D01*
X0348137Y0018475D02*
X0314359Y0018475D01*
X0300137Y0018475D02*
X0230304Y0018475D01*
X0231302Y0019473D02*
X0299138Y0019473D01*
X0353186Y0017476D02*
X0229305Y0017476D01*
X0225191Y0017476D02*
X0219305Y0017476D01*
X0220304Y0018475D02*
X0224192Y0018475D01*
X0223194Y0019473D02*
X0221302Y0019473D01*
X0221548Y0020472D02*
X0222948Y0020472D01*
X0217648Y0020472D02*
X0216848Y0020472D01*
X0216848Y0019473D02*
X0217648Y0019473D01*
X0217648Y0018475D02*
X0216848Y0018475D01*
X0216848Y0017476D02*
X0217648Y0017476D01*
X0184989Y0065405D02*
X0143448Y0065405D01*
X0143088Y0066403D02*
X0183991Y0066403D01*
X0183489Y0067402D02*
X0142675Y0067402D01*
X0141702Y0068400D02*
X0183075Y0068400D01*
X0183048Y0069399D02*
X0140010Y0069399D01*
X0141499Y0070397D02*
X0183048Y0070397D01*
X0183405Y0071396D02*
X0142498Y0071396D01*
X0143004Y0072394D02*
X0183818Y0072394D01*
X0184787Y0073393D02*
X0143418Y0073393D01*
X0143448Y0074391D02*
X0186469Y0074391D01*
X0185004Y0075390D02*
X0143448Y0075390D01*
X0143094Y0076388D02*
X0184006Y0076388D01*
X0183495Y0077387D02*
X0142681Y0077387D01*
X0141717Y0078385D02*
X0183081Y0078385D01*
X0183048Y0079384D02*
X0140046Y0079384D01*
X0141484Y0080382D02*
X0183048Y0080382D01*
X0183399Y0081381D02*
X0142483Y0081381D01*
X0142998Y0082379D02*
X0183812Y0082379D01*
X0184772Y0083378D02*
X0143412Y0083378D01*
X0143448Y0084376D02*
X0186433Y0084376D01*
X0190063Y0084376D02*
X0193048Y0084376D01*
X0193084Y0083378D02*
X0191724Y0083378D01*
X0192684Y0082379D02*
X0193498Y0082379D01*
X0193097Y0081381D02*
X0194013Y0081381D01*
X0193448Y0080382D02*
X0195012Y0080382D01*
X0196451Y0079384D02*
X0193448Y0079384D01*
X0193415Y0078385D02*
X0194779Y0078385D01*
X0193815Y0077387D02*
X0193001Y0077387D01*
X0193402Y0076388D02*
X0192490Y0076388D01*
X0193048Y0075390D02*
X0191492Y0075390D01*
X0190028Y0074391D02*
X0193048Y0074391D01*
X0193078Y0073393D02*
X0191709Y0073393D01*
X0192678Y0072394D02*
X0193492Y0072394D01*
X0193091Y0071396D02*
X0193998Y0071396D01*
X0193448Y0070397D02*
X0194997Y0070397D01*
X0203094Y0076388D02*
X0358934Y0076388D01*
X0359932Y0077387D02*
X0202681Y0077387D01*
X0201717Y0078385D02*
X0360931Y0078385D01*
X0361929Y0079384D02*
X0200046Y0079384D01*
X0201484Y0080382D02*
X0362928Y0080382D01*
X0363927Y0081381D02*
X0202483Y0081381D01*
X0202998Y0082379D02*
X0364925Y0082379D01*
X0365924Y0083378D02*
X0203412Y0083378D01*
X0203448Y0084376D02*
X0366922Y0084376D01*
X0367921Y0085375D02*
X0203448Y0085375D01*
X0203100Y0086373D02*
X0368919Y0086373D01*
X0369918Y0087372D02*
X0364324Y0087372D01*
X0364833Y0087583D02*
X0366465Y0089215D01*
X0393817Y0116566D01*
X0396969Y0116566D01*
X0398840Y0117341D01*
X0400339Y0117341D01*
X0402186Y0118106D01*
X0403600Y0119520D01*
X0404365Y0121367D01*
X0404365Y0123366D01*
X0403600Y0125213D01*
X0402186Y0126626D01*
X0400339Y0127391D01*
X0398840Y0127391D01*
X0396969Y0128166D01*
X0390260Y0128166D01*
X0388129Y0127283D01*
X0359146Y0098300D01*
X0357367Y0098300D01*
X0356402Y0098700D01*
X0354094Y0098700D01*
X0353129Y0098300D01*
X0350274Y0098300D01*
X0348289Y0097478D01*
X0346770Y0095959D01*
X0345948Y0093974D01*
X0345948Y0091826D01*
X0346770Y0089841D01*
X0348289Y0088322D01*
X0350274Y0087500D01*
X0352563Y0087500D01*
X0354494Y0086700D01*
X0362702Y0086700D01*
X0364833Y0087583D01*
X0365621Y0088370D02*
X0370916Y0088370D01*
X0371915Y0089369D02*
X0366619Y0089369D01*
X0367618Y0090368D02*
X0372913Y0090368D01*
X0373912Y0091366D02*
X0368616Y0091366D01*
X0369615Y0092365D02*
X0374910Y0092365D01*
X0375909Y0093363D02*
X0370614Y0093363D01*
X0371612Y0094362D02*
X0376907Y0094362D01*
X0377906Y0095360D02*
X0372611Y0095360D01*
X0373609Y0096359D02*
X0378904Y0096359D01*
X0379903Y0097357D02*
X0374608Y0097357D01*
X0375606Y0098356D02*
X0380901Y0098356D01*
X0381900Y0099354D02*
X0376605Y0099354D01*
X0377603Y0100353D02*
X0382898Y0100353D01*
X0383897Y0101351D02*
X0378602Y0101351D01*
X0379600Y0102350D02*
X0384895Y0102350D01*
X0385894Y0103348D02*
X0380599Y0103348D01*
X0381597Y0104347D02*
X0386892Y0104347D01*
X0387891Y0105345D02*
X0382596Y0105345D01*
X0383594Y0106344D02*
X0388846Y0106344D01*
X0389888Y0107342D02*
X0384593Y0107342D01*
X0385591Y0108341D02*
X0391937Y0108341D01*
X0388587Y0111336D02*
X0432748Y0111336D01*
X0432748Y0110338D02*
X0387588Y0110338D01*
X0386590Y0109339D02*
X0432748Y0109339D01*
X0432748Y0108341D02*
X0397308Y0108341D01*
X0401218Y0107342D02*
X0432748Y0107342D01*
X0432748Y0106344D02*
X0402784Y0106344D01*
X0403675Y0105345D02*
X0432748Y0105345D01*
X0432748Y0104347D02*
X0404089Y0104347D01*
X0404365Y0103348D02*
X0432748Y0103348D01*
X0432748Y0102350D02*
X0404365Y0102350D01*
X0404228Y0101351D02*
X0432748Y0101351D01*
X0432748Y0100353D02*
X0403814Y0100353D01*
X0403119Y0099354D02*
X0432748Y0099354D01*
X0432748Y0098356D02*
X0402028Y0098356D01*
X0398118Y0097357D02*
X0432748Y0097357D01*
X0432748Y0096359D02*
X0395309Y0096359D01*
X0394311Y0095360D02*
X0432748Y0095360D01*
X0432748Y0094362D02*
X0393312Y0094362D01*
X0392314Y0093363D02*
X0432748Y0093363D01*
X0432748Y0092365D02*
X0391315Y0092365D01*
X0390316Y0091366D02*
X0432748Y0091366D01*
X0432748Y0090368D02*
X0389318Y0090368D01*
X0388319Y0089369D02*
X0432748Y0089369D01*
X0432748Y0088370D02*
X0397996Y0088370D01*
X0401907Y0087372D02*
X0432748Y0087372D01*
X0432748Y0086373D02*
X0403069Y0086373D01*
X0403794Y0085375D02*
X0432748Y0085375D01*
X0432748Y0084376D02*
X0404207Y0084376D01*
X0404365Y0083378D02*
X0432748Y0083378D01*
X0432748Y0082379D02*
X0404365Y0082379D01*
X0404110Y0081381D02*
X0432748Y0081381D01*
X0432748Y0080382D02*
X0403696Y0080382D01*
X0402834Y0079384D02*
X0432748Y0079384D01*
X0432748Y0078385D02*
X0401340Y0078385D01*
X0397429Y0077387D02*
X0432748Y0077387D01*
X0432748Y0076388D02*
X0393339Y0076388D01*
X0392340Y0075390D02*
X0432748Y0075390D01*
X0432748Y0074391D02*
X0391342Y0074391D01*
X0390343Y0073393D02*
X0432748Y0073393D01*
X0432748Y0072394D02*
X0389345Y0072394D01*
X0388346Y0071396D02*
X0432748Y0071396D01*
X0432748Y0070397D02*
X0387348Y0070397D01*
X0377932Y0077387D02*
X0376337Y0077387D01*
X0376934Y0076388D02*
X0375339Y0076388D01*
X0375935Y0075390D02*
X0374340Y0075390D01*
X0374937Y0074391D02*
X0373342Y0074391D01*
X0373938Y0073393D02*
X0372343Y0073393D01*
X0372940Y0072394D02*
X0371345Y0072394D01*
X0371941Y0071396D02*
X0370346Y0071396D01*
X0370943Y0070397D02*
X0369348Y0070397D01*
X0369944Y0069399D02*
X0368349Y0069399D01*
X0368946Y0068400D02*
X0367351Y0068400D01*
X0367947Y0067402D02*
X0366352Y0067402D01*
X0366949Y0066403D02*
X0365354Y0066403D01*
X0365950Y0065405D02*
X0364355Y0065405D01*
X0364952Y0064406D02*
X0362258Y0064406D01*
X0377336Y0078385D02*
X0378931Y0078385D01*
X0378334Y0079384D02*
X0379929Y0079384D01*
X0379333Y0080382D02*
X0380928Y0080382D01*
X0380331Y0081381D02*
X0381927Y0081381D01*
X0381330Y0082379D02*
X0382925Y0082379D01*
X0382328Y0083378D02*
X0383924Y0083378D01*
X0383327Y0084376D02*
X0384922Y0084376D01*
X0384325Y0085375D02*
X0385921Y0085375D01*
X0385324Y0086373D02*
X0386919Y0086373D01*
X0386322Y0087372D02*
X0387918Y0087372D01*
X0387321Y0088370D02*
X0389563Y0088370D01*
X0368188Y0107342D02*
X0288123Y0107342D01*
X0288536Y0106344D02*
X0367189Y0106344D01*
X0366191Y0105345D02*
X0288548Y0105345D01*
X0288408Y0104347D02*
X0365192Y0104347D01*
X0364194Y0103348D02*
X0287995Y0103348D01*
X0287096Y0102350D02*
X0363195Y0102350D01*
X0362197Y0101351D02*
X0202453Y0101351D01*
X0202986Y0102350D02*
X0241400Y0102350D01*
X0241726Y0102024D02*
X0240572Y0103178D01*
X0239948Y0104684D01*
X0239948Y0106316D01*
X0240572Y0107822D01*
X0241726Y0108976D01*
X0243232Y0109600D01*
X0250064Y0109600D01*
X0251570Y0108976D01*
X0252724Y0107822D01*
X0253348Y0106316D01*
X0253348Y0104684D01*
X0252724Y0103178D01*
X0251570Y0102024D01*
X0250064Y0101400D01*
X0243232Y0101400D01*
X0241726Y0102024D01*
X0240502Y0103348D02*
X0203399Y0103348D01*
X0203448Y0104347D02*
X0240088Y0104347D01*
X0239948Y0105345D02*
X0203448Y0105345D01*
X0203113Y0106344D02*
X0239960Y0106344D01*
X0240373Y0107342D02*
X0202699Y0107342D01*
X0201761Y0108341D02*
X0241090Y0108341D01*
X0242603Y0109339D02*
X0200153Y0109339D01*
X0201440Y0110338D02*
X0263592Y0110338D01*
X0262593Y0111336D02*
X0202438Y0111336D01*
X0202980Y0112335D02*
X0261595Y0112335D01*
X0260596Y0113333D02*
X0203393Y0113333D01*
X0203448Y0114332D02*
X0259598Y0114332D01*
X0258599Y0115330D02*
X0203448Y0115330D01*
X0203119Y0116329D02*
X0257601Y0116329D01*
X0256602Y0117327D02*
X0202705Y0117327D01*
X0201776Y0118326D02*
X0255604Y0118326D01*
X0254605Y0119324D02*
X0200189Y0119324D01*
X0201425Y0120323D02*
X0253607Y0120323D01*
X0252608Y0121321D02*
X0202423Y0121321D01*
X0196307Y0119324D02*
X0193448Y0119324D01*
X0193448Y0118466D02*
X0192656Y0116554D01*
X0191194Y0115092D01*
X0189765Y0114500D01*
X0191194Y0113908D01*
X0192656Y0112446D01*
X0193448Y0110534D01*
X0193448Y0108466D01*
X0192656Y0106554D01*
X0191194Y0105092D01*
X0189282Y0104300D01*
X0187214Y0104300D01*
X0185302Y0105092D01*
X0183840Y0106554D01*
X0183048Y0108466D01*
X0183048Y0110534D01*
X0183840Y0112446D01*
X0185302Y0113908D01*
X0186731Y0114500D01*
X0185302Y0115092D01*
X0183840Y0116554D01*
X0183048Y0118466D01*
X0183048Y0120534D01*
X0183840Y0122446D01*
X0185302Y0123908D01*
X0187214Y0124700D01*
X0189282Y0124700D01*
X0191194Y0123908D01*
X0192656Y0122446D01*
X0193448Y0120534D01*
X0193448Y0118466D01*
X0193390Y0118326D02*
X0194720Y0118326D01*
X0193791Y0117327D02*
X0192977Y0117327D01*
X0193377Y0116329D02*
X0192431Y0116329D01*
X0193048Y0115330D02*
X0191432Y0115330D01*
X0190171Y0114332D02*
X0193048Y0114332D01*
X0193103Y0113333D02*
X0191769Y0113333D01*
X0192702Y0112335D02*
X0193516Y0112335D01*
X0193116Y0111336D02*
X0194058Y0111336D01*
X0193448Y0110338D02*
X0195056Y0110338D01*
X0196343Y0109339D02*
X0193448Y0109339D01*
X0193396Y0108341D02*
X0194735Y0108341D01*
X0193797Y0107342D02*
X0192983Y0107342D01*
X0193383Y0106344D02*
X0192446Y0106344D01*
X0193048Y0105345D02*
X0191447Y0105345D01*
X0193048Y0104347D02*
X0189395Y0104347D01*
X0187101Y0104347D02*
X0143448Y0104347D01*
X0143448Y0105345D02*
X0185049Y0105345D01*
X0184050Y0106344D02*
X0143113Y0106344D01*
X0143919Y0107342D02*
X0183513Y0107342D01*
X0183100Y0108341D02*
X0144917Y0108341D01*
X0145916Y0109339D02*
X0183048Y0109339D01*
X0183048Y0110338D02*
X0146248Y0110338D01*
X0146248Y0111336D02*
X0183380Y0111336D01*
X0183794Y0112335D02*
X0146248Y0112335D01*
X0146248Y0113333D02*
X0184727Y0113333D01*
X0186325Y0114332D02*
X0146248Y0114332D01*
X0146248Y0115330D02*
X0185064Y0115330D01*
X0184065Y0116329D02*
X0146905Y0116329D01*
X0147904Y0117327D02*
X0183520Y0117327D01*
X0183106Y0118326D02*
X0148248Y0118326D01*
X0148248Y0119324D02*
X0183048Y0119324D01*
X0183048Y0120323D02*
X0148248Y0120323D01*
X0148248Y0121321D02*
X0183374Y0121321D01*
X0183788Y0122320D02*
X0148248Y0122320D01*
X0148248Y0123318D02*
X0184712Y0123318D01*
X0186289Y0124317D02*
X0148248Y0124317D01*
X0148248Y0125315D02*
X0193048Y0125315D01*
X0193048Y0124317D02*
X0190207Y0124317D01*
X0191784Y0123318D02*
X0193109Y0123318D01*
X0192708Y0122320D02*
X0193523Y0122320D01*
X0193122Y0121321D02*
X0194073Y0121321D01*
X0193448Y0120323D02*
X0195071Y0120323D01*
X0193371Y0126314D02*
X0148248Y0126314D01*
X0148248Y0127312D02*
X0193785Y0127312D01*
X0194705Y0128311D02*
X0148248Y0128311D01*
X0148248Y0129309D02*
X0196271Y0129309D01*
X0195086Y0130308D02*
X0148248Y0130308D01*
X0148248Y0131306D02*
X0194088Y0131306D01*
X0193529Y0132305D02*
X0178233Y0132305D01*
X0179146Y0132683D02*
X0176280Y0131496D01*
X0173177Y0131496D01*
X0170310Y0132683D01*
X0168116Y0134877D01*
X0166929Y0137744D01*
X0166929Y0140847D01*
X0168116Y0143713D01*
X0170310Y0145907D01*
X0173177Y0147094D01*
X0176280Y0147094D01*
X0179146Y0145907D01*
X0181340Y0143713D01*
X0182528Y0140847D01*
X0182528Y0137744D01*
X0181340Y0134877D01*
X0179146Y0132683D01*
X0179766Y0133303D02*
X0193115Y0133303D01*
X0193048Y0134302D02*
X0180765Y0134302D01*
X0181515Y0135301D02*
X0193048Y0135301D01*
X0193365Y0136299D02*
X0181929Y0136299D01*
X0182343Y0137298D02*
X0193778Y0137298D01*
X0194690Y0138296D02*
X0182528Y0138296D01*
X0182528Y0139295D02*
X0196235Y0139295D01*
X0195192Y0140293D02*
X0182528Y0140293D01*
X0182343Y0141292D02*
X0194152Y0141292D01*
X0193538Y0142290D02*
X0181930Y0142290D01*
X0181516Y0143289D02*
X0193175Y0143289D01*
X0193108Y0145286D02*
X0179768Y0145286D01*
X0180766Y0144287D02*
X0197748Y0144287D01*
X0198748Y0144287D02*
X0299898Y0144287D01*
X0300289Y0144678D02*
X0298770Y0143159D01*
X0297948Y0141174D01*
X0297948Y0139026D01*
X0298770Y0137041D01*
X0300289Y0135522D01*
X0302274Y0134700D01*
X0312222Y0134700D01*
X0314207Y0135522D01*
X0315726Y0137041D01*
X0316548Y0139026D01*
X0316548Y0141174D01*
X0315726Y0143159D01*
X0314207Y0144678D01*
X0312222Y0145500D01*
X0302274Y0145500D01*
X0300289Y0144678D01*
X0301756Y0145286D02*
X0203388Y0145286D01*
X0203136Y0146284D02*
X0365830Y0146284D01*
X0365446Y0145900D02*
X0354094Y0145900D01*
X0353129Y0145500D01*
X0350274Y0145500D01*
X0348289Y0144678D01*
X0346770Y0143159D01*
X0345948Y0141174D01*
X0345948Y0139026D01*
X0346770Y0137041D01*
X0348289Y0135522D01*
X0350274Y0134700D01*
X0353129Y0134700D01*
X0354094Y0134300D01*
X0369002Y0134300D01*
X0371133Y0135183D01*
X0372765Y0136815D01*
X0391887Y0155936D01*
X0396969Y0155936D01*
X0398840Y0156711D01*
X0400339Y0156711D01*
X0402186Y0157476D01*
X0403600Y0158890D01*
X0404365Y0160737D01*
X0404365Y0162736D01*
X0403600Y0164583D01*
X0402186Y0165996D01*
X0400339Y0166761D01*
X0398840Y0166761D01*
X0396969Y0167536D01*
X0388331Y0167536D01*
X0386199Y0166653D01*
X0384567Y0165022D01*
X0384567Y0165022D01*
X0365446Y0145900D01*
X0366828Y0147283D02*
X0202654Y0147283D01*
X0201821Y0148281D02*
X0367827Y0148281D01*
X0368825Y0149280D02*
X0200321Y0149280D01*
X0201380Y0150278D02*
X0369824Y0150278D01*
X0370822Y0151277D02*
X0202379Y0151277D01*
X0202955Y0152275D02*
X0371821Y0152275D01*
X0372819Y0153274D02*
X0203369Y0153274D01*
X0203448Y0154272D02*
X0373818Y0154272D01*
X0374816Y0155271D02*
X0203448Y0155271D01*
X0203144Y0156269D02*
X0375815Y0156269D01*
X0376813Y0157268D02*
X0366607Y0157268D01*
X0366202Y0157100D02*
X0368333Y0157983D01*
X0369965Y0159615D01*
X0385972Y0175621D01*
X0396969Y0175621D01*
X0398840Y0176396D01*
X0400339Y0176396D01*
X0402186Y0177161D01*
X0403600Y0178575D01*
X0404365Y0180422D01*
X0404365Y0182421D01*
X0403600Y0184268D01*
X0402186Y0185681D01*
X0400339Y0186446D01*
X0398840Y0186446D01*
X0396969Y0187221D01*
X0382416Y0187221D01*
X0380284Y0186338D01*
X0362646Y0168700D01*
X0354094Y0168700D01*
X0353129Y0168300D01*
X0350274Y0168300D01*
X0348289Y0167478D01*
X0346770Y0165959D01*
X0345948Y0163974D01*
X0345948Y0161826D01*
X0346770Y0159841D01*
X0348289Y0158322D01*
X0350274Y0157500D01*
X0353129Y0157500D01*
X0354094Y0157100D01*
X0366202Y0157100D01*
X0368617Y0158266D02*
X0377812Y0158266D01*
X0378810Y0159265D02*
X0369615Y0159265D01*
X0370614Y0160263D02*
X0379809Y0160263D01*
X0380807Y0161262D02*
X0371612Y0161262D01*
X0372611Y0162260D02*
X0381806Y0162260D01*
X0382804Y0163259D02*
X0373609Y0163259D01*
X0374608Y0164257D02*
X0383803Y0164257D01*
X0384801Y0165256D02*
X0375606Y0165256D01*
X0376605Y0166254D02*
X0385800Y0166254D01*
X0387647Y0167253D02*
X0377603Y0167253D01*
X0378602Y0168251D02*
X0432748Y0168251D01*
X0432748Y0167253D02*
X0397653Y0167253D01*
X0401563Y0166254D02*
X0432748Y0166254D01*
X0432748Y0165256D02*
X0402927Y0165256D01*
X0403735Y0164257D02*
X0432748Y0164257D01*
X0432748Y0163259D02*
X0404148Y0163259D01*
X0404365Y0162260D02*
X0432748Y0162260D01*
X0432748Y0161262D02*
X0404365Y0161262D01*
X0404169Y0160263D02*
X0432748Y0160263D01*
X0432748Y0159265D02*
X0403755Y0159265D01*
X0402976Y0158266D02*
X0432748Y0158266D01*
X0432748Y0157268D02*
X0401683Y0157268D01*
X0397773Y0156269D02*
X0432748Y0156269D01*
X0432748Y0155271D02*
X0391221Y0155271D01*
X0390223Y0154272D02*
X0432748Y0154272D01*
X0432748Y0153274D02*
X0389224Y0153274D01*
X0388226Y0152275D02*
X0432748Y0152275D01*
X0432748Y0151277D02*
X0387227Y0151277D01*
X0386229Y0150278D02*
X0432748Y0150278D01*
X0432748Y0149280D02*
X0385230Y0149280D01*
X0384232Y0148281D02*
X0432748Y0148281D01*
X0432748Y0147283D02*
X0397011Y0147283D01*
X0396969Y0147300D02*
X0392094Y0147300D01*
X0391554Y0147076D01*
X0391290Y0147076D01*
X0389444Y0146311D01*
X0388030Y0144898D01*
X0387738Y0144192D01*
X0365846Y0122300D01*
X0308105Y0122300D01*
X0305631Y0123325D01*
X0292265Y0123325D01*
X0289757Y0122286D01*
X0287837Y0120366D01*
X0286798Y0117858D01*
X0286798Y0115142D01*
X0287837Y0112634D01*
X0289757Y0110714D01*
X0292265Y0109675D01*
X0305631Y0109675D01*
X0308105Y0110700D01*
X0369402Y0110700D01*
X0371533Y0111583D01*
X0373165Y0113215D01*
X0395650Y0135700D01*
X0396969Y0135700D01*
X0399100Y0136583D01*
X0399544Y0137026D01*
X0400339Y0137026D01*
X0402186Y0137791D01*
X0403600Y0139205D01*
X0404365Y0141052D01*
X0404365Y0143051D01*
X0403600Y0144898D01*
X0402186Y0146311D01*
X0400339Y0147076D01*
X0397509Y0147076D01*
X0396969Y0147300D01*
X0392052Y0147283D02*
X0383233Y0147283D01*
X0382235Y0146284D02*
X0389416Y0146284D01*
X0388418Y0145286D02*
X0381236Y0145286D01*
X0380238Y0144287D02*
X0387777Y0144287D01*
X0386834Y0143289D02*
X0379239Y0143289D01*
X0378241Y0142290D02*
X0385836Y0142290D01*
X0384837Y0141292D02*
X0377242Y0141292D01*
X0376244Y0140293D02*
X0383839Y0140293D01*
X0382840Y0139295D02*
X0375245Y0139295D01*
X0374247Y0138296D02*
X0381842Y0138296D01*
X0380843Y0137298D02*
X0373248Y0137298D01*
X0372765Y0136815D02*
X0372765Y0136815D01*
X0372249Y0136299D02*
X0379845Y0136299D01*
X0378846Y0135301D02*
X0371251Y0135301D01*
X0369007Y0134302D02*
X0377848Y0134302D01*
X0376849Y0133303D02*
X0203381Y0133303D01*
X0203448Y0134302D02*
X0354089Y0134302D01*
X0348824Y0135301D02*
X0313672Y0135301D01*
X0314984Y0136299D02*
X0347512Y0136299D01*
X0346664Y0137298D02*
X0315832Y0137298D01*
X0316246Y0138296D02*
X0346250Y0138296D01*
X0345948Y0139295D02*
X0316548Y0139295D01*
X0316548Y0140293D02*
X0345948Y0140293D01*
X0345997Y0141292D02*
X0316499Y0141292D01*
X0316086Y0142290D02*
X0346410Y0142290D01*
X0346900Y0143289D02*
X0315596Y0143289D01*
X0314598Y0144287D02*
X0347898Y0144287D01*
X0349756Y0145286D02*
X0312740Y0145286D01*
X0298900Y0143289D02*
X0203321Y0143289D01*
X0202958Y0142290D02*
X0298410Y0142290D01*
X0297997Y0141292D02*
X0202345Y0141292D01*
X0201304Y0140293D02*
X0297948Y0140293D01*
X0297948Y0139295D02*
X0200261Y0139295D01*
X0201806Y0138296D02*
X0298250Y0138296D01*
X0298664Y0137298D02*
X0202718Y0137298D01*
X0203131Y0136299D02*
X0299512Y0136299D01*
X0300824Y0135301D02*
X0203448Y0135301D01*
X0202967Y0132305D02*
X0375851Y0132305D01*
X0374852Y0131306D02*
X0202408Y0131306D01*
X0201410Y0130308D02*
X0373854Y0130308D01*
X0372855Y0129309D02*
X0200225Y0129309D01*
X0201791Y0128311D02*
X0371857Y0128311D01*
X0370858Y0127312D02*
X0202712Y0127312D01*
X0193360Y0146284D02*
X0178236Y0146284D01*
X0171221Y0146284D02*
X0148248Y0146284D01*
X0148248Y0145286D02*
X0169689Y0145286D01*
X0168690Y0144287D02*
X0148248Y0144287D01*
X0148248Y0143289D02*
X0167941Y0143289D01*
X0167527Y0142290D02*
X0148248Y0142290D01*
X0148248Y0141292D02*
X0167113Y0141292D01*
X0166929Y0140293D02*
X0148248Y0140293D01*
X0148248Y0139295D02*
X0166929Y0139295D01*
X0166929Y0138296D02*
X0148248Y0138296D01*
X0148248Y0137298D02*
X0167114Y0137298D01*
X0167528Y0136299D02*
X0148248Y0136299D01*
X0148248Y0135301D02*
X0167941Y0135301D01*
X0168692Y0134302D02*
X0148248Y0134302D01*
X0148248Y0133303D02*
X0169690Y0133303D01*
X0171224Y0132305D02*
X0148248Y0132305D01*
X0136765Y0129486D02*
X0136252Y0129319D01*
X0135523Y0128947D01*
X0134860Y0128466D01*
X0134282Y0127888D01*
X0133801Y0127225D01*
X0133429Y0126496D01*
X0133176Y0125718D01*
X0133062Y0125000D01*
X0137748Y0125000D01*
X0137748Y0124000D01*
X0133062Y0124000D01*
X0133176Y0123282D01*
X0133429Y0122504D01*
X0133801Y0121775D01*
X0134282Y0121112D01*
X0134860Y0120534D01*
X0135523Y0120053D01*
X0136252Y0119681D01*
X0136765Y0119514D01*
X0135302Y0118908D01*
X0133840Y0117446D01*
X0133048Y0115534D01*
X0133048Y0113466D01*
X0133147Y0113227D01*
X0132420Y0112500D01*
X0127076Y0112500D01*
X0125248Y0114328D01*
X0125248Y0116672D01*
X0126276Y0117700D01*
X0131019Y0117700D01*
X0131898Y0118579D01*
X0131898Y0124421D01*
X0131819Y0124500D01*
X0131898Y0124579D01*
X0131898Y0130421D01*
X0131019Y0131300D01*
X0129248Y0131300D01*
X0129248Y0145672D01*
X0129420Y0145500D01*
X0133048Y0145500D01*
X0133048Y0143466D01*
X0133840Y0141554D01*
X0135302Y0140092D01*
X0136731Y0139500D01*
X0135302Y0138908D01*
X0133840Y0137446D01*
X0133048Y0135534D01*
X0133048Y0133466D01*
X0133840Y0131554D01*
X0135302Y0130092D01*
X0136765Y0129486D01*
X0136233Y0129309D02*
X0131898Y0129309D01*
X0131898Y0128311D02*
X0134705Y0128311D01*
X0133864Y0127312D02*
X0131898Y0127312D01*
X0131898Y0126314D02*
X0133370Y0126314D01*
X0133112Y0125315D02*
X0131898Y0125315D01*
X0131898Y0124317D02*
X0137748Y0124317D01*
X0133523Y0122320D02*
X0131898Y0122320D01*
X0131898Y0123318D02*
X0133170Y0123318D01*
X0134130Y0121321D02*
X0131898Y0121321D01*
X0131898Y0120323D02*
X0135151Y0120323D01*
X0136307Y0119324D02*
X0131898Y0119324D01*
X0131645Y0118326D02*
X0134720Y0118326D01*
X0133791Y0117327D02*
X0125904Y0117327D01*
X0125248Y0116329D02*
X0133377Y0116329D01*
X0133048Y0115330D02*
X0125248Y0115330D01*
X0125248Y0114332D02*
X0133048Y0114332D01*
X0133103Y0113333D02*
X0126243Y0113333D01*
X0126248Y0110500D02*
X0123248Y0113500D01*
X0123248Y0117500D01*
X0127248Y0121500D01*
X0127248Y0127500D02*
X0127248Y0147500D01*
X0123248Y0151500D01*
X0123248Y0201500D01*
X0121248Y0203500D01*
X0117248Y0203500D01*
X0115678Y0206195D02*
X0081382Y0206195D01*
X0082380Y0205196D02*
X0114605Y0205196D01*
X0113248Y0202500D02*
X0116248Y0199500D01*
X0119248Y0199500D01*
X0121248Y0197500D01*
X0121248Y0150500D01*
X0125248Y0146500D01*
X0125248Y0133500D01*
X0120248Y0128500D01*
X0119248Y0128500D01*
X0118248Y0127500D01*
X0120226Y0131306D02*
X0002748Y0131306D01*
X0002748Y0130308D02*
X0113598Y0130308D01*
X0113598Y0129309D02*
X0002748Y0129309D01*
X0002748Y0128311D02*
X0113598Y0128311D01*
X0113598Y0127312D02*
X0002748Y0127312D01*
X0002748Y0126314D02*
X0113598Y0126314D01*
X0113598Y0125315D02*
X0045014Y0125315D01*
X0046196Y0124317D02*
X0113598Y0124317D01*
X0113598Y0123318D02*
X0046929Y0123318D01*
X0050257Y0122320D02*
X0113598Y0122320D01*
X0113598Y0121321D02*
X0051255Y0121321D01*
X0052254Y0120323D02*
X0113598Y0120323D01*
X0113598Y0119324D02*
X0053248Y0119324D01*
X0053248Y0118326D02*
X0113851Y0118326D01*
X0118248Y0121500D02*
X0121248Y0118500D01*
X0121248Y0112500D01*
X0125248Y0108500D01*
X0133248Y0108500D01*
X0137248Y0104500D01*
X0138248Y0104500D01*
X0144248Y0110500D01*
X0144248Y0116500D01*
X0146248Y0118500D01*
X0146248Y0159500D01*
X0143248Y0162500D01*
X0136248Y0162500D01*
X0131248Y0167500D01*
X0131248Y0209500D01*
X0126248Y0214500D01*
X0126248Y0276500D01*
X0124248Y0271098D02*
X0104594Y0271098D01*
X0104594Y0270100D02*
X0124248Y0270100D01*
X0124248Y0269101D02*
X0104594Y0269101D01*
X0104594Y0268103D02*
X0124248Y0268103D01*
X0124248Y0267104D02*
X0104594Y0267104D01*
X0104594Y0266105D02*
X0124248Y0266105D01*
X0124248Y0265107D02*
X0104594Y0265107D01*
X0104594Y0264108D02*
X0124248Y0264108D01*
X0124248Y0263110D02*
X0104594Y0263110D01*
X0104594Y0262111D02*
X0124248Y0262111D01*
X0124248Y0261113D02*
X0121463Y0261113D01*
X0122462Y0260114D02*
X0124248Y0260114D01*
X0124248Y0259116D02*
X0123461Y0259116D01*
X0120248Y0259500D02*
X0124248Y0255500D01*
X0124248Y0213500D01*
X0129248Y0208500D01*
X0129248Y0166500D01*
X0135248Y0160500D01*
X0142248Y0160500D01*
X0144248Y0158500D01*
X0144248Y0120500D01*
X0138248Y0114500D01*
X0137248Y0114500D01*
X0133248Y0110500D01*
X0126248Y0110500D01*
X0123577Y0107342D02*
X0053248Y0107342D01*
X0053248Y0106344D02*
X0132576Y0106344D01*
X0133048Y0105345D02*
X0053248Y0105345D01*
X0053248Y0104347D02*
X0133048Y0104347D01*
X0133097Y0103348D02*
X0053248Y0103348D01*
X0053248Y0102350D02*
X0133510Y0102350D01*
X0134043Y0101351D02*
X0053248Y0101351D01*
X0053248Y0100353D02*
X0064832Y0100353D01*
X0064757Y0100321D02*
X0063555Y0099120D01*
X0062905Y0097550D01*
X0062905Y0095850D01*
X0063555Y0094280D01*
X0064757Y0093079D01*
X0066327Y0092428D01*
X0073569Y0092428D01*
X0075139Y0093079D01*
X0076341Y0094280D01*
X0076991Y0095850D01*
X0076991Y0097550D01*
X0076341Y0099120D01*
X0075139Y0100321D01*
X0073569Y0100972D01*
X0066327Y0100972D01*
X0064757Y0100321D01*
X0063789Y0099354D02*
X0053248Y0099354D01*
X0053248Y0098356D02*
X0063239Y0098356D01*
X0062905Y0097357D02*
X0053248Y0097357D01*
X0053248Y0096359D02*
X0062905Y0096359D01*
X0063108Y0095360D02*
X0053248Y0095360D01*
X0053248Y0094362D02*
X0063521Y0094362D01*
X0064472Y0093363D02*
X0053248Y0093363D01*
X0053248Y0092365D02*
X0133284Y0092365D01*
X0133091Y0093363D02*
X0102424Y0093363D01*
X0102139Y0093079D02*
X0103341Y0094280D01*
X0103991Y0095850D01*
X0103991Y0097550D01*
X0103341Y0099120D01*
X0102139Y0100321D01*
X0100569Y0100972D01*
X0093327Y0100972D01*
X0091757Y0100321D01*
X0090555Y0099120D01*
X0089905Y0097550D01*
X0089905Y0095850D01*
X0090555Y0094280D01*
X0091757Y0093079D01*
X0093327Y0092428D01*
X0100569Y0092428D01*
X0102139Y0093079D01*
X0103375Y0094362D02*
X0133048Y0094362D01*
X0133048Y0095360D02*
X0103788Y0095360D01*
X0103991Y0096359D02*
X0133389Y0096359D01*
X0133803Y0097357D02*
X0103991Y0097357D01*
X0103658Y0098356D02*
X0134750Y0098356D01*
X0136379Y0099354D02*
X0103107Y0099354D01*
X0102064Y0100353D02*
X0135041Y0100353D01*
X0140117Y0099354D02*
X0196379Y0099354D01*
X0195041Y0100353D02*
X0141455Y0100353D01*
X0142453Y0101351D02*
X0194043Y0101351D01*
X0193510Y0102350D02*
X0142986Y0102350D01*
X0143399Y0103348D02*
X0193097Y0103348D01*
X0200117Y0099354D02*
X0242642Y0099354D01*
X0242474Y0099300D02*
X0241899Y0099007D01*
X0241377Y0098627D01*
X0240921Y0098171D01*
X0240541Y0097649D01*
X0240248Y0097074D01*
X0240049Y0096460D01*
X0239948Y0095823D01*
X0239948Y0095800D01*
X0248948Y0095800D01*
X0248948Y0095200D01*
X0239948Y0095200D01*
X0239948Y0095177D01*
X0240049Y0094540D01*
X0240248Y0093926D01*
X0240541Y0093351D01*
X0240921Y0092829D01*
X0241377Y0092373D01*
X0241899Y0091993D01*
X0242474Y0091700D01*
X0243088Y0091501D01*
X0243725Y0091400D01*
X0248948Y0091400D01*
X0248948Y0095200D01*
X0249548Y0095200D01*
X0249548Y0091400D01*
X0249571Y0091400D01*
X0250208Y0091501D01*
X0250822Y0091700D01*
X0251397Y0091993D01*
X0251919Y0092373D01*
X0252375Y0092829D01*
X0252755Y0093351D01*
X0253048Y0093926D01*
X0253247Y0094540D01*
X0253348Y0095177D01*
X0253348Y0095200D01*
X0249548Y0095200D01*
X0249548Y0095800D01*
X0248948Y0095800D01*
X0248948Y0099600D01*
X0243725Y0099600D01*
X0243088Y0099499D01*
X0242474Y0099300D01*
X0241105Y0098356D02*
X0201746Y0098356D01*
X0202693Y0097357D02*
X0240393Y0097357D01*
X0240033Y0096359D02*
X0203107Y0096359D01*
X0203448Y0095360D02*
X0248948Y0095360D01*
X0249548Y0095360D02*
X0275148Y0095360D01*
X0275148Y0094684D02*
X0275772Y0093178D01*
X0276926Y0092024D01*
X0278432Y0091400D01*
X0285264Y0091400D01*
X0286770Y0092024D01*
X0287924Y0093178D01*
X0288548Y0094684D01*
X0288548Y0096316D01*
X0287924Y0097822D01*
X0286770Y0098976D01*
X0285264Y0099600D01*
X0278432Y0099600D01*
X0276926Y0098976D01*
X0275772Y0097822D01*
X0275148Y0096316D01*
X0275148Y0094684D01*
X0275282Y0094362D02*
X0253189Y0094362D01*
X0252761Y0093363D02*
X0275695Y0093363D01*
X0276585Y0092365D02*
X0251908Y0092365D01*
X0249548Y0092365D02*
X0248948Y0092365D01*
X0248948Y0093363D02*
X0249548Y0093363D01*
X0249548Y0094362D02*
X0248948Y0094362D01*
X0249548Y0095800D02*
X0253348Y0095800D01*
X0253348Y0095823D01*
X0253247Y0096460D01*
X0253048Y0097074D01*
X0252755Y0097649D01*
X0252375Y0098171D01*
X0251919Y0098627D01*
X0251397Y0099007D01*
X0250822Y0099300D01*
X0250208Y0099499D01*
X0249571Y0099600D01*
X0249548Y0099600D01*
X0249548Y0095800D01*
X0249548Y0096359D02*
X0248948Y0096359D01*
X0248948Y0097357D02*
X0249548Y0097357D01*
X0249548Y0098356D02*
X0248948Y0098356D01*
X0248948Y0099354D02*
X0249548Y0099354D01*
X0250654Y0099354D02*
X0277839Y0099354D01*
X0276305Y0098356D02*
X0252191Y0098356D01*
X0252903Y0097357D02*
X0275579Y0097357D01*
X0275166Y0096359D02*
X0253263Y0096359D01*
X0251896Y0102350D02*
X0276600Y0102350D01*
X0270581Y0103348D02*
X0252795Y0103348D01*
X0253208Y0104347D02*
X0269583Y0104347D01*
X0268584Y0105345D02*
X0253348Y0105345D01*
X0253336Y0106344D02*
X0267586Y0106344D01*
X0266587Y0107342D02*
X0252923Y0107342D01*
X0252206Y0108341D02*
X0265589Y0108341D01*
X0264590Y0109339D02*
X0250693Y0109339D01*
X0262242Y0119324D02*
X0287406Y0119324D01*
X0286992Y0118326D02*
X0263241Y0118326D01*
X0264239Y0117327D02*
X0286798Y0117327D01*
X0286798Y0116329D02*
X0265238Y0116329D01*
X0266236Y0115330D02*
X0286798Y0115330D01*
X0287134Y0114332D02*
X0267235Y0114332D01*
X0268233Y0113333D02*
X0287547Y0113333D01*
X0288136Y0112335D02*
X0269232Y0112335D01*
X0270230Y0111336D02*
X0289135Y0111336D01*
X0290665Y0110338D02*
X0271229Y0110338D01*
X0272227Y0109339D02*
X0277803Y0109339D01*
X0276290Y0108341D02*
X0273226Y0108341D01*
X0285893Y0109339D02*
X0370185Y0109339D01*
X0369186Y0108341D02*
X0287406Y0108341D01*
X0285857Y0099354D02*
X0360200Y0099354D01*
X0361198Y0100353D02*
X0201455Y0100353D01*
X0203448Y0094362D02*
X0240107Y0094362D01*
X0240535Y0093363D02*
X0203406Y0093363D01*
X0202992Y0092365D02*
X0241388Y0092365D01*
X0202468Y0091366D02*
X0298138Y0091366D01*
X0297948Y0091826D02*
X0298770Y0089841D01*
X0300289Y0088322D01*
X0302274Y0087500D01*
X0312222Y0087500D01*
X0314207Y0088322D01*
X0315726Y0089841D01*
X0316548Y0091826D01*
X0316548Y0093974D01*
X0315726Y0095959D01*
X0314207Y0097478D01*
X0312222Y0098300D01*
X0302274Y0098300D01*
X0300289Y0097478D01*
X0298770Y0095959D01*
X0297948Y0093974D01*
X0297948Y0091826D01*
X0297948Y0092365D02*
X0287111Y0092365D01*
X0288001Y0093363D02*
X0297948Y0093363D01*
X0298109Y0094362D02*
X0288414Y0094362D01*
X0288548Y0095360D02*
X0298522Y0095360D01*
X0299170Y0096359D02*
X0288530Y0096359D01*
X0288117Y0097357D02*
X0300168Y0097357D01*
X0298552Y0090368D02*
X0201469Y0090368D01*
X0200081Y0089369D02*
X0299242Y0089369D01*
X0300241Y0088370D02*
X0201731Y0088370D01*
X0202687Y0087372D02*
X0352872Y0087372D01*
X0348241Y0088370D02*
X0314255Y0088370D01*
X0315254Y0089369D02*
X0347242Y0089369D01*
X0346552Y0090368D02*
X0315944Y0090368D01*
X0316358Y0091366D02*
X0346138Y0091366D01*
X0345948Y0092365D02*
X0316548Y0092365D01*
X0316548Y0093363D02*
X0345948Y0093363D01*
X0346109Y0094362D02*
X0316388Y0094362D01*
X0315974Y0095360D02*
X0346522Y0095360D01*
X0347170Y0096359D02*
X0315326Y0096359D01*
X0314328Y0097357D02*
X0348168Y0097357D01*
X0353263Y0098356D02*
X0287391Y0098356D01*
X0307231Y0110338D02*
X0371183Y0110338D01*
X0370938Y0111336D02*
X0372182Y0111336D01*
X0372285Y0112335D02*
X0373180Y0112335D01*
X0373284Y0113333D02*
X0374179Y0113333D01*
X0374282Y0114332D02*
X0375177Y0114332D01*
X0375281Y0115330D02*
X0376176Y0115330D01*
X0376279Y0116329D02*
X0377174Y0116329D01*
X0377278Y0117327D02*
X0378173Y0117327D01*
X0378276Y0118326D02*
X0379171Y0118326D01*
X0379275Y0119324D02*
X0380170Y0119324D01*
X0380273Y0120323D02*
X0381168Y0120323D01*
X0381272Y0121321D02*
X0382167Y0121321D01*
X0382270Y0122320D02*
X0383165Y0122320D01*
X0383269Y0123318D02*
X0384164Y0123318D01*
X0384267Y0124317D02*
X0385162Y0124317D01*
X0385266Y0125315D02*
X0386161Y0125315D01*
X0386264Y0126314D02*
X0387160Y0126314D01*
X0387263Y0127312D02*
X0388199Y0127312D01*
X0388261Y0128311D02*
X0432748Y0128311D01*
X0432748Y0129309D02*
X0389260Y0129309D01*
X0390258Y0130308D02*
X0432748Y0130308D01*
X0432748Y0131306D02*
X0391257Y0131306D01*
X0392255Y0132305D02*
X0432748Y0132305D01*
X0432748Y0133303D02*
X0393254Y0133303D01*
X0394252Y0134302D02*
X0432748Y0134302D01*
X0432748Y0135301D02*
X0395251Y0135301D01*
X0398415Y0136299D02*
X0432748Y0136299D01*
X0432748Y0137298D02*
X0400995Y0137298D01*
X0402691Y0138296D02*
X0432748Y0138296D01*
X0432748Y0139295D02*
X0403637Y0139295D01*
X0404051Y0140293D02*
X0432748Y0140293D01*
X0432748Y0141292D02*
X0404365Y0141292D01*
X0404365Y0142290D02*
X0432748Y0142290D01*
X0432748Y0143289D02*
X0404266Y0143289D01*
X0403853Y0144287D02*
X0432748Y0144287D01*
X0432748Y0145286D02*
X0403212Y0145286D01*
X0402213Y0146284D02*
X0432748Y0146284D01*
X0432748Y0127312D02*
X0400530Y0127312D01*
X0402499Y0126314D02*
X0432748Y0126314D01*
X0432748Y0125315D02*
X0403497Y0125315D01*
X0403971Y0124317D02*
X0432748Y0124317D01*
X0432748Y0123318D02*
X0404365Y0123318D01*
X0404365Y0122320D02*
X0432748Y0122320D01*
X0432748Y0121321D02*
X0404346Y0121321D01*
X0403933Y0120323D02*
X0432748Y0120323D01*
X0432748Y0119324D02*
X0403405Y0119324D01*
X0402406Y0118326D02*
X0432748Y0118326D01*
X0432748Y0117327D02*
X0398806Y0117327D01*
X0393579Y0116329D02*
X0432748Y0116329D01*
X0432748Y0115330D02*
X0392581Y0115330D01*
X0391582Y0114332D02*
X0432748Y0114332D01*
X0432748Y0113333D02*
X0390584Y0113333D01*
X0389585Y0112335D02*
X0432748Y0112335D01*
X0369860Y0126314D02*
X0255252Y0126314D01*
X0256251Y0125315D02*
X0368861Y0125315D01*
X0367862Y0124317D02*
X0257249Y0124317D01*
X0258248Y0123318D02*
X0292249Y0123318D01*
X0289839Y0122320D02*
X0259247Y0122320D01*
X0260245Y0121321D02*
X0288792Y0121321D01*
X0287819Y0120323D02*
X0261244Y0120323D01*
X0305647Y0123318D02*
X0366864Y0123318D01*
X0365865Y0122320D02*
X0308057Y0122320D01*
X0312222Y0157500D02*
X0302274Y0157500D01*
X0300289Y0158322D01*
X0298770Y0159841D01*
X0297948Y0161826D01*
X0297948Y0163974D01*
X0298770Y0165959D01*
X0300289Y0167478D01*
X0302274Y0168300D01*
X0312222Y0168300D01*
X0314207Y0167478D01*
X0315726Y0165959D01*
X0316548Y0163974D01*
X0316548Y0161826D01*
X0315726Y0159841D01*
X0314207Y0158322D01*
X0312222Y0157500D01*
X0314072Y0158266D02*
X0348424Y0158266D01*
X0347346Y0159265D02*
X0315150Y0159265D01*
X0315901Y0160263D02*
X0346595Y0160263D01*
X0346182Y0161262D02*
X0316314Y0161262D01*
X0316548Y0162260D02*
X0345948Y0162260D01*
X0345948Y0163259D02*
X0316548Y0163259D01*
X0316431Y0164257D02*
X0346065Y0164257D01*
X0346479Y0165256D02*
X0316017Y0165256D01*
X0315430Y0166254D02*
X0347066Y0166254D01*
X0348064Y0167253D02*
X0314432Y0167253D01*
X0312339Y0168251D02*
X0350157Y0168251D01*
X0353689Y0157268D02*
X0202730Y0157268D01*
X0201836Y0158266D02*
X0300424Y0158266D01*
X0299346Y0159265D02*
X0200333Y0159265D01*
X0196163Y0159265D02*
X0148248Y0159265D01*
X0148248Y0160263D02*
X0298595Y0160263D01*
X0298182Y0161262D02*
X0147315Y0161262D01*
X0146316Y0162260D02*
X0241532Y0162260D01*
X0241377Y0162373D02*
X0241899Y0161993D01*
X0242474Y0161700D01*
X0243088Y0161501D01*
X0243725Y0161400D01*
X0248948Y0161400D01*
X0248948Y0165200D01*
X0239948Y0165200D01*
X0239948Y0165177D01*
X0240049Y0164540D01*
X0240248Y0163926D01*
X0240541Y0163351D01*
X0240921Y0162829D01*
X0241377Y0162373D01*
X0240608Y0163259D02*
X0145318Y0163259D01*
X0144319Y0164257D02*
X0240141Y0164257D01*
X0239948Y0165800D02*
X0248948Y0165800D01*
X0248948Y0165200D01*
X0249548Y0165200D01*
X0249548Y0161400D01*
X0249571Y0161400D01*
X0250208Y0161501D01*
X0250822Y0161700D01*
X0251397Y0161993D01*
X0251919Y0162373D01*
X0252375Y0162829D01*
X0252755Y0163351D01*
X0253048Y0163926D01*
X0253247Y0164540D01*
X0253348Y0165177D01*
X0253348Y0165200D01*
X0249548Y0165200D01*
X0249548Y0165800D01*
X0248948Y0165800D01*
X0248948Y0169600D01*
X0243725Y0169600D01*
X0243088Y0169499D01*
X0242474Y0169300D01*
X0241899Y0169007D01*
X0241377Y0168627D01*
X0240921Y0168171D01*
X0240541Y0167649D01*
X0240248Y0167074D01*
X0240049Y0166460D01*
X0239948Y0165823D01*
X0239948Y0165800D01*
X0240016Y0166254D02*
X0135322Y0166254D01*
X0136321Y0165256D02*
X0248948Y0165256D01*
X0249548Y0165256D02*
X0275148Y0165256D01*
X0275148Y0164684D02*
X0275772Y0163178D01*
X0276926Y0162024D01*
X0278432Y0161400D01*
X0285264Y0161400D01*
X0286770Y0162024D01*
X0287924Y0163178D01*
X0288548Y0164684D01*
X0288548Y0166316D01*
X0287924Y0167822D01*
X0286770Y0168976D01*
X0285264Y0169600D01*
X0278432Y0169600D01*
X0276926Y0168976D01*
X0275772Y0167822D01*
X0275148Y0166316D01*
X0275148Y0164684D01*
X0275325Y0164257D02*
X0253155Y0164257D01*
X0252688Y0163259D02*
X0275739Y0163259D01*
X0276689Y0162260D02*
X0251764Y0162260D01*
X0249548Y0162260D02*
X0248948Y0162260D01*
X0248948Y0163259D02*
X0249548Y0163259D01*
X0249548Y0164257D02*
X0248948Y0164257D01*
X0249548Y0165800D02*
X0253348Y0165800D01*
X0253348Y0165823D01*
X0253247Y0166460D01*
X0253048Y0167074D01*
X0252755Y0167649D01*
X0252375Y0168171D01*
X0251919Y0168627D01*
X0251397Y0169007D01*
X0250822Y0169300D01*
X0250208Y0169499D01*
X0249571Y0169600D01*
X0249548Y0169600D01*
X0249548Y0165800D01*
X0249548Y0166254D02*
X0248948Y0166254D01*
X0248948Y0167253D02*
X0249548Y0167253D01*
X0249548Y0168251D02*
X0248948Y0168251D01*
X0248948Y0169250D02*
X0249548Y0169250D01*
X0250919Y0169250D02*
X0277587Y0169250D01*
X0276201Y0168251D02*
X0252295Y0168251D01*
X0252956Y0167253D02*
X0275536Y0167253D01*
X0275148Y0166254D02*
X0253280Y0166254D01*
X0251570Y0172024D02*
X0252724Y0173178D01*
X0253348Y0174684D01*
X0253348Y0176316D01*
X0252724Y0177822D01*
X0251570Y0178976D01*
X0250064Y0179600D01*
X0243232Y0179600D01*
X0241726Y0178976D01*
X0240572Y0177822D01*
X0239948Y0176316D01*
X0239948Y0174684D01*
X0240572Y0173178D01*
X0241726Y0172024D01*
X0243232Y0171400D01*
X0250064Y0171400D01*
X0251570Y0172024D01*
X0251792Y0172245D02*
X0276704Y0172245D01*
X0276926Y0172024D02*
X0278432Y0171400D01*
X0285264Y0171400D01*
X0286770Y0172024D01*
X0287924Y0173178D01*
X0288548Y0174684D01*
X0288548Y0176316D01*
X0287924Y0177822D01*
X0286770Y0178976D01*
X0285264Y0179600D01*
X0278432Y0179600D01*
X0276926Y0178976D01*
X0275772Y0177822D01*
X0275148Y0176316D01*
X0275148Y0174684D01*
X0275772Y0173178D01*
X0276926Y0172024D01*
X0275745Y0173244D02*
X0252751Y0173244D01*
X0253165Y0174242D02*
X0275331Y0174242D01*
X0275148Y0175241D02*
X0253348Y0175241D01*
X0253348Y0176239D02*
X0275148Y0176239D01*
X0275530Y0177238D02*
X0252966Y0177238D01*
X0252310Y0178237D02*
X0276186Y0178237D01*
X0277551Y0179235D02*
X0250945Y0179235D01*
X0242351Y0179235D02*
X0133248Y0179235D01*
X0133248Y0178237D02*
X0240986Y0178237D01*
X0240330Y0177238D02*
X0133248Y0177238D01*
X0133248Y0176239D02*
X0239948Y0176239D01*
X0239948Y0175241D02*
X0133248Y0175241D01*
X0133248Y0174242D02*
X0240131Y0174242D01*
X0240545Y0173244D02*
X0133248Y0173244D01*
X0133248Y0172245D02*
X0241504Y0172245D01*
X0242377Y0169250D02*
X0133248Y0169250D01*
X0133248Y0170248D02*
X0364194Y0170248D01*
X0363195Y0169250D02*
X0286109Y0169250D01*
X0287495Y0168251D02*
X0302157Y0168251D01*
X0300064Y0167253D02*
X0288160Y0167253D01*
X0288548Y0166254D02*
X0299066Y0166254D01*
X0298479Y0165256D02*
X0288548Y0165256D01*
X0288371Y0164257D02*
X0298065Y0164257D01*
X0297948Y0163259D02*
X0287958Y0163259D01*
X0287007Y0162260D02*
X0297948Y0162260D01*
X0286992Y0172245D02*
X0366191Y0172245D01*
X0365193Y0171247D02*
X0133248Y0171247D01*
X0133325Y0168251D02*
X0241001Y0168251D01*
X0240340Y0167253D02*
X0134324Y0167253D01*
X0119248Y0167253D02*
X0002748Y0167253D01*
X0002748Y0168251D02*
X0119248Y0168251D01*
X0119248Y0169250D02*
X0002748Y0169250D01*
X0002748Y0170248D02*
X0119248Y0170248D01*
X0119248Y0171247D02*
X0002748Y0171247D01*
X0002748Y0172245D02*
X0119248Y0172245D01*
X0119248Y0173244D02*
X0002748Y0173244D01*
X0002748Y0174242D02*
X0119248Y0174242D01*
X0119248Y0175241D02*
X0044078Y0175241D01*
X0044332Y0175323D02*
X0045037Y0175683D01*
X0045677Y0176147D01*
X0046236Y0176707D01*
X0046701Y0177347D01*
X0047060Y0178051D01*
X0047304Y0178804D01*
X0047411Y0179480D01*
X0039378Y0179480D01*
X0039378Y0174955D01*
X0042798Y0174955D01*
X0043580Y0175079D01*
X0044332Y0175323D01*
X0045769Y0176239D02*
X0119248Y0176239D01*
X0119248Y0177238D02*
X0046622Y0177238D01*
X0047120Y0178237D02*
X0119248Y0178237D01*
X0119248Y0179235D02*
X0047373Y0179235D01*
X0047411Y0180480D02*
X0039378Y0180480D01*
X0039378Y0179480D01*
X0038378Y0179480D01*
X0038378Y0174955D01*
X0034957Y0174955D01*
X0034176Y0175079D01*
X0033424Y0175323D01*
X0032719Y0175683D01*
X0032079Y0176147D01*
X0031520Y0176707D01*
X0031055Y0177347D01*
X0030696Y0178051D01*
X0030452Y0178804D01*
X0030345Y0179480D01*
X0038378Y0179480D01*
X0038378Y0180480D01*
X0030345Y0180480D01*
X0030452Y0181157D01*
X0030696Y0181909D01*
X0031055Y0182614D01*
X0031520Y0183254D01*
X0032079Y0183813D01*
X0032719Y0184278D01*
X0033424Y0184637D01*
X0034176Y0184882D01*
X0034957Y0185005D01*
X0038378Y0185005D01*
X0038378Y0180480D01*
X0039378Y0180480D01*
X0039378Y0185005D01*
X0042798Y0185005D01*
X0043580Y0184882D01*
X0044332Y0184637D01*
X0045037Y0184278D01*
X0045677Y0183813D01*
X0046236Y0183254D01*
X0046701Y0182614D01*
X0047060Y0181909D01*
X0047304Y0181157D01*
X0047411Y0180480D01*
X0047280Y0181232D02*
X0119248Y0181232D01*
X0119248Y0180234D02*
X0039378Y0180234D01*
X0039378Y0181232D02*
X0038378Y0181232D01*
X0038378Y0180234D02*
X0002748Y0180234D01*
X0002748Y0181232D02*
X0030476Y0181232D01*
X0030860Y0182231D02*
X0002748Y0182231D01*
X0002748Y0183229D02*
X0031502Y0183229D01*
X0032650Y0184228D02*
X0002748Y0184228D01*
X0002748Y0185226D02*
X0119248Y0185226D01*
X0119248Y0184228D02*
X0045106Y0184228D01*
X0046254Y0183229D02*
X0119248Y0183229D01*
X0119248Y0182231D02*
X0046896Y0182231D01*
X0039378Y0182231D02*
X0038378Y0182231D01*
X0038378Y0183229D02*
X0039378Y0183229D01*
X0039378Y0184228D02*
X0038378Y0184228D01*
X0038378Y0179235D02*
X0039378Y0179235D01*
X0039378Y0178237D02*
X0038378Y0178237D01*
X0038378Y0177238D02*
X0039378Y0177238D01*
X0039378Y0176239D02*
X0038378Y0176239D01*
X0038378Y0175241D02*
X0039378Y0175241D01*
X0033678Y0175241D02*
X0002748Y0175241D01*
X0002748Y0176239D02*
X0031987Y0176239D01*
X0031134Y0177238D02*
X0002748Y0177238D01*
X0002748Y0178237D02*
X0030636Y0178237D01*
X0030383Y0179235D02*
X0002748Y0179235D01*
X0002748Y0186225D02*
X0119248Y0186225D01*
X0119248Y0187223D02*
X0002748Y0187223D01*
X0002748Y0188222D02*
X0119248Y0188222D01*
X0119248Y0189220D02*
X0002748Y0189220D01*
X0002748Y0190219D02*
X0119248Y0190219D01*
X0119248Y0191217D02*
X0002748Y0191217D01*
X0002748Y0192216D02*
X0119248Y0192216D01*
X0119248Y0193214D02*
X0002748Y0193214D01*
X0002748Y0194213D02*
X0119248Y0194213D01*
X0119248Y0195211D02*
X0044781Y0195211D01*
X0045249Y0195405D02*
X0046663Y0196819D01*
X0047428Y0198666D01*
X0047428Y0200665D01*
X0046663Y0202512D01*
X0045249Y0203925D01*
X0043402Y0204690D01*
X0034353Y0204690D01*
X0032507Y0203925D01*
X0031093Y0202512D01*
X0030328Y0200665D01*
X0030328Y0198666D01*
X0031093Y0196819D01*
X0032507Y0195405D01*
X0034353Y0194640D01*
X0043402Y0194640D01*
X0045249Y0195405D01*
X0046054Y0196210D02*
X0119248Y0196210D01*
X0118711Y0197208D02*
X0046824Y0197208D01*
X0047238Y0198207D02*
X0114713Y0198207D01*
X0113714Y0199205D02*
X0047428Y0199205D01*
X0047428Y0200204D02*
X0112716Y0200204D01*
X0113248Y0202500D02*
X0109248Y0202500D01*
X0082248Y0202500D01*
X0077248Y0207500D01*
X0074443Y0206195D02*
X0002748Y0206195D01*
X0002748Y0207193D02*
X0074157Y0207193D01*
X0074189Y0208192D02*
X0002748Y0208192D01*
X0002748Y0209190D02*
X0074603Y0209190D01*
X0075664Y0210189D02*
X0002748Y0210189D01*
X0002748Y0211187D02*
X0118248Y0211187D01*
X0118248Y0212186D02*
X0031592Y0212186D01*
X0031143Y0212000D02*
X0032797Y0212685D01*
X0034063Y0213951D01*
X0034748Y0215605D01*
X0034748Y0217395D01*
X0034063Y0219049D01*
X0032797Y0220315D01*
X0031143Y0221000D01*
X0023353Y0221000D01*
X0021699Y0220315D01*
X0020433Y0219049D01*
X0019748Y0217395D01*
X0019748Y0215605D01*
X0020433Y0213951D01*
X0021699Y0212685D01*
X0023353Y0212000D01*
X0031143Y0212000D01*
X0033296Y0213184D02*
X0118248Y0213184D01*
X0118248Y0214183D02*
X0034159Y0214183D01*
X0034573Y0215181D02*
X0118248Y0215181D01*
X0118248Y0216180D02*
X0034748Y0216180D01*
X0034748Y0217178D02*
X0118248Y0217178D01*
X0118248Y0218177D02*
X0034424Y0218177D01*
X0033937Y0219175D02*
X0118248Y0219175D01*
X0118248Y0220174D02*
X0032938Y0220174D01*
X0031556Y0222171D02*
X0118248Y0222171D01*
X0118248Y0221172D02*
X0002748Y0221172D01*
X0002748Y0220174D02*
X0021558Y0220174D01*
X0020560Y0219175D02*
X0002748Y0219175D01*
X0002748Y0218177D02*
X0020072Y0218177D01*
X0019748Y0217178D02*
X0002748Y0217178D01*
X0002748Y0216180D02*
X0019748Y0216180D01*
X0019923Y0215181D02*
X0002748Y0215181D01*
X0002748Y0214183D02*
X0020337Y0214183D01*
X0021200Y0213184D02*
X0002748Y0213184D01*
X0002748Y0212186D02*
X0022904Y0212186D01*
X0023353Y0222000D02*
X0031143Y0222000D01*
X0032797Y0222685D01*
X0034063Y0223951D01*
X0034748Y0225605D01*
X0034748Y0227395D01*
X0034063Y0229049D01*
X0032797Y0230315D01*
X0031143Y0231000D01*
X0023353Y0231000D01*
X0021699Y0230315D01*
X0020433Y0229049D01*
X0019748Y0227395D01*
X0019748Y0225605D01*
X0020433Y0223951D01*
X0021699Y0222685D01*
X0023353Y0222000D01*
X0022940Y0222171D02*
X0002748Y0222171D01*
X0002748Y0223170D02*
X0021215Y0223170D01*
X0020343Y0224168D02*
X0002748Y0224168D01*
X0002748Y0225167D02*
X0019930Y0225167D01*
X0019748Y0226165D02*
X0002748Y0226165D01*
X0002748Y0227164D02*
X0019748Y0227164D01*
X0020066Y0228162D02*
X0002748Y0228162D01*
X0002748Y0229161D02*
X0020545Y0229161D01*
X0021543Y0230159D02*
X0002748Y0230159D01*
X0002748Y0231158D02*
X0118248Y0231158D01*
X0118248Y0232156D02*
X0031520Y0232156D01*
X0033267Y0233155D02*
X0118248Y0233155D01*
X0118248Y0234153D02*
X0034147Y0234153D01*
X0034560Y0235152D02*
X0118248Y0235152D01*
X0118248Y0236150D02*
X0034748Y0236150D01*
X0034748Y0237149D02*
X0118248Y0237149D01*
X0118248Y0238147D02*
X0034437Y0238147D01*
X0033966Y0239146D02*
X0118248Y0239146D01*
X0118248Y0240144D02*
X0043721Y0240144D01*
X0044719Y0241143D02*
X0118248Y0241143D01*
X0118248Y0242141D02*
X0045718Y0242141D01*
X0046716Y0243140D02*
X0118248Y0243140D01*
X0118248Y0244138D02*
X0047715Y0244138D01*
X0048713Y0245137D02*
X0118248Y0245137D01*
X0118248Y0246135D02*
X0049712Y0246135D01*
X0050710Y0247134D02*
X0118248Y0247134D01*
X0118248Y0248132D02*
X0051709Y0248132D01*
X0052707Y0249131D02*
X0118248Y0249131D01*
X0118248Y0250129D02*
X0053706Y0250129D01*
X0054704Y0251128D02*
X0118248Y0251128D01*
X0118248Y0252126D02*
X0055703Y0252126D01*
X0056701Y0253125D02*
X0117795Y0253125D01*
X0118248Y0255500D02*
X0120248Y0253500D01*
X0120248Y0211500D01*
X0125248Y0206500D01*
X0125248Y0152500D01*
X0130248Y0147500D01*
X0135248Y0147500D01*
X0138248Y0144500D01*
X0133048Y0144287D02*
X0129248Y0144287D01*
X0129248Y0143289D02*
X0133121Y0143289D01*
X0133535Y0142290D02*
X0129248Y0142290D01*
X0129248Y0141292D02*
X0134103Y0141292D01*
X0135101Y0140293D02*
X0129248Y0140293D01*
X0129248Y0139295D02*
X0136235Y0139295D01*
X0134690Y0138296D02*
X0129248Y0138296D01*
X0129248Y0137298D02*
X0133778Y0137298D01*
X0133365Y0136299D02*
X0129248Y0136299D01*
X0129248Y0135301D02*
X0133048Y0135301D01*
X0133048Y0134302D02*
X0129248Y0134302D01*
X0129248Y0133303D02*
X0133115Y0133303D01*
X0133529Y0132305D02*
X0129248Y0132305D01*
X0129248Y0131306D02*
X0134088Y0131306D01*
X0135086Y0130308D02*
X0131898Y0130308D01*
X0123222Y0134302D02*
X0002748Y0134302D01*
X0002748Y0133303D02*
X0122223Y0133303D01*
X0121225Y0132305D02*
X0002748Y0132305D01*
X0002748Y0135301D02*
X0123248Y0135301D01*
X0123248Y0136299D02*
X0045204Y0136299D01*
X0045328Y0136350D02*
X0046742Y0137764D01*
X0047507Y0139611D01*
X0047507Y0141610D01*
X0046742Y0143457D01*
X0045328Y0144870D01*
X0043481Y0145635D01*
X0034432Y0145635D01*
X0032585Y0144870D01*
X0031172Y0143457D01*
X0030407Y0141610D01*
X0030407Y0139611D01*
X0031172Y0137764D01*
X0032585Y0136350D01*
X0034432Y0135585D01*
X0043481Y0135585D01*
X0045328Y0136350D01*
X0046275Y0137298D02*
X0123248Y0137298D01*
X0123248Y0138296D02*
X0046962Y0138296D01*
X0047376Y0139295D02*
X0123248Y0139295D01*
X0123248Y0140293D02*
X0047507Y0140293D01*
X0047507Y0141292D02*
X0123248Y0141292D01*
X0123248Y0142290D02*
X0047225Y0142290D01*
X0046811Y0143289D02*
X0123248Y0143289D01*
X0123248Y0144287D02*
X0045911Y0144287D01*
X0044325Y0145286D02*
X0123248Y0145286D01*
X0122635Y0146284D02*
X0002748Y0146284D01*
X0002748Y0145286D02*
X0033588Y0145286D01*
X0032002Y0144287D02*
X0002748Y0144287D01*
X0002748Y0143289D02*
X0031102Y0143289D01*
X0030688Y0142290D02*
X0002748Y0142290D01*
X0002748Y0141292D02*
X0030407Y0141292D01*
X0030407Y0140293D02*
X0002748Y0140293D01*
X0002748Y0139295D02*
X0030538Y0139295D01*
X0030951Y0138296D02*
X0002748Y0138296D01*
X0002748Y0137298D02*
X0031638Y0137298D01*
X0032709Y0136299D02*
X0002748Y0136299D01*
X0002748Y0147283D02*
X0121637Y0147283D01*
X0120638Y0148281D02*
X0002748Y0148281D01*
X0002748Y0149280D02*
X0119640Y0149280D01*
X0119248Y0150278D02*
X0002748Y0150278D01*
X0002748Y0151277D02*
X0119248Y0151277D01*
X0119248Y0152275D02*
X0002748Y0152275D01*
X0002748Y0153274D02*
X0119248Y0153274D01*
X0119248Y0154272D02*
X0002748Y0154272D01*
X0002748Y0155271D02*
X0034431Y0155271D01*
X0034432Y0155270D02*
X0032585Y0156035D01*
X0031172Y0157449D01*
X0030407Y0159296D01*
X0030407Y0161295D01*
X0031172Y0163142D01*
X0032585Y0164555D01*
X0034432Y0165320D01*
X0043481Y0165320D01*
X0045328Y0164555D01*
X0046742Y0163142D01*
X0047507Y0161295D01*
X0047507Y0159296D01*
X0046742Y0157449D01*
X0045328Y0156035D01*
X0043481Y0155270D01*
X0034432Y0155270D01*
X0032351Y0156269D02*
X0002748Y0156269D01*
X0002748Y0157268D02*
X0031353Y0157268D01*
X0030833Y0158266D02*
X0002748Y0158266D01*
X0002748Y0159265D02*
X0030420Y0159265D01*
X0030407Y0160263D02*
X0002748Y0160263D01*
X0002748Y0161262D02*
X0030407Y0161262D01*
X0030807Y0162260D02*
X0002748Y0162260D01*
X0002748Y0163259D02*
X0031289Y0163259D01*
X0032287Y0164257D02*
X0002748Y0164257D01*
X0002748Y0165256D02*
X0034277Y0165256D01*
X0043637Y0165256D02*
X0119248Y0165256D01*
X0119248Y0166254D02*
X0002748Y0166254D01*
X0002748Y0195211D02*
X0032975Y0195211D01*
X0031702Y0196210D02*
X0002748Y0196210D01*
X0002748Y0197208D02*
X0030932Y0197208D01*
X0030518Y0198207D02*
X0002748Y0198207D01*
X0002748Y0199205D02*
X0030328Y0199205D01*
X0030328Y0200204D02*
X0002748Y0200204D01*
X0002748Y0201202D02*
X0030551Y0201202D01*
X0030964Y0202201D02*
X0002748Y0202201D01*
X0002748Y0203199D02*
X0031780Y0203199D01*
X0033164Y0204198D02*
X0002748Y0204198D01*
X0002748Y0205196D02*
X0075181Y0205196D01*
X0077722Y0204198D02*
X0044592Y0204198D01*
X0045975Y0203199D02*
X0078720Y0203199D01*
X0079719Y0202201D02*
X0046792Y0202201D01*
X0047205Y0201202D02*
X0080717Y0201202D01*
X0080383Y0207193D02*
X0121726Y0207193D01*
X0122725Y0206195D02*
X0118818Y0206195D01*
X0120728Y0208192D02*
X0080307Y0208192D01*
X0079893Y0209190D02*
X0119729Y0209190D01*
X0119420Y0209500D02*
X0119420Y0209500D01*
X0118731Y0210189D02*
X0078833Y0210189D01*
X0118248Y0223170D02*
X0033282Y0223170D01*
X0034153Y0224168D02*
X0118248Y0224168D01*
X0118248Y0225167D02*
X0034566Y0225167D01*
X0034748Y0226165D02*
X0118248Y0226165D01*
X0118248Y0227164D02*
X0034748Y0227164D01*
X0034430Y0228162D02*
X0118248Y0228162D01*
X0118248Y0229161D02*
X0033951Y0229161D01*
X0032953Y0230159D02*
X0118248Y0230159D01*
X0128248Y0230159D02*
X0298638Y0230159D01*
X0298770Y0229841D02*
X0300289Y0228322D01*
X0302274Y0227500D01*
X0312222Y0227500D01*
X0314207Y0228322D01*
X0315726Y0229841D01*
X0316548Y0231826D01*
X0316548Y0233974D01*
X0315726Y0235959D01*
X0314207Y0237478D01*
X0312222Y0238300D01*
X0302274Y0238300D01*
X0300289Y0237478D01*
X0298770Y0235959D01*
X0297948Y0233974D01*
X0297948Y0231826D01*
X0298770Y0229841D01*
X0299451Y0229161D02*
X0128248Y0229161D01*
X0128248Y0228162D02*
X0300676Y0228162D01*
X0298225Y0231158D02*
X0128248Y0231158D01*
X0128248Y0232156D02*
X0241675Y0232156D01*
X0241899Y0231993D02*
X0242474Y0231700D01*
X0243088Y0231501D01*
X0243725Y0231400D01*
X0248948Y0231400D01*
X0248948Y0235200D01*
X0239948Y0235200D01*
X0239948Y0235177D01*
X0240049Y0234540D01*
X0240248Y0233926D01*
X0240541Y0233351D01*
X0240921Y0232829D01*
X0241377Y0232373D01*
X0241899Y0231993D01*
X0240684Y0233155D02*
X0128248Y0233155D01*
X0128248Y0234153D02*
X0240175Y0234153D01*
X0239952Y0235152D02*
X0128248Y0235152D01*
X0128248Y0236150D02*
X0240000Y0236150D01*
X0240049Y0236460D02*
X0239948Y0235823D01*
X0239948Y0235800D01*
X0248948Y0235800D01*
X0248948Y0235200D01*
X0249548Y0235200D01*
X0249548Y0231400D01*
X0249571Y0231400D01*
X0250208Y0231501D01*
X0250822Y0231700D01*
X0251397Y0231993D01*
X0251919Y0232373D01*
X0252375Y0232829D01*
X0252755Y0233351D01*
X0253048Y0233926D01*
X0253247Y0234540D01*
X0253348Y0235177D01*
X0253348Y0235200D01*
X0249548Y0235200D01*
X0249548Y0235800D01*
X0248948Y0235800D01*
X0248948Y0239600D01*
X0243725Y0239600D01*
X0243088Y0239499D01*
X0242474Y0239300D01*
X0241899Y0239007D01*
X0241377Y0238627D01*
X0240921Y0238171D01*
X0240541Y0237649D01*
X0240248Y0237074D01*
X0240049Y0236460D01*
X0240287Y0237149D02*
X0128248Y0237149D01*
X0128248Y0238147D02*
X0240903Y0238147D01*
X0242172Y0239146D02*
X0128248Y0239146D01*
X0128248Y0240144D02*
X0368190Y0240144D01*
X0367191Y0239146D02*
X0286360Y0239146D01*
X0286770Y0238976D02*
X0285264Y0239600D01*
X0278432Y0239600D01*
X0276926Y0238976D01*
X0275772Y0237822D01*
X0275148Y0236316D01*
X0275148Y0234684D01*
X0275772Y0233178D01*
X0276926Y0232024D01*
X0278432Y0231400D01*
X0285264Y0231400D01*
X0286770Y0232024D01*
X0287924Y0233178D01*
X0288548Y0234684D01*
X0288548Y0236316D01*
X0287924Y0237822D01*
X0286770Y0238976D01*
X0287599Y0238147D02*
X0301905Y0238147D01*
X0299960Y0237149D02*
X0288203Y0237149D01*
X0288548Y0236150D02*
X0298961Y0236150D01*
X0298436Y0235152D02*
X0288548Y0235152D01*
X0288328Y0234153D02*
X0298022Y0234153D01*
X0297948Y0233155D02*
X0287901Y0233155D01*
X0286902Y0232156D02*
X0297948Y0232156D01*
X0287886Y0243140D02*
X0371185Y0243140D01*
X0371831Y0243785D02*
X0366746Y0238700D01*
X0354094Y0238700D01*
X0353129Y0238300D01*
X0350274Y0238300D01*
X0348289Y0237478D01*
X0346770Y0235959D01*
X0345948Y0233974D01*
X0345948Y0231826D01*
X0346770Y0229841D01*
X0348289Y0228322D01*
X0350274Y0227500D01*
X0353129Y0227500D01*
X0354094Y0227100D01*
X0370302Y0227100D01*
X0372433Y0227983D01*
X0379150Y0234700D01*
X0394604Y0234700D01*
X0394661Y0234676D01*
X0396969Y0234676D01*
X0398840Y0235451D01*
X0400339Y0235451D01*
X0402186Y0236216D01*
X0403600Y0237630D01*
X0404365Y0239477D01*
X0404365Y0241476D01*
X0403600Y0243323D01*
X0402186Y0244736D01*
X0400339Y0245501D01*
X0398873Y0245501D01*
X0396945Y0246300D01*
X0375594Y0246300D01*
X0373463Y0245417D01*
X0371831Y0243785D01*
X0372184Y0244138D02*
X0288322Y0244138D01*
X0288548Y0244684D02*
X0288548Y0246316D01*
X0287924Y0247822D01*
X0286770Y0248976D01*
X0285264Y0249600D01*
X0278432Y0249600D01*
X0276926Y0248976D01*
X0275772Y0247822D01*
X0275148Y0246316D01*
X0275148Y0244684D01*
X0275772Y0243178D01*
X0276926Y0242024D01*
X0278432Y0241400D01*
X0285264Y0241400D01*
X0286770Y0242024D01*
X0287924Y0243178D01*
X0288548Y0244684D01*
X0288548Y0245137D02*
X0373182Y0245137D01*
X0375197Y0246135D02*
X0288548Y0246135D01*
X0288209Y0247134D02*
X0432748Y0247134D01*
X0432748Y0248132D02*
X0287614Y0248132D01*
X0286396Y0249131D02*
X0432748Y0249131D01*
X0432748Y0250129D02*
X0306727Y0250129D01*
X0305631Y0249675D02*
X0308105Y0250700D01*
X0379202Y0250700D01*
X0381333Y0251583D01*
X0384150Y0254400D01*
X0394568Y0254400D01*
X0394661Y0254361D01*
X0396969Y0254361D01*
X0398840Y0255136D01*
X0400339Y0255136D01*
X0402186Y0255901D01*
X0403600Y0257315D01*
X0404365Y0259162D01*
X0404365Y0261161D01*
X0403600Y0263008D01*
X0402186Y0264421D01*
X0400339Y0265186D01*
X0398894Y0265186D01*
X0396930Y0266000D01*
X0380594Y0266000D01*
X0378463Y0265117D01*
X0376831Y0263485D01*
X0375646Y0262300D01*
X0308105Y0262300D01*
X0305631Y0263325D01*
X0292265Y0263325D01*
X0289757Y0262286D01*
X0287837Y0260366D01*
X0286798Y0257858D01*
X0286798Y0255142D01*
X0287837Y0252634D01*
X0289757Y0250714D01*
X0292265Y0249675D01*
X0305631Y0249675D01*
X0306150Y0263110D02*
X0376456Y0263110D01*
X0377454Y0264108D02*
X0128248Y0264108D01*
X0128248Y0263110D02*
X0291746Y0263110D01*
X0289582Y0262111D02*
X0128248Y0262111D01*
X0128248Y0261113D02*
X0288584Y0261113D01*
X0287733Y0260114D02*
X0128248Y0260114D01*
X0128248Y0259116D02*
X0287319Y0259116D01*
X0286906Y0258117D02*
X0128248Y0258117D01*
X0128248Y0257119D02*
X0286798Y0257119D01*
X0286798Y0256120D02*
X0128248Y0256120D01*
X0128248Y0255122D02*
X0286807Y0255122D01*
X0287220Y0254123D02*
X0128248Y0254123D01*
X0128248Y0253125D02*
X0287634Y0253125D01*
X0288345Y0252126D02*
X0128248Y0252126D01*
X0128248Y0251128D02*
X0289343Y0251128D01*
X0291169Y0250129D02*
X0128248Y0250129D01*
X0128248Y0249131D02*
X0242100Y0249131D01*
X0241726Y0248976D02*
X0240572Y0247822D01*
X0239948Y0246316D01*
X0239948Y0244684D01*
X0240572Y0243178D01*
X0241726Y0242024D01*
X0243232Y0241400D01*
X0250064Y0241400D01*
X0251570Y0242024D01*
X0252724Y0243178D01*
X0253348Y0244684D01*
X0253348Y0246316D01*
X0252724Y0247822D01*
X0251570Y0248976D01*
X0250064Y0249600D01*
X0243232Y0249600D01*
X0241726Y0248976D01*
X0240882Y0248132D02*
X0128248Y0248132D01*
X0128248Y0247134D02*
X0240287Y0247134D01*
X0239948Y0246135D02*
X0128248Y0246135D01*
X0128248Y0245137D02*
X0239948Y0245137D01*
X0240174Y0244138D02*
X0128248Y0244138D01*
X0128248Y0243140D02*
X0240610Y0243140D01*
X0241609Y0242141D02*
X0128248Y0242141D01*
X0128248Y0241143D02*
X0369188Y0241143D01*
X0370187Y0242141D02*
X0286888Y0242141D01*
X0277336Y0239146D02*
X0251124Y0239146D01*
X0251397Y0239007D02*
X0250822Y0239300D01*
X0250208Y0239499D01*
X0249571Y0239600D01*
X0249548Y0239600D01*
X0249548Y0235800D01*
X0253348Y0235800D01*
X0253348Y0235823D01*
X0253247Y0236460D01*
X0253048Y0237074D01*
X0252755Y0237649D01*
X0252375Y0238171D01*
X0251919Y0238627D01*
X0251397Y0239007D01*
X0252393Y0238147D02*
X0276097Y0238147D01*
X0275493Y0237149D02*
X0253010Y0237149D01*
X0253296Y0236150D02*
X0275148Y0236150D01*
X0275148Y0235152D02*
X0253344Y0235152D01*
X0253121Y0234153D02*
X0275368Y0234153D01*
X0275795Y0233155D02*
X0252612Y0233155D01*
X0251621Y0232156D02*
X0276794Y0232156D01*
X0276809Y0242141D02*
X0251688Y0242141D01*
X0252686Y0243140D02*
X0275810Y0243140D01*
X0275374Y0244138D02*
X0253122Y0244138D01*
X0253348Y0245137D02*
X0275148Y0245137D01*
X0275148Y0246135D02*
X0253348Y0246135D01*
X0253009Y0247134D02*
X0275487Y0247134D01*
X0276082Y0248132D02*
X0252414Y0248132D01*
X0251196Y0249131D02*
X0277300Y0249131D01*
X0249548Y0239146D02*
X0248948Y0239146D01*
X0248948Y0238147D02*
X0249548Y0238147D01*
X0249548Y0237149D02*
X0248948Y0237149D01*
X0248948Y0236150D02*
X0249548Y0236150D01*
X0249548Y0235152D02*
X0248948Y0235152D01*
X0248948Y0234153D02*
X0249548Y0234153D01*
X0249548Y0233155D02*
X0248948Y0233155D01*
X0248948Y0232156D02*
X0249548Y0232156D01*
X0298367Y0212186D02*
X0131391Y0212186D01*
X0132389Y0211187D02*
X0297954Y0211187D01*
X0297948Y0211174D02*
X0297948Y0209026D01*
X0298770Y0207041D01*
X0300289Y0205522D01*
X0302274Y0204700D01*
X0312222Y0204700D01*
X0314207Y0205522D01*
X0315726Y0207041D01*
X0316548Y0209026D01*
X0316548Y0211174D01*
X0315726Y0213159D01*
X0314207Y0214678D01*
X0312222Y0215500D01*
X0302274Y0215500D01*
X0300289Y0214678D01*
X0298770Y0213159D01*
X0297948Y0211174D01*
X0297948Y0210189D02*
X0133248Y0210189D01*
X0133248Y0209190D02*
X0297948Y0209190D01*
X0298293Y0208192D02*
X0133248Y0208192D01*
X0133248Y0207193D02*
X0298707Y0207193D01*
X0299616Y0206195D02*
X0133248Y0206195D01*
X0133248Y0205196D02*
X0301076Y0205196D01*
X0298796Y0213184D02*
X0130392Y0213184D01*
X0129394Y0214183D02*
X0299794Y0214183D01*
X0301505Y0215181D02*
X0128395Y0215181D01*
X0128248Y0216180D02*
X0368826Y0216180D01*
X0368546Y0215900D02*
X0354094Y0215900D01*
X0353129Y0215500D01*
X0350274Y0215500D01*
X0348289Y0214678D01*
X0346770Y0213159D01*
X0345948Y0211174D01*
X0345948Y0209026D01*
X0346770Y0207041D01*
X0348289Y0205522D01*
X0350274Y0204700D01*
X0353129Y0204700D01*
X0354094Y0204300D01*
X0372102Y0204300D01*
X0374233Y0205183D01*
X0384050Y0215000D01*
X0394640Y0215000D01*
X0394661Y0214991D01*
X0396969Y0214991D01*
X0398840Y0215766D01*
X0400339Y0215766D01*
X0402186Y0216531D01*
X0403600Y0217945D01*
X0404365Y0219792D01*
X0404365Y0221791D01*
X0403600Y0223638D01*
X0402186Y0225051D01*
X0400339Y0225816D01*
X0398852Y0225816D01*
X0396960Y0226600D01*
X0380494Y0226600D01*
X0378363Y0225717D01*
X0376731Y0224085D01*
X0368546Y0215900D01*
X0369824Y0217178D02*
X0128248Y0217178D01*
X0128248Y0218177D02*
X0370823Y0218177D01*
X0371821Y0219175D02*
X0128248Y0219175D01*
X0128248Y0220174D02*
X0372820Y0220174D01*
X0373818Y0221172D02*
X0128248Y0221172D01*
X0128248Y0222171D02*
X0374817Y0222171D01*
X0375815Y0223170D02*
X0128248Y0223170D01*
X0128248Y0224168D02*
X0376814Y0224168D01*
X0377812Y0225167D02*
X0128248Y0225167D01*
X0128248Y0226165D02*
X0379444Y0226165D01*
X0374610Y0230159D02*
X0432748Y0230159D01*
X0432748Y0229161D02*
X0373611Y0229161D01*
X0372613Y0228162D02*
X0432748Y0228162D01*
X0432748Y0227164D02*
X0370455Y0227164D01*
X0375608Y0231158D02*
X0432748Y0231158D01*
X0432748Y0232156D02*
X0376607Y0232156D01*
X0377605Y0233155D02*
X0432748Y0233155D01*
X0432748Y0234153D02*
X0378604Y0234153D01*
X0398116Y0235152D02*
X0432748Y0235152D01*
X0432748Y0236150D02*
X0402027Y0236150D01*
X0403119Y0237149D02*
X0432748Y0237149D01*
X0432748Y0238147D02*
X0403814Y0238147D01*
X0404228Y0239146D02*
X0432748Y0239146D01*
X0432748Y0240144D02*
X0404365Y0240144D01*
X0404365Y0241143D02*
X0432748Y0241143D01*
X0432748Y0242141D02*
X0404089Y0242141D01*
X0403676Y0243140D02*
X0432748Y0243140D01*
X0432748Y0244138D02*
X0402784Y0244138D01*
X0401220Y0245137D02*
X0432748Y0245137D01*
X0432748Y0246135D02*
X0397343Y0246135D01*
X0398805Y0255122D02*
X0432748Y0255122D01*
X0432748Y0256120D02*
X0402405Y0256120D01*
X0403404Y0257119D02*
X0432748Y0257119D01*
X0432748Y0258117D02*
X0403932Y0258117D01*
X0404346Y0259116D02*
X0432748Y0259116D01*
X0432748Y0260114D02*
X0404365Y0260114D01*
X0404365Y0261113D02*
X0432748Y0261113D01*
X0432748Y0262111D02*
X0403971Y0262111D01*
X0403498Y0263110D02*
X0432748Y0263110D01*
X0432748Y0264108D02*
X0402499Y0264108D01*
X0400531Y0265107D02*
X0432748Y0265107D01*
X0432748Y0266105D02*
X0128248Y0266105D01*
X0128248Y0265107D02*
X0378453Y0265107D01*
X0383874Y0254123D02*
X0432748Y0254123D01*
X0432748Y0253125D02*
X0382875Y0253125D01*
X0381877Y0252126D02*
X0432748Y0252126D01*
X0432748Y0251128D02*
X0380235Y0251128D01*
X0349905Y0238147D02*
X0312591Y0238147D01*
X0314536Y0237149D02*
X0347960Y0237149D01*
X0346961Y0236150D02*
X0315535Y0236150D01*
X0316060Y0235152D02*
X0346436Y0235152D01*
X0346022Y0234153D02*
X0316474Y0234153D01*
X0316548Y0233155D02*
X0345948Y0233155D01*
X0345948Y0232156D02*
X0316548Y0232156D01*
X0316271Y0231158D02*
X0346225Y0231158D01*
X0346638Y0230159D02*
X0315858Y0230159D01*
X0315045Y0229161D02*
X0347451Y0229161D01*
X0348676Y0228162D02*
X0313821Y0228162D01*
X0312991Y0215181D02*
X0349505Y0215181D01*
X0347794Y0214183D02*
X0314702Y0214183D01*
X0315700Y0213184D02*
X0346796Y0213184D01*
X0346367Y0212186D02*
X0316129Y0212186D01*
X0316543Y0211187D02*
X0345954Y0211187D01*
X0345948Y0210189D02*
X0316548Y0210189D01*
X0316548Y0209190D02*
X0345948Y0209190D01*
X0346293Y0208192D02*
X0316203Y0208192D01*
X0315789Y0207193D02*
X0346707Y0207193D01*
X0347616Y0206195D02*
X0314880Y0206195D01*
X0313420Y0205196D02*
X0349076Y0205196D01*
X0363460Y0193214D02*
X0305898Y0193214D01*
X0305631Y0193325D02*
X0308105Y0192300D01*
X0362546Y0192300D01*
X0374631Y0204385D01*
X0376263Y0206017D01*
X0378394Y0206900D01*
X0394646Y0206900D01*
X0394661Y0206906D01*
X0396969Y0206906D01*
X0398840Y0206131D01*
X0400339Y0206131D01*
X0402186Y0205366D01*
X0403600Y0203953D01*
X0404365Y0202106D01*
X0404365Y0200107D01*
X0403600Y0198260D01*
X0402186Y0196846D01*
X0400339Y0196081D01*
X0398849Y0196081D01*
X0396962Y0195300D01*
X0381950Y0195300D01*
X0368233Y0181583D01*
X0366102Y0180700D01*
X0308105Y0180700D01*
X0305631Y0179675D01*
X0292265Y0179675D01*
X0289757Y0180714D01*
X0287837Y0182634D01*
X0286798Y0185142D01*
X0286798Y0187858D01*
X0287837Y0190366D01*
X0289757Y0192286D01*
X0292265Y0193325D01*
X0305631Y0193325D01*
X0291998Y0193214D02*
X0133248Y0193214D01*
X0133248Y0192216D02*
X0289687Y0192216D01*
X0288688Y0191217D02*
X0133248Y0191217D01*
X0133248Y0190219D02*
X0287776Y0190219D01*
X0287362Y0189220D02*
X0133248Y0189220D01*
X0133248Y0188222D02*
X0286949Y0188222D01*
X0286798Y0187223D02*
X0133248Y0187223D01*
X0133248Y0186225D02*
X0286798Y0186225D01*
X0286798Y0185226D02*
X0133248Y0185226D01*
X0133248Y0184228D02*
X0287177Y0184228D01*
X0287591Y0183229D02*
X0133248Y0183229D01*
X0133248Y0182231D02*
X0288240Y0182231D01*
X0289239Y0181232D02*
X0133248Y0181232D01*
X0133248Y0180234D02*
X0290917Y0180234D01*
X0287510Y0178237D02*
X0372182Y0178237D01*
X0373181Y0179235D02*
X0286145Y0179235D01*
X0288166Y0177238D02*
X0371184Y0177238D01*
X0370185Y0176239D02*
X0288548Y0176239D01*
X0288548Y0175241D02*
X0369187Y0175241D01*
X0368188Y0174242D02*
X0288365Y0174242D01*
X0287951Y0173244D02*
X0367190Y0173244D01*
X0374179Y0180234D02*
X0306979Y0180234D01*
X0364458Y0194213D02*
X0133248Y0194213D01*
X0133248Y0195211D02*
X0365457Y0195211D01*
X0366455Y0196210D02*
X0133248Y0196210D01*
X0133248Y0197208D02*
X0367454Y0197208D01*
X0368452Y0198207D02*
X0133248Y0198207D01*
X0133248Y0199205D02*
X0369451Y0199205D01*
X0370449Y0200204D02*
X0133248Y0200204D01*
X0133248Y0201202D02*
X0371448Y0201202D01*
X0372446Y0202201D02*
X0133248Y0202201D01*
X0133248Y0203199D02*
X0373445Y0203199D01*
X0374443Y0204198D02*
X0133248Y0204198D01*
X0127248Y0207500D02*
X0122248Y0212500D01*
X0122248Y0254500D01*
X0119248Y0257500D01*
X0055248Y0257500D01*
X0041248Y0243500D01*
X0030248Y0243500D01*
X0027248Y0246500D01*
X0029420Y0241500D02*
X0029420Y0241500D01*
X0029062Y0241143D02*
X0002748Y0241143D01*
X0002748Y0242141D02*
X0023012Y0242141D01*
X0021244Y0243140D02*
X0002748Y0243140D01*
X0002748Y0244138D02*
X0020356Y0244138D01*
X0019942Y0245137D02*
X0002748Y0245137D01*
X0002748Y0246135D02*
X0019748Y0246135D01*
X0019748Y0247134D02*
X0002748Y0247134D01*
X0002748Y0248132D02*
X0020053Y0248132D01*
X0020515Y0249131D02*
X0002748Y0249131D01*
X0002748Y0250129D02*
X0021513Y0250129D01*
X0022521Y0252330D02*
X0021890Y0252651D01*
X0021316Y0253068D01*
X0020816Y0253568D01*
X0020399Y0254141D01*
X0020078Y0254773D01*
X0019859Y0255446D01*
X0019771Y0256000D01*
X0026748Y0256000D01*
X0026748Y0257000D01*
X0019771Y0257000D01*
X0019859Y0257554D01*
X0020078Y0258227D01*
X0020399Y0258859D01*
X0020816Y0259432D01*
X0021316Y0259932D01*
X0021890Y0260349D01*
X0022521Y0260670D01*
X0023194Y0260889D01*
X0023894Y0261000D01*
X0026748Y0261000D01*
X0026748Y0257000D01*
X0027748Y0257000D01*
X0027748Y0261000D01*
X0030602Y0261000D01*
X0031302Y0260889D01*
X0031975Y0260670D01*
X0032607Y0260349D01*
X0033180Y0259932D01*
X0033680Y0259432D01*
X0034097Y0258859D01*
X0034418Y0258227D01*
X0034637Y0257554D01*
X0034725Y0257000D01*
X0027748Y0257000D01*
X0027748Y0256000D01*
X0027748Y0252000D01*
X0030602Y0252000D01*
X0031302Y0252111D01*
X0031975Y0252330D01*
X0032607Y0252651D01*
X0033180Y0253068D01*
X0033680Y0253568D01*
X0034097Y0254141D01*
X0034418Y0254773D01*
X0034637Y0255446D01*
X0034725Y0256000D01*
X0027748Y0256000D01*
X0026748Y0256000D01*
X0026748Y0252000D01*
X0023894Y0252000D01*
X0023194Y0252111D01*
X0022521Y0252330D01*
X0023146Y0252126D02*
X0002748Y0252126D01*
X0002748Y0251128D02*
X0046047Y0251128D01*
X0045049Y0250129D02*
X0032983Y0250129D01*
X0033981Y0249131D02*
X0044050Y0249131D01*
X0043052Y0248132D02*
X0034443Y0248132D01*
X0034748Y0247134D02*
X0042053Y0247134D01*
X0041055Y0246135D02*
X0034748Y0246135D01*
X0032248Y0241500D02*
X0027248Y0236500D01*
X0022976Y0232156D02*
X0002748Y0232156D01*
X0002748Y0233155D02*
X0021229Y0233155D01*
X0020349Y0234153D02*
X0002748Y0234153D01*
X0002748Y0235152D02*
X0019936Y0235152D01*
X0019748Y0236150D02*
X0002748Y0236150D01*
X0002748Y0237149D02*
X0019748Y0237149D01*
X0020060Y0238147D02*
X0002748Y0238147D01*
X0002748Y0239146D02*
X0020530Y0239146D01*
X0021528Y0240144D02*
X0002748Y0240144D01*
X0002748Y0253125D02*
X0021259Y0253125D01*
X0020412Y0254123D02*
X0002748Y0254123D01*
X0002748Y0255122D02*
X0019964Y0255122D01*
X0019790Y0257119D02*
X0002748Y0257119D01*
X0002748Y0258117D02*
X0020042Y0258117D01*
X0020586Y0259116D02*
X0002748Y0259116D01*
X0002748Y0260114D02*
X0021567Y0260114D01*
X0026748Y0260114D02*
X0027748Y0260114D01*
X0027748Y0259116D02*
X0026748Y0259116D01*
X0026748Y0258117D02*
X0027748Y0258117D01*
X0027748Y0257119D02*
X0026748Y0257119D01*
X0026748Y0256120D02*
X0002748Y0256120D01*
X0002748Y0261113D02*
X0100594Y0261113D01*
X0100594Y0262111D02*
X0002748Y0262111D01*
X0002748Y0263110D02*
X0100594Y0263110D01*
X0100594Y0264108D02*
X0002748Y0264108D01*
X0002748Y0265107D02*
X0100594Y0265107D01*
X0100594Y0266105D02*
X0002748Y0266105D01*
X0002748Y0267104D02*
X0100594Y0267104D01*
X0100594Y0268103D02*
X0002748Y0268103D01*
X0002748Y0269101D02*
X0100594Y0269101D01*
X0100594Y0270100D02*
X0040436Y0270100D01*
X0041351Y0270479D02*
X0043545Y0272673D01*
X0044732Y0275539D01*
X0044732Y0278642D01*
X0043545Y0281508D01*
X0041351Y0283702D01*
X0038484Y0284890D01*
X0035382Y0284890D01*
X0032515Y0283702D01*
X0030321Y0281508D01*
X0029134Y0278642D01*
X0029134Y0275539D01*
X0030321Y0272673D01*
X0032515Y0270479D01*
X0035382Y0269291D01*
X0038484Y0269291D01*
X0041351Y0270479D01*
X0041970Y0271098D02*
X0100594Y0271098D01*
X0099120Y0272097D02*
X0042969Y0272097D01*
X0043720Y0273095D02*
X0097289Y0273095D01*
X0096374Y0274094D02*
X0044133Y0274094D01*
X0044547Y0275092D02*
X0095960Y0275092D01*
X0095748Y0276091D02*
X0044732Y0276091D01*
X0044732Y0277089D02*
X0095748Y0277089D01*
X0096035Y0278088D02*
X0044732Y0278088D01*
X0044548Y0279086D02*
X0096470Y0279086D01*
X0097469Y0280085D02*
X0044135Y0280085D01*
X0043721Y0281083D02*
X0218929Y0281083D01*
X0218929Y0281642D02*
X0218929Y0278539D01*
X0220116Y0275673D01*
X0222310Y0273479D01*
X0225177Y0272291D01*
X0228280Y0272291D01*
X0231146Y0273479D01*
X0233340Y0275673D01*
X0234528Y0278539D01*
X0234528Y0281642D01*
X0233340Y0284508D01*
X0231146Y0286702D01*
X0228280Y0287890D01*
X0225177Y0287890D01*
X0222310Y0286702D01*
X0220116Y0284508D01*
X0218929Y0281642D01*
X0219111Y0282082D02*
X0201194Y0282082D01*
X0201112Y0282000D02*
X0203748Y0284636D01*
X0203748Y0288364D01*
X0201112Y0291000D01*
X0197384Y0291000D01*
X0194748Y0288364D01*
X0194748Y0284636D01*
X0197384Y0282000D01*
X0201112Y0282000D01*
X0201112Y0281000D02*
X0199748Y0281000D01*
X0199748Y0277000D01*
X0198748Y0277000D01*
X0198748Y0276000D01*
X0194748Y0276000D01*
X0194748Y0274636D01*
X0197384Y0272000D01*
X0198748Y0272000D01*
X0198748Y0276000D01*
X0199748Y0276000D01*
X0199748Y0272000D01*
X0201112Y0272000D01*
X0203748Y0274636D01*
X0203748Y0276000D01*
X0199748Y0276000D01*
X0199748Y0277000D01*
X0203748Y0277000D01*
X0203748Y0278364D01*
X0201112Y0281000D01*
X0202027Y0280085D02*
X0218929Y0280085D01*
X0218929Y0279086D02*
X0203026Y0279086D01*
X0203748Y0278088D02*
X0219116Y0278088D01*
X0219530Y0277089D02*
X0203748Y0277089D01*
X0203748Y0275092D02*
X0220697Y0275092D01*
X0219943Y0276091D02*
X0199748Y0276091D01*
X0199748Y0277089D02*
X0198748Y0277089D01*
X0198748Y0277000D02*
X0198748Y0281000D01*
X0197384Y0281000D01*
X0194748Y0278364D01*
X0194748Y0277000D01*
X0198748Y0277000D01*
X0198748Y0276091D02*
X0189748Y0276091D01*
X0189748Y0276000D02*
X0189748Y0277000D01*
X0188748Y0277000D01*
X0188748Y0276000D01*
X0184748Y0276000D01*
X0184748Y0274636D01*
X0187384Y0272000D01*
X0188748Y0272000D01*
X0188748Y0276000D01*
X0189748Y0276000D01*
X0189748Y0272000D01*
X0191112Y0272000D01*
X0193748Y0274636D01*
X0193748Y0276000D01*
X0189748Y0276000D01*
X0189748Y0275092D02*
X0188748Y0275092D01*
X0188748Y0274094D02*
X0189748Y0274094D01*
X0189748Y0273095D02*
X0188748Y0273095D01*
X0188748Y0272097D02*
X0189748Y0272097D01*
X0191209Y0272097D02*
X0197287Y0272097D01*
X0196289Y0273095D02*
X0192207Y0273095D01*
X0193206Y0274094D02*
X0195290Y0274094D01*
X0194748Y0275092D02*
X0193748Y0275092D01*
X0193748Y0277000D02*
X0189748Y0277000D01*
X0189748Y0281000D01*
X0191112Y0281000D01*
X0193748Y0278364D01*
X0193748Y0277000D01*
X0193748Y0277089D02*
X0194748Y0277089D01*
X0194748Y0278088D02*
X0193748Y0278088D01*
X0193026Y0279086D02*
X0195470Y0279086D01*
X0196469Y0280085D02*
X0192027Y0280085D01*
X0191112Y0282000D02*
X0193748Y0284636D01*
X0193748Y0288364D01*
X0191112Y0291000D01*
X0187384Y0291000D01*
X0184748Y0288364D01*
X0184748Y0284636D01*
X0187384Y0282000D01*
X0191112Y0282000D01*
X0191194Y0282082D02*
X0197302Y0282082D01*
X0196304Y0283080D02*
X0192192Y0283080D01*
X0193191Y0284079D02*
X0195305Y0284079D01*
X0194748Y0285077D02*
X0193748Y0285077D01*
X0193748Y0286076D02*
X0194748Y0286076D01*
X0194748Y0287074D02*
X0193748Y0287074D01*
X0193748Y0288073D02*
X0194748Y0288073D01*
X0195455Y0289071D02*
X0193041Y0289071D01*
X0192042Y0290070D02*
X0196454Y0290070D01*
X0202042Y0290070D02*
X0429811Y0290070D01*
X0431085Y0289071D02*
X0203041Y0289071D01*
X0203748Y0288073D02*
X0431811Y0288073D01*
X0432288Y0287074D02*
X0230249Y0287074D01*
X0231773Y0286076D02*
X0432613Y0286076D01*
X0432737Y0285077D02*
X0398343Y0285077D01*
X0398840Y0284871D02*
X0396969Y0285646D01*
X0357014Y0285646D01*
X0356402Y0285900D01*
X0354094Y0285900D01*
X0353129Y0285500D01*
X0350274Y0285500D01*
X0348289Y0284678D01*
X0346770Y0283159D01*
X0345948Y0281174D01*
X0345948Y0279026D01*
X0346770Y0277041D01*
X0348289Y0275522D01*
X0350274Y0274700D01*
X0352770Y0274700D01*
X0354348Y0274046D01*
X0396969Y0274046D01*
X0398840Y0274821D01*
X0400339Y0274821D01*
X0402186Y0275586D01*
X0403600Y0277000D01*
X0404365Y0278847D01*
X0404365Y0280846D01*
X0403600Y0282693D01*
X0402186Y0284106D01*
X0400339Y0284871D01*
X0398840Y0284871D01*
X0402214Y0284079D02*
X0432748Y0284079D01*
X0432748Y0283080D02*
X0403213Y0283080D01*
X0403853Y0282082D02*
X0432748Y0282082D01*
X0432748Y0281083D02*
X0404267Y0281083D01*
X0404365Y0280085D02*
X0432748Y0280085D01*
X0432748Y0279086D02*
X0404365Y0279086D01*
X0404050Y0278088D02*
X0432748Y0278088D01*
X0432748Y0277089D02*
X0403637Y0277089D01*
X0402691Y0276091D02*
X0432748Y0276091D01*
X0432748Y0275092D02*
X0400993Y0275092D01*
X0397082Y0274094D02*
X0432748Y0274094D01*
X0432748Y0273095D02*
X0230220Y0273095D01*
X0231761Y0274094D02*
X0354234Y0274094D01*
X0349327Y0275092D02*
X0313169Y0275092D01*
X0312222Y0274700D02*
X0314207Y0275522D01*
X0315726Y0277041D01*
X0316548Y0279026D01*
X0316548Y0281174D01*
X0315726Y0283159D01*
X0314207Y0284678D01*
X0312222Y0285500D01*
X0302274Y0285500D01*
X0300289Y0284678D01*
X0298770Y0283159D01*
X0297948Y0281174D01*
X0297948Y0279026D01*
X0298770Y0277041D01*
X0300289Y0275522D01*
X0302274Y0274700D01*
X0312222Y0274700D01*
X0314775Y0276091D02*
X0347721Y0276091D01*
X0346750Y0277089D02*
X0315746Y0277089D01*
X0316159Y0278088D02*
X0346337Y0278088D01*
X0345948Y0279086D02*
X0316548Y0279086D01*
X0316548Y0280085D02*
X0345948Y0280085D01*
X0345948Y0281083D02*
X0316548Y0281083D01*
X0316172Y0282082D02*
X0346324Y0282082D01*
X0346738Y0283080D02*
X0315759Y0283080D01*
X0314806Y0284079D02*
X0347690Y0284079D01*
X0349253Y0285077D02*
X0313243Y0285077D01*
X0301253Y0285077D02*
X0232771Y0285077D01*
X0233518Y0284079D02*
X0299690Y0284079D01*
X0298738Y0283080D02*
X0233932Y0283080D01*
X0234345Y0282082D02*
X0298324Y0282082D01*
X0297948Y0281083D02*
X0234528Y0281083D01*
X0234528Y0280085D02*
X0297948Y0280085D01*
X0297948Y0279086D02*
X0234528Y0279086D01*
X0234341Y0278088D02*
X0298337Y0278088D01*
X0298750Y0277089D02*
X0233927Y0277089D01*
X0233513Y0276091D02*
X0299721Y0276091D01*
X0301327Y0275092D02*
X0232760Y0275092D01*
X0223237Y0273095D02*
X0202207Y0273095D01*
X0201209Y0272097D02*
X0432748Y0272097D01*
X0432748Y0271098D02*
X0128248Y0271098D01*
X0128248Y0270100D02*
X0432748Y0270100D01*
X0432748Y0269101D02*
X0128248Y0269101D01*
X0128248Y0268103D02*
X0432748Y0268103D01*
X0432748Y0267104D02*
X0128248Y0267104D01*
X0130376Y0272097D02*
X0147288Y0272097D01*
X0147384Y0272000D02*
X0148748Y0272000D01*
X0148748Y0276000D01*
X0144748Y0276000D01*
X0144748Y0274636D01*
X0147384Y0272000D01*
X0148748Y0272097D02*
X0149748Y0272097D01*
X0149748Y0272000D02*
X0151112Y0272000D01*
X0153748Y0274636D01*
X0153748Y0276000D01*
X0149748Y0276000D01*
X0149748Y0272000D01*
X0149748Y0273095D02*
X0148748Y0273095D01*
X0148748Y0274094D02*
X0149748Y0274094D01*
X0149748Y0275092D02*
X0148748Y0275092D01*
X0148748Y0276000D02*
X0149748Y0276000D01*
X0149748Y0277000D01*
X0148748Y0277000D01*
X0148748Y0276000D01*
X0148748Y0276091D02*
X0133748Y0276091D01*
X0133748Y0277089D02*
X0144748Y0277089D01*
X0144748Y0277000D02*
X0148748Y0277000D01*
X0148748Y0281000D01*
X0147384Y0281000D01*
X0144748Y0278364D01*
X0144748Y0277000D01*
X0144748Y0278088D02*
X0133461Y0278088D01*
X0133026Y0279086D02*
X0145470Y0279086D01*
X0146469Y0280085D02*
X0132027Y0280085D01*
X0131797Y0282685D02*
X0133063Y0283951D01*
X0133748Y0285605D01*
X0133748Y0287395D01*
X0133063Y0289049D01*
X0131797Y0290315D01*
X0130143Y0291000D01*
X0122353Y0291000D01*
X0120699Y0290315D01*
X0119433Y0289049D01*
X0118748Y0287395D01*
X0118748Y0285605D01*
X0119433Y0283951D01*
X0120699Y0282685D01*
X0122353Y0282000D01*
X0130143Y0282000D01*
X0131797Y0282685D01*
X0132192Y0283080D02*
X0146304Y0283080D01*
X0147302Y0282082D02*
X0130340Y0282082D01*
X0133116Y0284079D02*
X0145305Y0284079D01*
X0144748Y0284636D02*
X0147384Y0282000D01*
X0151112Y0282000D01*
X0153748Y0284636D01*
X0153748Y0288364D01*
X0151112Y0291000D01*
X0147384Y0291000D01*
X0144748Y0288364D01*
X0144748Y0284636D01*
X0144748Y0285077D02*
X0133529Y0285077D01*
X0133748Y0286076D02*
X0144748Y0286076D01*
X0144748Y0287074D02*
X0133748Y0287074D01*
X0133467Y0288073D02*
X0144748Y0288073D01*
X0145455Y0289071D02*
X0133041Y0289071D01*
X0132042Y0290070D02*
X0146454Y0290070D01*
X0152042Y0290070D02*
X0156454Y0290070D01*
X0157384Y0291000D02*
X0154748Y0288364D01*
X0154748Y0284636D01*
X0157384Y0282000D01*
X0161112Y0282000D01*
X0163748Y0284636D01*
X0163748Y0288364D01*
X0161112Y0291000D01*
X0157384Y0291000D01*
X0155455Y0289071D02*
X0153041Y0289071D01*
X0153748Y0288073D02*
X0154748Y0288073D01*
X0154748Y0287074D02*
X0153748Y0287074D01*
X0153748Y0286076D02*
X0154748Y0286076D01*
X0154748Y0285077D02*
X0153748Y0285077D01*
X0153191Y0284079D02*
X0155305Y0284079D01*
X0156304Y0283080D02*
X0152192Y0283080D01*
X0151194Y0282082D02*
X0157302Y0282082D01*
X0157384Y0281000D02*
X0154748Y0278364D01*
X0154748Y0277000D01*
X0158748Y0277000D01*
X0158748Y0276000D01*
X0154748Y0276000D01*
X0154748Y0274636D01*
X0157384Y0272000D01*
X0158748Y0272000D01*
X0158748Y0276000D01*
X0159748Y0276000D01*
X0159748Y0272000D01*
X0161112Y0272000D01*
X0163748Y0274636D01*
X0163748Y0276000D01*
X0159748Y0276000D01*
X0159748Y0277000D01*
X0158748Y0277000D01*
X0158748Y0281000D01*
X0157384Y0281000D01*
X0156469Y0280085D02*
X0152027Y0280085D01*
X0151112Y0281000D02*
X0149748Y0281000D01*
X0149748Y0277000D01*
X0153748Y0277000D01*
X0153748Y0278364D01*
X0151112Y0281000D01*
X0149748Y0280085D02*
X0148748Y0280085D01*
X0148748Y0279086D02*
X0149748Y0279086D01*
X0149748Y0278088D02*
X0148748Y0278088D01*
X0148748Y0277089D02*
X0149748Y0277089D01*
X0149748Y0276091D02*
X0158748Y0276091D01*
X0158748Y0277089D02*
X0159748Y0277089D01*
X0159748Y0277000D02*
X0159748Y0281000D01*
X0161112Y0281000D01*
X0163748Y0278364D01*
X0163748Y0277000D01*
X0159748Y0277000D01*
X0159748Y0276091D02*
X0168748Y0276091D01*
X0168748Y0276000D02*
X0164748Y0276000D01*
X0164748Y0274636D01*
X0167384Y0272000D01*
X0168748Y0272000D01*
X0168748Y0276000D01*
X0168748Y0277000D01*
X0164748Y0277000D01*
X0164748Y0278364D01*
X0167384Y0281000D01*
X0168748Y0281000D01*
X0168748Y0277000D01*
X0169748Y0277000D01*
X0169748Y0281000D01*
X0171112Y0281000D01*
X0173748Y0278364D01*
X0173748Y0277000D01*
X0169748Y0277000D01*
X0169748Y0276000D01*
X0169748Y0272000D01*
X0171112Y0272000D01*
X0173748Y0274636D01*
X0173748Y0276000D01*
X0169748Y0276000D01*
X0168748Y0276000D01*
X0168748Y0275092D02*
X0169748Y0275092D01*
X0169748Y0274094D02*
X0168748Y0274094D01*
X0168748Y0273095D02*
X0169748Y0273095D01*
X0169748Y0272097D02*
X0168748Y0272097D01*
X0167288Y0272097D02*
X0161209Y0272097D01*
X0162207Y0273095D02*
X0166289Y0273095D01*
X0165290Y0274094D02*
X0163206Y0274094D01*
X0163748Y0275092D02*
X0164748Y0275092D01*
X0164748Y0277089D02*
X0163748Y0277089D01*
X0163748Y0278088D02*
X0164748Y0278088D01*
X0165470Y0279086D02*
X0163026Y0279086D01*
X0162027Y0280085D02*
X0166469Y0280085D01*
X0167384Y0282000D02*
X0171112Y0282000D01*
X0173748Y0284636D01*
X0173748Y0288364D01*
X0171112Y0291000D01*
X0167384Y0291000D01*
X0164748Y0288364D01*
X0164748Y0284636D01*
X0167384Y0282000D01*
X0167302Y0282082D02*
X0161194Y0282082D01*
X0162192Y0283080D02*
X0166304Y0283080D01*
X0165305Y0284079D02*
X0163191Y0284079D01*
X0163748Y0285077D02*
X0164748Y0285077D01*
X0164748Y0286076D02*
X0163748Y0286076D01*
X0163748Y0287074D02*
X0164748Y0287074D01*
X0164748Y0288073D02*
X0163748Y0288073D01*
X0163041Y0289071D02*
X0165455Y0289071D01*
X0166454Y0290070D02*
X0162042Y0290070D01*
X0172042Y0290070D02*
X0176454Y0290070D01*
X0177384Y0291000D02*
X0174748Y0288364D01*
X0174748Y0284636D01*
X0177384Y0282000D01*
X0181112Y0282000D01*
X0183748Y0284636D01*
X0183748Y0288364D01*
X0181112Y0291000D01*
X0177384Y0291000D01*
X0175455Y0289071D02*
X0173041Y0289071D01*
X0173748Y0288073D02*
X0174748Y0288073D01*
X0174748Y0287074D02*
X0173748Y0287074D01*
X0173748Y0286076D02*
X0174748Y0286076D01*
X0174748Y0285077D02*
X0173748Y0285077D01*
X0173191Y0284079D02*
X0175305Y0284079D01*
X0176304Y0283080D02*
X0172192Y0283080D01*
X0171194Y0282082D02*
X0177302Y0282082D01*
X0177384Y0281000D02*
X0174748Y0278364D01*
X0174748Y0277000D01*
X0178748Y0277000D01*
X0178748Y0276000D01*
X0174748Y0276000D01*
X0174748Y0274636D01*
X0177384Y0272000D01*
X0178748Y0272000D01*
X0178748Y0276000D01*
X0179748Y0276000D01*
X0179748Y0272000D01*
X0181112Y0272000D01*
X0183748Y0274636D01*
X0183748Y0276000D01*
X0179748Y0276000D01*
X0179748Y0277000D01*
X0178748Y0277000D01*
X0178748Y0281000D01*
X0177384Y0281000D01*
X0176469Y0280085D02*
X0172027Y0280085D01*
X0173026Y0279086D02*
X0175470Y0279086D01*
X0174748Y0278088D02*
X0173748Y0278088D01*
X0173748Y0277089D02*
X0174748Y0277089D01*
X0174748Y0275092D02*
X0173748Y0275092D01*
X0173206Y0274094D02*
X0175290Y0274094D01*
X0176289Y0273095D02*
X0172207Y0273095D01*
X0171209Y0272097D02*
X0177287Y0272097D01*
X0178748Y0272097D02*
X0179748Y0272097D01*
X0179748Y0273095D02*
X0178748Y0273095D01*
X0178748Y0274094D02*
X0179748Y0274094D01*
X0179748Y0275092D02*
X0178748Y0275092D01*
X0178748Y0276091D02*
X0169748Y0276091D01*
X0169748Y0277089D02*
X0168748Y0277089D01*
X0168748Y0278088D02*
X0169748Y0278088D01*
X0169748Y0279086D02*
X0168748Y0279086D01*
X0168748Y0280085D02*
X0169748Y0280085D01*
X0159748Y0280085D02*
X0158748Y0280085D01*
X0158748Y0279086D02*
X0159748Y0279086D01*
X0159748Y0278088D02*
X0158748Y0278088D01*
X0158748Y0275092D02*
X0159748Y0275092D01*
X0159748Y0274094D02*
X0158748Y0274094D01*
X0158748Y0273095D02*
X0159748Y0273095D01*
X0159748Y0272097D02*
X0158748Y0272097D01*
X0157288Y0272097D02*
X0151209Y0272097D01*
X0152207Y0273095D02*
X0156289Y0273095D01*
X0155290Y0274094D02*
X0153206Y0274094D01*
X0153748Y0275092D02*
X0154748Y0275092D01*
X0154748Y0277089D02*
X0153748Y0277089D01*
X0153748Y0278088D02*
X0154748Y0278088D01*
X0155470Y0279086D02*
X0153026Y0279086D01*
X0146289Y0273095D02*
X0132207Y0273095D01*
X0133122Y0274094D02*
X0145290Y0274094D01*
X0144748Y0275092D02*
X0133536Y0275092D01*
X0122120Y0272097D02*
X0107376Y0272097D01*
X0109207Y0273095D02*
X0120289Y0273095D01*
X0119374Y0274094D02*
X0110122Y0274094D01*
X0110536Y0275092D02*
X0118960Y0275092D01*
X0118748Y0276091D02*
X0110748Y0276091D01*
X0110748Y0277089D02*
X0118748Y0277089D01*
X0119035Y0278088D02*
X0110461Y0278088D01*
X0110026Y0279086D02*
X0119470Y0279086D01*
X0120469Y0280085D02*
X0109027Y0280085D01*
X0108797Y0282685D02*
X0110063Y0283951D01*
X0110748Y0285605D01*
X0110748Y0287395D01*
X0110063Y0289049D01*
X0108797Y0290315D01*
X0107143Y0291000D01*
X0099353Y0291000D01*
X0097699Y0290315D01*
X0096433Y0289049D01*
X0095748Y0287395D01*
X0095748Y0285605D01*
X0096433Y0283951D01*
X0097699Y0282685D01*
X0099353Y0282000D01*
X0107143Y0282000D01*
X0108797Y0282685D01*
X0109192Y0283080D02*
X0120304Y0283080D01*
X0119380Y0284079D02*
X0110116Y0284079D01*
X0110529Y0285077D02*
X0118967Y0285077D01*
X0118748Y0286076D02*
X0110748Y0286076D01*
X0110748Y0287074D02*
X0118748Y0287074D01*
X0119029Y0288073D02*
X0110467Y0288073D01*
X0110041Y0289071D02*
X0119455Y0289071D01*
X0120454Y0290070D02*
X0109042Y0290070D01*
X0107340Y0282082D02*
X0122156Y0282082D01*
X0103248Y0276500D02*
X0102594Y0275846D01*
X0102594Y0261154D01*
X0104248Y0259500D01*
X0120248Y0259500D01*
X0118248Y0255500D02*
X0056248Y0255500D01*
X0042248Y0241500D01*
X0032248Y0241500D01*
X0031350Y0252126D02*
X0047046Y0252126D01*
X0048044Y0253125D02*
X0033237Y0253125D01*
X0034084Y0254123D02*
X0049043Y0254123D01*
X0050041Y0255122D02*
X0034532Y0255122D01*
X0034706Y0257119D02*
X0052039Y0257119D01*
X0053037Y0258117D02*
X0034454Y0258117D01*
X0033910Y0259116D02*
X0054036Y0259116D01*
X0051040Y0256120D02*
X0027748Y0256120D01*
X0027748Y0255122D02*
X0026748Y0255122D01*
X0026748Y0254123D02*
X0027748Y0254123D01*
X0027748Y0253125D02*
X0026748Y0253125D01*
X0026748Y0252126D02*
X0027748Y0252126D01*
X0032929Y0260114D02*
X0100805Y0260114D01*
X0099156Y0282082D02*
X0042972Y0282082D01*
X0041973Y0283080D02*
X0097304Y0283080D01*
X0096380Y0284079D02*
X0040442Y0284079D01*
X0033424Y0284079D02*
X0002748Y0284079D01*
X0002748Y0283080D02*
X0031893Y0283080D01*
X0030894Y0282082D02*
X0002748Y0282082D01*
X0002748Y0281083D02*
X0030145Y0281083D01*
X0029731Y0280085D02*
X0002748Y0280085D01*
X0002748Y0279086D02*
X0029318Y0279086D01*
X0029134Y0278088D02*
X0002748Y0278088D01*
X0002748Y0277089D02*
X0029134Y0277089D01*
X0029134Y0276091D02*
X0002748Y0276091D01*
X0002748Y0275092D02*
X0029319Y0275092D01*
X0029733Y0274094D02*
X0002748Y0274094D01*
X0002748Y0273095D02*
X0030146Y0273095D01*
X0030897Y0272097D02*
X0002748Y0272097D01*
X0002748Y0271098D02*
X0031896Y0271098D01*
X0033431Y0270100D02*
X0002748Y0270100D01*
X0002818Y0285077D02*
X0095967Y0285077D01*
X0095748Y0286076D02*
X0003047Y0286076D01*
X0003461Y0287074D02*
X0095748Y0287074D01*
X0096029Y0288073D02*
X0003887Y0288073D01*
X0004885Y0289071D02*
X0096455Y0289071D01*
X0097454Y0290070D02*
X0006149Y0290070D01*
X0128248Y0227164D02*
X0353941Y0227164D01*
X0377242Y0208192D02*
X0432748Y0208192D01*
X0432748Y0209190D02*
X0378241Y0209190D01*
X0379239Y0210189D02*
X0432748Y0210189D01*
X0432748Y0211187D02*
X0380238Y0211187D01*
X0381236Y0212186D02*
X0432748Y0212186D01*
X0432748Y0213184D02*
X0382235Y0213184D01*
X0383233Y0214183D02*
X0432748Y0214183D01*
X0432748Y0215181D02*
X0397428Y0215181D01*
X0401338Y0216180D02*
X0432748Y0216180D01*
X0432748Y0217178D02*
X0402833Y0217178D01*
X0403696Y0218177D02*
X0432748Y0218177D01*
X0432748Y0219175D02*
X0404110Y0219175D01*
X0404365Y0220174D02*
X0432748Y0220174D01*
X0432748Y0221172D02*
X0404365Y0221172D01*
X0404208Y0222171D02*
X0432748Y0222171D01*
X0432748Y0223170D02*
X0403794Y0223170D01*
X0403070Y0224168D02*
X0432748Y0224168D01*
X0432748Y0225167D02*
X0401908Y0225167D01*
X0398010Y0226165D02*
X0432748Y0226165D01*
X0432748Y0207193D02*
X0376244Y0207193D01*
X0376692Y0206195D02*
X0375245Y0206195D01*
X0375442Y0205196D02*
X0374247Y0205196D01*
X0381862Y0195211D02*
X0432748Y0195211D01*
X0432748Y0194213D02*
X0380863Y0194213D01*
X0379865Y0193214D02*
X0432748Y0193214D01*
X0432748Y0192216D02*
X0378866Y0192216D01*
X0377868Y0191217D02*
X0432748Y0191217D01*
X0432748Y0190219D02*
X0376869Y0190219D01*
X0375871Y0189220D02*
X0432748Y0189220D01*
X0432748Y0188222D02*
X0374872Y0188222D01*
X0373874Y0187223D02*
X0432748Y0187223D01*
X0432748Y0186225D02*
X0400875Y0186225D01*
X0402642Y0185226D02*
X0432748Y0185226D01*
X0432748Y0184228D02*
X0403617Y0184228D01*
X0404030Y0183229D02*
X0432748Y0183229D01*
X0432748Y0182231D02*
X0404365Y0182231D01*
X0404365Y0181232D02*
X0432748Y0181232D01*
X0432748Y0180234D02*
X0404287Y0180234D01*
X0403873Y0179235D02*
X0432748Y0179235D01*
X0432748Y0178237D02*
X0403262Y0178237D01*
X0402263Y0177238D02*
X0432748Y0177238D01*
X0432748Y0176239D02*
X0398461Y0176239D01*
X0385591Y0175241D02*
X0432748Y0175241D01*
X0432748Y0174242D02*
X0384593Y0174242D01*
X0383594Y0173244D02*
X0432748Y0173244D01*
X0432748Y0172245D02*
X0382596Y0172245D01*
X0381597Y0171247D02*
X0432748Y0171247D01*
X0432748Y0170248D02*
X0380599Y0170248D01*
X0379600Y0169250D02*
X0432748Y0169250D01*
X0432748Y0196210D02*
X0400649Y0196210D01*
X0402548Y0197208D02*
X0432748Y0197208D01*
X0432748Y0198207D02*
X0403547Y0198207D01*
X0403992Y0199205D02*
X0432748Y0199205D01*
X0432748Y0200204D02*
X0404365Y0200204D01*
X0404365Y0201202D02*
X0432748Y0201202D01*
X0432748Y0202201D02*
X0404326Y0202201D01*
X0403912Y0203199D02*
X0432748Y0203199D01*
X0432748Y0204198D02*
X0403355Y0204198D01*
X0402356Y0205196D02*
X0432748Y0205196D01*
X0432748Y0206195D02*
X0398686Y0206195D01*
X0380170Y0186225D02*
X0372875Y0186225D01*
X0371877Y0185226D02*
X0379172Y0185226D01*
X0378173Y0184228D02*
X0370878Y0184228D01*
X0369880Y0183229D02*
X0377175Y0183229D01*
X0376176Y0182231D02*
X0368881Y0182231D01*
X0367386Y0181232D02*
X0375178Y0181232D01*
X0359201Y0098356D02*
X0357233Y0098356D01*
X0383380Y0048430D02*
X0390678Y0048430D01*
X0388910Y0047432D02*
X0382382Y0047432D01*
X0381383Y0046433D02*
X0387935Y0046433D01*
X0387521Y0045434D02*
X0381048Y0045434D01*
X0381048Y0044436D02*
X0387186Y0044436D01*
X0387186Y0043437D02*
X0381048Y0043437D01*
X0381048Y0042439D02*
X0387264Y0042439D01*
X0387677Y0041440D02*
X0381048Y0041440D01*
X0381048Y0040442D02*
X0388289Y0040442D01*
X0389287Y0039443D02*
X0381048Y0039443D01*
X0397572Y0029458D02*
X0432748Y0029458D01*
X0432748Y0028460D02*
X0401483Y0028460D01*
X0402847Y0027461D02*
X0432748Y0027461D01*
X0432748Y0026463D02*
X0403656Y0026463D01*
X0404069Y0025464D02*
X0432748Y0025464D01*
X0432748Y0024466D02*
X0404286Y0024466D01*
X0404286Y0023467D02*
X0432748Y0023467D01*
X0432748Y0022469D02*
X0404090Y0022469D01*
X0403677Y0021470D02*
X0432748Y0021470D01*
X0432748Y0020472D02*
X0402898Y0020472D01*
X0402048Y0019473D02*
X0432748Y0019473D01*
X0432748Y0018475D02*
X0402048Y0018475D01*
X0402048Y0017476D02*
X0432748Y0017476D01*
X0432748Y0016478D02*
X0402048Y0016478D01*
X0402048Y0015479D02*
X0432748Y0015479D01*
X0432748Y0014481D02*
X0401689Y0014481D01*
X0401276Y0013482D02*
X0432748Y0013482D01*
X0432748Y0012484D02*
X0400434Y0012484D01*
X0399436Y0011485D02*
X0432748Y0011485D01*
X0432748Y0010487D02*
X0398437Y0010487D01*
X0397439Y0009488D02*
X0432748Y0009488D01*
X0432704Y0008490D02*
X0396440Y0008490D01*
X0395442Y0007491D02*
X0432474Y0007491D01*
X0432150Y0006493D02*
X0394443Y0006493D01*
X0393445Y0005494D02*
X0431500Y0005494D01*
X0430595Y0004496D02*
X0392446Y0004496D01*
X0391326Y0003497D02*
X0428944Y0003497D01*
X0196415Y0089369D02*
X0140081Y0089369D01*
X0141469Y0090368D02*
X0195027Y0090368D01*
X0194028Y0091366D02*
X0142468Y0091366D01*
X0142992Y0092365D02*
X0193504Y0092365D01*
X0193091Y0093363D02*
X0143406Y0093363D01*
X0143448Y0094362D02*
X0193048Y0094362D01*
X0193048Y0095360D02*
X0143448Y0095360D01*
X0143107Y0096359D02*
X0193389Y0096359D01*
X0193803Y0097357D02*
X0142693Y0097357D01*
X0141746Y0098356D02*
X0194750Y0098356D01*
X0194765Y0088370D02*
X0141731Y0088370D01*
X0142687Y0087372D02*
X0193809Y0087372D01*
X0193396Y0086373D02*
X0143100Y0086373D01*
X0143448Y0085375D02*
X0193048Y0085375D01*
X0138248Y0084500D02*
X0130248Y0076500D01*
X0056248Y0076500D01*
X0049248Y0083500D01*
X0049248Y0098500D01*
X0046248Y0101500D01*
X0039217Y0101500D01*
X0038957Y0101240D01*
X0034086Y0096359D02*
X0002748Y0096359D01*
X0002748Y0097357D02*
X0032208Y0097357D01*
X0031210Y0098356D02*
X0002748Y0098356D01*
X0002748Y0099354D02*
X0030774Y0099354D01*
X0030407Y0100353D02*
X0002748Y0100353D01*
X0002748Y0101351D02*
X0030407Y0101351D01*
X0030452Y0102350D02*
X0002748Y0102350D01*
X0002748Y0103348D02*
X0030866Y0103348D01*
X0031432Y0104347D02*
X0002748Y0104347D01*
X0002748Y0105345D02*
X0032430Y0105345D01*
X0033397Y0116329D02*
X0002748Y0116329D01*
X0002748Y0117327D02*
X0031923Y0117327D01*
X0031069Y0118326D02*
X0002748Y0118326D01*
X0002748Y0119324D02*
X0030656Y0119324D01*
X0030407Y0120323D02*
X0002748Y0120323D01*
X0002748Y0121321D02*
X0030407Y0121321D01*
X0030570Y0122320D02*
X0002748Y0122320D01*
X0002748Y0123318D02*
X0030984Y0123318D01*
X0031717Y0124317D02*
X0002748Y0124317D01*
X0002748Y0125315D02*
X0032900Y0125315D01*
X0038957Y0120925D02*
X0039382Y0120500D01*
X0049248Y0120500D01*
X0051248Y0118500D01*
X0051248Y0084500D01*
X0057248Y0078500D01*
X0129248Y0078500D01*
X0132248Y0081500D01*
X0132248Y0088500D01*
X0138248Y0094500D01*
X0132286Y0091366D02*
X0053248Y0091366D01*
X0053248Y0090368D02*
X0064868Y0090368D01*
X0064757Y0090321D02*
X0063555Y0089120D01*
X0062905Y0087550D01*
X0062905Y0085850D01*
X0063555Y0084280D01*
X0064757Y0083079D01*
X0066327Y0082428D01*
X0073569Y0082428D01*
X0075139Y0083079D01*
X0076341Y0084280D01*
X0076991Y0085850D01*
X0076991Y0087550D01*
X0076341Y0089120D01*
X0075139Y0090321D01*
X0073569Y0090972D01*
X0066327Y0090972D01*
X0064757Y0090321D01*
X0063804Y0089369D02*
X0053248Y0089369D01*
X0053248Y0088370D02*
X0063245Y0088370D01*
X0062905Y0087372D02*
X0053248Y0087372D01*
X0053248Y0086373D02*
X0062905Y0086373D01*
X0063102Y0085375D02*
X0053248Y0085375D01*
X0054200Y0084376D02*
X0063515Y0084376D01*
X0064457Y0083378D02*
X0055199Y0083378D01*
X0056197Y0082379D02*
X0130248Y0082379D01*
X0130248Y0083378D02*
X0102439Y0083378D01*
X0102139Y0083079D02*
X0103341Y0084280D01*
X0103991Y0085850D01*
X0103991Y0087550D01*
X0103341Y0089120D01*
X0102139Y0090321D01*
X0100569Y0090972D01*
X0093327Y0090972D01*
X0091757Y0090321D01*
X0090555Y0089120D01*
X0089905Y0087550D01*
X0089905Y0085850D01*
X0090555Y0084280D01*
X0091757Y0083079D01*
X0093327Y0082428D01*
X0100569Y0082428D01*
X0102139Y0083079D01*
X0103381Y0084376D02*
X0130248Y0084376D01*
X0130248Y0085375D02*
X0103794Y0085375D01*
X0103991Y0086373D02*
X0130248Y0086373D01*
X0130248Y0087372D02*
X0103991Y0087372D01*
X0103651Y0088370D02*
X0130248Y0088370D01*
X0130289Y0089369D02*
X0103092Y0089369D01*
X0102028Y0090368D02*
X0131287Y0090368D01*
X0129301Y0081381D02*
X0057196Y0081381D01*
X0055248Y0074500D02*
X0048248Y0081500D01*
X0039012Y0081500D01*
X0038957Y0081555D01*
X0033933Y0086373D02*
X0002748Y0086373D01*
X0002748Y0085375D02*
X0032145Y0085375D01*
X0031161Y0084376D02*
X0002748Y0084376D01*
X0002748Y0083378D02*
X0030748Y0083378D01*
X0030407Y0082379D02*
X0002748Y0082379D01*
X0002748Y0081381D02*
X0030407Y0081381D01*
X0030478Y0080382D02*
X0002748Y0080382D01*
X0002748Y0079384D02*
X0030892Y0079384D01*
X0031495Y0078385D02*
X0002748Y0078385D01*
X0002748Y0077387D02*
X0032494Y0077387D01*
X0033245Y0066403D02*
X0002748Y0066403D01*
X0002748Y0065405D02*
X0031860Y0065405D01*
X0031043Y0064406D02*
X0002748Y0064406D01*
X0002748Y0063408D02*
X0030630Y0063408D01*
X0030407Y0062409D02*
X0002748Y0062409D01*
X0002748Y0061411D02*
X0030407Y0061411D01*
X0030597Y0060412D02*
X0002748Y0060412D01*
X0002748Y0059414D02*
X0031010Y0059414D01*
X0031780Y0058415D02*
X0002748Y0058415D01*
X0002748Y0057417D02*
X0033052Y0057417D01*
X0038957Y0061870D02*
X0045618Y0061870D01*
X0056248Y0072500D01*
X0130248Y0072500D01*
X0138248Y0064500D01*
X0133408Y0066403D02*
X0052980Y0066403D01*
X0053978Y0067402D02*
X0132518Y0067402D01*
X0131519Y0068400D02*
X0054977Y0068400D01*
X0055975Y0069399D02*
X0130521Y0069399D01*
X0129522Y0070397D02*
X0056974Y0070397D01*
X0053314Y0072394D02*
X0002748Y0072394D01*
X0002748Y0071396D02*
X0052315Y0071396D01*
X0051317Y0070397D02*
X0002748Y0070397D01*
X0002748Y0069399D02*
X0050318Y0069399D01*
X0049320Y0068400D02*
X0002748Y0068400D01*
X0002748Y0067402D02*
X0048321Y0067402D01*
X0047323Y0066403D02*
X0044669Y0066403D01*
X0046053Y0065405D02*
X0046324Y0065405D01*
X0048986Y0062409D02*
X0133486Y0062409D01*
X0133072Y0063408D02*
X0049984Y0063408D01*
X0050983Y0064406D02*
X0133048Y0064406D01*
X0133048Y0065405D02*
X0051981Y0065405D01*
X0047987Y0061411D02*
X0133983Y0061411D01*
X0134982Y0060412D02*
X0047317Y0060412D01*
X0046903Y0059414D02*
X0136522Y0059414D01*
X0134809Y0058415D02*
X0046133Y0058415D01*
X0044861Y0057417D02*
X0133828Y0057417D01*
X0133414Y0056418D02*
X0002748Y0056418D01*
X0002748Y0055420D02*
X0133048Y0055420D01*
X0133048Y0054421D02*
X0002748Y0054421D01*
X0002748Y0053423D02*
X0133066Y0053423D01*
X0138248Y0074500D02*
X0055248Y0074500D01*
X0053527Y0073393D02*
X0002748Y0073393D01*
X0002748Y0074391D02*
X0052528Y0074391D01*
X0051530Y0075390D02*
X0002748Y0075390D01*
X0002748Y0076388D02*
X0050531Y0076388D01*
X0049533Y0077387D02*
X0045420Y0077387D01*
X0046418Y0078385D02*
X0048534Y0078385D01*
X0047536Y0079384D02*
X0047021Y0079384D01*
X0047248Y0084376D02*
X0046752Y0084376D01*
X0047248Y0085375D02*
X0045768Y0085375D01*
X0047248Y0086373D02*
X0043980Y0086373D01*
X0047248Y0087372D02*
X0002748Y0087372D01*
X0002748Y0088370D02*
X0047248Y0088370D01*
X0047248Y0089369D02*
X0002748Y0089369D01*
X0002748Y0090368D02*
X0047248Y0090368D01*
X0047248Y0091366D02*
X0002748Y0091366D01*
X0002748Y0092365D02*
X0047248Y0092365D01*
X0047248Y0093363D02*
X0002748Y0093363D01*
X0002748Y0094362D02*
X0047248Y0094362D01*
X0047248Y0095360D02*
X0002748Y0095360D01*
X0002748Y0106344D02*
X0049248Y0106344D01*
X0049248Y0107342D02*
X0002748Y0107342D01*
X0002748Y0108341D02*
X0049248Y0108341D01*
X0049248Y0109339D02*
X0002748Y0109339D01*
X0002748Y0110338D02*
X0049248Y0110338D01*
X0049248Y0111336D02*
X0002748Y0111336D01*
X0002748Y0112335D02*
X0049248Y0112335D01*
X0049248Y0113333D02*
X0002748Y0113333D01*
X0002748Y0114332D02*
X0049248Y0114332D01*
X0049248Y0115330D02*
X0002748Y0115330D01*
X0044516Y0116329D02*
X0049248Y0116329D01*
X0049248Y0117327D02*
X0045990Y0117327D01*
X0046844Y0118326D02*
X0048594Y0118326D01*
X0053248Y0117327D02*
X0119248Y0117327D01*
X0119248Y0116329D02*
X0053248Y0116329D01*
X0053248Y0115330D02*
X0119248Y0115330D01*
X0119248Y0114332D02*
X0053248Y0114332D01*
X0053248Y0113333D02*
X0119248Y0113333D01*
X0119248Y0112335D02*
X0053248Y0112335D01*
X0053248Y0111336D02*
X0119583Y0111336D01*
X0120420Y0110500D02*
X0120420Y0110500D01*
X0120582Y0110338D02*
X0053248Y0110338D01*
X0053248Y0109339D02*
X0121580Y0109339D01*
X0122579Y0108341D02*
X0053248Y0108341D01*
X0049248Y0105345D02*
X0045483Y0105345D01*
X0046482Y0104347D02*
X0049248Y0104347D01*
X0049248Y0103348D02*
X0047228Y0103348D01*
X0048227Y0102350D02*
X0049248Y0102350D01*
X0049225Y0101351D02*
X0049248Y0101351D01*
X0047248Y0097357D02*
X0045705Y0097357D01*
X0047248Y0096359D02*
X0043827Y0096359D01*
X0075064Y0100353D02*
X0091832Y0100353D01*
X0090789Y0099354D02*
X0076107Y0099354D01*
X0076658Y0098356D02*
X0090239Y0098356D01*
X0089905Y0097357D02*
X0076991Y0097357D01*
X0076991Y0096359D02*
X0089905Y0096359D01*
X0090108Y0095360D02*
X0076788Y0095360D01*
X0076375Y0094362D02*
X0090521Y0094362D01*
X0091472Y0093363D02*
X0075424Y0093363D01*
X0075028Y0090368D02*
X0091868Y0090368D01*
X0090804Y0089369D02*
X0076092Y0089369D01*
X0076651Y0088370D02*
X0090245Y0088370D01*
X0089905Y0087372D02*
X0076991Y0087372D01*
X0076991Y0086373D02*
X0089905Y0086373D01*
X0090102Y0085375D02*
X0076794Y0085375D01*
X0076381Y0084376D02*
X0090515Y0084376D01*
X0091457Y0083378D02*
X0075439Y0083378D01*
X0129248Y0145286D02*
X0133048Y0145286D01*
X0133248Y0149500D02*
X0138248Y0154500D01*
X0133248Y0149500D02*
X0131248Y0149500D01*
X0127248Y0153500D01*
X0127248Y0207500D01*
X0123248Y0205196D02*
X0122380Y0205196D01*
X0119248Y0164257D02*
X0045626Y0164257D01*
X0046625Y0163259D02*
X0119248Y0163259D01*
X0119248Y0162260D02*
X0047107Y0162260D01*
X0047507Y0161262D02*
X0119248Y0161262D01*
X0119248Y0160263D02*
X0047507Y0160263D01*
X0047494Y0159265D02*
X0119248Y0159265D01*
X0119248Y0158266D02*
X0047080Y0158266D01*
X0046561Y0157268D02*
X0119248Y0157268D01*
X0119248Y0156269D02*
X0045562Y0156269D01*
X0043482Y0155271D02*
X0119248Y0155271D01*
X0148248Y0155271D02*
X0193048Y0155271D01*
X0193048Y0154272D02*
X0148248Y0154272D01*
X0148248Y0153274D02*
X0193128Y0153274D01*
X0193541Y0152275D02*
X0148248Y0152275D01*
X0148248Y0151277D02*
X0194117Y0151277D01*
X0195116Y0150278D02*
X0148248Y0150278D01*
X0148248Y0149280D02*
X0196175Y0149280D01*
X0194675Y0148281D02*
X0148248Y0148281D01*
X0148248Y0147283D02*
X0193842Y0147283D01*
X0193352Y0156269D02*
X0148248Y0156269D01*
X0148248Y0157268D02*
X0193766Y0157268D01*
X0194660Y0158266D02*
X0148248Y0158266D01*
X0181209Y0272097D02*
X0187287Y0272097D01*
X0186289Y0273095D02*
X0182207Y0273095D01*
X0183206Y0274094D02*
X0185290Y0274094D01*
X0184748Y0275092D02*
X0183748Y0275092D01*
X0183748Y0277000D02*
X0179748Y0277000D01*
X0179748Y0281000D01*
X0181112Y0281000D01*
X0183748Y0278364D01*
X0183748Y0277000D01*
X0183748Y0277089D02*
X0184748Y0277089D01*
X0184748Y0277000D02*
X0188748Y0277000D01*
X0188748Y0281000D01*
X0187384Y0281000D01*
X0184748Y0278364D01*
X0184748Y0277000D01*
X0184748Y0278088D02*
X0183748Y0278088D01*
X0183026Y0279086D02*
X0185470Y0279086D01*
X0186469Y0280085D02*
X0182027Y0280085D01*
X0181194Y0282082D02*
X0187302Y0282082D01*
X0186304Y0283080D02*
X0182192Y0283080D01*
X0183191Y0284079D02*
X0185305Y0284079D01*
X0184748Y0285077D02*
X0183748Y0285077D01*
X0183748Y0286076D02*
X0184748Y0286076D01*
X0184748Y0287074D02*
X0183748Y0287074D01*
X0183748Y0288073D02*
X0184748Y0288073D01*
X0185455Y0289071D02*
X0183041Y0289071D01*
X0182042Y0290070D02*
X0186454Y0290070D01*
X0188748Y0280085D02*
X0189748Y0280085D01*
X0189748Y0279086D02*
X0188748Y0279086D01*
X0188748Y0278088D02*
X0189748Y0278088D01*
X0189748Y0277089D02*
X0188748Y0277089D01*
X0188748Y0276091D02*
X0179748Y0276091D01*
X0179748Y0277089D02*
X0178748Y0277089D01*
X0178748Y0278088D02*
X0179748Y0278088D01*
X0179748Y0279086D02*
X0178748Y0279086D01*
X0178748Y0280085D02*
X0179748Y0280085D01*
X0198748Y0280085D02*
X0199748Y0280085D01*
X0199748Y0279086D02*
X0198748Y0279086D01*
X0198748Y0278088D02*
X0199748Y0278088D01*
X0199748Y0275092D02*
X0198748Y0275092D01*
X0198748Y0274094D02*
X0199748Y0274094D01*
X0199748Y0273095D02*
X0198748Y0273095D01*
X0198748Y0272097D02*
X0199748Y0272097D01*
X0203206Y0274094D02*
X0221696Y0274094D01*
X0219525Y0283080D02*
X0202192Y0283080D01*
X0203191Y0284079D02*
X0219938Y0284079D01*
X0220685Y0285077D02*
X0203748Y0285077D01*
X0203748Y0286076D02*
X0221684Y0286076D01*
X0223208Y0287074D02*
X0203748Y0287074D01*
D23*
X0298948Y0256500D02*
X0378048Y0256500D01*
X0381748Y0260200D01*
X0395776Y0260200D01*
X0395815Y0260161D01*
X0395791Y0240500D02*
X0376748Y0240500D01*
X0369148Y0232900D01*
X0355248Y0232900D01*
X0370948Y0210100D02*
X0381648Y0220800D01*
X0395806Y0220800D01*
X0395815Y0220791D01*
X0370948Y0210100D02*
X0355248Y0210100D01*
X0364948Y0186500D02*
X0379548Y0201100D01*
X0395809Y0201100D01*
X0395815Y0201106D01*
X0395815Y0181421D02*
X0383569Y0181421D01*
X0365048Y0162900D01*
X0355248Y0162900D01*
X0355248Y0140100D02*
X0367848Y0140100D01*
X0389484Y0161736D01*
X0395815Y0161736D01*
X0395815Y0141500D02*
X0393248Y0141500D01*
X0368248Y0116500D01*
X0298948Y0116500D01*
X0355248Y0092900D02*
X0355648Y0092500D01*
X0361548Y0092500D01*
X0391414Y0122366D01*
X0395815Y0122366D01*
X0395815Y0102681D02*
X0393429Y0102681D01*
X0360848Y0070100D01*
X0355248Y0070100D01*
X0375248Y0048500D02*
X0375248Y0031800D01*
X0366348Y0022900D01*
X0355248Y0022900D01*
X0355248Y0046500D02*
X0298948Y0046500D01*
X0355248Y0046500D02*
X0391744Y0082996D01*
X0395815Y0082996D01*
X0395815Y0063311D02*
X0390059Y0063311D01*
X0375248Y0048500D01*
X0395736Y0023941D02*
X0396248Y0023429D01*
X0396248Y0016500D01*
X0388248Y0008500D01*
X0122248Y0008500D01*
X0104248Y0026500D01*
X0097148Y0026500D01*
X0096948Y0026700D01*
X0069948Y0026700D02*
X0065748Y0022500D01*
X0038878Y0022500D01*
X0038878Y0042185D02*
X0065433Y0042185D01*
X0069948Y0046700D01*
X0298948Y0186500D02*
X0364948Y0186500D01*
X0395815Y0240476D02*
X0395791Y0240500D01*
X0395815Y0279846D02*
X0355502Y0279846D01*
X0355248Y0280100D01*
D24*
X0253248Y0124500D02*
X0198248Y0124500D01*
X0253248Y0124500D02*
X0272248Y0105500D01*
X0279248Y0105500D01*
M02*
